%TF.GenerationSoftware,KiCad,Pcbnew,8.0.1*%
%TF.CreationDate,2024-06-25T00:34:50+02:00*%
%TF.ProjectId,Lichtstab,4c696368-7473-4746-9162-2e6b69636164,rev?*%
%TF.SameCoordinates,Original*%
%TF.FileFunction,Legend,Bot*%
%TF.FilePolarity,Positive*%
%FSLAX46Y46*%
G04 Gerber Fmt 4.6, Leading zero omitted, Abs format (unit mm)*
G04 Created by KiCad (PCBNEW 8.0.1) date 2024-06-25 00:34:50*
%MOMM*%
%LPD*%
G01*
G04 APERTURE LIST*
G04 Aperture macros list*
%AMFreePoly0*
4,1,6,1.000000,0.000000,0.500000,-0.750000,-0.500000,-0.750000,-0.500000,0.750000,0.500000,0.750000,1.000000,0.000000,1.000000,0.000000,$1*%
%AMFreePoly1*
4,1,6,0.500000,-0.750000,-0.650000,-0.750000,-0.150000,0.000000,-0.650000,0.750000,0.500000,0.750000,0.500000,-0.750000,0.500000,-0.750000,$1*%
G04 Aperture macros list end*
%ADD10C,0.080000*%
%ADD11C,0.152400*%
%ADD12C,0.127000*%
%ADD13C,0.120000*%
%ADD14R,1.524000X1.524000*%
%ADD15C,1.524000*%
%ADD16R,1.676400X1.676400*%
%ADD17C,2.000000*%
%ADD18C,1.700000*%
%ADD19C,2.500000*%
%ADD20O,1.800000X1.000000*%
%ADD21O,2.100000X1.000000*%
%ADD22FreePoly0,90.000000*%
%ADD23FreePoly1,90.000000*%
G04 APERTURE END LIST*
D10*
X151105009Y-52947935D02*
X151105009Y-52147935D01*
X150571676Y-52147935D02*
X150419295Y-52147935D01*
X150419295Y-52147935D02*
X150343105Y-52186030D01*
X150343105Y-52186030D02*
X150266914Y-52262220D01*
X150266914Y-52262220D02*
X150228819Y-52414601D01*
X150228819Y-52414601D02*
X150228819Y-52681268D01*
X150228819Y-52681268D02*
X150266914Y-52833649D01*
X150266914Y-52833649D02*
X150343105Y-52909840D01*
X150343105Y-52909840D02*
X150419295Y-52947935D01*
X150419295Y-52947935D02*
X150571676Y-52947935D01*
X150571676Y-52947935D02*
X150647867Y-52909840D01*
X150647867Y-52909840D02*
X150724057Y-52833649D01*
X150724057Y-52833649D02*
X150762153Y-52681268D01*
X150762153Y-52681268D02*
X150762153Y-52414601D01*
X150762153Y-52414601D02*
X150724057Y-52262220D01*
X150724057Y-52262220D02*
X150647867Y-52186030D01*
X150647867Y-52186030D02*
X150571676Y-52147935D01*
X149962153Y-52147935D02*
X149466915Y-52147935D01*
X149466915Y-52147935D02*
X149733581Y-52452697D01*
X149733581Y-52452697D02*
X149619296Y-52452697D01*
X149619296Y-52452697D02*
X149543105Y-52490792D01*
X149543105Y-52490792D02*
X149505010Y-52528887D01*
X149505010Y-52528887D02*
X149466915Y-52605078D01*
X149466915Y-52605078D02*
X149466915Y-52795554D01*
X149466915Y-52795554D02*
X149505010Y-52871744D01*
X149505010Y-52871744D02*
X149543105Y-52909840D01*
X149543105Y-52909840D02*
X149619296Y-52947935D01*
X149619296Y-52947935D02*
X149847867Y-52947935D01*
X149847867Y-52947935D02*
X149924058Y-52909840D01*
X149924058Y-52909840D02*
X149962153Y-52871744D01*
X149085962Y-52947935D02*
X148933581Y-52947935D01*
X148933581Y-52947935D02*
X148857391Y-52909840D01*
X148857391Y-52909840D02*
X148819295Y-52871744D01*
X148819295Y-52871744D02*
X148743105Y-52757459D01*
X148743105Y-52757459D02*
X148705010Y-52605078D01*
X148705010Y-52605078D02*
X148705010Y-52300316D01*
X148705010Y-52300316D02*
X148743105Y-52224125D01*
X148743105Y-52224125D02*
X148781200Y-52186030D01*
X148781200Y-52186030D02*
X148857391Y-52147935D01*
X148857391Y-52147935D02*
X149009772Y-52147935D01*
X149009772Y-52147935D02*
X149085962Y-52186030D01*
X149085962Y-52186030D02*
X149124057Y-52224125D01*
X149124057Y-52224125D02*
X149162153Y-52300316D01*
X149162153Y-52300316D02*
X149162153Y-52490792D01*
X149162153Y-52490792D02*
X149124057Y-52566982D01*
X149124057Y-52566982D02*
X149085962Y-52605078D01*
X149085962Y-52605078D02*
X149009772Y-52643173D01*
X149009772Y-52643173D02*
X148857391Y-52643173D01*
X148857391Y-52643173D02*
X148781200Y-52605078D01*
X148781200Y-52605078D02*
X148743105Y-52566982D01*
X148743105Y-52566982D02*
X148705010Y-52490792D01*
X147366914Y-62647935D02*
X147633581Y-62266982D01*
X147824057Y-62647935D02*
X147824057Y-61847935D01*
X147824057Y-61847935D02*
X147519295Y-61847935D01*
X147519295Y-61847935D02*
X147443105Y-61886030D01*
X147443105Y-61886030D02*
X147405010Y-61924125D01*
X147405010Y-61924125D02*
X147366914Y-62000316D01*
X147366914Y-62000316D02*
X147366914Y-62114601D01*
X147366914Y-62114601D02*
X147405010Y-62190792D01*
X147405010Y-62190792D02*
X147443105Y-62228887D01*
X147443105Y-62228887D02*
X147519295Y-62266982D01*
X147519295Y-62266982D02*
X147824057Y-62266982D01*
X147100248Y-61847935D02*
X146566914Y-62647935D01*
X146566914Y-61847935D02*
X147100248Y-62647935D01*
X142681200Y-61886030D02*
X142757390Y-61847935D01*
X142757390Y-61847935D02*
X142871676Y-61847935D01*
X142871676Y-61847935D02*
X142985962Y-61886030D01*
X142985962Y-61886030D02*
X143062152Y-61962220D01*
X143062152Y-61962220D02*
X143100247Y-62038411D01*
X143100247Y-62038411D02*
X143138343Y-62190792D01*
X143138343Y-62190792D02*
X143138343Y-62305078D01*
X143138343Y-62305078D02*
X143100247Y-62457459D01*
X143100247Y-62457459D02*
X143062152Y-62533649D01*
X143062152Y-62533649D02*
X142985962Y-62609840D01*
X142985962Y-62609840D02*
X142871676Y-62647935D01*
X142871676Y-62647935D02*
X142795485Y-62647935D01*
X142795485Y-62647935D02*
X142681200Y-62609840D01*
X142681200Y-62609840D02*
X142643104Y-62571744D01*
X142643104Y-62571744D02*
X142643104Y-62305078D01*
X142643104Y-62305078D02*
X142795485Y-62305078D01*
X142300247Y-62647935D02*
X142300247Y-61847935D01*
X142300247Y-61847935D02*
X141843104Y-62647935D01*
X141843104Y-62647935D02*
X141843104Y-61847935D01*
X141462152Y-62647935D02*
X141462152Y-61847935D01*
X141462152Y-61847935D02*
X141271676Y-61847935D01*
X141271676Y-61847935D02*
X141157390Y-61886030D01*
X141157390Y-61886030D02*
X141081200Y-61962220D01*
X141081200Y-61962220D02*
X141043105Y-62038411D01*
X141043105Y-62038411D02*
X141005009Y-62190792D01*
X141005009Y-62190792D02*
X141005009Y-62305078D01*
X141005009Y-62305078D02*
X141043105Y-62457459D01*
X141043105Y-62457459D02*
X141081200Y-62533649D01*
X141081200Y-62533649D02*
X141157390Y-62609840D01*
X141157390Y-62609840D02*
X141271676Y-62647935D01*
X141271676Y-62647935D02*
X141462152Y-62647935D01*
X142752629Y-52997935D02*
X143209772Y-52997935D01*
X142981200Y-52997935D02*
X142981200Y-52197935D01*
X142981200Y-52197935D02*
X143057391Y-52312220D01*
X143057391Y-52312220D02*
X143133581Y-52388411D01*
X143133581Y-52388411D02*
X143209772Y-52426506D01*
X142447867Y-52274125D02*
X142409771Y-52236030D01*
X142409771Y-52236030D02*
X142333581Y-52197935D01*
X142333581Y-52197935D02*
X142143105Y-52197935D01*
X142143105Y-52197935D02*
X142066914Y-52236030D01*
X142066914Y-52236030D02*
X142028819Y-52274125D01*
X142028819Y-52274125D02*
X141990724Y-52350316D01*
X141990724Y-52350316D02*
X141990724Y-52426506D01*
X141990724Y-52426506D02*
X142028819Y-52540792D01*
X142028819Y-52540792D02*
X142485962Y-52997935D01*
X142485962Y-52997935D02*
X141990724Y-52997935D01*
X141762152Y-52197935D02*
X141495485Y-52997935D01*
X141495485Y-52997935D02*
X141228819Y-52197935D01*
X148093104Y-52947935D02*
X148093104Y-52147935D01*
X147559771Y-52147935D02*
X147407390Y-52147935D01*
X147407390Y-52147935D02*
X147331200Y-52186030D01*
X147331200Y-52186030D02*
X147255009Y-52262220D01*
X147255009Y-52262220D02*
X147216914Y-52414601D01*
X147216914Y-52414601D02*
X147216914Y-52681268D01*
X147216914Y-52681268D02*
X147255009Y-52833649D01*
X147255009Y-52833649D02*
X147331200Y-52909840D01*
X147331200Y-52909840D02*
X147407390Y-52947935D01*
X147407390Y-52947935D02*
X147559771Y-52947935D01*
X147559771Y-52947935D02*
X147635962Y-52909840D01*
X147635962Y-52909840D02*
X147712152Y-52833649D01*
X147712152Y-52833649D02*
X147750248Y-52681268D01*
X147750248Y-52681268D02*
X147750248Y-52414601D01*
X147750248Y-52414601D02*
X147712152Y-52262220D01*
X147712152Y-52262220D02*
X147635962Y-52186030D01*
X147635962Y-52186030D02*
X147559771Y-52147935D01*
X146493105Y-52147935D02*
X146874057Y-52147935D01*
X146874057Y-52147935D02*
X146912153Y-52528887D01*
X146912153Y-52528887D02*
X146874057Y-52490792D01*
X146874057Y-52490792D02*
X146797867Y-52452697D01*
X146797867Y-52452697D02*
X146607391Y-52452697D01*
X146607391Y-52452697D02*
X146531200Y-52490792D01*
X146531200Y-52490792D02*
X146493105Y-52528887D01*
X146493105Y-52528887D02*
X146455010Y-52605078D01*
X146455010Y-52605078D02*
X146455010Y-52795554D01*
X146455010Y-52795554D02*
X146493105Y-52871744D01*
X146493105Y-52871744D02*
X146531200Y-52909840D01*
X146531200Y-52909840D02*
X146607391Y-52947935D01*
X146607391Y-52947935D02*
X146797867Y-52947935D01*
X146797867Y-52947935D02*
X146874057Y-52909840D01*
X146874057Y-52909840D02*
X146912153Y-52871744D01*
X151078819Y-61847935D02*
X150583581Y-61847935D01*
X150583581Y-61847935D02*
X150850247Y-62152697D01*
X150850247Y-62152697D02*
X150735962Y-62152697D01*
X150735962Y-62152697D02*
X150659771Y-62190792D01*
X150659771Y-62190792D02*
X150621676Y-62228887D01*
X150621676Y-62228887D02*
X150583581Y-62305078D01*
X150583581Y-62305078D02*
X150583581Y-62495554D01*
X150583581Y-62495554D02*
X150621676Y-62571744D01*
X150621676Y-62571744D02*
X150659771Y-62609840D01*
X150659771Y-62609840D02*
X150735962Y-62647935D01*
X150735962Y-62647935D02*
X150964533Y-62647935D01*
X150964533Y-62647935D02*
X151040724Y-62609840D01*
X151040724Y-62609840D02*
X151078819Y-62571744D01*
X150240723Y-62571744D02*
X150202628Y-62609840D01*
X150202628Y-62609840D02*
X150240723Y-62647935D01*
X150240723Y-62647935D02*
X150278819Y-62609840D01*
X150278819Y-62609840D02*
X150240723Y-62571744D01*
X150240723Y-62571744D02*
X150240723Y-62647935D01*
X149935962Y-61847935D02*
X149440724Y-61847935D01*
X149440724Y-61847935D02*
X149707390Y-62152697D01*
X149707390Y-62152697D02*
X149593105Y-62152697D01*
X149593105Y-62152697D02*
X149516914Y-62190792D01*
X149516914Y-62190792D02*
X149478819Y-62228887D01*
X149478819Y-62228887D02*
X149440724Y-62305078D01*
X149440724Y-62305078D02*
X149440724Y-62495554D01*
X149440724Y-62495554D02*
X149478819Y-62571744D01*
X149478819Y-62571744D02*
X149516914Y-62609840D01*
X149516914Y-62609840D02*
X149593105Y-62647935D01*
X149593105Y-62647935D02*
X149821676Y-62647935D01*
X149821676Y-62647935D02*
X149897867Y-62609840D01*
X149897867Y-62609840D02*
X149935962Y-62571744D01*
X149212152Y-61847935D02*
X148945485Y-62647935D01*
X148945485Y-62647935D02*
X148678819Y-61847935D01*
X144828819Y-52147935D02*
X145209771Y-52147935D01*
X145209771Y-52147935D02*
X145247867Y-52528887D01*
X145247867Y-52528887D02*
X145209771Y-52490792D01*
X145209771Y-52490792D02*
X145133581Y-52452697D01*
X145133581Y-52452697D02*
X144943105Y-52452697D01*
X144943105Y-52452697D02*
X144866914Y-52490792D01*
X144866914Y-52490792D02*
X144828819Y-52528887D01*
X144828819Y-52528887D02*
X144790724Y-52605078D01*
X144790724Y-52605078D02*
X144790724Y-52795554D01*
X144790724Y-52795554D02*
X144828819Y-52871744D01*
X144828819Y-52871744D02*
X144866914Y-52909840D01*
X144866914Y-52909840D02*
X144943105Y-52947935D01*
X144943105Y-52947935D02*
X145133581Y-52947935D01*
X145133581Y-52947935D02*
X145209771Y-52909840D01*
X145209771Y-52909840D02*
X145247867Y-52871744D01*
X144562152Y-52147935D02*
X144295485Y-52947935D01*
X144295485Y-52947935D02*
X144028819Y-52147935D01*
X145347867Y-61847935D02*
X144890724Y-61847935D01*
X145119296Y-62647935D02*
X145119296Y-61847935D01*
X144700248Y-61847935D02*
X144166914Y-62647935D01*
X144166914Y-61847935D02*
X144700248Y-62647935D01*
D11*
X163685451Y-135669694D02*
X164161641Y-135669694D01*
X164161641Y-135669694D02*
X164161641Y-134669694D01*
X163352117Y-135669694D02*
X163352117Y-135003027D01*
X163352117Y-134669694D02*
X163399736Y-134717313D01*
X163399736Y-134717313D02*
X163352117Y-134764932D01*
X163352117Y-134764932D02*
X163304498Y-134717313D01*
X163304498Y-134717313D02*
X163352117Y-134669694D01*
X163352117Y-134669694D02*
X163352117Y-134764932D01*
X162447356Y-135622075D02*
X162542594Y-135669694D01*
X162542594Y-135669694D02*
X162733070Y-135669694D01*
X162733070Y-135669694D02*
X162828308Y-135622075D01*
X162828308Y-135622075D02*
X162875927Y-135574455D01*
X162875927Y-135574455D02*
X162923546Y-135479217D01*
X162923546Y-135479217D02*
X162923546Y-135193503D01*
X162923546Y-135193503D02*
X162875927Y-135098265D01*
X162875927Y-135098265D02*
X162828308Y-135050646D01*
X162828308Y-135050646D02*
X162733070Y-135003027D01*
X162733070Y-135003027D02*
X162542594Y-135003027D01*
X162542594Y-135003027D02*
X162447356Y-135050646D01*
X162018784Y-135669694D02*
X162018784Y-134669694D01*
X161590213Y-135669694D02*
X161590213Y-135145884D01*
X161590213Y-135145884D02*
X161637832Y-135050646D01*
X161637832Y-135050646D02*
X161733070Y-135003027D01*
X161733070Y-135003027D02*
X161875927Y-135003027D01*
X161875927Y-135003027D02*
X161971165Y-135050646D01*
X161971165Y-135050646D02*
X162018784Y-135098265D01*
X161256879Y-135003027D02*
X160875927Y-135003027D01*
X161114022Y-134669694D02*
X161114022Y-135526836D01*
X161114022Y-135526836D02*
X161066403Y-135622075D01*
X161066403Y-135622075D02*
X160971165Y-135669694D01*
X160971165Y-135669694D02*
X160875927Y-135669694D01*
X160590212Y-135622075D02*
X160494974Y-135669694D01*
X160494974Y-135669694D02*
X160304498Y-135669694D01*
X160304498Y-135669694D02*
X160209260Y-135622075D01*
X160209260Y-135622075D02*
X160161641Y-135526836D01*
X160161641Y-135526836D02*
X160161641Y-135479217D01*
X160161641Y-135479217D02*
X160209260Y-135383979D01*
X160209260Y-135383979D02*
X160304498Y-135336360D01*
X160304498Y-135336360D02*
X160447355Y-135336360D01*
X160447355Y-135336360D02*
X160542593Y-135288741D01*
X160542593Y-135288741D02*
X160590212Y-135193503D01*
X160590212Y-135193503D02*
X160590212Y-135145884D01*
X160590212Y-135145884D02*
X160542593Y-135050646D01*
X160542593Y-135050646D02*
X160447355Y-135003027D01*
X160447355Y-135003027D02*
X160304498Y-135003027D01*
X160304498Y-135003027D02*
X160209260Y-135050646D01*
X159875926Y-135003027D02*
X159494974Y-135003027D01*
X159733069Y-134669694D02*
X159733069Y-135526836D01*
X159733069Y-135526836D02*
X159685450Y-135622075D01*
X159685450Y-135622075D02*
X159590212Y-135669694D01*
X159590212Y-135669694D02*
X159494974Y-135669694D01*
X158733069Y-135669694D02*
X158733069Y-135145884D01*
X158733069Y-135145884D02*
X158780688Y-135050646D01*
X158780688Y-135050646D02*
X158875926Y-135003027D01*
X158875926Y-135003027D02*
X159066402Y-135003027D01*
X159066402Y-135003027D02*
X159161640Y-135050646D01*
X158733069Y-135622075D02*
X158828307Y-135669694D01*
X158828307Y-135669694D02*
X159066402Y-135669694D01*
X159066402Y-135669694D02*
X159161640Y-135622075D01*
X159161640Y-135622075D02*
X159209259Y-135526836D01*
X159209259Y-135526836D02*
X159209259Y-135431598D01*
X159209259Y-135431598D02*
X159161640Y-135336360D01*
X159161640Y-135336360D02*
X159066402Y-135288741D01*
X159066402Y-135288741D02*
X158828307Y-135288741D01*
X158828307Y-135288741D02*
X158733069Y-135241122D01*
X158256878Y-135669694D02*
X158256878Y-134669694D01*
X158256878Y-135050646D02*
X158161640Y-135003027D01*
X158161640Y-135003027D02*
X157971164Y-135003027D01*
X157971164Y-135003027D02*
X157875926Y-135050646D01*
X157875926Y-135050646D02*
X157828307Y-135098265D01*
X157828307Y-135098265D02*
X157780688Y-135193503D01*
X157780688Y-135193503D02*
X157780688Y-135479217D01*
X157780688Y-135479217D02*
X157828307Y-135574455D01*
X157828307Y-135574455D02*
X157875926Y-135622075D01*
X157875926Y-135622075D02*
X157971164Y-135669694D01*
X157971164Y-135669694D02*
X158161640Y-135669694D01*
X158161640Y-135669694D02*
X158256878Y-135622075D01*
X156590211Y-135669694D02*
X156590211Y-134669694D01*
X156590211Y-134669694D02*
X156256878Y-135383979D01*
X156256878Y-135383979D02*
X155923545Y-134669694D01*
X155923545Y-134669694D02*
X155923545Y-135669694D01*
X155304497Y-135669694D02*
X155399735Y-135622075D01*
X155399735Y-135622075D02*
X155447354Y-135574455D01*
X155447354Y-135574455D02*
X155494973Y-135479217D01*
X155494973Y-135479217D02*
X155494973Y-135193503D01*
X155494973Y-135193503D02*
X155447354Y-135098265D01*
X155447354Y-135098265D02*
X155399735Y-135050646D01*
X155399735Y-135050646D02*
X155304497Y-135003027D01*
X155304497Y-135003027D02*
X155161640Y-135003027D01*
X155161640Y-135003027D02*
X155066402Y-135050646D01*
X155066402Y-135050646D02*
X155018783Y-135098265D01*
X155018783Y-135098265D02*
X154971164Y-135193503D01*
X154971164Y-135193503D02*
X154971164Y-135479217D01*
X154971164Y-135479217D02*
X155018783Y-135574455D01*
X155018783Y-135574455D02*
X155066402Y-135622075D01*
X155066402Y-135622075D02*
X155161640Y-135669694D01*
X155161640Y-135669694D02*
X155304497Y-135669694D01*
X154114021Y-135669694D02*
X154114021Y-134669694D01*
X154114021Y-135622075D02*
X154209259Y-135669694D01*
X154209259Y-135669694D02*
X154399735Y-135669694D01*
X154399735Y-135669694D02*
X154494973Y-135622075D01*
X154494973Y-135622075D02*
X154542592Y-135574455D01*
X154542592Y-135574455D02*
X154590211Y-135479217D01*
X154590211Y-135479217D02*
X154590211Y-135193503D01*
X154590211Y-135193503D02*
X154542592Y-135098265D01*
X154542592Y-135098265D02*
X154494973Y-135050646D01*
X154494973Y-135050646D02*
X154399735Y-135003027D01*
X154399735Y-135003027D02*
X154209259Y-135003027D01*
X154209259Y-135003027D02*
X154114021Y-135050646D01*
X153209259Y-135003027D02*
X153209259Y-135669694D01*
X153637830Y-135003027D02*
X153637830Y-135526836D01*
X153637830Y-135526836D02*
X153590211Y-135622075D01*
X153590211Y-135622075D02*
X153494973Y-135669694D01*
X153494973Y-135669694D02*
X153352116Y-135669694D01*
X153352116Y-135669694D02*
X153256878Y-135622075D01*
X153256878Y-135622075D02*
X153209259Y-135574455D01*
X152590211Y-135669694D02*
X152685449Y-135622075D01*
X152685449Y-135622075D02*
X152733068Y-135526836D01*
X152733068Y-135526836D02*
X152733068Y-134669694D01*
X151828306Y-135622075D02*
X151923544Y-135669694D01*
X151923544Y-135669694D02*
X152114020Y-135669694D01*
X152114020Y-135669694D02*
X152209258Y-135622075D01*
X152209258Y-135622075D02*
X152256877Y-135526836D01*
X152256877Y-135526836D02*
X152256877Y-135145884D01*
X152256877Y-135145884D02*
X152209258Y-135050646D01*
X152209258Y-135050646D02*
X152114020Y-135003027D01*
X152114020Y-135003027D02*
X151923544Y-135003027D01*
X151923544Y-135003027D02*
X151828306Y-135050646D01*
X151828306Y-135050646D02*
X151780687Y-135145884D01*
X151780687Y-135145884D02*
X151780687Y-135241122D01*
X151780687Y-135241122D02*
X152256877Y-135336360D01*
X150685448Y-135003027D02*
X150447353Y-135669694D01*
X150447353Y-135669694D02*
X150209258Y-135003027D01*
X149637829Y-134669694D02*
X149542591Y-134669694D01*
X149542591Y-134669694D02*
X149447353Y-134717313D01*
X149447353Y-134717313D02*
X149399734Y-134764932D01*
X149399734Y-134764932D02*
X149352115Y-134860170D01*
X149352115Y-134860170D02*
X149304496Y-135050646D01*
X149304496Y-135050646D02*
X149304496Y-135288741D01*
X149304496Y-135288741D02*
X149352115Y-135479217D01*
X149352115Y-135479217D02*
X149399734Y-135574455D01*
X149399734Y-135574455D02*
X149447353Y-135622075D01*
X149447353Y-135622075D02*
X149542591Y-135669694D01*
X149542591Y-135669694D02*
X149637829Y-135669694D01*
X149637829Y-135669694D02*
X149733067Y-135622075D01*
X149733067Y-135622075D02*
X149780686Y-135574455D01*
X149780686Y-135574455D02*
X149828305Y-135479217D01*
X149828305Y-135479217D02*
X149875924Y-135288741D01*
X149875924Y-135288741D02*
X149875924Y-135050646D01*
X149875924Y-135050646D02*
X149828305Y-134860170D01*
X149828305Y-134860170D02*
X149780686Y-134764932D01*
X149780686Y-134764932D02*
X149733067Y-134717313D01*
X149733067Y-134717313D02*
X149637829Y-134669694D01*
X148875924Y-135574455D02*
X148828305Y-135622075D01*
X148828305Y-135622075D02*
X148875924Y-135669694D01*
X148875924Y-135669694D02*
X148923543Y-135622075D01*
X148923543Y-135622075D02*
X148875924Y-135574455D01*
X148875924Y-135574455D02*
X148875924Y-135669694D01*
X147971163Y-135003027D02*
X147971163Y-135669694D01*
X148209258Y-134622075D02*
X148447353Y-135336360D01*
X148447353Y-135336360D02*
X147828306Y-135336360D01*
X83373984Y-134279803D02*
X83373984Y-134860375D01*
X83373984Y-134860375D02*
X83412689Y-134976489D01*
X83412689Y-134976489D02*
X83490098Y-135053899D01*
X83490098Y-135053899D02*
X83606213Y-135092603D01*
X83606213Y-135092603D02*
X83683622Y-135092603D01*
X82599889Y-135092603D02*
X82986937Y-135092603D01*
X82986937Y-135092603D02*
X82986937Y-134279803D01*
X81864499Y-135015194D02*
X81903203Y-135053899D01*
X81903203Y-135053899D02*
X82019318Y-135092603D01*
X82019318Y-135092603D02*
X82096727Y-135092603D01*
X82096727Y-135092603D02*
X82212841Y-135053899D01*
X82212841Y-135053899D02*
X82290251Y-134976489D01*
X82290251Y-134976489D02*
X82328956Y-134899079D01*
X82328956Y-134899079D02*
X82367660Y-134744260D01*
X82367660Y-134744260D02*
X82367660Y-134628146D01*
X82367660Y-134628146D02*
X82328956Y-134473327D01*
X82328956Y-134473327D02*
X82290251Y-134395918D01*
X82290251Y-134395918D02*
X82212841Y-134318508D01*
X82212841Y-134318508D02*
X82096727Y-134279803D01*
X82096727Y-134279803D02*
X82019318Y-134279803D01*
X82019318Y-134279803D02*
X81903203Y-134318508D01*
X81903203Y-134318508D02*
X81864499Y-134357213D01*
X81283927Y-134279803D02*
X81283927Y-134860375D01*
X81283927Y-134860375D02*
X81322632Y-134976489D01*
X81322632Y-134976489D02*
X81400041Y-135053899D01*
X81400041Y-135053899D02*
X81516156Y-135092603D01*
X81516156Y-135092603D02*
X81593565Y-135092603D01*
X80509832Y-135092603D02*
X80896880Y-135092603D01*
X80896880Y-135092603D02*
X80896880Y-134279803D01*
X79774442Y-135015194D02*
X79813146Y-135053899D01*
X79813146Y-135053899D02*
X79929261Y-135092603D01*
X79929261Y-135092603D02*
X80006670Y-135092603D01*
X80006670Y-135092603D02*
X80122784Y-135053899D01*
X80122784Y-135053899D02*
X80200194Y-134976489D01*
X80200194Y-134976489D02*
X80238899Y-134899079D01*
X80238899Y-134899079D02*
X80277603Y-134744260D01*
X80277603Y-134744260D02*
X80277603Y-134628146D01*
X80277603Y-134628146D02*
X80238899Y-134473327D01*
X80238899Y-134473327D02*
X80200194Y-134395918D01*
X80200194Y-134395918D02*
X80122784Y-134318508D01*
X80122784Y-134318508D02*
X80006670Y-134279803D01*
X80006670Y-134279803D02*
X79929261Y-134279803D01*
X79929261Y-134279803D02*
X79813146Y-134318508D01*
X79813146Y-134318508D02*
X79774442Y-134357213D01*
X79193870Y-134279803D02*
X79193870Y-134860375D01*
X79193870Y-134860375D02*
X79232575Y-134976489D01*
X79232575Y-134976489D02*
X79309984Y-135053899D01*
X79309984Y-135053899D02*
X79426099Y-135092603D01*
X79426099Y-135092603D02*
X79503508Y-135092603D01*
X78419775Y-135092603D02*
X78806823Y-135092603D01*
X78806823Y-135092603D02*
X78806823Y-134279803D01*
X77684385Y-135015194D02*
X77723089Y-135053899D01*
X77723089Y-135053899D02*
X77839204Y-135092603D01*
X77839204Y-135092603D02*
X77916613Y-135092603D01*
X77916613Y-135092603D02*
X78032727Y-135053899D01*
X78032727Y-135053899D02*
X78110137Y-134976489D01*
X78110137Y-134976489D02*
X78148842Y-134899079D01*
X78148842Y-134899079D02*
X78187546Y-134744260D01*
X78187546Y-134744260D02*
X78187546Y-134628146D01*
X78187546Y-134628146D02*
X78148842Y-134473327D01*
X78148842Y-134473327D02*
X78110137Y-134395918D01*
X78110137Y-134395918D02*
X78032727Y-134318508D01*
X78032727Y-134318508D02*
X77916613Y-134279803D01*
X77916613Y-134279803D02*
X77839204Y-134279803D01*
X77839204Y-134279803D02*
X77723089Y-134318508D01*
X77723089Y-134318508D02*
X77684385Y-134357213D01*
X77103813Y-134279803D02*
X77103813Y-134860375D01*
X77103813Y-134860375D02*
X77142518Y-134976489D01*
X77142518Y-134976489D02*
X77219927Y-135053899D01*
X77219927Y-135053899D02*
X77336042Y-135092603D01*
X77336042Y-135092603D02*
X77413451Y-135092603D01*
X76329718Y-135092603D02*
X76716766Y-135092603D01*
X76716766Y-135092603D02*
X76716766Y-134279803D01*
X75594328Y-135015194D02*
X75633032Y-135053899D01*
X75633032Y-135053899D02*
X75749147Y-135092603D01*
X75749147Y-135092603D02*
X75826556Y-135092603D01*
X75826556Y-135092603D02*
X75942670Y-135053899D01*
X75942670Y-135053899D02*
X76020080Y-134976489D01*
X76020080Y-134976489D02*
X76058785Y-134899079D01*
X76058785Y-134899079D02*
X76097489Y-134744260D01*
X76097489Y-134744260D02*
X76097489Y-134628146D01*
X76097489Y-134628146D02*
X76058785Y-134473327D01*
X76058785Y-134473327D02*
X76020080Y-134395918D01*
X76020080Y-134395918D02*
X75942670Y-134318508D01*
X75942670Y-134318508D02*
X75826556Y-134279803D01*
X75826556Y-134279803D02*
X75749147Y-134279803D01*
X75749147Y-134279803D02*
X75633032Y-134318508D01*
X75633032Y-134318508D02*
X75594328Y-134357213D01*
X163485451Y-50869694D02*
X163961641Y-50869694D01*
X163961641Y-50869694D02*
X163961641Y-49869694D01*
X163152117Y-50869694D02*
X163152117Y-50203027D01*
X163152117Y-49869694D02*
X163199736Y-49917313D01*
X163199736Y-49917313D02*
X163152117Y-49964932D01*
X163152117Y-49964932D02*
X163104498Y-49917313D01*
X163104498Y-49917313D02*
X163152117Y-49869694D01*
X163152117Y-49869694D02*
X163152117Y-49964932D01*
X162247356Y-50822075D02*
X162342594Y-50869694D01*
X162342594Y-50869694D02*
X162533070Y-50869694D01*
X162533070Y-50869694D02*
X162628308Y-50822075D01*
X162628308Y-50822075D02*
X162675927Y-50774455D01*
X162675927Y-50774455D02*
X162723546Y-50679217D01*
X162723546Y-50679217D02*
X162723546Y-50393503D01*
X162723546Y-50393503D02*
X162675927Y-50298265D01*
X162675927Y-50298265D02*
X162628308Y-50250646D01*
X162628308Y-50250646D02*
X162533070Y-50203027D01*
X162533070Y-50203027D02*
X162342594Y-50203027D01*
X162342594Y-50203027D02*
X162247356Y-50250646D01*
X161818784Y-50869694D02*
X161818784Y-49869694D01*
X161390213Y-50869694D02*
X161390213Y-50345884D01*
X161390213Y-50345884D02*
X161437832Y-50250646D01*
X161437832Y-50250646D02*
X161533070Y-50203027D01*
X161533070Y-50203027D02*
X161675927Y-50203027D01*
X161675927Y-50203027D02*
X161771165Y-50250646D01*
X161771165Y-50250646D02*
X161818784Y-50298265D01*
X161056879Y-50203027D02*
X160675927Y-50203027D01*
X160914022Y-49869694D02*
X160914022Y-50726836D01*
X160914022Y-50726836D02*
X160866403Y-50822075D01*
X160866403Y-50822075D02*
X160771165Y-50869694D01*
X160771165Y-50869694D02*
X160675927Y-50869694D01*
X160390212Y-50822075D02*
X160294974Y-50869694D01*
X160294974Y-50869694D02*
X160104498Y-50869694D01*
X160104498Y-50869694D02*
X160009260Y-50822075D01*
X160009260Y-50822075D02*
X159961641Y-50726836D01*
X159961641Y-50726836D02*
X159961641Y-50679217D01*
X159961641Y-50679217D02*
X160009260Y-50583979D01*
X160009260Y-50583979D02*
X160104498Y-50536360D01*
X160104498Y-50536360D02*
X160247355Y-50536360D01*
X160247355Y-50536360D02*
X160342593Y-50488741D01*
X160342593Y-50488741D02*
X160390212Y-50393503D01*
X160390212Y-50393503D02*
X160390212Y-50345884D01*
X160390212Y-50345884D02*
X160342593Y-50250646D01*
X160342593Y-50250646D02*
X160247355Y-50203027D01*
X160247355Y-50203027D02*
X160104498Y-50203027D01*
X160104498Y-50203027D02*
X160009260Y-50250646D01*
X159675926Y-50203027D02*
X159294974Y-50203027D01*
X159533069Y-49869694D02*
X159533069Y-50726836D01*
X159533069Y-50726836D02*
X159485450Y-50822075D01*
X159485450Y-50822075D02*
X159390212Y-50869694D01*
X159390212Y-50869694D02*
X159294974Y-50869694D01*
X158533069Y-50869694D02*
X158533069Y-50345884D01*
X158533069Y-50345884D02*
X158580688Y-50250646D01*
X158580688Y-50250646D02*
X158675926Y-50203027D01*
X158675926Y-50203027D02*
X158866402Y-50203027D01*
X158866402Y-50203027D02*
X158961640Y-50250646D01*
X158533069Y-50822075D02*
X158628307Y-50869694D01*
X158628307Y-50869694D02*
X158866402Y-50869694D01*
X158866402Y-50869694D02*
X158961640Y-50822075D01*
X158961640Y-50822075D02*
X159009259Y-50726836D01*
X159009259Y-50726836D02*
X159009259Y-50631598D01*
X159009259Y-50631598D02*
X158961640Y-50536360D01*
X158961640Y-50536360D02*
X158866402Y-50488741D01*
X158866402Y-50488741D02*
X158628307Y-50488741D01*
X158628307Y-50488741D02*
X158533069Y-50441122D01*
X158056878Y-50869694D02*
X158056878Y-49869694D01*
X158056878Y-50250646D02*
X157961640Y-50203027D01*
X157961640Y-50203027D02*
X157771164Y-50203027D01*
X157771164Y-50203027D02*
X157675926Y-50250646D01*
X157675926Y-50250646D02*
X157628307Y-50298265D01*
X157628307Y-50298265D02*
X157580688Y-50393503D01*
X157580688Y-50393503D02*
X157580688Y-50679217D01*
X157580688Y-50679217D02*
X157628307Y-50774455D01*
X157628307Y-50774455D02*
X157675926Y-50822075D01*
X157675926Y-50822075D02*
X157771164Y-50869694D01*
X157771164Y-50869694D02*
X157961640Y-50869694D01*
X157961640Y-50869694D02*
X158056878Y-50822075D01*
X156485449Y-50203027D02*
X156247354Y-50869694D01*
X156247354Y-50869694D02*
X156009259Y-50203027D01*
X155437830Y-49869694D02*
X155342592Y-49869694D01*
X155342592Y-49869694D02*
X155247354Y-49917313D01*
X155247354Y-49917313D02*
X155199735Y-49964932D01*
X155199735Y-49964932D02*
X155152116Y-50060170D01*
X155152116Y-50060170D02*
X155104497Y-50250646D01*
X155104497Y-50250646D02*
X155104497Y-50488741D01*
X155104497Y-50488741D02*
X155152116Y-50679217D01*
X155152116Y-50679217D02*
X155199735Y-50774455D01*
X155199735Y-50774455D02*
X155247354Y-50822075D01*
X155247354Y-50822075D02*
X155342592Y-50869694D01*
X155342592Y-50869694D02*
X155437830Y-50869694D01*
X155437830Y-50869694D02*
X155533068Y-50822075D01*
X155533068Y-50822075D02*
X155580687Y-50774455D01*
X155580687Y-50774455D02*
X155628306Y-50679217D01*
X155628306Y-50679217D02*
X155675925Y-50488741D01*
X155675925Y-50488741D02*
X155675925Y-50250646D01*
X155675925Y-50250646D02*
X155628306Y-50060170D01*
X155628306Y-50060170D02*
X155580687Y-49964932D01*
X155580687Y-49964932D02*
X155533068Y-49917313D01*
X155533068Y-49917313D02*
X155437830Y-49869694D01*
X154675925Y-50774455D02*
X154628306Y-50822075D01*
X154628306Y-50822075D02*
X154675925Y-50869694D01*
X154675925Y-50869694D02*
X154723544Y-50822075D01*
X154723544Y-50822075D02*
X154675925Y-50774455D01*
X154675925Y-50774455D02*
X154675925Y-50869694D01*
X153771164Y-50203027D02*
X153771164Y-50869694D01*
X154009259Y-49822075D02*
X154247354Y-50536360D01*
X154247354Y-50536360D02*
X153628307Y-50536360D01*
D10*
X160834030Y-111046629D02*
X160795935Y-110970439D01*
X160795935Y-110970439D02*
X160795935Y-110856153D01*
X160795935Y-110856153D02*
X160834030Y-110741867D01*
X160834030Y-110741867D02*
X160910220Y-110665677D01*
X160910220Y-110665677D02*
X160986411Y-110627582D01*
X160986411Y-110627582D02*
X161138792Y-110589486D01*
X161138792Y-110589486D02*
X161253078Y-110589486D01*
X161253078Y-110589486D02*
X161405459Y-110627582D01*
X161405459Y-110627582D02*
X161481649Y-110665677D01*
X161481649Y-110665677D02*
X161557840Y-110741867D01*
X161557840Y-110741867D02*
X161595935Y-110856153D01*
X161595935Y-110856153D02*
X161595935Y-110932344D01*
X161595935Y-110932344D02*
X161557840Y-111046629D01*
X161557840Y-111046629D02*
X161519744Y-111084725D01*
X161519744Y-111084725D02*
X161253078Y-111084725D01*
X161253078Y-111084725D02*
X161253078Y-110932344D01*
X161595935Y-111427582D02*
X160795935Y-111427582D01*
X160795935Y-111427582D02*
X161595935Y-111884725D01*
X161595935Y-111884725D02*
X160795935Y-111884725D01*
X161595935Y-112265677D02*
X160795935Y-112265677D01*
X160795935Y-112265677D02*
X160795935Y-112456153D01*
X160795935Y-112456153D02*
X160834030Y-112570439D01*
X160834030Y-112570439D02*
X160910220Y-112646629D01*
X160910220Y-112646629D02*
X160986411Y-112684724D01*
X160986411Y-112684724D02*
X161138792Y-112722820D01*
X161138792Y-112722820D02*
X161253078Y-112722820D01*
X161253078Y-112722820D02*
X161405459Y-112684724D01*
X161405459Y-112684724D02*
X161481649Y-112646629D01*
X161481649Y-112646629D02*
X161557840Y-112570439D01*
X161557840Y-112570439D02*
X161595935Y-112456153D01*
X161595935Y-112456153D02*
X161595935Y-112265677D01*
X158751173Y-110627582D02*
X158751173Y-111237106D01*
X159055935Y-110932344D02*
X158446411Y-110932344D01*
X158255935Y-111999010D02*
X158255935Y-111618058D01*
X158255935Y-111618058D02*
X158636887Y-111579962D01*
X158636887Y-111579962D02*
X158598792Y-111618058D01*
X158598792Y-111618058D02*
X158560697Y-111694248D01*
X158560697Y-111694248D02*
X158560697Y-111884724D01*
X158560697Y-111884724D02*
X158598792Y-111960915D01*
X158598792Y-111960915D02*
X158636887Y-111999010D01*
X158636887Y-111999010D02*
X158713078Y-112037105D01*
X158713078Y-112037105D02*
X158903554Y-112037105D01*
X158903554Y-112037105D02*
X158979744Y-111999010D01*
X158979744Y-111999010D02*
X159017840Y-111960915D01*
X159017840Y-111960915D02*
X159055935Y-111884724D01*
X159055935Y-111884724D02*
X159055935Y-111694248D01*
X159055935Y-111694248D02*
X159017840Y-111618058D01*
X159017840Y-111618058D02*
X158979744Y-111579962D01*
X158255935Y-112265677D02*
X159055935Y-112532344D01*
X159055935Y-112532344D02*
X158255935Y-112799010D01*
X156477840Y-110565676D02*
X156515935Y-110679962D01*
X156515935Y-110679962D02*
X156515935Y-110870438D01*
X156515935Y-110870438D02*
X156477840Y-110946629D01*
X156477840Y-110946629D02*
X156439744Y-110984724D01*
X156439744Y-110984724D02*
X156363554Y-111022819D01*
X156363554Y-111022819D02*
X156287363Y-111022819D01*
X156287363Y-111022819D02*
X156211173Y-110984724D01*
X156211173Y-110984724D02*
X156173078Y-110946629D01*
X156173078Y-110946629D02*
X156134982Y-110870438D01*
X156134982Y-110870438D02*
X156096887Y-110718057D01*
X156096887Y-110718057D02*
X156058792Y-110641867D01*
X156058792Y-110641867D02*
X156020697Y-110603772D01*
X156020697Y-110603772D02*
X155944506Y-110565676D01*
X155944506Y-110565676D02*
X155868316Y-110565676D01*
X155868316Y-110565676D02*
X155792125Y-110603772D01*
X155792125Y-110603772D02*
X155754030Y-110641867D01*
X155754030Y-110641867D02*
X155715935Y-110718057D01*
X155715935Y-110718057D02*
X155715935Y-110908534D01*
X155715935Y-110908534D02*
X155754030Y-111022819D01*
X156515935Y-111365677D02*
X155715935Y-111365677D01*
X155715935Y-111365677D02*
X155715935Y-111556153D01*
X155715935Y-111556153D02*
X155754030Y-111670439D01*
X155754030Y-111670439D02*
X155830220Y-111746629D01*
X155830220Y-111746629D02*
X155906411Y-111784724D01*
X155906411Y-111784724D02*
X156058792Y-111822820D01*
X156058792Y-111822820D02*
X156173078Y-111822820D01*
X156173078Y-111822820D02*
X156325459Y-111784724D01*
X156325459Y-111784724D02*
X156401649Y-111746629D01*
X156401649Y-111746629D02*
X156477840Y-111670439D01*
X156477840Y-111670439D02*
X156515935Y-111556153D01*
X156515935Y-111556153D02*
X156515935Y-111365677D01*
X156287363Y-112127581D02*
X156287363Y-112508534D01*
X156515935Y-112051391D02*
X155715935Y-112318058D01*
X155715935Y-112318058D02*
X156515935Y-112584724D01*
X156477840Y-127630952D02*
X156515935Y-127745238D01*
X156515935Y-127745238D02*
X156515935Y-127935714D01*
X156515935Y-127935714D02*
X156477840Y-128011905D01*
X156477840Y-128011905D02*
X156439744Y-128050000D01*
X156439744Y-128050000D02*
X156363554Y-128088095D01*
X156363554Y-128088095D02*
X156287363Y-128088095D01*
X156287363Y-128088095D02*
X156211173Y-128050000D01*
X156211173Y-128050000D02*
X156173078Y-128011905D01*
X156173078Y-128011905D02*
X156134982Y-127935714D01*
X156134982Y-127935714D02*
X156096887Y-127783333D01*
X156096887Y-127783333D02*
X156058792Y-127707143D01*
X156058792Y-127707143D02*
X156020697Y-127669048D01*
X156020697Y-127669048D02*
X155944506Y-127630952D01*
X155944506Y-127630952D02*
X155868316Y-127630952D01*
X155868316Y-127630952D02*
X155792125Y-127669048D01*
X155792125Y-127669048D02*
X155754030Y-127707143D01*
X155754030Y-127707143D02*
X155715935Y-127783333D01*
X155715935Y-127783333D02*
X155715935Y-127973810D01*
X155715935Y-127973810D02*
X155754030Y-128088095D01*
X156515935Y-128430953D02*
X155715935Y-128430953D01*
X155715935Y-128430953D02*
X155715935Y-128621429D01*
X155715935Y-128621429D02*
X155754030Y-128735715D01*
X155754030Y-128735715D02*
X155830220Y-128811905D01*
X155830220Y-128811905D02*
X155906411Y-128850000D01*
X155906411Y-128850000D02*
X156058792Y-128888096D01*
X156058792Y-128888096D02*
X156173078Y-128888096D01*
X156173078Y-128888096D02*
X156325459Y-128850000D01*
X156325459Y-128850000D02*
X156401649Y-128811905D01*
X156401649Y-128811905D02*
X156477840Y-128735715D01*
X156477840Y-128735715D02*
X156515935Y-128621429D01*
X156515935Y-128621429D02*
X156515935Y-128430953D01*
X156515935Y-129230953D02*
X155715935Y-129230953D01*
X143587363Y-128242285D02*
X143587363Y-128623238D01*
X143815935Y-128166095D02*
X143015935Y-128432762D01*
X143015935Y-128432762D02*
X143815935Y-128699428D01*
X143815935Y-128966095D02*
X143015935Y-128966095D01*
X143015935Y-128966095D02*
X143815935Y-129423238D01*
X143815935Y-129423238D02*
X143015935Y-129423238D01*
X143942935Y-110651390D02*
X143142935Y-110651390D01*
X143142935Y-110651390D02*
X143142935Y-110956152D01*
X143142935Y-110956152D02*
X143181030Y-111032342D01*
X143181030Y-111032342D02*
X143219125Y-111070437D01*
X143219125Y-111070437D02*
X143295316Y-111108533D01*
X143295316Y-111108533D02*
X143409601Y-111108533D01*
X143409601Y-111108533D02*
X143485792Y-111070437D01*
X143485792Y-111070437D02*
X143523887Y-111032342D01*
X143523887Y-111032342D02*
X143561982Y-110956152D01*
X143561982Y-110956152D02*
X143561982Y-110651390D01*
X143142935Y-111375199D02*
X143942935Y-111565675D01*
X143942935Y-111565675D02*
X143371506Y-111718056D01*
X143371506Y-111718056D02*
X143942935Y-111870437D01*
X143942935Y-111870437D02*
X143142935Y-112060914D01*
X143942935Y-112365676D02*
X143142935Y-112365676D01*
X143142935Y-112365676D02*
X143714363Y-112632342D01*
X143714363Y-112632342D02*
X143142935Y-112899009D01*
X143142935Y-112899009D02*
X143942935Y-112899009D01*
X160834030Y-127670857D02*
X160795935Y-127594667D01*
X160795935Y-127594667D02*
X160795935Y-127480381D01*
X160795935Y-127480381D02*
X160834030Y-127366095D01*
X160834030Y-127366095D02*
X160910220Y-127289905D01*
X160910220Y-127289905D02*
X160986411Y-127251810D01*
X160986411Y-127251810D02*
X161138792Y-127213714D01*
X161138792Y-127213714D02*
X161253078Y-127213714D01*
X161253078Y-127213714D02*
X161405459Y-127251810D01*
X161405459Y-127251810D02*
X161481649Y-127289905D01*
X161481649Y-127289905D02*
X161557840Y-127366095D01*
X161557840Y-127366095D02*
X161595935Y-127480381D01*
X161595935Y-127480381D02*
X161595935Y-127556572D01*
X161595935Y-127556572D02*
X161557840Y-127670857D01*
X161557840Y-127670857D02*
X161519744Y-127708953D01*
X161519744Y-127708953D02*
X161253078Y-127708953D01*
X161253078Y-127708953D02*
X161253078Y-127556572D01*
X161595935Y-128051810D02*
X160795935Y-128051810D01*
X160795935Y-128051810D02*
X161595935Y-128508953D01*
X161595935Y-128508953D02*
X160795935Y-128508953D01*
X161595935Y-128889905D02*
X160795935Y-128889905D01*
X160795935Y-128889905D02*
X160795935Y-129080381D01*
X160795935Y-129080381D02*
X160834030Y-129194667D01*
X160834030Y-129194667D02*
X160910220Y-129270857D01*
X160910220Y-129270857D02*
X160986411Y-129308952D01*
X160986411Y-129308952D02*
X161138792Y-129347048D01*
X161138792Y-129347048D02*
X161253078Y-129347048D01*
X161253078Y-129347048D02*
X161405459Y-129308952D01*
X161405459Y-129308952D02*
X161481649Y-129270857D01*
X161481649Y-129270857D02*
X161557840Y-129194667D01*
X161557840Y-129194667D02*
X161595935Y-129080381D01*
X161595935Y-129080381D02*
X161595935Y-128889905D01*
X158725773Y-126394666D02*
X158725773Y-127004190D01*
X159030535Y-126699428D02*
X158421011Y-126699428D01*
X158230535Y-127308951D02*
X158230535Y-127804189D01*
X158230535Y-127804189D02*
X158535297Y-127537523D01*
X158535297Y-127537523D02*
X158535297Y-127651808D01*
X158535297Y-127651808D02*
X158573392Y-127727999D01*
X158573392Y-127727999D02*
X158611487Y-127766094D01*
X158611487Y-127766094D02*
X158687678Y-127804189D01*
X158687678Y-127804189D02*
X158878154Y-127804189D01*
X158878154Y-127804189D02*
X158954344Y-127766094D01*
X158954344Y-127766094D02*
X158992440Y-127727999D01*
X158992440Y-127727999D02*
X159030535Y-127651808D01*
X159030535Y-127651808D02*
X159030535Y-127423237D01*
X159030535Y-127423237D02*
X158992440Y-127347046D01*
X158992440Y-127347046D02*
X158954344Y-127308951D01*
X158230535Y-128032761D02*
X159030535Y-128299428D01*
X159030535Y-128299428D02*
X158230535Y-128566094D01*
X158230535Y-128756570D02*
X158230535Y-129251808D01*
X158230535Y-129251808D02*
X158535297Y-128985142D01*
X158535297Y-128985142D02*
X158535297Y-129099427D01*
X158535297Y-129099427D02*
X158573392Y-129175618D01*
X158573392Y-129175618D02*
X158611487Y-129213713D01*
X158611487Y-129213713D02*
X158687678Y-129251808D01*
X158687678Y-129251808D02*
X158878154Y-129251808D01*
X158878154Y-129251808D02*
X158954344Y-129213713D01*
X158954344Y-129213713D02*
X158992440Y-129175618D01*
X158992440Y-129175618D02*
X159030535Y-129099427D01*
X159030535Y-129099427D02*
X159030535Y-128870856D01*
X159030535Y-128870856D02*
X158992440Y-128794665D01*
X158992440Y-128794665D02*
X158954344Y-128756570D01*
X148895935Y-110975201D02*
X148514982Y-110708534D01*
X148895935Y-110518058D02*
X148095935Y-110518058D01*
X148095935Y-110518058D02*
X148095935Y-110822820D01*
X148095935Y-110822820D02*
X148134030Y-110899010D01*
X148134030Y-110899010D02*
X148172125Y-110937105D01*
X148172125Y-110937105D02*
X148248316Y-110975201D01*
X148248316Y-110975201D02*
X148362601Y-110975201D01*
X148362601Y-110975201D02*
X148438792Y-110937105D01*
X148438792Y-110937105D02*
X148476887Y-110899010D01*
X148476887Y-110899010D02*
X148514982Y-110822820D01*
X148514982Y-110822820D02*
X148514982Y-110518058D01*
X148095935Y-111241867D02*
X148895935Y-111775201D01*
X148095935Y-111775201D02*
X148895935Y-111241867D01*
X146355935Y-128008952D02*
X145974982Y-127742285D01*
X146355935Y-127551809D02*
X145555935Y-127551809D01*
X145555935Y-127551809D02*
X145555935Y-127856571D01*
X145555935Y-127856571D02*
X145594030Y-127932761D01*
X145594030Y-127932761D02*
X145632125Y-127970856D01*
X145632125Y-127970856D02*
X145708316Y-128008952D01*
X145708316Y-128008952D02*
X145822601Y-128008952D01*
X145822601Y-128008952D02*
X145898792Y-127970856D01*
X145898792Y-127970856D02*
X145936887Y-127932761D01*
X145936887Y-127932761D02*
X145974982Y-127856571D01*
X145974982Y-127856571D02*
X145974982Y-127551809D01*
X146317840Y-128313713D02*
X146355935Y-128427999D01*
X146355935Y-128427999D02*
X146355935Y-128618475D01*
X146355935Y-128618475D02*
X146317840Y-128694666D01*
X146317840Y-128694666D02*
X146279744Y-128732761D01*
X146279744Y-128732761D02*
X146203554Y-128770856D01*
X146203554Y-128770856D02*
X146127363Y-128770856D01*
X146127363Y-128770856D02*
X146051173Y-128732761D01*
X146051173Y-128732761D02*
X146013078Y-128694666D01*
X146013078Y-128694666D02*
X145974982Y-128618475D01*
X145974982Y-128618475D02*
X145936887Y-128466094D01*
X145936887Y-128466094D02*
X145898792Y-128389904D01*
X145898792Y-128389904D02*
X145860697Y-128351809D01*
X145860697Y-128351809D02*
X145784506Y-128313713D01*
X145784506Y-128313713D02*
X145708316Y-128313713D01*
X145708316Y-128313713D02*
X145632125Y-128351809D01*
X145632125Y-128351809D02*
X145594030Y-128389904D01*
X145594030Y-128389904D02*
X145555935Y-128466094D01*
X145555935Y-128466094D02*
X145555935Y-128656571D01*
X145555935Y-128656571D02*
X145594030Y-128770856D01*
X145555935Y-128999428D02*
X145555935Y-129456571D01*
X146355935Y-129227999D02*
X145555935Y-129227999D01*
X153937840Y-110560914D02*
X153975935Y-110675200D01*
X153975935Y-110675200D02*
X153975935Y-110865676D01*
X153975935Y-110865676D02*
X153937840Y-110941867D01*
X153937840Y-110941867D02*
X153899744Y-110979962D01*
X153899744Y-110979962D02*
X153823554Y-111018057D01*
X153823554Y-111018057D02*
X153747363Y-111018057D01*
X153747363Y-111018057D02*
X153671173Y-110979962D01*
X153671173Y-110979962D02*
X153633078Y-110941867D01*
X153633078Y-110941867D02*
X153594982Y-110865676D01*
X153594982Y-110865676D02*
X153556887Y-110713295D01*
X153556887Y-110713295D02*
X153518792Y-110637105D01*
X153518792Y-110637105D02*
X153480697Y-110599010D01*
X153480697Y-110599010D02*
X153404506Y-110560914D01*
X153404506Y-110560914D02*
X153328316Y-110560914D01*
X153328316Y-110560914D02*
X153252125Y-110599010D01*
X153252125Y-110599010D02*
X153214030Y-110637105D01*
X153214030Y-110637105D02*
X153175935Y-110713295D01*
X153175935Y-110713295D02*
X153175935Y-110903772D01*
X153175935Y-110903772D02*
X153214030Y-111018057D01*
X153899744Y-111818058D02*
X153937840Y-111779962D01*
X153937840Y-111779962D02*
X153975935Y-111665677D01*
X153975935Y-111665677D02*
X153975935Y-111589486D01*
X153975935Y-111589486D02*
X153937840Y-111475200D01*
X153937840Y-111475200D02*
X153861649Y-111399010D01*
X153861649Y-111399010D02*
X153785459Y-111360915D01*
X153785459Y-111360915D02*
X153633078Y-111322819D01*
X153633078Y-111322819D02*
X153518792Y-111322819D01*
X153518792Y-111322819D02*
X153366411Y-111360915D01*
X153366411Y-111360915D02*
X153290220Y-111399010D01*
X153290220Y-111399010D02*
X153214030Y-111475200D01*
X153214030Y-111475200D02*
X153175935Y-111589486D01*
X153175935Y-111589486D02*
X153175935Y-111665677D01*
X153175935Y-111665677D02*
X153214030Y-111779962D01*
X153214030Y-111779962D02*
X153252125Y-111818058D01*
X153975935Y-112541867D02*
X153975935Y-112160915D01*
X153975935Y-112160915D02*
X153175935Y-112160915D01*
X153822840Y-127302380D02*
X153860935Y-127416666D01*
X153860935Y-127416666D02*
X153860935Y-127607142D01*
X153860935Y-127607142D02*
X153822840Y-127683333D01*
X153822840Y-127683333D02*
X153784744Y-127721428D01*
X153784744Y-127721428D02*
X153708554Y-127759523D01*
X153708554Y-127759523D02*
X153632363Y-127759523D01*
X153632363Y-127759523D02*
X153556173Y-127721428D01*
X153556173Y-127721428D02*
X153518078Y-127683333D01*
X153518078Y-127683333D02*
X153479982Y-127607142D01*
X153479982Y-127607142D02*
X153441887Y-127454761D01*
X153441887Y-127454761D02*
X153403792Y-127378571D01*
X153403792Y-127378571D02*
X153365697Y-127340476D01*
X153365697Y-127340476D02*
X153289506Y-127302380D01*
X153289506Y-127302380D02*
X153213316Y-127302380D01*
X153213316Y-127302380D02*
X153137125Y-127340476D01*
X153137125Y-127340476D02*
X153099030Y-127378571D01*
X153099030Y-127378571D02*
X153060935Y-127454761D01*
X153060935Y-127454761D02*
X153060935Y-127645238D01*
X153060935Y-127645238D02*
X153099030Y-127759523D01*
X153860935Y-128102381D02*
X153060935Y-128102381D01*
X153060935Y-128102381D02*
X153060935Y-128292857D01*
X153060935Y-128292857D02*
X153099030Y-128407143D01*
X153099030Y-128407143D02*
X153175220Y-128483333D01*
X153175220Y-128483333D02*
X153251411Y-128521428D01*
X153251411Y-128521428D02*
X153403792Y-128559524D01*
X153403792Y-128559524D02*
X153518078Y-128559524D01*
X153518078Y-128559524D02*
X153670459Y-128521428D01*
X153670459Y-128521428D02*
X153746649Y-128483333D01*
X153746649Y-128483333D02*
X153822840Y-128407143D01*
X153822840Y-128407143D02*
X153860935Y-128292857D01*
X153860935Y-128292857D02*
X153860935Y-128102381D01*
X153060935Y-129054762D02*
X153060935Y-129207143D01*
X153060935Y-129207143D02*
X153099030Y-129283333D01*
X153099030Y-129283333D02*
X153175220Y-129359524D01*
X153175220Y-129359524D02*
X153327601Y-129397619D01*
X153327601Y-129397619D02*
X153594268Y-129397619D01*
X153594268Y-129397619D02*
X153746649Y-129359524D01*
X153746649Y-129359524D02*
X153822840Y-129283333D01*
X153822840Y-129283333D02*
X153860935Y-129207143D01*
X153860935Y-129207143D02*
X153860935Y-129054762D01*
X153860935Y-129054762D02*
X153822840Y-128978571D01*
X153822840Y-128978571D02*
X153746649Y-128902381D01*
X153746649Y-128902381D02*
X153594268Y-128864285D01*
X153594268Y-128864285D02*
X153327601Y-128864285D01*
X153327601Y-128864285D02*
X153175220Y-128902381D01*
X153175220Y-128902381D02*
X153099030Y-128978571D01*
X153099030Y-128978571D02*
X153060935Y-129054762D01*
X150635935Y-110379962D02*
X150635935Y-110837105D01*
X151435935Y-110608533D02*
X150635935Y-110608533D01*
X150635935Y-111027581D02*
X151435935Y-111560915D01*
X150635935Y-111560915D02*
X151435935Y-111027581D01*
X151397840Y-127299428D02*
X151435935Y-127413714D01*
X151435935Y-127413714D02*
X151435935Y-127604190D01*
X151435935Y-127604190D02*
X151397840Y-127680381D01*
X151397840Y-127680381D02*
X151359744Y-127718476D01*
X151359744Y-127718476D02*
X151283554Y-127756571D01*
X151283554Y-127756571D02*
X151207363Y-127756571D01*
X151207363Y-127756571D02*
X151131173Y-127718476D01*
X151131173Y-127718476D02*
X151093078Y-127680381D01*
X151093078Y-127680381D02*
X151054982Y-127604190D01*
X151054982Y-127604190D02*
X151016887Y-127451809D01*
X151016887Y-127451809D02*
X150978792Y-127375619D01*
X150978792Y-127375619D02*
X150940697Y-127337524D01*
X150940697Y-127337524D02*
X150864506Y-127299428D01*
X150864506Y-127299428D02*
X150788316Y-127299428D01*
X150788316Y-127299428D02*
X150712125Y-127337524D01*
X150712125Y-127337524D02*
X150674030Y-127375619D01*
X150674030Y-127375619D02*
X150635935Y-127451809D01*
X150635935Y-127451809D02*
X150635935Y-127642286D01*
X150635935Y-127642286D02*
X150674030Y-127756571D01*
X151359744Y-128556572D02*
X151397840Y-128518476D01*
X151397840Y-128518476D02*
X151435935Y-128404191D01*
X151435935Y-128404191D02*
X151435935Y-128328000D01*
X151435935Y-128328000D02*
X151397840Y-128213714D01*
X151397840Y-128213714D02*
X151321649Y-128137524D01*
X151321649Y-128137524D02*
X151245459Y-128099429D01*
X151245459Y-128099429D02*
X151093078Y-128061333D01*
X151093078Y-128061333D02*
X150978792Y-128061333D01*
X150978792Y-128061333D02*
X150826411Y-128099429D01*
X150826411Y-128099429D02*
X150750220Y-128137524D01*
X150750220Y-128137524D02*
X150674030Y-128213714D01*
X150674030Y-128213714D02*
X150635935Y-128328000D01*
X150635935Y-128328000D02*
X150635935Y-128404191D01*
X150635935Y-128404191D02*
X150674030Y-128518476D01*
X150674030Y-128518476D02*
X150712125Y-128556572D01*
X151435935Y-128899429D02*
X150635935Y-128899429D01*
X151435935Y-129356572D02*
X150978792Y-129013714D01*
X150635935Y-129356572D02*
X151093078Y-128899429D01*
X148794344Y-128694667D02*
X148832440Y-128656571D01*
X148832440Y-128656571D02*
X148870535Y-128542286D01*
X148870535Y-128542286D02*
X148870535Y-128466095D01*
X148870535Y-128466095D02*
X148832440Y-128351809D01*
X148832440Y-128351809D02*
X148756249Y-128275619D01*
X148756249Y-128275619D02*
X148680059Y-128237524D01*
X148680059Y-128237524D02*
X148527678Y-128199428D01*
X148527678Y-128199428D02*
X148413392Y-128199428D01*
X148413392Y-128199428D02*
X148261011Y-128237524D01*
X148261011Y-128237524D02*
X148184820Y-128275619D01*
X148184820Y-128275619D02*
X148108630Y-128351809D01*
X148108630Y-128351809D02*
X148070535Y-128466095D01*
X148070535Y-128466095D02*
X148070535Y-128542286D01*
X148070535Y-128542286D02*
X148108630Y-128656571D01*
X148108630Y-128656571D02*
X148146725Y-128694667D01*
X148832440Y-128999428D02*
X148870535Y-129113714D01*
X148870535Y-129113714D02*
X148870535Y-129304190D01*
X148870535Y-129304190D02*
X148832440Y-129380381D01*
X148832440Y-129380381D02*
X148794344Y-129418476D01*
X148794344Y-129418476D02*
X148718154Y-129456571D01*
X148718154Y-129456571D02*
X148641963Y-129456571D01*
X148641963Y-129456571D02*
X148565773Y-129418476D01*
X148565773Y-129418476D02*
X148527678Y-129380381D01*
X148527678Y-129380381D02*
X148489582Y-129304190D01*
X148489582Y-129304190D02*
X148451487Y-129151809D01*
X148451487Y-129151809D02*
X148413392Y-129075619D01*
X148413392Y-129075619D02*
X148375297Y-129037524D01*
X148375297Y-129037524D02*
X148299106Y-128999428D01*
X148299106Y-128999428D02*
X148222916Y-128999428D01*
X148222916Y-128999428D02*
X148146725Y-129037524D01*
X148146725Y-129037524D02*
X148108630Y-129075619D01*
X148108630Y-129075619D02*
X148070535Y-129151809D01*
X148070535Y-129151809D02*
X148070535Y-129342286D01*
X148070535Y-129342286D02*
X148108630Y-129456571D01*
X146355935Y-110551391D02*
X145555935Y-110551391D01*
X146355935Y-110932343D02*
X145555935Y-110932343D01*
X145555935Y-110932343D02*
X146355935Y-111389486D01*
X146355935Y-111389486D02*
X145555935Y-111389486D01*
X145555935Y-111656152D02*
X145555935Y-112113295D01*
X146355935Y-111884723D02*
X145555935Y-111884723D01*
X145672760Y-75036072D02*
X144872760Y-75036072D01*
X145672760Y-75417024D02*
X144872760Y-75417024D01*
X144872760Y-75417024D02*
X145672760Y-75874167D01*
X145672760Y-75874167D02*
X144872760Y-75874167D01*
X144872760Y-76140833D02*
X144872760Y-76597976D01*
X145672760Y-76369404D02*
X144872760Y-76369404D01*
X144834665Y-77436071D02*
X145863236Y-76750357D01*
X145672760Y-77702738D02*
X144872760Y-77702738D01*
X144872760Y-78236071D02*
X144872760Y-78388452D01*
X144872760Y-78388452D02*
X144910855Y-78464642D01*
X144910855Y-78464642D02*
X144987045Y-78540833D01*
X144987045Y-78540833D02*
X145139426Y-78578928D01*
X145139426Y-78578928D02*
X145406093Y-78578928D01*
X145406093Y-78578928D02*
X145558474Y-78540833D01*
X145558474Y-78540833D02*
X145634665Y-78464642D01*
X145634665Y-78464642D02*
X145672760Y-78388452D01*
X145672760Y-78388452D02*
X145672760Y-78236071D01*
X145672760Y-78236071D02*
X145634665Y-78159880D01*
X145634665Y-78159880D02*
X145558474Y-78083690D01*
X145558474Y-78083690D02*
X145406093Y-78045594D01*
X145406093Y-78045594D02*
X145139426Y-78045594D01*
X145139426Y-78045594D02*
X144987045Y-78083690D01*
X144987045Y-78083690D02*
X144910855Y-78159880D01*
X144910855Y-78159880D02*
X144872760Y-78236071D01*
X145139426Y-79264642D02*
X145672760Y-79264642D01*
X144834665Y-79074166D02*
X145406093Y-78883689D01*
X145406093Y-78883689D02*
X145406093Y-79378928D01*
X142485935Y-81993333D02*
X141952601Y-81993333D01*
X142028792Y-81993333D02*
X141990697Y-82031428D01*
X141990697Y-82031428D02*
X141952601Y-82107618D01*
X141952601Y-82107618D02*
X141952601Y-82221904D01*
X141952601Y-82221904D02*
X141990697Y-82298095D01*
X141990697Y-82298095D02*
X142066887Y-82336190D01*
X142066887Y-82336190D02*
X142485935Y-82336190D01*
X142066887Y-82336190D02*
X141990697Y-82374285D01*
X141990697Y-82374285D02*
X141952601Y-82450476D01*
X141952601Y-82450476D02*
X141952601Y-82564761D01*
X141952601Y-82564761D02*
X141990697Y-82640952D01*
X141990697Y-82640952D02*
X142066887Y-82679047D01*
X142066887Y-82679047D02*
X142485935Y-82679047D01*
X142485935Y-83060000D02*
X141952601Y-83060000D01*
X141685935Y-83060000D02*
X141724030Y-83021904D01*
X141724030Y-83021904D02*
X141762125Y-83060000D01*
X141762125Y-83060000D02*
X141724030Y-83098095D01*
X141724030Y-83098095D02*
X141685935Y-83060000D01*
X141685935Y-83060000D02*
X141762125Y-83060000D01*
X142485935Y-83440952D02*
X141685935Y-83440952D01*
X142181173Y-83517142D02*
X142485935Y-83745714D01*
X141952601Y-83745714D02*
X142257363Y-83440952D01*
X142485935Y-84088571D02*
X141952601Y-84088571D01*
X142104982Y-84088571D02*
X142028792Y-84126666D01*
X142028792Y-84126666D02*
X141990697Y-84164761D01*
X141990697Y-84164761D02*
X141952601Y-84240952D01*
X141952601Y-84240952D02*
X141952601Y-84317142D01*
X142485935Y-84698094D02*
X142447840Y-84621904D01*
X142447840Y-84621904D02*
X142409744Y-84583809D01*
X142409744Y-84583809D02*
X142333554Y-84545713D01*
X142333554Y-84545713D02*
X142104982Y-84545713D01*
X142104982Y-84545713D02*
X142028792Y-84583809D01*
X142028792Y-84583809D02*
X141990697Y-84621904D01*
X141990697Y-84621904D02*
X141952601Y-84698094D01*
X141952601Y-84698094D02*
X141952601Y-84812380D01*
X141952601Y-84812380D02*
X141990697Y-84888571D01*
X141990697Y-84888571D02*
X142028792Y-84926666D01*
X142028792Y-84926666D02*
X142104982Y-84964761D01*
X142104982Y-84964761D02*
X142333554Y-84964761D01*
X142333554Y-84964761D02*
X142409744Y-84926666D01*
X142409744Y-84926666D02*
X142447840Y-84888571D01*
X142447840Y-84888571D02*
X142485935Y-84812380D01*
X142485935Y-84812380D02*
X142485935Y-84698094D01*
X142066887Y-85574285D02*
X142104982Y-85688571D01*
X142104982Y-85688571D02*
X142143078Y-85726666D01*
X142143078Y-85726666D02*
X142219268Y-85764762D01*
X142219268Y-85764762D02*
X142333554Y-85764762D01*
X142333554Y-85764762D02*
X142409744Y-85726666D01*
X142409744Y-85726666D02*
X142447840Y-85688571D01*
X142447840Y-85688571D02*
X142485935Y-85612381D01*
X142485935Y-85612381D02*
X142485935Y-85307619D01*
X142485935Y-85307619D02*
X141685935Y-85307619D01*
X141685935Y-85307619D02*
X141685935Y-85574285D01*
X141685935Y-85574285D02*
X141724030Y-85650476D01*
X141724030Y-85650476D02*
X141762125Y-85688571D01*
X141762125Y-85688571D02*
X141838316Y-85726666D01*
X141838316Y-85726666D02*
X141914506Y-85726666D01*
X141914506Y-85726666D02*
X141990697Y-85688571D01*
X141990697Y-85688571D02*
X142028792Y-85650476D01*
X142028792Y-85650476D02*
X142066887Y-85574285D01*
X142066887Y-85574285D02*
X142066887Y-85307619D01*
X141685935Y-86107619D02*
X142333554Y-86107619D01*
X142333554Y-86107619D02*
X142409744Y-86145714D01*
X142409744Y-86145714D02*
X142447840Y-86183809D01*
X142447840Y-86183809D02*
X142485935Y-86260000D01*
X142485935Y-86260000D02*
X142485935Y-86412381D01*
X142485935Y-86412381D02*
X142447840Y-86488571D01*
X142447840Y-86488571D02*
X142409744Y-86526666D01*
X142409744Y-86526666D02*
X142333554Y-86564762D01*
X142333554Y-86564762D02*
X141685935Y-86564762D01*
X142447840Y-86907618D02*
X142485935Y-87021904D01*
X142485935Y-87021904D02*
X142485935Y-87212380D01*
X142485935Y-87212380D02*
X142447840Y-87288571D01*
X142447840Y-87288571D02*
X142409744Y-87326666D01*
X142409744Y-87326666D02*
X142333554Y-87364761D01*
X142333554Y-87364761D02*
X142257363Y-87364761D01*
X142257363Y-87364761D02*
X142181173Y-87326666D01*
X142181173Y-87326666D02*
X142143078Y-87288571D01*
X142143078Y-87288571D02*
X142104982Y-87212380D01*
X142104982Y-87212380D02*
X142066887Y-87059999D01*
X142066887Y-87059999D02*
X142028792Y-86983809D01*
X142028792Y-86983809D02*
X141990697Y-86945714D01*
X141990697Y-86945714D02*
X141914506Y-86907618D01*
X141914506Y-86907618D02*
X141838316Y-86907618D01*
X141838316Y-86907618D02*
X141762125Y-86945714D01*
X141762125Y-86945714D02*
X141724030Y-86983809D01*
X141724030Y-86983809D02*
X141685935Y-87059999D01*
X141685935Y-87059999D02*
X141685935Y-87250476D01*
X141685935Y-87250476D02*
X141724030Y-87364761D01*
X141463840Y-85197143D02*
X141463840Y-87437143D01*
X153387652Y-87523750D02*
X152587652Y-87523750D01*
X152587652Y-87523750D02*
X153159080Y-87790416D01*
X153159080Y-87790416D02*
X152587652Y-88057083D01*
X152587652Y-88057083D02*
X153387652Y-88057083D01*
X153387652Y-88438036D02*
X152587652Y-88438036D01*
X153349557Y-88780892D02*
X153387652Y-88895178D01*
X153387652Y-88895178D02*
X153387652Y-89085654D01*
X153387652Y-89085654D02*
X153349557Y-89161845D01*
X153349557Y-89161845D02*
X153311461Y-89199940D01*
X153311461Y-89199940D02*
X153235271Y-89238035D01*
X153235271Y-89238035D02*
X153159080Y-89238035D01*
X153159080Y-89238035D02*
X153082890Y-89199940D01*
X153082890Y-89199940D02*
X153044795Y-89161845D01*
X153044795Y-89161845D02*
X153006699Y-89085654D01*
X153006699Y-89085654D02*
X152968604Y-88933273D01*
X152968604Y-88933273D02*
X152930509Y-88857083D01*
X152930509Y-88857083D02*
X152892414Y-88818988D01*
X152892414Y-88818988D02*
X152816223Y-88780892D01*
X152816223Y-88780892D02*
X152740033Y-88780892D01*
X152740033Y-88780892D02*
X152663842Y-88818988D01*
X152663842Y-88818988D02*
X152625747Y-88857083D01*
X152625747Y-88857083D02*
X152587652Y-88933273D01*
X152587652Y-88933273D02*
X152587652Y-89123750D01*
X152587652Y-89123750D02*
X152625747Y-89238035D01*
X152587652Y-89733274D02*
X152587652Y-89885655D01*
X152587652Y-89885655D02*
X152625747Y-89961845D01*
X152625747Y-89961845D02*
X152701937Y-90038036D01*
X152701937Y-90038036D02*
X152854318Y-90076131D01*
X152854318Y-90076131D02*
X153120985Y-90076131D01*
X153120985Y-90076131D02*
X153273366Y-90038036D01*
X153273366Y-90038036D02*
X153349557Y-89961845D01*
X153349557Y-89961845D02*
X153387652Y-89885655D01*
X153387652Y-89885655D02*
X153387652Y-89733274D01*
X153387652Y-89733274D02*
X153349557Y-89657083D01*
X153349557Y-89657083D02*
X153273366Y-89580893D01*
X153273366Y-89580893D02*
X153120985Y-89542797D01*
X153120985Y-89542797D02*
X152854318Y-89542797D01*
X152854318Y-89542797D02*
X152701937Y-89580893D01*
X152701937Y-89580893D02*
X152625747Y-89657083D01*
X152625747Y-89657083D02*
X152587652Y-89733274D01*
X152549557Y-90990416D02*
X153578128Y-90304702D01*
X153387652Y-91257083D02*
X152587652Y-91257083D01*
X152587652Y-91790416D02*
X152587652Y-91942797D01*
X152587652Y-91942797D02*
X152625747Y-92018987D01*
X152625747Y-92018987D02*
X152701937Y-92095178D01*
X152701937Y-92095178D02*
X152854318Y-92133273D01*
X152854318Y-92133273D02*
X153120985Y-92133273D01*
X153120985Y-92133273D02*
X153273366Y-92095178D01*
X153273366Y-92095178D02*
X153349557Y-92018987D01*
X153349557Y-92018987D02*
X153387652Y-91942797D01*
X153387652Y-91942797D02*
X153387652Y-91790416D01*
X153387652Y-91790416D02*
X153349557Y-91714225D01*
X153349557Y-91714225D02*
X153273366Y-91638035D01*
X153273366Y-91638035D02*
X153120985Y-91599939D01*
X153120985Y-91599939D02*
X152854318Y-91599939D01*
X152854318Y-91599939D02*
X152701937Y-91638035D01*
X152701937Y-91638035D02*
X152625747Y-91714225D01*
X152625747Y-91714225D02*
X152587652Y-91790416D01*
X153387652Y-92895177D02*
X153387652Y-92438034D01*
X153387652Y-92666606D02*
X152587652Y-92666606D01*
X152587652Y-92666606D02*
X152701937Y-92590415D01*
X152701937Y-92590415D02*
X152778128Y-92514225D01*
X152778128Y-92514225D02*
X152816223Y-92438034D01*
X152663842Y-93199939D02*
X152625747Y-93238035D01*
X152625747Y-93238035D02*
X152587652Y-93314225D01*
X152587652Y-93314225D02*
X152587652Y-93504701D01*
X152587652Y-93504701D02*
X152625747Y-93580892D01*
X152625747Y-93580892D02*
X152663842Y-93618987D01*
X152663842Y-93618987D02*
X152740033Y-93657082D01*
X152740033Y-93657082D02*
X152816223Y-93657082D01*
X152816223Y-93657082D02*
X152930509Y-93618987D01*
X152930509Y-93618987D02*
X153387652Y-93161844D01*
X153387652Y-93161844D02*
X153387652Y-93657082D01*
X158230773Y-90854666D02*
X158230773Y-91464190D01*
X158535535Y-91159428D02*
X157926011Y-91159428D01*
X157735535Y-91768951D02*
X157735535Y-92264189D01*
X157735535Y-92264189D02*
X158040297Y-91997523D01*
X158040297Y-91997523D02*
X158040297Y-92111808D01*
X158040297Y-92111808D02*
X158078392Y-92187999D01*
X158078392Y-92187999D02*
X158116487Y-92226094D01*
X158116487Y-92226094D02*
X158192678Y-92264189D01*
X158192678Y-92264189D02*
X158383154Y-92264189D01*
X158383154Y-92264189D02*
X158459344Y-92226094D01*
X158459344Y-92226094D02*
X158497440Y-92187999D01*
X158497440Y-92187999D02*
X158535535Y-92111808D01*
X158535535Y-92111808D02*
X158535535Y-91883237D01*
X158535535Y-91883237D02*
X158497440Y-91807046D01*
X158497440Y-91807046D02*
X158459344Y-91768951D01*
X157735535Y-92492761D02*
X158535535Y-92759428D01*
X158535535Y-92759428D02*
X157735535Y-93026094D01*
X157735535Y-93216570D02*
X157735535Y-93711808D01*
X157735535Y-93711808D02*
X158040297Y-93445142D01*
X158040297Y-93445142D02*
X158040297Y-93559427D01*
X158040297Y-93559427D02*
X158078392Y-93635618D01*
X158078392Y-93635618D02*
X158116487Y-93673713D01*
X158116487Y-93673713D02*
X158192678Y-93711808D01*
X158192678Y-93711808D02*
X158383154Y-93711808D01*
X158383154Y-93711808D02*
X158459344Y-93673713D01*
X158459344Y-93673713D02*
X158497440Y-93635618D01*
X158497440Y-93635618D02*
X158535535Y-93559427D01*
X158535535Y-93559427D02*
X158535535Y-93330856D01*
X158535535Y-93330856D02*
X158497440Y-93254665D01*
X158497440Y-93254665D02*
X158459344Y-93216570D01*
X145860935Y-88715619D02*
X145479982Y-88448952D01*
X145860935Y-88258476D02*
X145060935Y-88258476D01*
X145060935Y-88258476D02*
X145060935Y-88563238D01*
X145060935Y-88563238D02*
X145099030Y-88639428D01*
X145099030Y-88639428D02*
X145137125Y-88677523D01*
X145137125Y-88677523D02*
X145213316Y-88715619D01*
X145213316Y-88715619D02*
X145327601Y-88715619D01*
X145327601Y-88715619D02*
X145403792Y-88677523D01*
X145403792Y-88677523D02*
X145441887Y-88639428D01*
X145441887Y-88639428D02*
X145479982Y-88563238D01*
X145479982Y-88563238D02*
X145479982Y-88258476D01*
X145822840Y-89020380D02*
X145860935Y-89134666D01*
X145860935Y-89134666D02*
X145860935Y-89325142D01*
X145860935Y-89325142D02*
X145822840Y-89401333D01*
X145822840Y-89401333D02*
X145784744Y-89439428D01*
X145784744Y-89439428D02*
X145708554Y-89477523D01*
X145708554Y-89477523D02*
X145632363Y-89477523D01*
X145632363Y-89477523D02*
X145556173Y-89439428D01*
X145556173Y-89439428D02*
X145518078Y-89401333D01*
X145518078Y-89401333D02*
X145479982Y-89325142D01*
X145479982Y-89325142D02*
X145441887Y-89172761D01*
X145441887Y-89172761D02*
X145403792Y-89096571D01*
X145403792Y-89096571D02*
X145365697Y-89058476D01*
X145365697Y-89058476D02*
X145289506Y-89020380D01*
X145289506Y-89020380D02*
X145213316Y-89020380D01*
X145213316Y-89020380D02*
X145137125Y-89058476D01*
X145137125Y-89058476D02*
X145099030Y-89096571D01*
X145099030Y-89096571D02*
X145060935Y-89172761D01*
X145060935Y-89172761D02*
X145060935Y-89363238D01*
X145060935Y-89363238D02*
X145099030Y-89477523D01*
X145060935Y-89706095D02*
X145060935Y-90163238D01*
X145860935Y-89934666D02*
X145060935Y-89934666D01*
X145022840Y-91001333D02*
X146051411Y-90315619D01*
X145860935Y-91268000D02*
X145060935Y-91268000D01*
X145060935Y-91801333D02*
X145060935Y-91953714D01*
X145060935Y-91953714D02*
X145099030Y-92029904D01*
X145099030Y-92029904D02*
X145175220Y-92106095D01*
X145175220Y-92106095D02*
X145327601Y-92144190D01*
X145327601Y-92144190D02*
X145594268Y-92144190D01*
X145594268Y-92144190D02*
X145746649Y-92106095D01*
X145746649Y-92106095D02*
X145822840Y-92029904D01*
X145822840Y-92029904D02*
X145860935Y-91953714D01*
X145860935Y-91953714D02*
X145860935Y-91801333D01*
X145860935Y-91801333D02*
X145822840Y-91725142D01*
X145822840Y-91725142D02*
X145746649Y-91648952D01*
X145746649Y-91648952D02*
X145594268Y-91610856D01*
X145594268Y-91610856D02*
X145327601Y-91610856D01*
X145327601Y-91610856D02*
X145175220Y-91648952D01*
X145175220Y-91648952D02*
X145099030Y-91725142D01*
X145099030Y-91725142D02*
X145060935Y-91801333D01*
X145060935Y-92410856D02*
X145060935Y-92906094D01*
X145060935Y-92906094D02*
X145365697Y-92639428D01*
X145365697Y-92639428D02*
X145365697Y-92753713D01*
X145365697Y-92753713D02*
X145403792Y-92829904D01*
X145403792Y-92829904D02*
X145441887Y-92867999D01*
X145441887Y-92867999D02*
X145518078Y-92906094D01*
X145518078Y-92906094D02*
X145708554Y-92906094D01*
X145708554Y-92906094D02*
X145784744Y-92867999D01*
X145784744Y-92867999D02*
X145822840Y-92829904D01*
X145822840Y-92829904D02*
X145860935Y-92753713D01*
X145860935Y-92753713D02*
X145860935Y-92525142D01*
X145860935Y-92525142D02*
X145822840Y-92448951D01*
X145822840Y-92448951D02*
X145784744Y-92410856D01*
X145060935Y-93629904D02*
X145060935Y-93248952D01*
X145060935Y-93248952D02*
X145441887Y-93210856D01*
X145441887Y-93210856D02*
X145403792Y-93248952D01*
X145403792Y-93248952D02*
X145365697Y-93325142D01*
X145365697Y-93325142D02*
X145365697Y-93515618D01*
X145365697Y-93515618D02*
X145403792Y-93591809D01*
X145403792Y-93591809D02*
X145441887Y-93629904D01*
X145441887Y-93629904D02*
X145518078Y-93667999D01*
X145518078Y-93667999D02*
X145708554Y-93667999D01*
X145708554Y-93667999D02*
X145784744Y-93629904D01*
X145784744Y-93629904D02*
X145822840Y-93591809D01*
X145822840Y-93591809D02*
X145860935Y-93515618D01*
X145860935Y-93515618D02*
X145860935Y-93325142D01*
X145860935Y-93325142D02*
X145822840Y-93248952D01*
X145822840Y-93248952D02*
X145784744Y-93210856D01*
X155811852Y-75101507D02*
X155849947Y-75215793D01*
X155849947Y-75215793D02*
X155849947Y-75406269D01*
X155849947Y-75406269D02*
X155811852Y-75482460D01*
X155811852Y-75482460D02*
X155773756Y-75520555D01*
X155773756Y-75520555D02*
X155697566Y-75558650D01*
X155697566Y-75558650D02*
X155621375Y-75558650D01*
X155621375Y-75558650D02*
X155545185Y-75520555D01*
X155545185Y-75520555D02*
X155507090Y-75482460D01*
X155507090Y-75482460D02*
X155468994Y-75406269D01*
X155468994Y-75406269D02*
X155430899Y-75253888D01*
X155430899Y-75253888D02*
X155392804Y-75177698D01*
X155392804Y-75177698D02*
X155354709Y-75139603D01*
X155354709Y-75139603D02*
X155278518Y-75101507D01*
X155278518Y-75101507D02*
X155202328Y-75101507D01*
X155202328Y-75101507D02*
X155126137Y-75139603D01*
X155126137Y-75139603D02*
X155088042Y-75177698D01*
X155088042Y-75177698D02*
X155049947Y-75253888D01*
X155049947Y-75253888D02*
X155049947Y-75444365D01*
X155049947Y-75444365D02*
X155088042Y-75558650D01*
X155849947Y-75901508D02*
X155049947Y-75901508D01*
X155049947Y-75901508D02*
X155049947Y-76091984D01*
X155049947Y-76091984D02*
X155088042Y-76206270D01*
X155088042Y-76206270D02*
X155164232Y-76282460D01*
X155164232Y-76282460D02*
X155240423Y-76320555D01*
X155240423Y-76320555D02*
X155392804Y-76358651D01*
X155392804Y-76358651D02*
X155507090Y-76358651D01*
X155507090Y-76358651D02*
X155659471Y-76320555D01*
X155659471Y-76320555D02*
X155735661Y-76282460D01*
X155735661Y-76282460D02*
X155811852Y-76206270D01*
X155811852Y-76206270D02*
X155849947Y-76091984D01*
X155849947Y-76091984D02*
X155849947Y-75901508D01*
X155621375Y-76663412D02*
X155621375Y-77044365D01*
X155849947Y-76587222D02*
X155049947Y-76853889D01*
X155049947Y-76853889D02*
X155849947Y-77120555D01*
X155011852Y-77958650D02*
X156040423Y-77272936D01*
X155849947Y-78225317D02*
X155049947Y-78225317D01*
X155049947Y-78758650D02*
X155049947Y-78911031D01*
X155049947Y-78911031D02*
X155088042Y-78987221D01*
X155088042Y-78987221D02*
X155164232Y-79063412D01*
X155164232Y-79063412D02*
X155316613Y-79101507D01*
X155316613Y-79101507D02*
X155583280Y-79101507D01*
X155583280Y-79101507D02*
X155735661Y-79063412D01*
X155735661Y-79063412D02*
X155811852Y-78987221D01*
X155811852Y-78987221D02*
X155849947Y-78911031D01*
X155849947Y-78911031D02*
X155849947Y-78758650D01*
X155849947Y-78758650D02*
X155811852Y-78682459D01*
X155811852Y-78682459D02*
X155735661Y-78606269D01*
X155735661Y-78606269D02*
X155583280Y-78568173D01*
X155583280Y-78568173D02*
X155316613Y-78568173D01*
X155316613Y-78568173D02*
X155164232Y-78606269D01*
X155164232Y-78606269D02*
X155088042Y-78682459D01*
X155088042Y-78682459D02*
X155049947Y-78758650D01*
X155049947Y-79368173D02*
X155049947Y-79863411D01*
X155049947Y-79863411D02*
X155354709Y-79596745D01*
X155354709Y-79596745D02*
X155354709Y-79711030D01*
X155354709Y-79711030D02*
X155392804Y-79787221D01*
X155392804Y-79787221D02*
X155430899Y-79825316D01*
X155430899Y-79825316D02*
X155507090Y-79863411D01*
X155507090Y-79863411D02*
X155697566Y-79863411D01*
X155697566Y-79863411D02*
X155773756Y-79825316D01*
X155773756Y-79825316D02*
X155811852Y-79787221D01*
X155811852Y-79787221D02*
X155849947Y-79711030D01*
X155849947Y-79711030D02*
X155849947Y-79482459D01*
X155849947Y-79482459D02*
X155811852Y-79406268D01*
X155811852Y-79406268D02*
X155773756Y-79368173D01*
X155126137Y-80168173D02*
X155088042Y-80206269D01*
X155088042Y-80206269D02*
X155049947Y-80282459D01*
X155049947Y-80282459D02*
X155049947Y-80472935D01*
X155049947Y-80472935D02*
X155088042Y-80549126D01*
X155088042Y-80549126D02*
X155126137Y-80587221D01*
X155126137Y-80587221D02*
X155202328Y-80625316D01*
X155202328Y-80625316D02*
X155278518Y-80625316D01*
X155278518Y-80625316D02*
X155392804Y-80587221D01*
X155392804Y-80587221D02*
X155849947Y-80130078D01*
X155849947Y-80130078D02*
X155849947Y-80625316D01*
X150751652Y-88038901D02*
X150789747Y-88153187D01*
X150789747Y-88153187D02*
X150789747Y-88343663D01*
X150789747Y-88343663D02*
X150751652Y-88419854D01*
X150751652Y-88419854D02*
X150713556Y-88457949D01*
X150713556Y-88457949D02*
X150637366Y-88496044D01*
X150637366Y-88496044D02*
X150561175Y-88496044D01*
X150561175Y-88496044D02*
X150484985Y-88457949D01*
X150484985Y-88457949D02*
X150446890Y-88419854D01*
X150446890Y-88419854D02*
X150408794Y-88343663D01*
X150408794Y-88343663D02*
X150370699Y-88191282D01*
X150370699Y-88191282D02*
X150332604Y-88115092D01*
X150332604Y-88115092D02*
X150294509Y-88076997D01*
X150294509Y-88076997D02*
X150218318Y-88038901D01*
X150218318Y-88038901D02*
X150142128Y-88038901D01*
X150142128Y-88038901D02*
X150065937Y-88076997D01*
X150065937Y-88076997D02*
X150027842Y-88115092D01*
X150027842Y-88115092D02*
X149989747Y-88191282D01*
X149989747Y-88191282D02*
X149989747Y-88381759D01*
X149989747Y-88381759D02*
X150027842Y-88496044D01*
X150713556Y-89296045D02*
X150751652Y-89257949D01*
X150751652Y-89257949D02*
X150789747Y-89143664D01*
X150789747Y-89143664D02*
X150789747Y-89067473D01*
X150789747Y-89067473D02*
X150751652Y-88953187D01*
X150751652Y-88953187D02*
X150675461Y-88876997D01*
X150675461Y-88876997D02*
X150599271Y-88838902D01*
X150599271Y-88838902D02*
X150446890Y-88800806D01*
X150446890Y-88800806D02*
X150332604Y-88800806D01*
X150332604Y-88800806D02*
X150180223Y-88838902D01*
X150180223Y-88838902D02*
X150104032Y-88876997D01*
X150104032Y-88876997D02*
X150027842Y-88953187D01*
X150027842Y-88953187D02*
X149989747Y-89067473D01*
X149989747Y-89067473D02*
X149989747Y-89143664D01*
X149989747Y-89143664D02*
X150027842Y-89257949D01*
X150027842Y-89257949D02*
X150065937Y-89296045D01*
X150789747Y-89638902D02*
X149989747Y-89638902D01*
X150789747Y-90096045D02*
X150332604Y-89753187D01*
X149989747Y-90096045D02*
X150446890Y-89638902D01*
X149951652Y-91010330D02*
X150980223Y-90324616D01*
X150789747Y-91276997D02*
X149989747Y-91276997D01*
X149989747Y-91810330D02*
X149989747Y-91962711D01*
X149989747Y-91962711D02*
X150027842Y-92038901D01*
X150027842Y-92038901D02*
X150104032Y-92115092D01*
X150104032Y-92115092D02*
X150256413Y-92153187D01*
X150256413Y-92153187D02*
X150523080Y-92153187D01*
X150523080Y-92153187D02*
X150675461Y-92115092D01*
X150675461Y-92115092D02*
X150751652Y-92038901D01*
X150751652Y-92038901D02*
X150789747Y-91962711D01*
X150789747Y-91962711D02*
X150789747Y-91810330D01*
X150789747Y-91810330D02*
X150751652Y-91734139D01*
X150751652Y-91734139D02*
X150675461Y-91657949D01*
X150675461Y-91657949D02*
X150523080Y-91619853D01*
X150523080Y-91619853D02*
X150256413Y-91619853D01*
X150256413Y-91619853D02*
X150104032Y-91657949D01*
X150104032Y-91657949D02*
X150027842Y-91734139D01*
X150027842Y-91734139D02*
X149989747Y-91810330D01*
X150789747Y-92915091D02*
X150789747Y-92457948D01*
X150789747Y-92686520D02*
X149989747Y-92686520D01*
X149989747Y-92686520D02*
X150104032Y-92610329D01*
X150104032Y-92610329D02*
X150180223Y-92534139D01*
X150180223Y-92534139D02*
X150218318Y-92457948D01*
X150256413Y-93600806D02*
X150789747Y-93600806D01*
X149951652Y-93410330D02*
X150523080Y-93219853D01*
X150523080Y-93219853D02*
X150523080Y-93715092D01*
X160339030Y-92130857D02*
X160300935Y-92054667D01*
X160300935Y-92054667D02*
X160300935Y-91940381D01*
X160300935Y-91940381D02*
X160339030Y-91826095D01*
X160339030Y-91826095D02*
X160415220Y-91749905D01*
X160415220Y-91749905D02*
X160491411Y-91711810D01*
X160491411Y-91711810D02*
X160643792Y-91673714D01*
X160643792Y-91673714D02*
X160758078Y-91673714D01*
X160758078Y-91673714D02*
X160910459Y-91711810D01*
X160910459Y-91711810D02*
X160986649Y-91749905D01*
X160986649Y-91749905D02*
X161062840Y-91826095D01*
X161062840Y-91826095D02*
X161100935Y-91940381D01*
X161100935Y-91940381D02*
X161100935Y-92016572D01*
X161100935Y-92016572D02*
X161062840Y-92130857D01*
X161062840Y-92130857D02*
X161024744Y-92168953D01*
X161024744Y-92168953D02*
X160758078Y-92168953D01*
X160758078Y-92168953D02*
X160758078Y-92016572D01*
X161100935Y-92511810D02*
X160300935Y-92511810D01*
X160300935Y-92511810D02*
X161100935Y-92968953D01*
X161100935Y-92968953D02*
X160300935Y-92968953D01*
X161100935Y-93349905D02*
X160300935Y-93349905D01*
X160300935Y-93349905D02*
X160300935Y-93540381D01*
X160300935Y-93540381D02*
X160339030Y-93654667D01*
X160339030Y-93654667D02*
X160415220Y-93730857D01*
X160415220Y-93730857D02*
X160491411Y-93768952D01*
X160491411Y-93768952D02*
X160643792Y-93807048D01*
X160643792Y-93807048D02*
X160758078Y-93807048D01*
X160758078Y-93807048D02*
X160910459Y-93768952D01*
X160910459Y-93768952D02*
X160986649Y-93730857D01*
X160986649Y-93730857D02*
X161062840Y-93654667D01*
X161062840Y-93654667D02*
X161100935Y-93540381D01*
X161100935Y-93540381D02*
X161100935Y-93349905D01*
X158256173Y-75087582D02*
X158256173Y-75697106D01*
X158560935Y-75392344D02*
X157951411Y-75392344D01*
X157760935Y-76459010D02*
X157760935Y-76078058D01*
X157760935Y-76078058D02*
X158141887Y-76039962D01*
X158141887Y-76039962D02*
X158103792Y-76078058D01*
X158103792Y-76078058D02*
X158065697Y-76154248D01*
X158065697Y-76154248D02*
X158065697Y-76344724D01*
X158065697Y-76344724D02*
X158103792Y-76420915D01*
X158103792Y-76420915D02*
X158141887Y-76459010D01*
X158141887Y-76459010D02*
X158218078Y-76497105D01*
X158218078Y-76497105D02*
X158408554Y-76497105D01*
X158408554Y-76497105D02*
X158484744Y-76459010D01*
X158484744Y-76459010D02*
X158522840Y-76420915D01*
X158522840Y-76420915D02*
X158560935Y-76344724D01*
X158560935Y-76344724D02*
X158560935Y-76154248D01*
X158560935Y-76154248D02*
X158522840Y-76078058D01*
X158522840Y-76078058D02*
X158484744Y-76039962D01*
X157760935Y-76725677D02*
X158560935Y-76992344D01*
X158560935Y-76992344D02*
X157760935Y-77259010D01*
X160339030Y-75506629D02*
X160300935Y-75430439D01*
X160300935Y-75430439D02*
X160300935Y-75316153D01*
X160300935Y-75316153D02*
X160339030Y-75201867D01*
X160339030Y-75201867D02*
X160415220Y-75125677D01*
X160415220Y-75125677D02*
X160491411Y-75087582D01*
X160491411Y-75087582D02*
X160643792Y-75049486D01*
X160643792Y-75049486D02*
X160758078Y-75049486D01*
X160758078Y-75049486D02*
X160910459Y-75087582D01*
X160910459Y-75087582D02*
X160986649Y-75125677D01*
X160986649Y-75125677D02*
X161062840Y-75201867D01*
X161062840Y-75201867D02*
X161100935Y-75316153D01*
X161100935Y-75316153D02*
X161100935Y-75392344D01*
X161100935Y-75392344D02*
X161062840Y-75506629D01*
X161062840Y-75506629D02*
X161024744Y-75544725D01*
X161024744Y-75544725D02*
X160758078Y-75544725D01*
X160758078Y-75544725D02*
X160758078Y-75392344D01*
X161100935Y-75887582D02*
X160300935Y-75887582D01*
X160300935Y-75887582D02*
X161100935Y-76344725D01*
X161100935Y-76344725D02*
X160300935Y-76344725D01*
X161100935Y-76725677D02*
X160300935Y-76725677D01*
X160300935Y-76725677D02*
X160300935Y-76916153D01*
X160300935Y-76916153D02*
X160339030Y-77030439D01*
X160339030Y-77030439D02*
X160415220Y-77106629D01*
X160415220Y-77106629D02*
X160491411Y-77144724D01*
X160491411Y-77144724D02*
X160643792Y-77182820D01*
X160643792Y-77182820D02*
X160758078Y-77182820D01*
X160758078Y-77182820D02*
X160910459Y-77144724D01*
X160910459Y-77144724D02*
X160986649Y-77106629D01*
X160986649Y-77106629D02*
X161062840Y-77030439D01*
X161062840Y-77030439D02*
X161100935Y-76916153D01*
X161100935Y-76916153D02*
X161100935Y-76725677D01*
X155826933Y-87523750D02*
X155026933Y-87523750D01*
X155026933Y-87523750D02*
X155598361Y-87790416D01*
X155598361Y-87790416D02*
X155026933Y-88057083D01*
X155026933Y-88057083D02*
X155826933Y-88057083D01*
X155026933Y-88590417D02*
X155026933Y-88742798D01*
X155026933Y-88742798D02*
X155065028Y-88818988D01*
X155065028Y-88818988D02*
X155141218Y-88895179D01*
X155141218Y-88895179D02*
X155293599Y-88933274D01*
X155293599Y-88933274D02*
X155560266Y-88933274D01*
X155560266Y-88933274D02*
X155712647Y-88895179D01*
X155712647Y-88895179D02*
X155788838Y-88818988D01*
X155788838Y-88818988D02*
X155826933Y-88742798D01*
X155826933Y-88742798D02*
X155826933Y-88590417D01*
X155826933Y-88590417D02*
X155788838Y-88514226D01*
X155788838Y-88514226D02*
X155712647Y-88438036D01*
X155712647Y-88438036D02*
X155560266Y-88399940D01*
X155560266Y-88399940D02*
X155293599Y-88399940D01*
X155293599Y-88399940D02*
X155141218Y-88438036D01*
X155141218Y-88438036D02*
X155065028Y-88514226D01*
X155065028Y-88514226D02*
X155026933Y-88590417D01*
X155788838Y-89238035D02*
X155826933Y-89352321D01*
X155826933Y-89352321D02*
X155826933Y-89542797D01*
X155826933Y-89542797D02*
X155788838Y-89618988D01*
X155788838Y-89618988D02*
X155750742Y-89657083D01*
X155750742Y-89657083D02*
X155674552Y-89695178D01*
X155674552Y-89695178D02*
X155598361Y-89695178D01*
X155598361Y-89695178D02*
X155522171Y-89657083D01*
X155522171Y-89657083D02*
X155484076Y-89618988D01*
X155484076Y-89618988D02*
X155445980Y-89542797D01*
X155445980Y-89542797D02*
X155407885Y-89390416D01*
X155407885Y-89390416D02*
X155369790Y-89314226D01*
X155369790Y-89314226D02*
X155331695Y-89276131D01*
X155331695Y-89276131D02*
X155255504Y-89238035D01*
X155255504Y-89238035D02*
X155179314Y-89238035D01*
X155179314Y-89238035D02*
X155103123Y-89276131D01*
X155103123Y-89276131D02*
X155065028Y-89314226D01*
X155065028Y-89314226D02*
X155026933Y-89390416D01*
X155026933Y-89390416D02*
X155026933Y-89580893D01*
X155026933Y-89580893D02*
X155065028Y-89695178D01*
X155826933Y-90038036D02*
X155026933Y-90038036D01*
X154988838Y-90990416D02*
X156017409Y-90304702D01*
X155826933Y-91257083D02*
X155026933Y-91257083D01*
X155026933Y-91790416D02*
X155026933Y-91942797D01*
X155026933Y-91942797D02*
X155065028Y-92018987D01*
X155065028Y-92018987D02*
X155141218Y-92095178D01*
X155141218Y-92095178D02*
X155293599Y-92133273D01*
X155293599Y-92133273D02*
X155560266Y-92133273D01*
X155560266Y-92133273D02*
X155712647Y-92095178D01*
X155712647Y-92095178D02*
X155788838Y-92018987D01*
X155788838Y-92018987D02*
X155826933Y-91942797D01*
X155826933Y-91942797D02*
X155826933Y-91790416D01*
X155826933Y-91790416D02*
X155788838Y-91714225D01*
X155788838Y-91714225D02*
X155712647Y-91638035D01*
X155712647Y-91638035D02*
X155560266Y-91599939D01*
X155560266Y-91599939D02*
X155293599Y-91599939D01*
X155293599Y-91599939D02*
X155141218Y-91638035D01*
X155141218Y-91638035D02*
X155065028Y-91714225D01*
X155065028Y-91714225D02*
X155026933Y-91790416D01*
X155826933Y-92895177D02*
X155826933Y-92438034D01*
X155826933Y-92666606D02*
X155026933Y-92666606D01*
X155026933Y-92666606D02*
X155141218Y-92590415D01*
X155141218Y-92590415D02*
X155217409Y-92514225D01*
X155217409Y-92514225D02*
X155255504Y-92438034D01*
X155026933Y-93161844D02*
X155026933Y-93657082D01*
X155026933Y-93657082D02*
X155331695Y-93390416D01*
X155331695Y-93390416D02*
X155331695Y-93504701D01*
X155331695Y-93504701D02*
X155369790Y-93580892D01*
X155369790Y-93580892D02*
X155407885Y-93618987D01*
X155407885Y-93618987D02*
X155484076Y-93657082D01*
X155484076Y-93657082D02*
X155674552Y-93657082D01*
X155674552Y-93657082D02*
X155750742Y-93618987D01*
X155750742Y-93618987D02*
X155788838Y-93580892D01*
X155788838Y-93580892D02*
X155826933Y-93504701D01*
X155826933Y-93504701D02*
X155826933Y-93276130D01*
X155826933Y-93276130D02*
X155788838Y-93199939D01*
X155788838Y-93199939D02*
X155750742Y-93161844D01*
X148207886Y-75543198D02*
X147826933Y-75276531D01*
X148207886Y-75086055D02*
X147407886Y-75086055D01*
X147407886Y-75086055D02*
X147407886Y-75390817D01*
X147407886Y-75390817D02*
X147445981Y-75467007D01*
X147445981Y-75467007D02*
X147484076Y-75505102D01*
X147484076Y-75505102D02*
X147560267Y-75543198D01*
X147560267Y-75543198D02*
X147674552Y-75543198D01*
X147674552Y-75543198D02*
X147750743Y-75505102D01*
X147750743Y-75505102D02*
X147788838Y-75467007D01*
X147788838Y-75467007D02*
X147826933Y-75390817D01*
X147826933Y-75390817D02*
X147826933Y-75086055D01*
X147407886Y-75809864D02*
X148207886Y-76343198D01*
X147407886Y-76343198D02*
X148207886Y-75809864D01*
X147369791Y-77219388D02*
X148398362Y-76533674D01*
X148207886Y-77486055D02*
X147407886Y-77486055D01*
X147407886Y-78019388D02*
X147407886Y-78171769D01*
X147407886Y-78171769D02*
X147445981Y-78247959D01*
X147445981Y-78247959D02*
X147522171Y-78324150D01*
X147522171Y-78324150D02*
X147674552Y-78362245D01*
X147674552Y-78362245D02*
X147941219Y-78362245D01*
X147941219Y-78362245D02*
X148093600Y-78324150D01*
X148093600Y-78324150D02*
X148169791Y-78247959D01*
X148169791Y-78247959D02*
X148207886Y-78171769D01*
X148207886Y-78171769D02*
X148207886Y-78019388D01*
X148207886Y-78019388D02*
X148169791Y-77943197D01*
X148169791Y-77943197D02*
X148093600Y-77867007D01*
X148093600Y-77867007D02*
X147941219Y-77828911D01*
X147941219Y-77828911D02*
X147674552Y-77828911D01*
X147674552Y-77828911D02*
X147522171Y-77867007D01*
X147522171Y-77867007D02*
X147445981Y-77943197D01*
X147445981Y-77943197D02*
X147407886Y-78019388D01*
X148207886Y-79124149D02*
X148207886Y-78667006D01*
X148207886Y-78895578D02*
X147407886Y-78895578D01*
X147407886Y-78895578D02*
X147522171Y-78819387D01*
X147522171Y-78819387D02*
X147598362Y-78743197D01*
X147598362Y-78743197D02*
X147636457Y-78667006D01*
X147407886Y-79390816D02*
X147407886Y-79924150D01*
X147407886Y-79924150D02*
X148207886Y-79581292D01*
X148108940Y-89430143D02*
X148147036Y-89392047D01*
X148147036Y-89392047D02*
X148185131Y-89277762D01*
X148185131Y-89277762D02*
X148185131Y-89201571D01*
X148185131Y-89201571D02*
X148147036Y-89087285D01*
X148147036Y-89087285D02*
X148070845Y-89011095D01*
X148070845Y-89011095D02*
X147994655Y-88973000D01*
X147994655Y-88973000D02*
X147842274Y-88934904D01*
X147842274Y-88934904D02*
X147727988Y-88934904D01*
X147727988Y-88934904D02*
X147575607Y-88973000D01*
X147575607Y-88973000D02*
X147499416Y-89011095D01*
X147499416Y-89011095D02*
X147423226Y-89087285D01*
X147423226Y-89087285D02*
X147385131Y-89201571D01*
X147385131Y-89201571D02*
X147385131Y-89277762D01*
X147385131Y-89277762D02*
X147423226Y-89392047D01*
X147423226Y-89392047D02*
X147461321Y-89430143D01*
X148147036Y-89734904D02*
X148185131Y-89849190D01*
X148185131Y-89849190D02*
X148185131Y-90039666D01*
X148185131Y-90039666D02*
X148147036Y-90115857D01*
X148147036Y-90115857D02*
X148108940Y-90153952D01*
X148108940Y-90153952D02*
X148032750Y-90192047D01*
X148032750Y-90192047D02*
X147956559Y-90192047D01*
X147956559Y-90192047D02*
X147880369Y-90153952D01*
X147880369Y-90153952D02*
X147842274Y-90115857D01*
X147842274Y-90115857D02*
X147804178Y-90039666D01*
X147804178Y-90039666D02*
X147766083Y-89887285D01*
X147766083Y-89887285D02*
X147727988Y-89811095D01*
X147727988Y-89811095D02*
X147689893Y-89773000D01*
X147689893Y-89773000D02*
X147613702Y-89734904D01*
X147613702Y-89734904D02*
X147537512Y-89734904D01*
X147537512Y-89734904D02*
X147461321Y-89773000D01*
X147461321Y-89773000D02*
X147423226Y-89811095D01*
X147423226Y-89811095D02*
X147385131Y-89887285D01*
X147385131Y-89887285D02*
X147385131Y-90077762D01*
X147385131Y-90077762D02*
X147423226Y-90192047D01*
X147347036Y-91106333D02*
X148375607Y-90420619D01*
X148185131Y-91373000D02*
X147385131Y-91373000D01*
X147385131Y-91906333D02*
X147385131Y-92058714D01*
X147385131Y-92058714D02*
X147423226Y-92134904D01*
X147423226Y-92134904D02*
X147499416Y-92211095D01*
X147499416Y-92211095D02*
X147651797Y-92249190D01*
X147651797Y-92249190D02*
X147918464Y-92249190D01*
X147918464Y-92249190D02*
X148070845Y-92211095D01*
X148070845Y-92211095D02*
X148147036Y-92134904D01*
X148147036Y-92134904D02*
X148185131Y-92058714D01*
X148185131Y-92058714D02*
X148185131Y-91906333D01*
X148185131Y-91906333D02*
X148147036Y-91830142D01*
X148147036Y-91830142D02*
X148070845Y-91753952D01*
X148070845Y-91753952D02*
X147918464Y-91715856D01*
X147918464Y-91715856D02*
X147651797Y-91715856D01*
X147651797Y-91715856D02*
X147499416Y-91753952D01*
X147499416Y-91753952D02*
X147423226Y-91830142D01*
X147423226Y-91830142D02*
X147385131Y-91906333D01*
X148185131Y-93011094D02*
X148185131Y-92553951D01*
X148185131Y-92782523D02*
X147385131Y-92782523D01*
X147385131Y-92782523D02*
X147499416Y-92706332D01*
X147499416Y-92706332D02*
X147575607Y-92630142D01*
X147575607Y-92630142D02*
X147613702Y-92553951D01*
X147385131Y-93734904D02*
X147385131Y-93353952D01*
X147385131Y-93353952D02*
X147766083Y-93315856D01*
X147766083Y-93315856D02*
X147727988Y-93353952D01*
X147727988Y-93353952D02*
X147689893Y-93430142D01*
X147689893Y-93430142D02*
X147689893Y-93620618D01*
X147689893Y-93620618D02*
X147727988Y-93696809D01*
X147727988Y-93696809D02*
X147766083Y-93734904D01*
X147766083Y-93734904D02*
X147842274Y-93772999D01*
X147842274Y-93772999D02*
X148032750Y-93772999D01*
X148032750Y-93772999D02*
X148108940Y-93734904D01*
X148108940Y-93734904D02*
X148147036Y-93696809D01*
X148147036Y-93696809D02*
X148185131Y-93620618D01*
X148185131Y-93620618D02*
X148185131Y-93430142D01*
X148185131Y-93430142D02*
X148147036Y-93353952D01*
X148147036Y-93353952D02*
X148108940Y-93315856D01*
X142780211Y-88869654D02*
X142780211Y-89250607D01*
X143008783Y-88793464D02*
X142208783Y-89060131D01*
X142208783Y-89060131D02*
X143008783Y-89326797D01*
X143008783Y-89593464D02*
X142208783Y-89593464D01*
X142208783Y-89593464D02*
X143008783Y-90050607D01*
X143008783Y-90050607D02*
X142208783Y-90050607D01*
X142170688Y-91002987D02*
X143199259Y-90317273D01*
X143008783Y-91269654D02*
X142208783Y-91269654D01*
X142208783Y-91802987D02*
X142208783Y-91955368D01*
X142208783Y-91955368D02*
X142246878Y-92031558D01*
X142246878Y-92031558D02*
X142323068Y-92107749D01*
X142323068Y-92107749D02*
X142475449Y-92145844D01*
X142475449Y-92145844D02*
X142742116Y-92145844D01*
X142742116Y-92145844D02*
X142894497Y-92107749D01*
X142894497Y-92107749D02*
X142970688Y-92031558D01*
X142970688Y-92031558D02*
X143008783Y-91955368D01*
X143008783Y-91955368D02*
X143008783Y-91802987D01*
X143008783Y-91802987D02*
X142970688Y-91726796D01*
X142970688Y-91726796D02*
X142894497Y-91650606D01*
X142894497Y-91650606D02*
X142742116Y-91612510D01*
X142742116Y-91612510D02*
X142475449Y-91612510D01*
X142475449Y-91612510D02*
X142323068Y-91650606D01*
X142323068Y-91650606D02*
X142246878Y-91726796D01*
X142246878Y-91726796D02*
X142208783Y-91802987D01*
X142208783Y-92412510D02*
X142208783Y-92907748D01*
X142208783Y-92907748D02*
X142513545Y-92641082D01*
X142513545Y-92641082D02*
X142513545Y-92755367D01*
X142513545Y-92755367D02*
X142551640Y-92831558D01*
X142551640Y-92831558D02*
X142589735Y-92869653D01*
X142589735Y-92869653D02*
X142665926Y-92907748D01*
X142665926Y-92907748D02*
X142856402Y-92907748D01*
X142856402Y-92907748D02*
X142932592Y-92869653D01*
X142932592Y-92869653D02*
X142970688Y-92831558D01*
X142970688Y-92831558D02*
X143008783Y-92755367D01*
X143008783Y-92755367D02*
X143008783Y-92526796D01*
X143008783Y-92526796D02*
X142970688Y-92450605D01*
X142970688Y-92450605D02*
X142932592Y-92412510D01*
X142208783Y-93593463D02*
X142208783Y-93441082D01*
X142208783Y-93441082D02*
X142246878Y-93364891D01*
X142246878Y-93364891D02*
X142284973Y-93326796D01*
X142284973Y-93326796D02*
X142399259Y-93250606D01*
X142399259Y-93250606D02*
X142551640Y-93212510D01*
X142551640Y-93212510D02*
X142856402Y-93212510D01*
X142856402Y-93212510D02*
X142932592Y-93250606D01*
X142932592Y-93250606D02*
X142970688Y-93288701D01*
X142970688Y-93288701D02*
X143008783Y-93364891D01*
X143008783Y-93364891D02*
X143008783Y-93517272D01*
X143008783Y-93517272D02*
X142970688Y-93593463D01*
X142970688Y-93593463D02*
X142932592Y-93631558D01*
X142932592Y-93631558D02*
X142856402Y-93669653D01*
X142856402Y-93669653D02*
X142665926Y-93669653D01*
X142665926Y-93669653D02*
X142589735Y-93631558D01*
X142589735Y-93631558D02*
X142551640Y-93593463D01*
X142551640Y-93593463D02*
X142513545Y-93517272D01*
X142513545Y-93517272D02*
X142513545Y-93364891D01*
X142513545Y-93364891D02*
X142551640Y-93288701D01*
X142551640Y-93288701D02*
X142589735Y-93250606D01*
X142589735Y-93250606D02*
X142665926Y-93212510D01*
X153203243Y-75083813D02*
X153241338Y-75198099D01*
X153241338Y-75198099D02*
X153241338Y-75388575D01*
X153241338Y-75388575D02*
X153203243Y-75464766D01*
X153203243Y-75464766D02*
X153165147Y-75502861D01*
X153165147Y-75502861D02*
X153088957Y-75540956D01*
X153088957Y-75540956D02*
X153012766Y-75540956D01*
X153012766Y-75540956D02*
X152936576Y-75502861D01*
X152936576Y-75502861D02*
X152898481Y-75464766D01*
X152898481Y-75464766D02*
X152860385Y-75388575D01*
X152860385Y-75388575D02*
X152822290Y-75236194D01*
X152822290Y-75236194D02*
X152784195Y-75160004D01*
X152784195Y-75160004D02*
X152746100Y-75121909D01*
X152746100Y-75121909D02*
X152669909Y-75083813D01*
X152669909Y-75083813D02*
X152593719Y-75083813D01*
X152593719Y-75083813D02*
X152517528Y-75121909D01*
X152517528Y-75121909D02*
X152479433Y-75160004D01*
X152479433Y-75160004D02*
X152441338Y-75236194D01*
X152441338Y-75236194D02*
X152441338Y-75426671D01*
X152441338Y-75426671D02*
X152479433Y-75540956D01*
X153165147Y-76340957D02*
X153203243Y-76302861D01*
X153203243Y-76302861D02*
X153241338Y-76188576D01*
X153241338Y-76188576D02*
X153241338Y-76112385D01*
X153241338Y-76112385D02*
X153203243Y-75998099D01*
X153203243Y-75998099D02*
X153127052Y-75921909D01*
X153127052Y-75921909D02*
X153050862Y-75883814D01*
X153050862Y-75883814D02*
X152898481Y-75845718D01*
X152898481Y-75845718D02*
X152784195Y-75845718D01*
X152784195Y-75845718D02*
X152631814Y-75883814D01*
X152631814Y-75883814D02*
X152555623Y-75921909D01*
X152555623Y-75921909D02*
X152479433Y-75998099D01*
X152479433Y-75998099D02*
X152441338Y-76112385D01*
X152441338Y-76112385D02*
X152441338Y-76188576D01*
X152441338Y-76188576D02*
X152479433Y-76302861D01*
X152479433Y-76302861D02*
X152517528Y-76340957D01*
X153241338Y-77064766D02*
X153241338Y-76683814D01*
X153241338Y-76683814D02*
X152441338Y-76683814D01*
X152403243Y-77902861D02*
X153431814Y-77217147D01*
X153241338Y-78169528D02*
X152441338Y-78169528D01*
X152441338Y-78702861D02*
X152441338Y-78855242D01*
X152441338Y-78855242D02*
X152479433Y-78931432D01*
X152479433Y-78931432D02*
X152555623Y-79007623D01*
X152555623Y-79007623D02*
X152708004Y-79045718D01*
X152708004Y-79045718D02*
X152974671Y-79045718D01*
X152974671Y-79045718D02*
X153127052Y-79007623D01*
X153127052Y-79007623D02*
X153203243Y-78931432D01*
X153203243Y-78931432D02*
X153241338Y-78855242D01*
X153241338Y-78855242D02*
X153241338Y-78702861D01*
X153241338Y-78702861D02*
X153203243Y-78626670D01*
X153203243Y-78626670D02*
X153127052Y-78550480D01*
X153127052Y-78550480D02*
X152974671Y-78512384D01*
X152974671Y-78512384D02*
X152708004Y-78512384D01*
X152708004Y-78512384D02*
X152555623Y-78550480D01*
X152555623Y-78550480D02*
X152479433Y-78626670D01*
X152479433Y-78626670D02*
X152441338Y-78702861D01*
X152441338Y-79312384D02*
X152441338Y-79807622D01*
X152441338Y-79807622D02*
X152746100Y-79540956D01*
X152746100Y-79540956D02*
X152746100Y-79655241D01*
X152746100Y-79655241D02*
X152784195Y-79731432D01*
X152784195Y-79731432D02*
X152822290Y-79769527D01*
X152822290Y-79769527D02*
X152898481Y-79807622D01*
X152898481Y-79807622D02*
X153088957Y-79807622D01*
X153088957Y-79807622D02*
X153165147Y-79769527D01*
X153165147Y-79769527D02*
X153203243Y-79731432D01*
X153203243Y-79731432D02*
X153241338Y-79655241D01*
X153241338Y-79655241D02*
X153241338Y-79426670D01*
X153241338Y-79426670D02*
X153203243Y-79350479D01*
X153203243Y-79350479D02*
X153165147Y-79312384D01*
X152441338Y-80074289D02*
X152441338Y-80569527D01*
X152441338Y-80569527D02*
X152746100Y-80302861D01*
X152746100Y-80302861D02*
X152746100Y-80417146D01*
X152746100Y-80417146D02*
X152784195Y-80493337D01*
X152784195Y-80493337D02*
X152822290Y-80531432D01*
X152822290Y-80531432D02*
X152898481Y-80569527D01*
X152898481Y-80569527D02*
X153088957Y-80569527D01*
X153088957Y-80569527D02*
X153165147Y-80531432D01*
X153165147Y-80531432D02*
X153203243Y-80493337D01*
X153203243Y-80493337D02*
X153241338Y-80417146D01*
X153241338Y-80417146D02*
X153241338Y-80188575D01*
X153241338Y-80188575D02*
X153203243Y-80112384D01*
X153203243Y-80112384D02*
X153165147Y-80074289D01*
X149874915Y-75034854D02*
X149874915Y-75491997D01*
X150674915Y-75263425D02*
X149874915Y-75263425D01*
X149874915Y-75682473D02*
X150674915Y-76215807D01*
X149874915Y-76215807D02*
X150674915Y-75682473D01*
X149836820Y-77091997D02*
X150865391Y-76406283D01*
X150674915Y-77358664D02*
X149874915Y-77358664D01*
X149874915Y-77891997D02*
X149874915Y-78044378D01*
X149874915Y-78044378D02*
X149913010Y-78120568D01*
X149913010Y-78120568D02*
X149989200Y-78196759D01*
X149989200Y-78196759D02*
X150141581Y-78234854D01*
X150141581Y-78234854D02*
X150408248Y-78234854D01*
X150408248Y-78234854D02*
X150560629Y-78196759D01*
X150560629Y-78196759D02*
X150636820Y-78120568D01*
X150636820Y-78120568D02*
X150674915Y-78044378D01*
X150674915Y-78044378D02*
X150674915Y-77891997D01*
X150674915Y-77891997D02*
X150636820Y-77815806D01*
X150636820Y-77815806D02*
X150560629Y-77739616D01*
X150560629Y-77739616D02*
X150408248Y-77701520D01*
X150408248Y-77701520D02*
X150141581Y-77701520D01*
X150141581Y-77701520D02*
X149989200Y-77739616D01*
X149989200Y-77739616D02*
X149913010Y-77815806D01*
X149913010Y-77815806D02*
X149874915Y-77891997D01*
X150674915Y-78996758D02*
X150674915Y-78539615D01*
X150674915Y-78768187D02*
X149874915Y-78768187D01*
X149874915Y-78768187D02*
X149989200Y-78691996D01*
X149989200Y-78691996D02*
X150065391Y-78615806D01*
X150065391Y-78615806D02*
X150103486Y-78539615D01*
X149874915Y-79682473D02*
X149874915Y-79530092D01*
X149874915Y-79530092D02*
X149913010Y-79453901D01*
X149913010Y-79453901D02*
X149951105Y-79415806D01*
X149951105Y-79415806D02*
X150065391Y-79339616D01*
X150065391Y-79339616D02*
X150217772Y-79301520D01*
X150217772Y-79301520D02*
X150522534Y-79301520D01*
X150522534Y-79301520D02*
X150598724Y-79339616D01*
X150598724Y-79339616D02*
X150636820Y-79377711D01*
X150636820Y-79377711D02*
X150674915Y-79453901D01*
X150674915Y-79453901D02*
X150674915Y-79606282D01*
X150674915Y-79606282D02*
X150636820Y-79682473D01*
X150636820Y-79682473D02*
X150598724Y-79720568D01*
X150598724Y-79720568D02*
X150522534Y-79758663D01*
X150522534Y-79758663D02*
X150332058Y-79758663D01*
X150332058Y-79758663D02*
X150255867Y-79720568D01*
X150255867Y-79720568D02*
X150217772Y-79682473D01*
X150217772Y-79682473D02*
X150179677Y-79606282D01*
X150179677Y-79606282D02*
X150179677Y-79453901D01*
X150179677Y-79453901D02*
X150217772Y-79377711D01*
X150217772Y-79377711D02*
X150255867Y-79339616D01*
X150255867Y-79339616D02*
X150332058Y-79301520D01*
X143038432Y-75076963D02*
X142238432Y-75076963D01*
X142238432Y-75076963D02*
X142238432Y-75381725D01*
X142238432Y-75381725D02*
X142276527Y-75457915D01*
X142276527Y-75457915D02*
X142314622Y-75496010D01*
X142314622Y-75496010D02*
X142390813Y-75534106D01*
X142390813Y-75534106D02*
X142505098Y-75534106D01*
X142505098Y-75534106D02*
X142581289Y-75496010D01*
X142581289Y-75496010D02*
X142619384Y-75457915D01*
X142619384Y-75457915D02*
X142657479Y-75381725D01*
X142657479Y-75381725D02*
X142657479Y-75076963D01*
X142238432Y-75800772D02*
X143038432Y-75991248D01*
X143038432Y-75991248D02*
X142467003Y-76143629D01*
X142467003Y-76143629D02*
X143038432Y-76296010D01*
X143038432Y-76296010D02*
X142238432Y-76486487D01*
X143038432Y-76791249D02*
X142238432Y-76791249D01*
X142238432Y-76791249D02*
X142809860Y-77057915D01*
X142809860Y-77057915D02*
X142238432Y-77324582D01*
X142238432Y-77324582D02*
X143038432Y-77324582D01*
X142200337Y-78276963D02*
X143228908Y-77591249D01*
X143038432Y-78543630D02*
X142238432Y-78543630D01*
X142238432Y-79076963D02*
X142238432Y-79229344D01*
X142238432Y-79229344D02*
X142276527Y-79305534D01*
X142276527Y-79305534D02*
X142352717Y-79381725D01*
X142352717Y-79381725D02*
X142505098Y-79419820D01*
X142505098Y-79419820D02*
X142771765Y-79419820D01*
X142771765Y-79419820D02*
X142924146Y-79381725D01*
X142924146Y-79381725D02*
X143000337Y-79305534D01*
X143000337Y-79305534D02*
X143038432Y-79229344D01*
X143038432Y-79229344D02*
X143038432Y-79076963D01*
X143038432Y-79076963D02*
X143000337Y-79000772D01*
X143000337Y-79000772D02*
X142924146Y-78924582D01*
X142924146Y-78924582D02*
X142771765Y-78886486D01*
X142771765Y-78886486D02*
X142505098Y-78886486D01*
X142505098Y-78886486D02*
X142352717Y-78924582D01*
X142352717Y-78924582D02*
X142276527Y-79000772D01*
X142276527Y-79000772D02*
X142238432Y-79076963D01*
X142314622Y-79724581D02*
X142276527Y-79762677D01*
X142276527Y-79762677D02*
X142238432Y-79838867D01*
X142238432Y-79838867D02*
X142238432Y-80029343D01*
X142238432Y-80029343D02*
X142276527Y-80105534D01*
X142276527Y-80105534D02*
X142314622Y-80143629D01*
X142314622Y-80143629D02*
X142390813Y-80181724D01*
X142390813Y-80181724D02*
X142467003Y-80181724D01*
X142467003Y-80181724D02*
X142581289Y-80143629D01*
X142581289Y-80143629D02*
X143038432Y-79686486D01*
X143038432Y-79686486D02*
X143038432Y-80181724D01*
D12*
%TO.C,CON2*%
X162265000Y-132670000D02*
X162265000Y-130130000D01*
X162265000Y-130130000D02*
X144485000Y-130130000D01*
X162265000Y-109810000D02*
X162265000Y-107270000D01*
X162265000Y-107270000D02*
X164855000Y-109810000D01*
X144485000Y-132670000D02*
X162265000Y-132670000D01*
X144485000Y-132670000D02*
X144485000Y-130130000D01*
X144485000Y-130130000D02*
X141945000Y-130130000D01*
X144485000Y-109810000D02*
X162265000Y-109810000D01*
X144485000Y-109810000D02*
X144485000Y-107270000D01*
X141945000Y-132670000D02*
X144485000Y-132670000D01*
X141945000Y-130130000D02*
X141945000Y-132670000D01*
X141945000Y-109810000D02*
X144485000Y-109810000D01*
X141945000Y-109810000D02*
X141945000Y-107270000D01*
X141945000Y-107270000D02*
X162265000Y-107270000D01*
D11*
%TO.C,CON1*%
X140992800Y-86811000D02*
G75*
G02*
X140535600Y-86811000I-228600J0D01*
G01*
X140535600Y-86811000D02*
G75*
G02*
X140992800Y-86811000I228600J0D01*
G01*
X140992800Y-84525000D02*
G75*
G02*
X140535600Y-84525000I-228600J0D01*
G01*
X140535600Y-84525000D02*
G75*
G02*
X140992800Y-84525000I228600J0D01*
G01*
X140992800Y-82366000D02*
G75*
G02*
X140535600Y-82366000I-228600J0D01*
G01*
X140535600Y-82366000D02*
G75*
G02*
X140992800Y-82366000I228600J0D01*
G01*
X137817800Y-85668000D02*
G75*
G02*
X137360600Y-85668000I-228600J0D01*
G01*
X137360600Y-85668000D02*
G75*
G02*
X137817800Y-85668000I228600J0D01*
G01*
X137817800Y-83382000D02*
G75*
G02*
X137360600Y-83382000I-228600J0D01*
G01*
X137360600Y-83382000D02*
G75*
G02*
X137817800Y-83382000I228600J0D01*
G01*
X164370000Y-97140000D02*
X164350000Y-74270000D01*
X161770000Y-97130000D02*
X161770000Y-94590000D01*
X161770000Y-94590000D02*
X143990000Y-94590000D01*
X161770000Y-74270000D02*
X161770000Y-71730000D01*
X161770000Y-71730000D02*
X164360000Y-74270000D01*
X161750000Y-97140000D02*
X164370000Y-97140000D01*
X143990000Y-97130000D02*
X161770000Y-97130000D01*
X143990000Y-97130000D02*
X143990000Y-94590000D01*
X143990000Y-94590000D02*
X141450000Y-94590000D01*
X143990000Y-74270000D02*
X161770000Y-74270000D01*
X143990000Y-74270000D02*
X143990000Y-71730000D01*
X141450000Y-97130000D02*
X143990000Y-97130000D01*
X141450000Y-94590000D02*
X141450000Y-97130000D01*
X141450000Y-74270000D02*
X143990000Y-74270000D01*
X141450000Y-74270000D02*
X141450000Y-71730000D01*
X141450000Y-71730000D02*
X161770000Y-71730000D01*
X139240200Y-86811000D02*
X140764200Y-86811000D01*
X139240200Y-85668000D02*
X139240200Y-86811000D01*
X139240200Y-85668000D02*
X137589200Y-85668000D01*
X139240200Y-84525000D02*
X140764200Y-84525000D01*
X139240200Y-84525000D02*
X139240200Y-85668000D01*
X139240200Y-83382000D02*
X139240200Y-84525000D01*
X139240200Y-83382000D02*
X137589200Y-83382000D01*
X139240200Y-82366000D02*
X140764200Y-82366000D01*
X139240200Y-82366000D02*
X139240200Y-83382000D01*
D13*
%TO.C,JP1*%
X135800000Y-97800000D02*
X137800000Y-97800000D01*
X135800000Y-100600000D02*
X135800000Y-97800000D01*
X137800000Y-97800000D02*
X137800000Y-100600000D01*
X137800000Y-100600000D02*
X135800000Y-100600000D01*
%TD*%
%LPC*%
D14*
%TO.C,CON2*%
X143215000Y-108540000D03*
D15*
X145755000Y-108540000D03*
X148295000Y-108540000D03*
X150835000Y-108540000D03*
X153375000Y-108540000D03*
X155915000Y-108540000D03*
X158455000Y-108540000D03*
X160995000Y-108540000D03*
X160995000Y-131400000D03*
X158455000Y-131400000D03*
X155915000Y-131400000D03*
X153375000Y-131400000D03*
X150835000Y-131400000D03*
X148295000Y-131400000D03*
X145755000Y-131400000D03*
D16*
X143215000Y-131400000D03*
%TD*%
D17*
%TO.C,REF\u002A\u002A*%
X70700000Y-105500000D03*
%TD*%
D18*
%TO.C,U2*%
X106980000Y-58000000D03*
X104440000Y-58000000D03*
X81640000Y-58000000D03*
X79100000Y-58000000D03*
X76560000Y-58000000D03*
X74020000Y-58000000D03*
%TD*%
D17*
%TO.C,REF\u002A\u002A*%
X70800000Y-134400000D03*
%TD*%
%TO.C,REF\u002A\u002A*%
X166200000Y-51800000D03*
%TD*%
%TO.C,REF\u002A\u002A*%
X166700000Y-134400000D03*
%TD*%
D19*
%TO.C,J1*%
X77725000Y-71870000D03*
X77725000Y-88130000D03*
D15*
X83295000Y-86860000D03*
X83295000Y-84570000D03*
X83295000Y-75430000D03*
X83295000Y-73140000D03*
X78485000Y-76430000D03*
X76705000Y-77450000D03*
X78485000Y-78470000D03*
X76705000Y-79490000D03*
X78485000Y-80510000D03*
X76705000Y-81530000D03*
X78485000Y-82550000D03*
X76705000Y-83570000D03*
%TD*%
D14*
%TO.C,CON1*%
X142720000Y-73000000D03*
D15*
X145260000Y-73000000D03*
X147800000Y-73000000D03*
X150340000Y-73000000D03*
X152880000Y-73000000D03*
X155420000Y-73000000D03*
X157960000Y-73000000D03*
X160500000Y-73000000D03*
X160500000Y-95860000D03*
X157960000Y-95860000D03*
X155420000Y-95860000D03*
X152880000Y-95860000D03*
X150340000Y-95860000D03*
X147800000Y-95860000D03*
X145260000Y-95860000D03*
D16*
X142720000Y-95860000D03*
%TD*%
D17*
%TO.C,REF\u002A\u002A*%
X89700000Y-105500000D03*
%TD*%
%TO.C,REF\u002A\u002A*%
X70800000Y-51200000D03*
%TD*%
D20*
%TO.C,USB1*%
X71232250Y-99140000D03*
X71232250Y-90500000D03*
D21*
X75382250Y-99140000D03*
X75382250Y-90500000D03*
%TD*%
D17*
%TO.C,REF\u002A\u002A*%
X160800000Y-84700000D03*
%TD*%
D22*
%TO.C,JP1*%
X136800000Y-99925000D03*
D23*
X136800000Y-98475000D03*
%TD*%
%LPD*%
M02*
