M48
; DRILL file {KiCad 8.0.1} date 2024-06-12T15:48:30+0200
; FORMAT={-:-/ absolute / inch / decimal}
; #@! TF.CreationDate,2024-06-12T15:48:30+02:00
; #@! TF.GenerationSoftware,Kicad,Pcbnew,8.0.1
; #@! TF.FileFunction,NonPlated,1,2,NPTH
FMAT,2
INCH
; #@! TA.AperFunction,NonPlated,NPTH,ComponentDrill
T1C0.0197
%
G90
G05
T1
X2.8543Y-3.9961
X2.8543Y-4.0669
X2.9331Y-3.9961
X2.9331Y-4.0669
X3.3661Y-4.1969
X3.3661Y-4.2677
X3.3661Y-5.1181
X3.3661Y-5.189
X3.4449Y-4.1969
X3.4449Y-4.2677
X3.4449Y-5.1181
X3.4449Y-5.189
X3.565Y-3.9961
X3.565Y-4.0669
X3.6437Y-3.9961
X3.6437Y-4.0669
X4.2795Y-3.9961
X4.2795Y-4.0669
X4.3583Y-3.9961
X4.3583Y-4.0669
X4.9921Y-3.9961
X4.9921Y-4.0669
X5.0709Y-3.9961
X5.0709Y-4.0669
X5.7047Y-3.9961
X5.7047Y-4.0669
X5.7835Y-3.9961
X5.7835Y-4.0669
X6.4173Y-3.9961
X6.4173Y-4.0669
X6.4961Y-3.9961
X6.4961Y-4.0669
M30
