M48
; DRILL file {KiCad 8.0.1} date 2024-06-26T17:42:30+0200
; FORMAT={-:-/ absolute / inch / decimal}
; #@! TF.CreationDate,2024-06-26T17:42:30+02:00
; #@! TF.GenerationSoftware,Kicad,Pcbnew,8.0.1
; #@! TF.FileFunction,Plated,1,4,PTH
FMAT,2
INCH
; #@! TA.AperFunction,Plated,PTH,ViaDrill
T1C0.0118
; #@! TA.AperFunction,Plated,PTH,ComponentDrill
T2C0.0118
; #@! TA.AperFunction,Plated,PTH,ComponentDrill
T3C0.0236
; #@! TA.AperFunction,Plated,PTH,ComponentDrill
T4C0.0350
; #@! TA.AperFunction,Plated,PTH,ComponentDrill
T5C0.0360
; #@! TA.AperFunction,Plated,PTH,ComponentDrill
T6C0.0413
; #@! TA.AperFunction,Plated,PTH,ComponentDrill
T7C0.0748
%
G90
G05
T1
X2.7362Y-3.6417
X2.7362Y-3.7992
X2.7362Y-3.9567
X2.8543Y-2.2638
X2.8543Y-2.4606
X2.8543Y-2.6969
X2.8543Y-3.0118
X2.8543Y-3.2874
X2.8898Y-3.7992
X2.8937Y-3.6417
X2.8937Y-3.9567
X3.0315Y-3.6063
X3.0315Y-3.8583
X3.0591Y-3.6378
X3.0591Y-3.6818
X3.0591Y-3.752
X3.0709Y-3.8583
X3.1299Y-3.3701
X3.1693Y-3.0118
X3.2677Y-3.2402
X3.2756Y-3.7402
X3.2874Y-3.0512
X3.2953Y-3.5827
X3.2953Y-3.8189
X3.2992Y-3.8898
X3.3228Y-3.8543
X3.3504Y-3.7126
X3.4016Y-3.2362
X3.4016Y-3.4331
X3.4134Y-3.5394
X3.4331Y-3.9094
X3.5472Y-3.622
X3.5512Y-2.7677
X3.5531Y-3.6713
X3.563Y-2.1063
X3.563Y-2.2638
X3.563Y-2.3819
X3.563Y-2.5
X3.563Y-4.2717
X3.563Y-4.4291
X3.5709Y-5.1496
X3.5748Y-2.8858
X3.5787Y-3.2283
X3.5892Y-3.914
X3.5945Y-2.6614
X3.622Y-3.9173
X3.639Y-4.1209
X3.6811Y-3.3661
X3.6811Y-3.5197
X3.6811Y-3.9567
X3.6909Y-3.7008
X3.6929Y-4.1417
X3.6949Y-3.8799
X3.7008Y-2.6575
X3.7047Y-4.0984
X3.7205Y-3.0866
X3.7677Y-5.1496
X3.7992Y-3.6575
X3.8189Y-4.4606
X3.8268Y-2.8858
X3.8268Y-3.2283
X3.8661Y-3.9409
X3.878Y-4.9016
X3.878Y-5.2953
X3.8976Y-2.5197
X3.8976Y-2.5591
X3.8976Y-2.5984
X3.9075Y-3.406
X3.9075Y-3.5123
X3.9134Y-5.3346
X3.9173Y-4.9409
X3.9231Y-3.2776
X3.9449Y-3.5827
X3.9567Y-4.2717
X3.9567Y-4.4291
X3.9764Y-3.6575
X4.0315Y-2.1063
X4.0315Y-2.9606
X4.0315Y-3.0197
X4.0315Y-3.9173
X4.0354Y-2.2638
X4.0354Y-2.3819
X4.0709Y-2.7559
X4.0945Y-3.2196
X4.1654Y-3.3504
X4.1929Y-2.9331
X4.2175Y-2.997
X4.2244Y-3.7913
X4.2323Y-2.7657
X4.248Y-3.437
X4.2638Y-4.4764
X4.2638Y-4.9646
X4.2717Y-4.2717
X4.2756Y-2.2795
X4.2794Y-3.0197
X4.2913Y-2.4311
X4.3012Y-2.9134
X4.3032Y-3.2992
X4.3425Y-3.6811
X4.3504Y-2.8051
X4.379Y-3.0156
X4.3799Y-2.8819
X4.3858Y-2.0157
X4.3996Y-2.4311
X4.4213Y-4.815
X4.4353Y-3.7992
X4.4409Y-2.1417
X4.4572Y-3.4241
X4.4586Y-3.5039
X4.4724Y-2.3189
X4.4799Y-3.1335
X4.4803Y-2.8898
X4.4911Y-3.0541
X4.498Y-3.4409
X4.5236Y-2.9528
X4.5276Y-2.1654
X4.5276Y-3.5728
X4.5276Y-3.7992
X4.5354Y-3.3031
X4.5467Y-4.2711
X4.5472Y-3.4843
X4.5472Y-4.1102
X4.5472Y-4.4291
X4.5472Y-4.8622
X4.5669Y-2.2736
X4.5866Y-2.1457
X4.5965Y-2.4902
X4.6063Y-4.9646
X4.6102Y-3.0827
X4.6181Y-2.9961
X4.6299Y-2.752
X4.6378Y-2.1654
X4.6496Y-3.4055
X4.6496Y-3.7795
X4.6535Y-3.2717
X4.6654Y-4.7047
X4.6732Y-3.1496
X4.6772Y-2.9716
X4.7047Y-2.7461
X4.7441Y-3.2047
X4.748Y-3.3031
X4.7638Y-3.6909
X4.7717Y-2.9685
X4.7756Y-2.1654
X4.7795Y-3.4449
X4.7933Y-2.5492
X4.8071Y-2.9252
X4.8071Y-3.5669
X4.811Y-4.874
X4.8228Y-2.4606
X4.8228Y-5.2244
X4.8307Y-3.4449
X4.8465Y-3.5472
X4.8465Y-5.1772
X4.878Y-2.9646
X4.8917Y-3.4154
X4.9016Y-2.6969
X4.9016Y-4.8976
X4.9016Y-5.0945
X4.9055Y-4.6063
X4.9291Y-3.5472
X4.937Y-4.9961
X4.9409Y-4.2205
X4.9508Y-3.6359
X4.9646Y-3.309
X4.9724Y-4.9567
X4.9764Y-4.7244
X4.9803Y-3.0118
X4.9803Y-3.4449
X4.9843Y-4.2677
X4.9961Y-3.9567
X4.9961Y-4.1063
X5.0236Y-2.8898
X5.0276Y-2.3268
X5.0295Y-3.6359
X5.0315Y-3.2047
X5.0354Y-3.3957
X5.0394Y-4.1142
X5.0512Y-3.9291
X5.0551Y-2.1457
X5.0591Y-2.5
X5.0591Y-3.5591
X5.0591Y-4.9016
X5.0591Y-5.0551
X5.0709Y-3.9528
X5.0709Y-4.0984
X5.0984Y-4.2717
X5.0984Y-4.4291
X5.0984Y-4.5472
X5.0984Y-4.7047
X5.0984Y-4.8504
X5.1299Y-2.8583
X5.1378Y-2.9685
X5.1378Y-3.1299
X5.1673Y-3.6909
X5.1772Y-2.8622
X5.1772Y-3.7697
X5.2087Y-2.1496
X5.2205Y-2.4882
X5.2244Y-3.5472
X5.23Y-2.863
X5.2323Y-2.3071
X5.2559Y-3.0512
X5.2559Y-3.4055
X5.2598Y-4.9055
X5.2638Y-3.6457
X5.2677Y-3.7283
X5.2795Y-2.748
X5.3268Y-2.3071
X5.3268Y-3.4961
X5.3307Y-2.874
X5.374Y-2.1063
X5.374Y-2.6575
X5.3819Y-3.2165
X5.3819Y-3.3228
X5.3819Y-3.374
X5.3858Y-3.877
X5.3858Y-4.8504
X5.4331Y-2.563
X5.4488Y-2.3071
X5.4528Y-4.8819
X5.5Y-2.3937
X5.5Y-2.5787
X5.5315Y-2.1063
X5.5315Y-2.2244
X5.5315Y-3.0079
X5.5315Y-4.2717
X5.5315Y-4.4291
X5.5315Y-4.5472
X5.5315Y-4.7008
X5.5315Y-5.2559
X5.5394Y-2.3976
X5.5906Y-2.2717
X5.6063Y-2.0669
X5.622Y-5.0197
X5.6378Y-4.4409
X5.6457Y-3.685
X5.6496Y-3.4449
X5.689Y-3.9606
X5.689Y-4.1024
X5.6969Y-2.0669
X5.6988Y-3.9291
X5.6988Y-4.1339
X5.7283Y-3.9134
X5.7283Y-4.1535
X5.7539Y-2.6083
X5.7579Y-4.1535
X5.7618Y-3.9134
X5.7677Y-3.6811
X5.7874Y-3.9291
X5.7874Y-4.1339
X5.7972Y-3.9587
X5.7972Y-4.1043
X5.8071Y-4.626
X5.8071Y-4.8622
X5.8071Y-5.0591
X5.811Y-3.2126
X5.811Y-3.3661
X5.8189Y-3.4252
X5.8504Y-2.0709
X5.8868Y-1.9882
X5.9449Y-2.1575
X5.9666Y-2.6142
X6.0433Y-2.2559
X6.0827Y-5.2559
X6.0945Y-5.0669
X6.122Y-2.2638
X6.1417Y-2.4783
X6.1575Y-3.0157
X6.1614Y-3.2087
X6.1614Y-3.3661
X6.1614Y-3.5236
X6.1614Y-3.6772
X6.1614Y-4.1142
X6.1614Y-4.4331
X6.1614Y-4.6024
X6.1811Y-4.8819
X6.2598Y-2.7087
X6.3386Y-2.7087
X6.3937Y-3.6811
X6.3976Y-3.2126
X6.3976Y-3.5236
X6.4035Y-3.9587
X6.4035Y-4.1004
X6.4055Y-2.3937
X6.4134Y-3.9272
X6.4134Y-4.1319
X6.4429Y-3.9075
X6.4429Y-4.1516
X6.4449Y-2.4764
X6.4724Y-3.9075
X6.4724Y-4.1516
X6.502Y-3.9272
X6.502Y-4.1319
X6.5118Y-3.9567
X6.5118Y-4.1024
X6.5276Y-3.2283
X6.5551Y-4.1102
X6.5551Y-4.4291
X6.5551Y-4.626
X6.5551Y-4.8622
X6.5551Y-5.0591
X6.5669Y-3.0669
X6.5669Y-3.1693
T2
X4.2756Y-3.0945
X4.2756Y-3.1496
X4.2756Y-3.2047
X4.3307Y-3.0945
X4.3307Y-3.1496
X4.3307Y-3.2047
X4.3858Y-3.0945
X4.3858Y-3.1496
X4.3858Y-3.2047
X4.8661Y-3.1929
X4.8661Y-3.248
X4.8937Y-3.1654
X4.8937Y-3.2205
X4.8937Y-3.2756
X4.9213Y-3.1929
X4.9213Y-3.248
X4.9488Y-3.1654
X4.9488Y-3.2205
X4.9488Y-3.2756
X4.9764Y-3.1929
X4.9764Y-3.248
T4
X5.6189Y-2.874
X5.6189Y-3.774
X5.6384Y-4.2732
X5.6384Y-5.1732
X5.7189Y-2.874
X5.7189Y-3.774
X5.7384Y-4.2732
X5.7384Y-5.1732
X5.8189Y-2.874
X5.8189Y-3.774
X5.8384Y-4.2732
X5.8384Y-5.1732
X5.9189Y-2.874
X5.9189Y-3.774
X5.9384Y-4.2732
X5.9384Y-5.1732
X6.0189Y-2.874
X6.0189Y-3.774
X6.0384Y-4.2732
X6.0384Y-5.1732
X6.1189Y-2.874
X6.1189Y-3.774
X6.1384Y-4.2732
X6.1384Y-5.1732
X6.2189Y-2.874
X6.2189Y-3.774
X6.2384Y-4.2732
X6.2384Y-5.1732
X6.3189Y-2.874
X6.3189Y-3.774
X6.3384Y-4.2732
X6.3384Y-5.1732
T5
X3.0199Y-3.0492
X3.0199Y-3.1295
X3.0199Y-3.2098
X3.0199Y-3.2902
X3.09Y-3.0091
X3.09Y-3.0894
X3.09Y-3.1697
X3.09Y-3.25
X3.2793Y-2.8795
X3.2793Y-2.9697
X3.2793Y-3.3295
X3.2793Y-3.4197
T6
X2.9142Y-2.2835
X3.0142Y-2.2835
X3.1142Y-2.2835
X3.2142Y-2.2835
X4.1118Y-2.2835
X4.2118Y-2.2835
T7
X3.06Y-2.8295
X3.06Y-3.4697
T3
G00X2.8202Y-3.563
M15
G01X2.7887Y-3.563
M16
G05
G00X2.8202Y-3.9031
M15
G01X2.7887Y-3.9031
M16
G05
G00X2.9895Y-3.563
M15
G01X2.9462Y-3.563
M16
G05
G00X2.9895Y-3.9031
M15
G01X2.9462Y-3.9031
M16
G05
M30
