%TF.GenerationSoftware,KiCad,Pcbnew,8.0.1*%
%TF.CreationDate,2024-06-24T00:08:31+02:00*%
%TF.ProjectId,Lichtstab,4c696368-7473-4746-9162-2e6b69636164,rev?*%
%TF.SameCoordinates,Original*%
%TF.FileFunction,Soldermask,Bot*%
%TF.FilePolarity,Negative*%
%FSLAX46Y46*%
G04 Gerber Fmt 4.6, Leading zero omitted, Abs format (unit mm)*
G04 Created by KiCad (PCBNEW 8.0.1) date 2024-06-24 00:08:31*
%MOMM*%
%LPD*%
G01*
G04 APERTURE LIST*
G04 APERTURE END LIST*
G36*
X70995090Y-133419215D02*
G01*
X71182683Y-133476120D01*
X71355570Y-133568530D01*
X71507107Y-133692893D01*
X71631470Y-133844430D01*
X71723880Y-134017317D01*
X71780785Y-134204910D01*
X71800000Y-134400000D01*
X71780785Y-134595090D01*
X71723880Y-134782683D01*
X71631470Y-134955570D01*
X71507107Y-135107107D01*
X71355570Y-135231470D01*
X71182683Y-135323880D01*
X70995090Y-135380785D01*
X70800000Y-135400000D01*
X70604910Y-135380785D01*
X70417317Y-135323880D01*
X70244430Y-135231470D01*
X70092893Y-135107107D01*
X69968530Y-134955570D01*
X69876120Y-134782683D01*
X69819215Y-134595090D01*
X69800000Y-134400000D01*
X69819215Y-134204910D01*
X69876120Y-134017317D01*
X69968530Y-133844430D01*
X70092893Y-133692893D01*
X70244430Y-133568530D01*
X70417317Y-133476120D01*
X70604910Y-133419215D01*
X70800000Y-133400000D01*
X70995090Y-133419215D01*
G37*
G36*
X166895090Y-133419215D02*
G01*
X167082683Y-133476120D01*
X167255570Y-133568530D01*
X167407107Y-133692893D01*
X167531470Y-133844430D01*
X167623880Y-134017317D01*
X167680785Y-134204910D01*
X167700000Y-134400000D01*
X167680785Y-134595090D01*
X167623880Y-134782683D01*
X167531470Y-134955570D01*
X167407107Y-135107107D01*
X167255570Y-135231470D01*
X167082683Y-135323880D01*
X166895090Y-135380785D01*
X166700000Y-135400000D01*
X166504910Y-135380785D01*
X166317317Y-135323880D01*
X166144430Y-135231470D01*
X165992893Y-135107107D01*
X165868530Y-134955570D01*
X165776120Y-134782683D01*
X165719215Y-134595090D01*
X165700000Y-134400000D01*
X165719215Y-134204910D01*
X165776120Y-134017317D01*
X165868530Y-133844430D01*
X165992893Y-133692893D01*
X166144430Y-133568530D01*
X166317317Y-133476120D01*
X166504910Y-133419215D01*
X166700000Y-133400000D01*
X166895090Y-133419215D01*
G37*
G36*
X144053200Y-132238200D02*
G01*
X142376800Y-132238200D01*
X142376800Y-130561800D01*
X144053200Y-130561800D01*
X144053200Y-132238200D01*
G37*
G36*
X145924561Y-130657105D02*
G01*
X146085619Y-130713462D01*
X146230099Y-130804244D01*
X146350756Y-130924901D01*
X146441538Y-131069381D01*
X146497895Y-131230439D01*
X146517000Y-131400000D01*
X146497895Y-131569561D01*
X146441538Y-131730619D01*
X146350756Y-131875099D01*
X146230099Y-131995756D01*
X146085619Y-132086538D01*
X145924561Y-132142895D01*
X145755000Y-132162000D01*
X145585439Y-132142895D01*
X145424381Y-132086538D01*
X145279901Y-131995756D01*
X145159244Y-131875099D01*
X145068462Y-131730619D01*
X145012105Y-131569561D01*
X144993000Y-131400000D01*
X145012105Y-131230439D01*
X145068462Y-131069381D01*
X145159244Y-130924901D01*
X145279901Y-130804244D01*
X145424381Y-130713462D01*
X145585439Y-130657105D01*
X145755000Y-130638000D01*
X145924561Y-130657105D01*
G37*
G36*
X148464561Y-130657105D02*
G01*
X148625619Y-130713462D01*
X148770099Y-130804244D01*
X148890756Y-130924901D01*
X148981538Y-131069381D01*
X149037895Y-131230439D01*
X149057000Y-131400000D01*
X149037895Y-131569561D01*
X148981538Y-131730619D01*
X148890756Y-131875099D01*
X148770099Y-131995756D01*
X148625619Y-132086538D01*
X148464561Y-132142895D01*
X148295000Y-132162000D01*
X148125439Y-132142895D01*
X147964381Y-132086538D01*
X147819901Y-131995756D01*
X147699244Y-131875099D01*
X147608462Y-131730619D01*
X147552105Y-131569561D01*
X147533000Y-131400000D01*
X147552105Y-131230439D01*
X147608462Y-131069381D01*
X147699244Y-130924901D01*
X147819901Y-130804244D01*
X147964381Y-130713462D01*
X148125439Y-130657105D01*
X148295000Y-130638000D01*
X148464561Y-130657105D01*
G37*
G36*
X151004561Y-130657105D02*
G01*
X151165619Y-130713462D01*
X151310099Y-130804244D01*
X151430756Y-130924901D01*
X151521538Y-131069381D01*
X151577895Y-131230439D01*
X151597000Y-131400000D01*
X151577895Y-131569561D01*
X151521538Y-131730619D01*
X151430756Y-131875099D01*
X151310099Y-131995756D01*
X151165619Y-132086538D01*
X151004561Y-132142895D01*
X150835000Y-132162000D01*
X150665439Y-132142895D01*
X150504381Y-132086538D01*
X150359901Y-131995756D01*
X150239244Y-131875099D01*
X150148462Y-131730619D01*
X150092105Y-131569561D01*
X150073000Y-131400000D01*
X150092105Y-131230439D01*
X150148462Y-131069381D01*
X150239244Y-130924901D01*
X150359901Y-130804244D01*
X150504381Y-130713462D01*
X150665439Y-130657105D01*
X150835000Y-130638000D01*
X151004561Y-130657105D01*
G37*
G36*
X153544561Y-130657105D02*
G01*
X153705619Y-130713462D01*
X153850099Y-130804244D01*
X153970756Y-130924901D01*
X154061538Y-131069381D01*
X154117895Y-131230439D01*
X154137000Y-131400000D01*
X154117895Y-131569561D01*
X154061538Y-131730619D01*
X153970756Y-131875099D01*
X153850099Y-131995756D01*
X153705619Y-132086538D01*
X153544561Y-132142895D01*
X153375000Y-132162000D01*
X153205439Y-132142895D01*
X153044381Y-132086538D01*
X152899901Y-131995756D01*
X152779244Y-131875099D01*
X152688462Y-131730619D01*
X152632105Y-131569561D01*
X152613000Y-131400000D01*
X152632105Y-131230439D01*
X152688462Y-131069381D01*
X152779244Y-130924901D01*
X152899901Y-130804244D01*
X153044381Y-130713462D01*
X153205439Y-130657105D01*
X153375000Y-130638000D01*
X153544561Y-130657105D01*
G37*
G36*
X156084561Y-130657105D02*
G01*
X156245619Y-130713462D01*
X156390099Y-130804244D01*
X156510756Y-130924901D01*
X156601538Y-131069381D01*
X156657895Y-131230439D01*
X156677000Y-131400000D01*
X156657895Y-131569561D01*
X156601538Y-131730619D01*
X156510756Y-131875099D01*
X156390099Y-131995756D01*
X156245619Y-132086538D01*
X156084561Y-132142895D01*
X155915000Y-132162000D01*
X155745439Y-132142895D01*
X155584381Y-132086538D01*
X155439901Y-131995756D01*
X155319244Y-131875099D01*
X155228462Y-131730619D01*
X155172105Y-131569561D01*
X155153000Y-131400000D01*
X155172105Y-131230439D01*
X155228462Y-131069381D01*
X155319244Y-130924901D01*
X155439901Y-130804244D01*
X155584381Y-130713462D01*
X155745439Y-130657105D01*
X155915000Y-130638000D01*
X156084561Y-130657105D01*
G37*
G36*
X158624561Y-130657105D02*
G01*
X158785619Y-130713462D01*
X158930099Y-130804244D01*
X159050756Y-130924901D01*
X159141538Y-131069381D01*
X159197895Y-131230439D01*
X159217000Y-131400000D01*
X159197895Y-131569561D01*
X159141538Y-131730619D01*
X159050756Y-131875099D01*
X158930099Y-131995756D01*
X158785619Y-132086538D01*
X158624561Y-132142895D01*
X158455000Y-132162000D01*
X158285439Y-132142895D01*
X158124381Y-132086538D01*
X157979901Y-131995756D01*
X157859244Y-131875099D01*
X157768462Y-131730619D01*
X157712105Y-131569561D01*
X157693000Y-131400000D01*
X157712105Y-131230439D01*
X157768462Y-131069381D01*
X157859244Y-130924901D01*
X157979901Y-130804244D01*
X158124381Y-130713462D01*
X158285439Y-130657105D01*
X158455000Y-130638000D01*
X158624561Y-130657105D01*
G37*
G36*
X161164561Y-130657105D02*
G01*
X161325619Y-130713462D01*
X161470099Y-130804244D01*
X161590756Y-130924901D01*
X161681538Y-131069381D01*
X161737895Y-131230439D01*
X161757000Y-131400000D01*
X161737895Y-131569561D01*
X161681538Y-131730619D01*
X161590756Y-131875099D01*
X161470099Y-131995756D01*
X161325619Y-132086538D01*
X161164561Y-132142895D01*
X160995000Y-132162000D01*
X160825439Y-132142895D01*
X160664381Y-132086538D01*
X160519901Y-131995756D01*
X160399244Y-131875099D01*
X160308462Y-131730619D01*
X160252105Y-131569561D01*
X160233000Y-131400000D01*
X160252105Y-131230439D01*
X160308462Y-131069381D01*
X160399244Y-130924901D01*
X160519901Y-130804244D01*
X160664381Y-130713462D01*
X160825439Y-130657105D01*
X160995000Y-130638000D01*
X161164561Y-130657105D01*
G37*
G36*
X143977000Y-109302000D02*
G01*
X142453000Y-109302000D01*
X142453000Y-107778000D01*
X143977000Y-107778000D01*
X143977000Y-109302000D01*
G37*
G36*
X145924561Y-107797105D02*
G01*
X146085619Y-107853462D01*
X146230099Y-107944244D01*
X146350756Y-108064901D01*
X146441538Y-108209381D01*
X146497895Y-108370439D01*
X146517000Y-108540000D01*
X146497895Y-108709561D01*
X146441538Y-108870619D01*
X146350756Y-109015099D01*
X146230099Y-109135756D01*
X146085619Y-109226538D01*
X145924561Y-109282895D01*
X145755000Y-109302000D01*
X145585439Y-109282895D01*
X145424381Y-109226538D01*
X145279901Y-109135756D01*
X145159244Y-109015099D01*
X145068462Y-108870619D01*
X145012105Y-108709561D01*
X144993000Y-108540000D01*
X145012105Y-108370439D01*
X145068462Y-108209381D01*
X145159244Y-108064901D01*
X145279901Y-107944244D01*
X145424381Y-107853462D01*
X145585439Y-107797105D01*
X145755000Y-107778000D01*
X145924561Y-107797105D01*
G37*
G36*
X148464561Y-107797105D02*
G01*
X148625619Y-107853462D01*
X148770099Y-107944244D01*
X148890756Y-108064901D01*
X148981538Y-108209381D01*
X149037895Y-108370439D01*
X149057000Y-108540000D01*
X149037895Y-108709561D01*
X148981538Y-108870619D01*
X148890756Y-109015099D01*
X148770099Y-109135756D01*
X148625619Y-109226538D01*
X148464561Y-109282895D01*
X148295000Y-109302000D01*
X148125439Y-109282895D01*
X147964381Y-109226538D01*
X147819901Y-109135756D01*
X147699244Y-109015099D01*
X147608462Y-108870619D01*
X147552105Y-108709561D01*
X147533000Y-108540000D01*
X147552105Y-108370439D01*
X147608462Y-108209381D01*
X147699244Y-108064901D01*
X147819901Y-107944244D01*
X147964381Y-107853462D01*
X148125439Y-107797105D01*
X148295000Y-107778000D01*
X148464561Y-107797105D01*
G37*
G36*
X151004561Y-107797105D02*
G01*
X151165619Y-107853462D01*
X151310099Y-107944244D01*
X151430756Y-108064901D01*
X151521538Y-108209381D01*
X151577895Y-108370439D01*
X151597000Y-108540000D01*
X151577895Y-108709561D01*
X151521538Y-108870619D01*
X151430756Y-109015099D01*
X151310099Y-109135756D01*
X151165619Y-109226538D01*
X151004561Y-109282895D01*
X150835000Y-109302000D01*
X150665439Y-109282895D01*
X150504381Y-109226538D01*
X150359901Y-109135756D01*
X150239244Y-109015099D01*
X150148462Y-108870619D01*
X150092105Y-108709561D01*
X150073000Y-108540000D01*
X150092105Y-108370439D01*
X150148462Y-108209381D01*
X150239244Y-108064901D01*
X150359901Y-107944244D01*
X150504381Y-107853462D01*
X150665439Y-107797105D01*
X150835000Y-107778000D01*
X151004561Y-107797105D01*
G37*
G36*
X153544561Y-107797105D02*
G01*
X153705619Y-107853462D01*
X153850099Y-107944244D01*
X153970756Y-108064901D01*
X154061538Y-108209381D01*
X154117895Y-108370439D01*
X154137000Y-108540000D01*
X154117895Y-108709561D01*
X154061538Y-108870619D01*
X153970756Y-109015099D01*
X153850099Y-109135756D01*
X153705619Y-109226538D01*
X153544561Y-109282895D01*
X153375000Y-109302000D01*
X153205439Y-109282895D01*
X153044381Y-109226538D01*
X152899901Y-109135756D01*
X152779244Y-109015099D01*
X152688462Y-108870619D01*
X152632105Y-108709561D01*
X152613000Y-108540000D01*
X152632105Y-108370439D01*
X152688462Y-108209381D01*
X152779244Y-108064901D01*
X152899901Y-107944244D01*
X153044381Y-107853462D01*
X153205439Y-107797105D01*
X153375000Y-107778000D01*
X153544561Y-107797105D01*
G37*
G36*
X156084561Y-107797105D02*
G01*
X156245619Y-107853462D01*
X156390099Y-107944244D01*
X156510756Y-108064901D01*
X156601538Y-108209381D01*
X156657895Y-108370439D01*
X156677000Y-108540000D01*
X156657895Y-108709561D01*
X156601538Y-108870619D01*
X156510756Y-109015099D01*
X156390099Y-109135756D01*
X156245619Y-109226538D01*
X156084561Y-109282895D01*
X155915000Y-109302000D01*
X155745439Y-109282895D01*
X155584381Y-109226538D01*
X155439901Y-109135756D01*
X155319244Y-109015099D01*
X155228462Y-108870619D01*
X155172105Y-108709561D01*
X155153000Y-108540000D01*
X155172105Y-108370439D01*
X155228462Y-108209381D01*
X155319244Y-108064901D01*
X155439901Y-107944244D01*
X155584381Y-107853462D01*
X155745439Y-107797105D01*
X155915000Y-107778000D01*
X156084561Y-107797105D01*
G37*
G36*
X158624561Y-107797105D02*
G01*
X158785619Y-107853462D01*
X158930099Y-107944244D01*
X159050756Y-108064901D01*
X159141538Y-108209381D01*
X159197895Y-108370439D01*
X159217000Y-108540000D01*
X159197895Y-108709561D01*
X159141538Y-108870619D01*
X159050756Y-109015099D01*
X158930099Y-109135756D01*
X158785619Y-109226538D01*
X158624561Y-109282895D01*
X158455000Y-109302000D01*
X158285439Y-109282895D01*
X158124381Y-109226538D01*
X157979901Y-109135756D01*
X157859244Y-109015099D01*
X157768462Y-108870619D01*
X157712105Y-108709561D01*
X157693000Y-108540000D01*
X157712105Y-108370439D01*
X157768462Y-108209381D01*
X157859244Y-108064901D01*
X157979901Y-107944244D01*
X158124381Y-107853462D01*
X158285439Y-107797105D01*
X158455000Y-107778000D01*
X158624561Y-107797105D01*
G37*
G36*
X161164561Y-107797105D02*
G01*
X161325619Y-107853462D01*
X161470099Y-107944244D01*
X161590756Y-108064901D01*
X161681538Y-108209381D01*
X161737895Y-108370439D01*
X161757000Y-108540000D01*
X161737895Y-108709561D01*
X161681538Y-108870619D01*
X161590756Y-109015099D01*
X161470099Y-109135756D01*
X161325619Y-109226538D01*
X161164561Y-109282895D01*
X160995000Y-109302000D01*
X160825439Y-109282895D01*
X160664381Y-109226538D01*
X160519901Y-109135756D01*
X160399244Y-109015099D01*
X160308462Y-108870619D01*
X160252105Y-108709561D01*
X160233000Y-108540000D01*
X160252105Y-108370439D01*
X160308462Y-108209381D01*
X160399244Y-108064901D01*
X160519901Y-107944244D01*
X160664381Y-107853462D01*
X160825439Y-107797105D01*
X160995000Y-107778000D01*
X161164561Y-107797105D01*
G37*
G36*
X70895090Y-104519215D02*
G01*
X71082683Y-104576120D01*
X71255570Y-104668530D01*
X71407107Y-104792893D01*
X71531470Y-104944430D01*
X71623880Y-105117317D01*
X71680785Y-105304910D01*
X71700000Y-105500000D01*
X71680785Y-105695090D01*
X71623880Y-105882683D01*
X71531470Y-106055570D01*
X71407107Y-106207107D01*
X71255570Y-106331470D01*
X71082683Y-106423880D01*
X70895090Y-106480785D01*
X70700000Y-106500000D01*
X70504910Y-106480785D01*
X70317317Y-106423880D01*
X70144430Y-106331470D01*
X69992893Y-106207107D01*
X69868530Y-106055570D01*
X69776120Y-105882683D01*
X69719215Y-105695090D01*
X69700000Y-105500000D01*
X69719215Y-105304910D01*
X69776120Y-105117317D01*
X69868530Y-104944430D01*
X69992893Y-104792893D01*
X70144430Y-104668530D01*
X70317317Y-104576120D01*
X70504910Y-104519215D01*
X70700000Y-104500000D01*
X70895090Y-104519215D01*
G37*
G36*
X89895090Y-104519215D02*
G01*
X90082683Y-104576120D01*
X90255570Y-104668530D01*
X90407107Y-104792893D01*
X90531470Y-104944430D01*
X90623880Y-105117317D01*
X90680785Y-105304910D01*
X90700000Y-105500000D01*
X90680785Y-105695090D01*
X90623880Y-105882683D01*
X90531470Y-106055570D01*
X90407107Y-106207107D01*
X90255570Y-106331470D01*
X90082683Y-106423880D01*
X89895090Y-106480785D01*
X89700000Y-106500000D01*
X89504910Y-106480785D01*
X89317317Y-106423880D01*
X89144430Y-106331470D01*
X88992893Y-106207107D01*
X88868530Y-106055570D01*
X88776120Y-105882683D01*
X88719215Y-105695090D01*
X88700000Y-105500000D01*
X88719215Y-105304910D01*
X88776120Y-105117317D01*
X88868530Y-104944430D01*
X88992893Y-104792893D01*
X89144430Y-104668530D01*
X89317317Y-104576120D01*
X89504910Y-104519215D01*
X89700000Y-104500000D01*
X89895090Y-104519215D01*
G37*
G36*
X136802774Y-98920840D02*
G01*
X136807664Y-98924100D01*
X137542843Y-99414219D01*
X137552774Y-99420840D01*
X137554903Y-99424019D01*
X137555000Y-99425000D01*
X137555000Y-100425000D01*
X137553536Y-100428536D01*
X137550000Y-100430000D01*
X137538065Y-100430000D01*
X136061935Y-100430000D01*
X136050000Y-100430000D01*
X136046464Y-100428536D01*
X136045000Y-100425000D01*
X136045000Y-99425000D01*
X136046464Y-99421464D01*
X136047226Y-99420840D01*
X136053360Y-99416750D01*
X136053361Y-99416749D01*
X136787295Y-98927460D01*
X136787296Y-98927459D01*
X136797226Y-98920840D01*
X136800981Y-98920097D01*
X136802774Y-98920840D01*
G37*
G36*
X71697513Y-98644278D02*
G01*
X71823592Y-98678060D01*
X71936631Y-98743323D01*
X72028927Y-98835619D01*
X72094190Y-98948658D01*
X72127972Y-99074737D01*
X72127972Y-99205263D01*
X72094190Y-99331342D01*
X72028927Y-99444381D01*
X71936631Y-99536677D01*
X71823592Y-99601940D01*
X71697513Y-99635722D01*
X70832250Y-99640000D01*
X70766987Y-99635722D01*
X70640908Y-99601940D01*
X70527869Y-99536677D01*
X70435573Y-99444381D01*
X70370310Y-99331342D01*
X70336528Y-99205263D01*
X70336528Y-99074737D01*
X70370310Y-98948658D01*
X70435573Y-98835619D01*
X70527869Y-98743323D01*
X70640908Y-98678060D01*
X70766987Y-98644278D01*
X71632250Y-98640000D01*
X71697513Y-98644278D01*
G37*
G36*
X75997513Y-98644278D02*
G01*
X76123592Y-98678060D01*
X76236631Y-98743323D01*
X76328927Y-98835619D01*
X76394190Y-98948658D01*
X76427972Y-99074737D01*
X76427972Y-99205263D01*
X76394190Y-99331342D01*
X76328927Y-99444381D01*
X76236631Y-99536677D01*
X76123592Y-99601940D01*
X75997513Y-99635722D01*
X74832250Y-99640000D01*
X74766987Y-99635722D01*
X74640908Y-99601940D01*
X74527869Y-99536677D01*
X74435573Y-99444381D01*
X74370310Y-99331342D01*
X74336528Y-99205263D01*
X74336528Y-99074737D01*
X74370310Y-98948658D01*
X74435573Y-98835619D01*
X74527869Y-98743323D01*
X74640908Y-98678060D01*
X74766987Y-98644278D01*
X75932250Y-98640000D01*
X75997513Y-98644278D01*
G37*
G36*
X137553536Y-97971464D02*
G01*
X137555000Y-97975000D01*
X137555000Y-99125000D01*
X137553536Y-99128536D01*
X137550000Y-99130000D01*
X137547226Y-99129160D01*
X136818165Y-98643119D01*
X136781835Y-98643119D01*
X136052774Y-99129160D01*
X136049019Y-99129903D01*
X136045840Y-99127774D01*
X136045000Y-99125000D01*
X136045000Y-97975000D01*
X136046464Y-97971464D01*
X136050000Y-97970000D01*
X137550000Y-97970000D01*
X137553536Y-97971464D01*
G37*
G36*
X143558200Y-96698200D02*
G01*
X141881800Y-96698200D01*
X141881800Y-95021800D01*
X143558200Y-95021800D01*
X143558200Y-96698200D01*
G37*
G36*
X145429561Y-95117105D02*
G01*
X145590619Y-95173462D01*
X145735099Y-95264244D01*
X145855756Y-95384901D01*
X145946538Y-95529381D01*
X146002895Y-95690439D01*
X146022000Y-95860000D01*
X146002895Y-96029561D01*
X145946538Y-96190619D01*
X145855756Y-96335099D01*
X145735099Y-96455756D01*
X145590619Y-96546538D01*
X145429561Y-96602895D01*
X145260000Y-96622000D01*
X145090439Y-96602895D01*
X144929381Y-96546538D01*
X144784901Y-96455756D01*
X144664244Y-96335099D01*
X144573462Y-96190619D01*
X144517105Y-96029561D01*
X144498000Y-95860000D01*
X144517105Y-95690439D01*
X144573462Y-95529381D01*
X144664244Y-95384901D01*
X144784901Y-95264244D01*
X144929381Y-95173462D01*
X145090439Y-95117105D01*
X145260000Y-95098000D01*
X145429561Y-95117105D01*
G37*
G36*
X147969561Y-95117105D02*
G01*
X148130619Y-95173462D01*
X148275099Y-95264244D01*
X148395756Y-95384901D01*
X148486538Y-95529381D01*
X148542895Y-95690439D01*
X148562000Y-95860000D01*
X148542895Y-96029561D01*
X148486538Y-96190619D01*
X148395756Y-96335099D01*
X148275099Y-96455756D01*
X148130619Y-96546538D01*
X147969561Y-96602895D01*
X147800000Y-96622000D01*
X147630439Y-96602895D01*
X147469381Y-96546538D01*
X147324901Y-96455756D01*
X147204244Y-96335099D01*
X147113462Y-96190619D01*
X147057105Y-96029561D01*
X147038000Y-95860000D01*
X147057105Y-95690439D01*
X147113462Y-95529381D01*
X147204244Y-95384901D01*
X147324901Y-95264244D01*
X147469381Y-95173462D01*
X147630439Y-95117105D01*
X147800000Y-95098000D01*
X147969561Y-95117105D01*
G37*
G36*
X150509561Y-95117105D02*
G01*
X150670619Y-95173462D01*
X150815099Y-95264244D01*
X150935756Y-95384901D01*
X151026538Y-95529381D01*
X151082895Y-95690439D01*
X151102000Y-95860000D01*
X151082895Y-96029561D01*
X151026538Y-96190619D01*
X150935756Y-96335099D01*
X150815099Y-96455756D01*
X150670619Y-96546538D01*
X150509561Y-96602895D01*
X150340000Y-96622000D01*
X150170439Y-96602895D01*
X150009381Y-96546538D01*
X149864901Y-96455756D01*
X149744244Y-96335099D01*
X149653462Y-96190619D01*
X149597105Y-96029561D01*
X149578000Y-95860000D01*
X149597105Y-95690439D01*
X149653462Y-95529381D01*
X149744244Y-95384901D01*
X149864901Y-95264244D01*
X150009381Y-95173462D01*
X150170439Y-95117105D01*
X150340000Y-95098000D01*
X150509561Y-95117105D01*
G37*
G36*
X153049561Y-95117105D02*
G01*
X153210619Y-95173462D01*
X153355099Y-95264244D01*
X153475756Y-95384901D01*
X153566538Y-95529381D01*
X153622895Y-95690439D01*
X153642000Y-95860000D01*
X153622895Y-96029561D01*
X153566538Y-96190619D01*
X153475756Y-96335099D01*
X153355099Y-96455756D01*
X153210619Y-96546538D01*
X153049561Y-96602895D01*
X152880000Y-96622000D01*
X152710439Y-96602895D01*
X152549381Y-96546538D01*
X152404901Y-96455756D01*
X152284244Y-96335099D01*
X152193462Y-96190619D01*
X152137105Y-96029561D01*
X152118000Y-95860000D01*
X152137105Y-95690439D01*
X152193462Y-95529381D01*
X152284244Y-95384901D01*
X152404901Y-95264244D01*
X152549381Y-95173462D01*
X152710439Y-95117105D01*
X152880000Y-95098000D01*
X153049561Y-95117105D01*
G37*
G36*
X155589561Y-95117105D02*
G01*
X155750619Y-95173462D01*
X155895099Y-95264244D01*
X156015756Y-95384901D01*
X156106538Y-95529381D01*
X156162895Y-95690439D01*
X156182000Y-95860000D01*
X156162895Y-96029561D01*
X156106538Y-96190619D01*
X156015756Y-96335099D01*
X155895099Y-96455756D01*
X155750619Y-96546538D01*
X155589561Y-96602895D01*
X155420000Y-96622000D01*
X155250439Y-96602895D01*
X155089381Y-96546538D01*
X154944901Y-96455756D01*
X154824244Y-96335099D01*
X154733462Y-96190619D01*
X154677105Y-96029561D01*
X154658000Y-95860000D01*
X154677105Y-95690439D01*
X154733462Y-95529381D01*
X154824244Y-95384901D01*
X154944901Y-95264244D01*
X155089381Y-95173462D01*
X155250439Y-95117105D01*
X155420000Y-95098000D01*
X155589561Y-95117105D01*
G37*
G36*
X158129561Y-95117105D02*
G01*
X158290619Y-95173462D01*
X158435099Y-95264244D01*
X158555756Y-95384901D01*
X158646538Y-95529381D01*
X158702895Y-95690439D01*
X158722000Y-95860000D01*
X158702895Y-96029561D01*
X158646538Y-96190619D01*
X158555756Y-96335099D01*
X158435099Y-96455756D01*
X158290619Y-96546538D01*
X158129561Y-96602895D01*
X157960000Y-96622000D01*
X157790439Y-96602895D01*
X157629381Y-96546538D01*
X157484901Y-96455756D01*
X157364244Y-96335099D01*
X157273462Y-96190619D01*
X157217105Y-96029561D01*
X157198000Y-95860000D01*
X157217105Y-95690439D01*
X157273462Y-95529381D01*
X157364244Y-95384901D01*
X157484901Y-95264244D01*
X157629381Y-95173462D01*
X157790439Y-95117105D01*
X157960000Y-95098000D01*
X158129561Y-95117105D01*
G37*
G36*
X160669561Y-95117105D02*
G01*
X160830619Y-95173462D01*
X160975099Y-95264244D01*
X161095756Y-95384901D01*
X161186538Y-95529381D01*
X161242895Y-95690439D01*
X161262000Y-95860000D01*
X161242895Y-96029561D01*
X161186538Y-96190619D01*
X161095756Y-96335099D01*
X160975099Y-96455756D01*
X160830619Y-96546538D01*
X160669561Y-96602895D01*
X160500000Y-96622000D01*
X160330439Y-96602895D01*
X160169381Y-96546538D01*
X160024901Y-96455756D01*
X159904244Y-96335099D01*
X159813462Y-96190619D01*
X159757105Y-96029561D01*
X159738000Y-95860000D01*
X159757105Y-95690439D01*
X159813462Y-95529381D01*
X159904244Y-95384901D01*
X160024901Y-95264244D01*
X160169381Y-95173462D01*
X160330439Y-95117105D01*
X160500000Y-95098000D01*
X160669561Y-95117105D01*
G37*
G36*
X71697513Y-90004278D02*
G01*
X71823592Y-90038060D01*
X71936631Y-90103323D01*
X72028927Y-90195619D01*
X72094190Y-90308658D01*
X72127972Y-90434737D01*
X72127972Y-90565263D01*
X72094190Y-90691342D01*
X72028927Y-90804381D01*
X71936631Y-90896677D01*
X71823592Y-90961940D01*
X71697513Y-90995722D01*
X70832250Y-91000000D01*
X70766987Y-90995722D01*
X70640908Y-90961940D01*
X70527869Y-90896677D01*
X70435573Y-90804381D01*
X70370310Y-90691342D01*
X70336528Y-90565263D01*
X70336528Y-90434737D01*
X70370310Y-90308658D01*
X70435573Y-90195619D01*
X70527869Y-90103323D01*
X70640908Y-90038060D01*
X70766987Y-90004278D01*
X71632250Y-90000000D01*
X71697513Y-90004278D01*
G37*
G36*
X75997513Y-90004278D02*
G01*
X76123592Y-90038060D01*
X76236631Y-90103323D01*
X76328927Y-90195619D01*
X76394190Y-90308658D01*
X76427972Y-90434737D01*
X76427972Y-90565263D01*
X76394190Y-90691342D01*
X76328927Y-90804381D01*
X76236631Y-90896677D01*
X76123592Y-90961940D01*
X75997513Y-90995722D01*
X74832250Y-91000000D01*
X74766987Y-90995722D01*
X74640908Y-90961940D01*
X74527869Y-90896677D01*
X74435573Y-90804381D01*
X74370310Y-90691342D01*
X74336528Y-90565263D01*
X74336528Y-90434737D01*
X74370310Y-90308658D01*
X74435573Y-90195619D01*
X74527869Y-90103323D01*
X74640908Y-90038060D01*
X74766987Y-90004278D01*
X75932250Y-90000000D01*
X75997513Y-90004278D01*
G37*
G36*
X77942060Y-86898990D02*
G01*
X78152525Y-86955384D01*
X78350000Y-87047468D01*
X78528485Y-87172444D01*
X78682556Y-87326515D01*
X78807532Y-87505000D01*
X78899616Y-87702475D01*
X78956010Y-87912940D01*
X78975000Y-88130000D01*
X78956010Y-88347060D01*
X78899616Y-88557525D01*
X78807532Y-88755000D01*
X78682556Y-88933485D01*
X78528485Y-89087556D01*
X78350000Y-89212532D01*
X78152525Y-89304616D01*
X77942060Y-89361010D01*
X77725000Y-89380000D01*
X77507940Y-89361010D01*
X77297475Y-89304616D01*
X77100000Y-89212532D01*
X76921515Y-89087556D01*
X76767444Y-88933485D01*
X76642468Y-88755000D01*
X76550384Y-88557525D01*
X76493990Y-88347060D01*
X76475000Y-88130000D01*
X76493990Y-87912940D01*
X76550384Y-87702475D01*
X76642468Y-87505000D01*
X76767444Y-87326515D01*
X76921515Y-87172444D01*
X77100000Y-87047468D01*
X77297475Y-86955384D01*
X77507940Y-86898990D01*
X77725000Y-86880000D01*
X77942060Y-86898990D01*
G37*
G36*
X83464561Y-86117105D02*
G01*
X83625619Y-86173462D01*
X83770099Y-86264244D01*
X83890756Y-86384901D01*
X83981538Y-86529381D01*
X84037895Y-86690439D01*
X84057000Y-86860000D01*
X84037895Y-87029561D01*
X83981538Y-87190619D01*
X83890756Y-87335099D01*
X83770099Y-87455756D01*
X83625619Y-87546538D01*
X83464561Y-87602895D01*
X83295000Y-87622000D01*
X83125439Y-87602895D01*
X82964381Y-87546538D01*
X82819901Y-87455756D01*
X82699244Y-87335099D01*
X82608462Y-87190619D01*
X82552105Y-87029561D01*
X82533000Y-86860000D01*
X82552105Y-86690439D01*
X82608462Y-86529381D01*
X82699244Y-86384901D01*
X82819901Y-86264244D01*
X82964381Y-86173462D01*
X83125439Y-86117105D01*
X83295000Y-86098000D01*
X83464561Y-86117105D01*
G37*
G36*
X160995090Y-83719215D02*
G01*
X161182683Y-83776120D01*
X161355570Y-83868530D01*
X161507107Y-83992893D01*
X161631470Y-84144430D01*
X161723880Y-84317317D01*
X161780785Y-84504910D01*
X161800000Y-84700000D01*
X161780785Y-84895090D01*
X161723880Y-85082683D01*
X161631470Y-85255570D01*
X161507107Y-85407107D01*
X161355570Y-85531470D01*
X161182683Y-85623880D01*
X160995090Y-85680785D01*
X160800000Y-85700000D01*
X160604910Y-85680785D01*
X160417317Y-85623880D01*
X160244430Y-85531470D01*
X160092893Y-85407107D01*
X159968530Y-85255570D01*
X159876120Y-85082683D01*
X159819215Y-84895090D01*
X159800000Y-84700000D01*
X159819215Y-84504910D01*
X159876120Y-84317317D01*
X159968530Y-84144430D01*
X160092893Y-83992893D01*
X160244430Y-83868530D01*
X160417317Y-83776120D01*
X160604910Y-83719215D01*
X160800000Y-83700000D01*
X160995090Y-83719215D01*
G37*
G36*
X83464561Y-83827105D02*
G01*
X83625619Y-83883462D01*
X83770099Y-83974244D01*
X83890756Y-84094901D01*
X83981538Y-84239381D01*
X84037895Y-84400439D01*
X84057000Y-84570000D01*
X84037895Y-84739561D01*
X83981538Y-84900619D01*
X83890756Y-85045099D01*
X83770099Y-85165756D01*
X83625619Y-85256538D01*
X83464561Y-85312895D01*
X83295000Y-85332000D01*
X83125439Y-85312895D01*
X82964381Y-85256538D01*
X82819901Y-85165756D01*
X82699244Y-85045099D01*
X82608462Y-84900619D01*
X82552105Y-84739561D01*
X82533000Y-84570000D01*
X82552105Y-84400439D01*
X82608462Y-84239381D01*
X82699244Y-84094901D01*
X82819901Y-83974244D01*
X82964381Y-83883462D01*
X83125439Y-83827105D01*
X83295000Y-83808000D01*
X83464561Y-83827105D01*
G37*
G36*
X76874561Y-82827105D02*
G01*
X77035619Y-82883462D01*
X77180099Y-82974244D01*
X77300756Y-83094901D01*
X77391538Y-83239381D01*
X77447895Y-83400439D01*
X77467000Y-83570000D01*
X77447895Y-83739561D01*
X77391538Y-83900619D01*
X77300756Y-84045099D01*
X77180099Y-84165756D01*
X77035619Y-84256538D01*
X76874561Y-84312895D01*
X76705000Y-84332000D01*
X76535439Y-84312895D01*
X76374381Y-84256538D01*
X76229901Y-84165756D01*
X76109244Y-84045099D01*
X76018462Y-83900619D01*
X75962105Y-83739561D01*
X75943000Y-83570000D01*
X75962105Y-83400439D01*
X76018462Y-83239381D01*
X76109244Y-83094901D01*
X76229901Y-82974244D01*
X76374381Y-82883462D01*
X76535439Y-82827105D01*
X76705000Y-82808000D01*
X76874561Y-82827105D01*
G37*
G36*
X78654561Y-81807105D02*
G01*
X78815619Y-81863462D01*
X78960099Y-81954244D01*
X79080756Y-82074901D01*
X79171538Y-82219381D01*
X79227895Y-82380439D01*
X79247000Y-82550000D01*
X79227895Y-82719561D01*
X79171538Y-82880619D01*
X79080756Y-83025099D01*
X78960099Y-83145756D01*
X78815619Y-83236538D01*
X78654561Y-83292895D01*
X78485000Y-83312000D01*
X78315439Y-83292895D01*
X78154381Y-83236538D01*
X78009901Y-83145756D01*
X77889244Y-83025099D01*
X77798462Y-82880619D01*
X77742105Y-82719561D01*
X77723000Y-82550000D01*
X77742105Y-82380439D01*
X77798462Y-82219381D01*
X77889244Y-82074901D01*
X78009901Y-81954244D01*
X78154381Y-81863462D01*
X78315439Y-81807105D01*
X78485000Y-81788000D01*
X78654561Y-81807105D01*
G37*
G36*
X76874561Y-80787105D02*
G01*
X77035619Y-80843462D01*
X77180099Y-80934244D01*
X77300756Y-81054901D01*
X77391538Y-81199381D01*
X77447895Y-81360439D01*
X77467000Y-81530000D01*
X77447895Y-81699561D01*
X77391538Y-81860619D01*
X77300756Y-82005099D01*
X77180099Y-82125756D01*
X77035619Y-82216538D01*
X76874561Y-82272895D01*
X76705000Y-82292000D01*
X76535439Y-82272895D01*
X76374381Y-82216538D01*
X76229901Y-82125756D01*
X76109244Y-82005099D01*
X76018462Y-81860619D01*
X75962105Y-81699561D01*
X75943000Y-81530000D01*
X75962105Y-81360439D01*
X76018462Y-81199381D01*
X76109244Y-81054901D01*
X76229901Y-80934244D01*
X76374381Y-80843462D01*
X76535439Y-80787105D01*
X76705000Y-80768000D01*
X76874561Y-80787105D01*
G37*
G36*
X78654561Y-79767105D02*
G01*
X78815619Y-79823462D01*
X78960099Y-79914244D01*
X79080756Y-80034901D01*
X79171538Y-80179381D01*
X79227895Y-80340439D01*
X79247000Y-80510000D01*
X79227895Y-80679561D01*
X79171538Y-80840619D01*
X79080756Y-80985099D01*
X78960099Y-81105756D01*
X78815619Y-81196538D01*
X78654561Y-81252895D01*
X78485000Y-81272000D01*
X78315439Y-81252895D01*
X78154381Y-81196538D01*
X78009901Y-81105756D01*
X77889244Y-80985099D01*
X77798462Y-80840619D01*
X77742105Y-80679561D01*
X77723000Y-80510000D01*
X77742105Y-80340439D01*
X77798462Y-80179381D01*
X77889244Y-80034901D01*
X78009901Y-79914244D01*
X78154381Y-79823462D01*
X78315439Y-79767105D01*
X78485000Y-79748000D01*
X78654561Y-79767105D01*
G37*
G36*
X76874561Y-78747105D02*
G01*
X77035619Y-78803462D01*
X77180099Y-78894244D01*
X77300756Y-79014901D01*
X77391538Y-79159381D01*
X77447895Y-79320439D01*
X77467000Y-79490000D01*
X77447895Y-79659561D01*
X77391538Y-79820619D01*
X77300756Y-79965099D01*
X77180099Y-80085756D01*
X77035619Y-80176538D01*
X76874561Y-80232895D01*
X76705000Y-80252000D01*
X76535439Y-80232895D01*
X76374381Y-80176538D01*
X76229901Y-80085756D01*
X76109244Y-79965099D01*
X76018462Y-79820619D01*
X75962105Y-79659561D01*
X75943000Y-79490000D01*
X75962105Y-79320439D01*
X76018462Y-79159381D01*
X76109244Y-79014901D01*
X76229901Y-78894244D01*
X76374381Y-78803462D01*
X76535439Y-78747105D01*
X76705000Y-78728000D01*
X76874561Y-78747105D01*
G37*
G36*
X78654561Y-77727105D02*
G01*
X78815619Y-77783462D01*
X78960099Y-77874244D01*
X79080756Y-77994901D01*
X79171538Y-78139381D01*
X79227895Y-78300439D01*
X79247000Y-78470000D01*
X79227895Y-78639561D01*
X79171538Y-78800619D01*
X79080756Y-78945099D01*
X78960099Y-79065756D01*
X78815619Y-79156538D01*
X78654561Y-79212895D01*
X78485000Y-79232000D01*
X78315439Y-79212895D01*
X78154381Y-79156538D01*
X78009901Y-79065756D01*
X77889244Y-78945099D01*
X77798462Y-78800619D01*
X77742105Y-78639561D01*
X77723000Y-78470000D01*
X77742105Y-78300439D01*
X77798462Y-78139381D01*
X77889244Y-77994901D01*
X78009901Y-77874244D01*
X78154381Y-77783462D01*
X78315439Y-77727105D01*
X78485000Y-77708000D01*
X78654561Y-77727105D01*
G37*
G36*
X76874561Y-76707105D02*
G01*
X77035619Y-76763462D01*
X77180099Y-76854244D01*
X77300756Y-76974901D01*
X77391538Y-77119381D01*
X77447895Y-77280439D01*
X77467000Y-77450000D01*
X77447895Y-77619561D01*
X77391538Y-77780619D01*
X77300756Y-77925099D01*
X77180099Y-78045756D01*
X77035619Y-78136538D01*
X76874561Y-78192895D01*
X76705000Y-78212000D01*
X76535439Y-78192895D01*
X76374381Y-78136538D01*
X76229901Y-78045756D01*
X76109244Y-77925099D01*
X76018462Y-77780619D01*
X75962105Y-77619561D01*
X75943000Y-77450000D01*
X75962105Y-77280439D01*
X76018462Y-77119381D01*
X76109244Y-76974901D01*
X76229901Y-76854244D01*
X76374381Y-76763462D01*
X76535439Y-76707105D01*
X76705000Y-76688000D01*
X76874561Y-76707105D01*
G37*
G36*
X78654561Y-75687105D02*
G01*
X78815619Y-75743462D01*
X78960099Y-75834244D01*
X79080756Y-75954901D01*
X79171538Y-76099381D01*
X79227895Y-76260439D01*
X79247000Y-76430000D01*
X79227895Y-76599561D01*
X79171538Y-76760619D01*
X79080756Y-76905099D01*
X78960099Y-77025756D01*
X78815619Y-77116538D01*
X78654561Y-77172895D01*
X78485000Y-77192000D01*
X78315439Y-77172895D01*
X78154381Y-77116538D01*
X78009901Y-77025756D01*
X77889244Y-76905099D01*
X77798462Y-76760619D01*
X77742105Y-76599561D01*
X77723000Y-76430000D01*
X77742105Y-76260439D01*
X77798462Y-76099381D01*
X77889244Y-75954901D01*
X78009901Y-75834244D01*
X78154381Y-75743462D01*
X78315439Y-75687105D01*
X78485000Y-75668000D01*
X78654561Y-75687105D01*
G37*
G36*
X83464561Y-74687105D02*
G01*
X83625619Y-74743462D01*
X83770099Y-74834244D01*
X83890756Y-74954901D01*
X83981538Y-75099381D01*
X84037895Y-75260439D01*
X84057000Y-75430000D01*
X84037895Y-75599561D01*
X83981538Y-75760619D01*
X83890756Y-75905099D01*
X83770099Y-76025756D01*
X83625619Y-76116538D01*
X83464561Y-76172895D01*
X83295000Y-76192000D01*
X83125439Y-76172895D01*
X82964381Y-76116538D01*
X82819901Y-76025756D01*
X82699244Y-75905099D01*
X82608462Y-75760619D01*
X82552105Y-75599561D01*
X82533000Y-75430000D01*
X82552105Y-75260439D01*
X82608462Y-75099381D01*
X82699244Y-74954901D01*
X82819901Y-74834244D01*
X82964381Y-74743462D01*
X83125439Y-74687105D01*
X83295000Y-74668000D01*
X83464561Y-74687105D01*
G37*
G36*
X83464561Y-72397105D02*
G01*
X83625619Y-72453462D01*
X83770099Y-72544244D01*
X83890756Y-72664901D01*
X83981538Y-72809381D01*
X84037895Y-72970439D01*
X84057000Y-73140000D01*
X84037895Y-73309561D01*
X83981538Y-73470619D01*
X83890756Y-73615099D01*
X83770099Y-73735756D01*
X83625619Y-73826538D01*
X83464561Y-73882895D01*
X83295000Y-73902000D01*
X83125439Y-73882895D01*
X82964381Y-73826538D01*
X82819901Y-73735756D01*
X82699244Y-73615099D01*
X82608462Y-73470619D01*
X82552105Y-73309561D01*
X82533000Y-73140000D01*
X82552105Y-72970439D01*
X82608462Y-72809381D01*
X82699244Y-72664901D01*
X82819901Y-72544244D01*
X82964381Y-72453462D01*
X83125439Y-72397105D01*
X83295000Y-72378000D01*
X83464561Y-72397105D01*
G37*
G36*
X143482000Y-73762000D02*
G01*
X141958000Y-73762000D01*
X141958000Y-72238000D01*
X143482000Y-72238000D01*
X143482000Y-73762000D01*
G37*
G36*
X145429561Y-72257105D02*
G01*
X145590619Y-72313462D01*
X145735099Y-72404244D01*
X145855756Y-72524901D01*
X145946538Y-72669381D01*
X146002895Y-72830439D01*
X146022000Y-73000000D01*
X146002895Y-73169561D01*
X145946538Y-73330619D01*
X145855756Y-73475099D01*
X145735099Y-73595756D01*
X145590619Y-73686538D01*
X145429561Y-73742895D01*
X145260000Y-73762000D01*
X145090439Y-73742895D01*
X144929381Y-73686538D01*
X144784901Y-73595756D01*
X144664244Y-73475099D01*
X144573462Y-73330619D01*
X144517105Y-73169561D01*
X144498000Y-73000000D01*
X144517105Y-72830439D01*
X144573462Y-72669381D01*
X144664244Y-72524901D01*
X144784901Y-72404244D01*
X144929381Y-72313462D01*
X145090439Y-72257105D01*
X145260000Y-72238000D01*
X145429561Y-72257105D01*
G37*
G36*
X147969561Y-72257105D02*
G01*
X148130619Y-72313462D01*
X148275099Y-72404244D01*
X148395756Y-72524901D01*
X148486538Y-72669381D01*
X148542895Y-72830439D01*
X148562000Y-73000000D01*
X148542895Y-73169561D01*
X148486538Y-73330619D01*
X148395756Y-73475099D01*
X148275099Y-73595756D01*
X148130619Y-73686538D01*
X147969561Y-73742895D01*
X147800000Y-73762000D01*
X147630439Y-73742895D01*
X147469381Y-73686538D01*
X147324901Y-73595756D01*
X147204244Y-73475099D01*
X147113462Y-73330619D01*
X147057105Y-73169561D01*
X147038000Y-73000000D01*
X147057105Y-72830439D01*
X147113462Y-72669381D01*
X147204244Y-72524901D01*
X147324901Y-72404244D01*
X147469381Y-72313462D01*
X147630439Y-72257105D01*
X147800000Y-72238000D01*
X147969561Y-72257105D01*
G37*
G36*
X150509561Y-72257105D02*
G01*
X150670619Y-72313462D01*
X150815099Y-72404244D01*
X150935756Y-72524901D01*
X151026538Y-72669381D01*
X151082895Y-72830439D01*
X151102000Y-73000000D01*
X151082895Y-73169561D01*
X151026538Y-73330619D01*
X150935756Y-73475099D01*
X150815099Y-73595756D01*
X150670619Y-73686538D01*
X150509561Y-73742895D01*
X150340000Y-73762000D01*
X150170439Y-73742895D01*
X150009381Y-73686538D01*
X149864901Y-73595756D01*
X149744244Y-73475099D01*
X149653462Y-73330619D01*
X149597105Y-73169561D01*
X149578000Y-73000000D01*
X149597105Y-72830439D01*
X149653462Y-72669381D01*
X149744244Y-72524901D01*
X149864901Y-72404244D01*
X150009381Y-72313462D01*
X150170439Y-72257105D01*
X150340000Y-72238000D01*
X150509561Y-72257105D01*
G37*
G36*
X153049561Y-72257105D02*
G01*
X153210619Y-72313462D01*
X153355099Y-72404244D01*
X153475756Y-72524901D01*
X153566538Y-72669381D01*
X153622895Y-72830439D01*
X153642000Y-73000000D01*
X153622895Y-73169561D01*
X153566538Y-73330619D01*
X153475756Y-73475099D01*
X153355099Y-73595756D01*
X153210619Y-73686538D01*
X153049561Y-73742895D01*
X152880000Y-73762000D01*
X152710439Y-73742895D01*
X152549381Y-73686538D01*
X152404901Y-73595756D01*
X152284244Y-73475099D01*
X152193462Y-73330619D01*
X152137105Y-73169561D01*
X152118000Y-73000000D01*
X152137105Y-72830439D01*
X152193462Y-72669381D01*
X152284244Y-72524901D01*
X152404901Y-72404244D01*
X152549381Y-72313462D01*
X152710439Y-72257105D01*
X152880000Y-72238000D01*
X153049561Y-72257105D01*
G37*
G36*
X155589561Y-72257105D02*
G01*
X155750619Y-72313462D01*
X155895099Y-72404244D01*
X156015756Y-72524901D01*
X156106538Y-72669381D01*
X156162895Y-72830439D01*
X156182000Y-73000000D01*
X156162895Y-73169561D01*
X156106538Y-73330619D01*
X156015756Y-73475099D01*
X155895099Y-73595756D01*
X155750619Y-73686538D01*
X155589561Y-73742895D01*
X155420000Y-73762000D01*
X155250439Y-73742895D01*
X155089381Y-73686538D01*
X154944901Y-73595756D01*
X154824244Y-73475099D01*
X154733462Y-73330619D01*
X154677105Y-73169561D01*
X154658000Y-73000000D01*
X154677105Y-72830439D01*
X154733462Y-72669381D01*
X154824244Y-72524901D01*
X154944901Y-72404244D01*
X155089381Y-72313462D01*
X155250439Y-72257105D01*
X155420000Y-72238000D01*
X155589561Y-72257105D01*
G37*
G36*
X158129561Y-72257105D02*
G01*
X158290619Y-72313462D01*
X158435099Y-72404244D01*
X158555756Y-72524901D01*
X158646538Y-72669381D01*
X158702895Y-72830439D01*
X158722000Y-73000000D01*
X158702895Y-73169561D01*
X158646538Y-73330619D01*
X158555756Y-73475099D01*
X158435099Y-73595756D01*
X158290619Y-73686538D01*
X158129561Y-73742895D01*
X157960000Y-73762000D01*
X157790439Y-73742895D01*
X157629381Y-73686538D01*
X157484901Y-73595756D01*
X157364244Y-73475099D01*
X157273462Y-73330619D01*
X157217105Y-73169561D01*
X157198000Y-73000000D01*
X157217105Y-72830439D01*
X157273462Y-72669381D01*
X157364244Y-72524901D01*
X157484901Y-72404244D01*
X157629381Y-72313462D01*
X157790439Y-72257105D01*
X157960000Y-72238000D01*
X158129561Y-72257105D01*
G37*
G36*
X160669561Y-72257105D02*
G01*
X160830619Y-72313462D01*
X160975099Y-72404244D01*
X161095756Y-72524901D01*
X161186538Y-72669381D01*
X161242895Y-72830439D01*
X161262000Y-73000000D01*
X161242895Y-73169561D01*
X161186538Y-73330619D01*
X161095756Y-73475099D01*
X160975099Y-73595756D01*
X160830619Y-73686538D01*
X160669561Y-73742895D01*
X160500000Y-73762000D01*
X160330439Y-73742895D01*
X160169381Y-73686538D01*
X160024901Y-73595756D01*
X159904244Y-73475099D01*
X159813462Y-73330619D01*
X159757105Y-73169561D01*
X159738000Y-73000000D01*
X159757105Y-72830439D01*
X159813462Y-72669381D01*
X159904244Y-72524901D01*
X160024901Y-72404244D01*
X160169381Y-72313462D01*
X160330439Y-72257105D01*
X160500000Y-72238000D01*
X160669561Y-72257105D01*
G37*
G36*
X77942060Y-70638990D02*
G01*
X78152525Y-70695384D01*
X78350000Y-70787468D01*
X78528485Y-70912444D01*
X78682556Y-71066515D01*
X78807532Y-71245000D01*
X78899616Y-71442475D01*
X78956010Y-71652940D01*
X78975000Y-71870000D01*
X78956010Y-72087060D01*
X78899616Y-72297525D01*
X78807532Y-72495000D01*
X78682556Y-72673485D01*
X78528485Y-72827556D01*
X78350000Y-72952532D01*
X78152525Y-73044616D01*
X77942060Y-73101010D01*
X77725000Y-73120000D01*
X77507940Y-73101010D01*
X77297475Y-73044616D01*
X77100000Y-72952532D01*
X76921515Y-72827556D01*
X76767444Y-72673485D01*
X76642468Y-72495000D01*
X76550384Y-72297525D01*
X76493990Y-72087060D01*
X76475000Y-71870000D01*
X76493990Y-71652940D01*
X76550384Y-71442475D01*
X76642468Y-71245000D01*
X76767444Y-71066515D01*
X76921515Y-70912444D01*
X77100000Y-70787468D01*
X77297475Y-70695384D01*
X77507940Y-70638990D01*
X77725000Y-70620000D01*
X77942060Y-70638990D01*
G37*
G36*
X74282664Y-57191602D02*
G01*
X74445000Y-57263878D01*
X74588761Y-57368327D01*
X74707664Y-57500383D01*
X74796514Y-57654274D01*
X74851425Y-57823275D01*
X74870000Y-58000000D01*
X74851425Y-58176725D01*
X74796514Y-58345726D01*
X74707664Y-58499617D01*
X74588761Y-58631673D01*
X74445000Y-58736122D01*
X74282664Y-58808398D01*
X74108849Y-58845344D01*
X73931151Y-58845344D01*
X73757336Y-58808398D01*
X73595000Y-58736122D01*
X73451239Y-58631673D01*
X73332336Y-58499617D01*
X73243486Y-58345726D01*
X73188575Y-58176725D01*
X73170000Y-58000000D01*
X73188575Y-57823275D01*
X73243486Y-57654274D01*
X73332336Y-57500383D01*
X73451239Y-57368327D01*
X73595000Y-57263878D01*
X73757336Y-57191602D01*
X73931151Y-57154656D01*
X74108849Y-57154656D01*
X74282664Y-57191602D01*
G37*
G36*
X76822664Y-57191602D02*
G01*
X76985000Y-57263878D01*
X77128761Y-57368327D01*
X77247664Y-57500383D01*
X77336514Y-57654274D01*
X77391425Y-57823275D01*
X77410000Y-58000000D01*
X77391425Y-58176725D01*
X77336514Y-58345726D01*
X77247664Y-58499617D01*
X77128761Y-58631673D01*
X76985000Y-58736122D01*
X76822664Y-58808398D01*
X76648849Y-58845344D01*
X76471151Y-58845344D01*
X76297336Y-58808398D01*
X76135000Y-58736122D01*
X75991239Y-58631673D01*
X75872336Y-58499617D01*
X75783486Y-58345726D01*
X75728575Y-58176725D01*
X75710000Y-58000000D01*
X75728575Y-57823275D01*
X75783486Y-57654274D01*
X75872336Y-57500383D01*
X75991239Y-57368327D01*
X76135000Y-57263878D01*
X76297336Y-57191602D01*
X76471151Y-57154656D01*
X76648849Y-57154656D01*
X76822664Y-57191602D01*
G37*
G36*
X79362664Y-57191602D02*
G01*
X79525000Y-57263878D01*
X79668761Y-57368327D01*
X79787664Y-57500383D01*
X79876514Y-57654274D01*
X79931425Y-57823275D01*
X79950000Y-58000000D01*
X79931425Y-58176725D01*
X79876514Y-58345726D01*
X79787664Y-58499617D01*
X79668761Y-58631673D01*
X79525000Y-58736122D01*
X79362664Y-58808398D01*
X79188849Y-58845344D01*
X79011151Y-58845344D01*
X78837336Y-58808398D01*
X78675000Y-58736122D01*
X78531239Y-58631673D01*
X78412336Y-58499617D01*
X78323486Y-58345726D01*
X78268575Y-58176725D01*
X78250000Y-58000000D01*
X78268575Y-57823275D01*
X78323486Y-57654274D01*
X78412336Y-57500383D01*
X78531239Y-57368327D01*
X78675000Y-57263878D01*
X78837336Y-57191602D01*
X79011151Y-57154656D01*
X79188849Y-57154656D01*
X79362664Y-57191602D01*
G37*
G36*
X81902664Y-57191602D02*
G01*
X82065000Y-57263878D01*
X82208761Y-57368327D01*
X82327664Y-57500383D01*
X82416514Y-57654274D01*
X82471425Y-57823275D01*
X82490000Y-58000000D01*
X82471425Y-58176725D01*
X82416514Y-58345726D01*
X82327664Y-58499617D01*
X82208761Y-58631673D01*
X82065000Y-58736122D01*
X81902664Y-58808398D01*
X81728849Y-58845344D01*
X81551151Y-58845344D01*
X81377336Y-58808398D01*
X81215000Y-58736122D01*
X81071239Y-58631673D01*
X80952336Y-58499617D01*
X80863486Y-58345726D01*
X80808575Y-58176725D01*
X80790000Y-58000000D01*
X80808575Y-57823275D01*
X80863486Y-57654274D01*
X80952336Y-57500383D01*
X81071239Y-57368327D01*
X81215000Y-57263878D01*
X81377336Y-57191602D01*
X81551151Y-57154656D01*
X81728849Y-57154656D01*
X81902664Y-57191602D01*
G37*
G36*
X104702664Y-57191602D02*
G01*
X104865000Y-57263878D01*
X105008761Y-57368327D01*
X105127664Y-57500383D01*
X105216514Y-57654274D01*
X105271425Y-57823275D01*
X105290000Y-58000000D01*
X105271425Y-58176725D01*
X105216514Y-58345726D01*
X105127664Y-58499617D01*
X105008761Y-58631673D01*
X104865000Y-58736122D01*
X104702664Y-58808398D01*
X104528849Y-58845344D01*
X104351151Y-58845344D01*
X104177336Y-58808398D01*
X104015000Y-58736122D01*
X103871239Y-58631673D01*
X103752336Y-58499617D01*
X103663486Y-58345726D01*
X103608575Y-58176725D01*
X103590000Y-58000000D01*
X103608575Y-57823275D01*
X103663486Y-57654274D01*
X103752336Y-57500383D01*
X103871239Y-57368327D01*
X104015000Y-57263878D01*
X104177336Y-57191602D01*
X104351151Y-57154656D01*
X104528849Y-57154656D01*
X104702664Y-57191602D01*
G37*
G36*
X107242664Y-57191602D02*
G01*
X107405000Y-57263878D01*
X107548761Y-57368327D01*
X107667664Y-57500383D01*
X107756514Y-57654274D01*
X107811425Y-57823275D01*
X107830000Y-58000000D01*
X107811425Y-58176725D01*
X107756514Y-58345726D01*
X107667664Y-58499617D01*
X107548761Y-58631673D01*
X107405000Y-58736122D01*
X107242664Y-58808398D01*
X107068849Y-58845344D01*
X106891151Y-58845344D01*
X106717336Y-58808398D01*
X106555000Y-58736122D01*
X106411239Y-58631673D01*
X106292336Y-58499617D01*
X106203486Y-58345726D01*
X106148575Y-58176725D01*
X106130000Y-58000000D01*
X106148575Y-57823275D01*
X106203486Y-57654274D01*
X106292336Y-57500383D01*
X106411239Y-57368327D01*
X106555000Y-57263878D01*
X106717336Y-57191602D01*
X106891151Y-57154656D01*
X107068849Y-57154656D01*
X107242664Y-57191602D01*
G37*
G36*
X166395090Y-50819215D02*
G01*
X166582683Y-50876120D01*
X166755570Y-50968530D01*
X166907107Y-51092893D01*
X167031470Y-51244430D01*
X167123880Y-51417317D01*
X167180785Y-51604910D01*
X167200000Y-51800000D01*
X167180785Y-51995090D01*
X167123880Y-52182683D01*
X167031470Y-52355570D01*
X166907107Y-52507107D01*
X166755570Y-52631470D01*
X166582683Y-52723880D01*
X166395090Y-52780785D01*
X166200000Y-52800000D01*
X166004910Y-52780785D01*
X165817317Y-52723880D01*
X165644430Y-52631470D01*
X165492893Y-52507107D01*
X165368530Y-52355570D01*
X165276120Y-52182683D01*
X165219215Y-51995090D01*
X165200000Y-51800000D01*
X165219215Y-51604910D01*
X165276120Y-51417317D01*
X165368530Y-51244430D01*
X165492893Y-51092893D01*
X165644430Y-50968530D01*
X165817317Y-50876120D01*
X166004910Y-50819215D01*
X166200000Y-50800000D01*
X166395090Y-50819215D01*
G37*
G36*
X70995090Y-50219215D02*
G01*
X71182683Y-50276120D01*
X71355570Y-50368530D01*
X71507107Y-50492893D01*
X71631470Y-50644430D01*
X71723880Y-50817317D01*
X71780785Y-51004910D01*
X71800000Y-51200000D01*
X71780785Y-51395090D01*
X71723880Y-51582683D01*
X71631470Y-51755570D01*
X71507107Y-51907107D01*
X71355570Y-52031470D01*
X71182683Y-52123880D01*
X70995090Y-52180785D01*
X70800000Y-52200000D01*
X70604910Y-52180785D01*
X70417317Y-52123880D01*
X70244430Y-52031470D01*
X70092893Y-51907107D01*
X69968530Y-51755570D01*
X69876120Y-51582683D01*
X69819215Y-51395090D01*
X69800000Y-51200000D01*
X69819215Y-51004910D01*
X69876120Y-50817317D01*
X69968530Y-50644430D01*
X70092893Y-50492893D01*
X70244430Y-50368530D01*
X70417317Y-50276120D01*
X70604910Y-50219215D01*
X70800000Y-50200000D01*
X70995090Y-50219215D01*
G37*
M02*
