%TF.GenerationSoftware,KiCad,Pcbnew,8.0.1*%
%TF.CreationDate,2024-06-12T15:48:30+02:00*%
%TF.ProjectId,Lichtstab,4c696368-7473-4746-9162-2e6b69636164,rev?*%
%TF.SameCoordinates,Original*%
%TF.FileFunction,Copper,L1,Top*%
%TF.FilePolarity,Positive*%
%FSLAX46Y46*%
G04 Gerber Fmt 4.6, Leading zero omitted, Abs format (unit mm)*
G04 Created by KiCad (PCBNEW 8.0.1) date 2024-06-12 15:48:30*
%MOMM*%
%LPD*%
G01*
G04 APERTURE LIST*
G04 Aperture macros list*
%AMRoundRect*
0 Rectangle with rounded corners*
0 $1 Rounding radius*
0 $2 $3 $4 $5 $6 $7 $8 $9 X,Y pos of 4 corners*
0 Add a 4 corners polygon primitive as box body*
4,1,4,$2,$3,$4,$5,$6,$7,$8,$9,$2,$3,0*
0 Add four circle primitives for the rounded corners*
1,1,$1+$1,$2,$3*
1,1,$1+$1,$4,$5*
1,1,$1+$1,$6,$7*
1,1,$1+$1,$8,$9*
0 Add four rect primitives between the rounded corners*
20,1,$1+$1,$2,$3,$4,$5,0*
20,1,$1+$1,$4,$5,$6,$7,0*
20,1,$1+$1,$6,$7,$8,$9,0*
20,1,$1+$1,$8,$9,$2,$3,0*%
%AMFreePoly0*
4,1,14,0.340806,0.106694,0.394194,0.053306,0.412500,0.009112,0.412500,-0.062500,0.394194,-0.106694,0.350000,-0.125000,-0.350000,-0.125000,-0.394194,-0.106694,-0.412500,-0.062500,-0.412500,0.062500,-0.394194,0.106694,-0.350000,0.125000,0.296612,0.125000,0.340806,0.106694,0.340806,0.106694,$1*%
%AMFreePoly1*
4,1,14,0.394194,0.106694,0.412500,0.062500,0.412500,-0.009112,0.394194,-0.053306,0.340806,-0.106694,0.296612,-0.125000,-0.350000,-0.125000,-0.394194,-0.106694,-0.412500,-0.062500,-0.412500,0.062500,-0.394194,0.106694,-0.350000,0.125000,0.350000,0.125000,0.394194,0.106694,0.394194,0.106694,$1*%
%AMFreePoly2*
4,1,14,0.106694,0.394194,0.125000,0.350000,0.125000,-0.350000,0.106694,-0.394194,0.062500,-0.412500,-0.062500,-0.412500,-0.106694,-0.394194,-0.125000,-0.350000,-0.125000,0.296612,-0.106694,0.340806,-0.053306,0.394194,-0.009112,0.412500,0.062500,0.412500,0.106694,0.394194,0.106694,0.394194,$1*%
%AMFreePoly3*
4,1,14,0.053306,0.394194,0.106694,0.340806,0.125000,0.296612,0.125000,-0.350000,0.106694,-0.394194,0.062500,-0.412500,-0.062500,-0.412500,-0.106694,-0.394194,-0.125000,-0.350000,-0.125000,0.350000,-0.106694,0.394194,-0.062500,0.412500,0.009112,0.412500,0.053306,0.394194,0.053306,0.394194,$1*%
%AMFreePoly4*
4,1,14,0.394194,0.106694,0.412500,0.062500,0.412500,-0.062500,0.394194,-0.106694,0.350000,-0.125000,-0.296612,-0.125000,-0.340806,-0.106694,-0.394194,-0.053306,-0.412500,-0.009112,-0.412500,0.062500,-0.394194,0.106694,-0.350000,0.125000,0.350000,0.125000,0.394194,0.106694,0.394194,0.106694,$1*%
%AMFreePoly5*
4,1,14,0.394194,0.106694,0.412500,0.062500,0.412500,-0.062500,0.394194,-0.106694,0.350000,-0.125000,-0.350000,-0.125000,-0.394194,-0.106694,-0.412500,-0.062500,-0.412500,0.009112,-0.394194,0.053306,-0.340806,0.106694,-0.296612,0.125000,0.350000,0.125000,0.394194,0.106694,0.394194,0.106694,$1*%
%AMFreePoly6*
4,1,14,0.106694,0.394194,0.125000,0.350000,0.125000,-0.296612,0.106694,-0.340806,0.053306,-0.394194,0.009112,-0.412500,-0.062500,-0.412500,-0.106694,-0.394194,-0.125000,-0.350000,-0.125000,0.350000,-0.106694,0.394194,-0.062500,0.412500,0.062500,0.412500,0.106694,0.394194,0.106694,0.394194,$1*%
%AMFreePoly7*
4,1,14,0.106694,0.394194,0.125000,0.350000,0.125000,-0.350000,0.106694,-0.394194,0.062500,-0.412500,-0.009112,-0.412500,-0.053306,-0.394194,-0.106694,-0.340806,-0.125000,-0.296612,-0.125000,0.350000,-0.106694,0.394194,-0.062500,0.412500,0.062500,0.412500,0.106694,0.394194,0.106694,0.394194,$1*%
G04 Aperture macros list end*
%TA.AperFunction,ComponentPad*%
%ADD10R,1.676400X1.676400*%
%TD*%
%TA.AperFunction,ComponentPad*%
%ADD11C,1.524000*%
%TD*%
%TA.AperFunction,ComponentPad*%
%ADD12R,1.524000X1.524000*%
%TD*%
%TA.AperFunction,SMDPad,CuDef*%
%ADD13RoundRect,0.200000X0.200000X0.275000X-0.200000X0.275000X-0.200000X-0.275000X0.200000X-0.275000X0*%
%TD*%
%TA.AperFunction,SMDPad,CuDef*%
%ADD14RoundRect,0.225000X0.250000X-0.225000X0.250000X0.225000X-0.250000X0.225000X-0.250000X-0.225000X0*%
%TD*%
%TA.AperFunction,SMDPad,CuDef*%
%ADD15R,1.000000X3.150000*%
%TD*%
%TA.AperFunction,SMDPad,CuDef*%
%ADD16RoundRect,0.250000X-0.475000X0.250000X-0.475000X-0.250000X0.475000X-0.250000X0.475000X0.250000X0*%
%TD*%
%TA.AperFunction,SMDPad,CuDef*%
%ADD17RoundRect,0.243750X0.243750X0.456250X-0.243750X0.456250X-0.243750X-0.456250X0.243750X-0.456250X0*%
%TD*%
%TA.AperFunction,SMDPad,CuDef*%
%ADD18RoundRect,0.200000X-0.200000X-0.275000X0.200000X-0.275000X0.200000X0.275000X-0.200000X0.275000X0*%
%TD*%
%TA.AperFunction,SMDPad,CuDef*%
%ADD19R,1.000000X1.700000*%
%TD*%
%TA.AperFunction,SMDPad,CuDef*%
%ADD20RoundRect,0.200000X-0.275000X0.200000X-0.275000X-0.200000X0.275000X-0.200000X0.275000X0.200000X0*%
%TD*%
%TA.AperFunction,SMDPad,CuDef*%
%ADD21RoundRect,0.150000X-0.587500X-0.150000X0.587500X-0.150000X0.587500X0.150000X-0.587500X0.150000X0*%
%TD*%
%TA.AperFunction,SMDPad,CuDef*%
%ADD22RoundRect,0.250000X-1.000000X-0.650000X1.000000X-0.650000X1.000000X0.650000X-1.000000X0.650000X0*%
%TD*%
%TA.AperFunction,SMDPad,CuDef*%
%ADD23RoundRect,0.250000X0.250000X0.475000X-0.250000X0.475000X-0.250000X-0.475000X0.250000X-0.475000X0*%
%TD*%
%TA.AperFunction,SMDPad,CuDef*%
%ADD24RoundRect,0.225000X-0.225000X-0.250000X0.225000X-0.250000X0.225000X0.250000X-0.225000X0.250000X0*%
%TD*%
%TA.AperFunction,SMDPad,CuDef*%
%ADD25RoundRect,0.250000X-0.250000X-0.475000X0.250000X-0.475000X0.250000X0.475000X-0.250000X0.475000X0*%
%TD*%
%TA.AperFunction,ComponentPad*%
%ADD26C,1.700000*%
%TD*%
%TA.AperFunction,SMDPad,CuDef*%
%ADD27FreePoly0,0.000000*%
%TD*%
%TA.AperFunction,SMDPad,CuDef*%
%ADD28RoundRect,0.062500X-0.350000X-0.062500X0.350000X-0.062500X0.350000X0.062500X-0.350000X0.062500X0*%
%TD*%
%TA.AperFunction,SMDPad,CuDef*%
%ADD29FreePoly1,0.000000*%
%TD*%
%TA.AperFunction,SMDPad,CuDef*%
%ADD30FreePoly2,0.000000*%
%TD*%
%TA.AperFunction,SMDPad,CuDef*%
%ADD31RoundRect,0.062500X-0.062500X-0.350000X0.062500X-0.350000X0.062500X0.350000X-0.062500X0.350000X0*%
%TD*%
%TA.AperFunction,SMDPad,CuDef*%
%ADD32FreePoly3,0.000000*%
%TD*%
%TA.AperFunction,SMDPad,CuDef*%
%ADD33FreePoly4,0.000000*%
%TD*%
%TA.AperFunction,SMDPad,CuDef*%
%ADD34FreePoly5,0.000000*%
%TD*%
%TA.AperFunction,SMDPad,CuDef*%
%ADD35FreePoly6,0.000000*%
%TD*%
%TA.AperFunction,SMDPad,CuDef*%
%ADD36FreePoly7,0.000000*%
%TD*%
%TA.AperFunction,HeatsinkPad*%
%ADD37C,0.600000*%
%TD*%
%TA.AperFunction,HeatsinkPad*%
%ADD38R,3.400000X3.400000*%
%TD*%
%TA.AperFunction,SMDPad,CuDef*%
%ADD39RoundRect,0.135000X-0.135000X-0.185000X0.135000X-0.185000X0.135000X0.185000X-0.135000X0.185000X0*%
%TD*%
%TA.AperFunction,SMDPad,CuDef*%
%ADD40RoundRect,0.225000X0.225000X0.250000X-0.225000X0.250000X-0.225000X-0.250000X0.225000X-0.250000X0*%
%TD*%
%TA.AperFunction,SMDPad,CuDef*%
%ADD41R,0.600000X1.500000*%
%TD*%
%TA.AperFunction,SMDPad,CuDef*%
%ADD42R,3.300000X2.100000*%
%TD*%
%TA.AperFunction,SMDPad,CuDef*%
%ADD43RoundRect,0.218750X-0.256250X0.218750X-0.256250X-0.218750X0.256250X-0.218750X0.256250X0.218750X0*%
%TD*%
%TA.AperFunction,SMDPad,CuDef*%
%ADD44RoundRect,0.250000X-1.100000X0.325000X-1.100000X-0.325000X1.100000X-0.325000X1.100000X0.325000X0*%
%TD*%
%TA.AperFunction,SMDPad,CuDef*%
%ADD45R,0.350000X0.375000*%
%TD*%
%TA.AperFunction,SMDPad,CuDef*%
%ADD46R,0.375000X0.350000*%
%TD*%
%TA.AperFunction,SMDPad,CuDef*%
%ADD47RoundRect,0.250000X1.000000X0.650000X-1.000000X0.650000X-1.000000X-0.650000X1.000000X-0.650000X0*%
%TD*%
%TA.AperFunction,SMDPad,CuDef*%
%ADD48RoundRect,0.250000X0.475000X-0.250000X0.475000X0.250000X-0.475000X0.250000X-0.475000X-0.250000X0*%
%TD*%
%TA.AperFunction,SMDPad,CuDef*%
%ADD49O,2.190000X0.700000*%
%TD*%
%TA.AperFunction,SMDPad,CuDef*%
%ADD50RoundRect,0.135000X-0.185000X0.135000X-0.185000X-0.135000X0.185000X-0.135000X0.185000X0.135000X0*%
%TD*%
%TA.AperFunction,SMDPad,CuDef*%
%ADD51R,0.580000X0.280000*%
%TD*%
%TA.AperFunction,SMDPad,CuDef*%
%ADD52R,0.700000X1.600000*%
%TD*%
%TA.AperFunction,SMDPad,CuDef*%
%ADD53R,2.400000X2.400000*%
%TD*%
%TA.AperFunction,SMDPad,CuDef*%
%ADD54RoundRect,0.150000X-0.825000X-0.150000X0.825000X-0.150000X0.825000X0.150000X-0.825000X0.150000X0*%
%TD*%
%TA.AperFunction,SMDPad,CuDef*%
%ADD55R,0.500000X0.280000*%
%TD*%
%TA.AperFunction,SMDPad,CuDef*%
%ADD56R,0.280000X0.500000*%
%TD*%
%TA.AperFunction,SMDPad,CuDef*%
%ADD57R,1.400000X4.200000*%
%TD*%
%TA.AperFunction,SMDPad,CuDef*%
%ADD58RoundRect,0.225000X-0.250000X0.225000X-0.250000X-0.225000X0.250000X-0.225000X0.250000X0.225000X0*%
%TD*%
%TA.AperFunction,SMDPad,CuDef*%
%ADD59RoundRect,0.150000X-0.512500X-0.150000X0.512500X-0.150000X0.512500X0.150000X-0.512500X0.150000X0*%
%TD*%
%TA.AperFunction,SMDPad,CuDef*%
%ADD60RoundRect,0.200000X0.275000X-0.200000X0.275000X0.200000X-0.275000X0.200000X-0.275000X-0.200000X0*%
%TD*%
%TA.AperFunction,SMDPad,CuDef*%
%ADD61R,0.900000X1.500000*%
%TD*%
%TA.AperFunction,SMDPad,CuDef*%
%ADD62R,1.500000X0.900000*%
%TD*%
%TA.AperFunction,SMDPad,CuDef*%
%ADD63R,0.900000X0.900000*%
%TD*%
%TA.AperFunction,SMDPad,CuDef*%
%ADD64R,3.800000X3.800000*%
%TD*%
%TA.AperFunction,SMDPad,CuDef*%
%ADD65RoundRect,0.250000X-0.300000X0.300000X-0.300000X-0.300000X0.300000X-0.300000X0.300000X0.300000X0*%
%TD*%
%TA.AperFunction,SMDPad,CuDef*%
%ADD66RoundRect,0.250000X0.300000X-0.300000X0.300000X0.300000X-0.300000X0.300000X-0.300000X-0.300000X0*%
%TD*%
%TA.AperFunction,ComponentPad*%
%ADD67C,2.500000*%
%TD*%
%TA.AperFunction,SMDPad,CuDef*%
%ADD68RoundRect,0.250000X0.400000X0.600000X-0.400000X0.600000X-0.400000X-0.600000X0.400000X-0.600000X0*%
%TD*%
%TA.AperFunction,SMDPad,CuDef*%
%ADD69RoundRect,0.150000X-0.150000X0.587500X-0.150000X-0.587500X0.150000X-0.587500X0.150000X0.587500X0*%
%TD*%
%TA.AperFunction,SMDPad,CuDef*%
%ADD70RoundRect,0.150000X0.587500X0.150000X-0.587500X0.150000X-0.587500X-0.150000X0.587500X-0.150000X0*%
%TD*%
%TA.AperFunction,SMDPad,CuDef*%
%ADD71RoundRect,0.250000X0.325000X0.650000X-0.325000X0.650000X-0.325000X-0.650000X0.325000X-0.650000X0*%
%TD*%
%TA.AperFunction,SMDPad,CuDef*%
%ADD72RoundRect,0.150000X0.150000X-0.512500X0.150000X0.512500X-0.150000X0.512500X-0.150000X-0.512500X0*%
%TD*%
%TA.AperFunction,ComponentPad*%
%ADD73O,2.100000X1.000000*%
%TD*%
%TA.AperFunction,ComponentPad*%
%ADD74O,1.800000X1.000000*%
%TD*%
%TA.AperFunction,SMDPad,CuDef*%
%ADD75R,1.150000X0.600000*%
%TD*%
%TA.AperFunction,SMDPad,CuDef*%
%ADD76R,1.150000X0.300000*%
%TD*%
%TA.AperFunction,SMDPad,CuDef*%
%ADD77R,1.400000X1.200000*%
%TD*%
%TA.AperFunction,ViaPad*%
%ADD78C,0.600000*%
%TD*%
%TA.AperFunction,Conductor*%
%ADD79C,0.400000*%
%TD*%
%TA.AperFunction,Conductor*%
%ADD80C,0.200000*%
%TD*%
%TA.AperFunction,Conductor*%
%ADD81C,0.150000*%
%TD*%
%TA.AperFunction,Conductor*%
%ADD82C,0.127000*%
%TD*%
%TA.AperFunction,Conductor*%
%ADD83C,0.600000*%
%TD*%
G04 APERTURE END LIST*
D10*
%TO.P,CON2,P1,AN*%
%TO.N,/General/ESP_IO36*%
X143215000Y-131400000D03*
D11*
%TO.P,CON2,P2,RST*%
%TO.N,/General/ESP_IO35*%
X145755000Y-131400000D03*
%TO.P,CON2,P3,CS*%
%TO.N,/General/SPI_CS*%
X148295000Y-131400000D03*
%TO.P,CON2,P4,SCK*%
%TO.N,/General/SPI_SCK*%
X150835000Y-131400000D03*
%TO.P,CON2,P5,MISO*%
%TO.N,/General/SPI_MISO*%
X153375000Y-131400000D03*
%TO.P,CON2,P6,MOSI*%
%TO.N,/General/SPI_MOSI*%
X155915000Y-131400000D03*
%TO.P,CON2,P7,3V3*%
%TO.N,+3.3V*%
X158455000Y-131400000D03*
%TO.P,CON2,P8,GND1*%
%TO.N,GND*%
X160995000Y-131400000D03*
%TO.P,CON2,P9,GND2*%
X160995000Y-108540000D03*
%TO.P,CON2,P10,5V*%
%TO.N,+5V*%
X158455000Y-108540000D03*
%TO.P,CON2,P11,SDA*%
%TO.N,/General/I2C_SDA*%
X155915000Y-108540000D03*
%TO.P,CON2,P12,SCL*%
%TO.N,/General/I2C_SCL*%
X153375000Y-108540000D03*
%TO.P,CON2,P13,RX*%
%TO.N,/General/ESP_IO16*%
X150835000Y-108540000D03*
%TO.P,CON2,P14,TX*%
%TO.N,/General/ESP_IO17*%
X148295000Y-108540000D03*
%TO.P,CON2,P15,INT*%
%TO.N,/General/ESP_IO4*%
X145755000Y-108540000D03*
D12*
%TO.P,CON2,P16,PWM*%
%TO.N,/General/ESP_IO2*%
X143215000Y-108540000D03*
%TD*%
D13*
%TO.P,R20,1*%
%TO.N,+12V_USB*%
X85925000Y-93400000D03*
%TO.P,R20,2*%
%TO.N,Net-(U4-VBUS)*%
X84275000Y-93400000D03*
%TD*%
D14*
%TO.P,C7,1*%
%TO.N,Net-(C7-Pad1)*%
X79100000Y-61275000D03*
%TO.P,C7,2*%
%TO.N,Net-(U2-VB1)*%
X79100000Y-59725000D03*
%TD*%
D15*
%TO.P,H2,1,Pin_1*%
%TO.N,+12V*%
X89420000Y-121300000D03*
%TO.P,H2,2,Pin_2*%
X89420000Y-116250000D03*
%TO.P,H2,3,Pin_3*%
X91960000Y-121300000D03*
%TO.P,H2,4,Pin_4*%
X91960000Y-116250000D03*
%TO.P,H2,5,Pin_5*%
X94500000Y-121300000D03*
%TO.P,H2,6,Pin_6*%
X94500000Y-116250000D03*
%TO.P,H2,7,Pin_7*%
X97040000Y-121300000D03*
%TO.P,H2,8,Pin_8*%
X97040000Y-116250000D03*
%TD*%
D16*
%TO.P,C29,1*%
%TO.N,GND*%
X137000000Y-58650000D03*
%TO.P,C29,2*%
%TO.N,Net-(C29-Pad2)*%
X137000000Y-60550000D03*
%TD*%
D17*
%TO.P,D12,1,K*%
%TO.N,GND*%
X162687500Y-55500000D03*
%TO.P,D12,2,A*%
%TO.N,Net-(D12-A)*%
X160812500Y-55500000D03*
%TD*%
D18*
%TO.P,R26,1*%
%TO.N,GND*%
X99075000Y-100100000D03*
%TO.P,R26,2*%
%TO.N,Net-(U7-EN)*%
X100725000Y-100100000D03*
%TD*%
D19*
%TO.P,SW1,1,A*%
%TO.N,GND*%
X162150000Y-68800000D03*
%TO.P,SW1,2,B*%
%TO.N,unconnected-(SW1-B-Pad2)*%
X162150000Y-62200000D03*
%TO.P,SW1,3,C*%
%TO.N,USB_EN*%
X165850000Y-68800000D03*
%TO.P,SW1,4,D*%
%TO.N,unconnected-(SW1-D-Pad4)*%
X165850000Y-62200000D03*
%TD*%
D13*
%TO.P,R18,1*%
%TO.N,Net-(U3-LED0{slash}PHYAD[0]{slash}PMEB)*%
X84980000Y-71000000D03*
%TO.P,R18,2*%
%TO.N,RJ45_LED_Activity*%
X83330000Y-71000000D03*
%TD*%
D20*
%TO.P,R38,1*%
%TO.N,GND*%
X134200000Y-58528987D03*
%TO.P,R38,2*%
%TO.N,Net-(U8-VSENSE)*%
X134200000Y-60178987D03*
%TD*%
D15*
%TO.P,H6,1,Pin_1*%
%TO.N,/General/ESP_IO5*%
X111920000Y-133300000D03*
%TO.P,H6,2,Pin_2*%
%TO.N,/General/ESP_IO39*%
X111920000Y-128250000D03*
%TO.P,H6,3,Pin_3*%
%TO.N,Net-(H6-Pin_3)*%
X114460000Y-133300000D03*
%TO.P,H6,4,Pin_4*%
%TO.N,+12V*%
X114460000Y-128250000D03*
%TO.P,H6,5,Pin_5*%
%TO.N,Net-(H6-Pin_3)*%
X117000000Y-133300000D03*
%TO.P,H6,6,Pin_6*%
%TO.N,+12V*%
X117000000Y-128250000D03*
%TO.P,H6,7,Pin_7*%
%TO.N,Net-(H6-Pin_3)*%
X119540000Y-133300000D03*
%TO.P,H6,8,Pin_8*%
%TO.N,+12V*%
X119540000Y-128250000D03*
%TD*%
D21*
%TO.P,U14,1,G*%
%TO.N,Net-(U14-G)*%
X114662500Y-119750000D03*
%TO.P,U14,2,S*%
%TO.N,GND*%
X114662500Y-121650000D03*
%TO.P,U14,3,D*%
%TO.N,Net-(H6-Pin_3)*%
X116537500Y-120700000D03*
%TD*%
D18*
%TO.P,R34,1*%
%TO.N,+12V_POE*%
X154575000Y-55500000D03*
%TO.P,R34,2*%
%TO.N,Net-(R34-Pad2)*%
X156225000Y-55500000D03*
%TD*%
D22*
%TO.P,D1,1,K*%
%TO.N,Net-(D1-K)*%
X159500000Y-83000000D03*
%TO.P,D1,2,A*%
%TO.N,USB_EN*%
X163500000Y-83000000D03*
%TD*%
D23*
%TO.P,C1,1*%
%TO.N,+3.3V*%
X118817168Y-90763855D03*
%TO.P,C1,2*%
%TO.N,GND*%
X116917168Y-90763855D03*
%TD*%
D24*
%TO.P,C44,1*%
%TO.N,GND*%
X124225000Y-131500000D03*
%TO.P,C44,2*%
%TO.N,Net-(U12-C1)*%
X125775000Y-131500000D03*
%TD*%
D13*
%TO.P,R31,1*%
%TO.N,Net-(C29-Pad2)*%
X135225000Y-61600000D03*
%TO.P,R31,2*%
%TO.N,Net-(U8-COMP)*%
X133575000Y-61600000D03*
%TD*%
D25*
%TO.P,C10,1*%
%TO.N,+3.3V*%
X109600000Y-89000000D03*
%TO.P,C10,2*%
%TO.N,GND*%
X111500000Y-89000000D03*
%TD*%
D14*
%TO.P,C6,1*%
%TO.N,Net-(C6-Pad1)*%
X76560000Y-61275000D03*
%TO.P,C6,2*%
%TO.N,/POE/RXCT*%
X76560000Y-59725000D03*
%TD*%
D26*
%TO.P,U2,1,VA1*%
%TO.N,/POE/TXCT*%
X74020000Y-58000000D03*
%TO.P,U2,2,VA2*%
%TO.N,/POE/RXCT*%
X76560000Y-58000000D03*
%TO.P,U2,3,VB1*%
%TO.N,Net-(U2-VB1)*%
X79100000Y-58000000D03*
%TO.P,U2,4,VB2*%
%TO.N,Net-(U2-VB2)*%
X81640000Y-58000000D03*
%TO.P,U2,5,GND*%
%TO.N,GND*%
X104440000Y-58000000D03*
%TO.P,U2,6,+12V*%
%TO.N,+12V_POE*%
X106980000Y-58000000D03*
%TD*%
D20*
%TO.P,R7,1*%
%TO.N,Net-(C7-Pad1)*%
X79100000Y-62675000D03*
%TO.P,R7,2*%
%TO.N,Net-(C4-Pad2)*%
X79100000Y-64325000D03*
%TD*%
D27*
%TO.P,U3,1,RSET*%
%TO.N,Net-(U3-RSET)*%
X107562500Y-78250000D03*
D28*
%TO.P,U3,2,AVDD10OUT*%
%TO.N,Net-(U3-AVDD10OUT)*%
X107562500Y-78750000D03*
%TO.P,U3,3,MDI+[0]*%
%TO.N,/POE/TD+*%
X107562500Y-79250000D03*
%TO.P,U3,4,MDI-[0]*%
%TO.N,/POE/TD-*%
X107562500Y-79750000D03*
%TO.P,U3,5,MDI+[1]*%
%TO.N,/POE/RD+*%
X107562500Y-80250000D03*
%TO.P,U3,6,MDI-[1]*%
%TO.N,/POE/RD-*%
X107562500Y-80750000D03*
%TO.P,U3,7,AVDD33*%
%TO.N,Net-(D6-K)*%
X107562500Y-81250000D03*
D29*
%TO.P,U3,8,RXDV*%
%TO.N,Net-(U3-RXDV)*%
X107562500Y-81750000D03*
D30*
%TO.P,U3,9,RXD[0]*%
%TO.N,/General/EMAC_RXD+*%
X108250000Y-82437500D03*
D31*
%TO.P,U3,10,RXD[1]*%
%TO.N,/General/EMAC_RXD-*%
X108750000Y-82437500D03*
%TO.P,U3,11,RXD[2]/INTB*%
%TO.N,unconnected-(U3-RXD[2]{slash}INTB-Pad11)*%
X109250000Y-82437500D03*
%TO.P,U3,12,RXD[3]/CLK_CTL*%
%TO.N,unconnected-(U3-RXD[3]{slash}CLK_CTL-Pad12)*%
X109750000Y-82437500D03*
%TO.P,U3,13,RXC*%
%TO.N,unconnected-(U3-RXC-Pad13)*%
X110250000Y-82437500D03*
%TO.P,U3,14,DVDD33*%
%TO.N,+3.3V*%
X110750000Y-82437500D03*
%TO.P,U3,15,TXC*%
%TO.N,unconnected-(U3-TXC-Pad15)*%
X111250000Y-82437500D03*
D32*
%TO.P,U3,16,TXD[0]*%
%TO.N,/General/EMAC_TXD+*%
X111750000Y-82437500D03*
D33*
%TO.P,U3,17,TXD[1]*%
%TO.N,/General/EMAC_TXD-*%
X112437500Y-81750000D03*
D28*
%TO.P,U3,18,TXD[2]*%
%TO.N,unconnected-(U3-TXD[2]-Pad18)*%
X112437500Y-81250000D03*
%TO.P,U3,19,TXD[3]*%
%TO.N,unconnected-(U3-TXD[3]-Pad19)*%
X112437500Y-80750000D03*
%TO.P,U3,20,TXEN*%
%TO.N,/General/EMAC_TX_EN*%
X112437500Y-80250000D03*
%TO.P,U3,21,PHYRSTB*%
%TO.N,USB_EN*%
X112437500Y-79750000D03*
%TO.P,U3,22,MDC*%
%TO.N,/General/EMAC_MDC*%
X112437500Y-79250000D03*
%TO.P,U3,23,MDIO*%
%TO.N,/General/EMAC_MDIO*%
X112437500Y-78750000D03*
D34*
%TO.P,U3,24,LED0/PHYAD[0]/PMEB*%
%TO.N,Net-(U3-LED0{slash}PHYAD[0]{slash}PMEB)*%
X112437500Y-78250000D03*
D35*
%TO.P,U3,25,LED1/PHYAD[1]*%
%TO.N,Net-(U3-LED1{slash}PHYAD[1])*%
X111750000Y-77562500D03*
D31*
%TO.P,U3,26,CRS/CRS_DV*%
%TO.N,/General/EMAC_CRS_DV*%
X111250000Y-77562500D03*
%TO.P,U3,27,COL*%
%TO.N,unconnected-(U3-COL-Pad27)*%
X110750000Y-77562500D03*
%TO.P,U3,28,RXER/FXEN*%
%TO.N,unconnected-(U3-RXER{slash}FXEN-Pad28)*%
X110250000Y-77562500D03*
%TO.P,U3,29,DVDD10OUT*%
%TO.N,Net-(U3-DVDD10OUT)*%
X109750000Y-77562500D03*
%TO.P,U3,30,AVDD33*%
%TO.N,Net-(D6-K)*%
X109250000Y-77562500D03*
%TO.P,U3,31,CKXTAL1*%
%TO.N,GND*%
X108750000Y-77562500D03*
D36*
%TO.P,U3,32,CKXTAL2*%
%TO.N,/General/REF_CLK*%
X108250000Y-77562500D03*
D37*
%TO.P,U3,33,EP*%
%TO.N,GND*%
X108600000Y-78600000D03*
X108600000Y-80000000D03*
X108600000Y-81400000D03*
X110000000Y-78600000D03*
X110000000Y-80000000D03*
D38*
X110000000Y-80000000D03*
D37*
X110000000Y-81400000D03*
X111400000Y-78600000D03*
X111400000Y-80000000D03*
X111400000Y-81400000D03*
%TD*%
D18*
%TO.P,R43,1*%
%TO.N,Net-(U14-G)*%
X115575000Y-118200000D03*
%TO.P,R43,2*%
%TO.N,/General/ESP_IO5*%
X117225000Y-118200000D03*
%TD*%
D39*
%TO.P,R11,1*%
%TO.N,Net-(C14-Pad2)*%
X103990000Y-79000000D03*
%TO.P,R11,2*%
%TO.N,/POE/TD-*%
X105010000Y-79000000D03*
%TD*%
D16*
%TO.P,C31,1*%
%TO.N,GND*%
X131600000Y-58641953D03*
%TO.P,C31,2*%
%TO.N,Net-(U8-COMP)*%
X131600000Y-60541953D03*
%TD*%
D18*
%TO.P,R17,1*%
%TO.N,Net-(U3-LED0{slash}PHYAD[0]{slash}PMEB)*%
X112475000Y-76100000D03*
%TO.P,R17,2*%
%TO.N,GND*%
X114125000Y-76100000D03*
%TD*%
D40*
%TO.P,C34,1*%
%TO.N,Net-(D10-K)*%
X108275000Y-93500000D03*
%TO.P,C34,2*%
%TO.N,Net-(U7-BOOT)*%
X106725000Y-93500000D03*
%TD*%
D24*
%TO.P,C20,1*%
%TO.N,+12V_USB*%
X84725000Y-99800000D03*
%TO.P,C20,2*%
%TO.N,Net-(U5-VCP)*%
X86275000Y-99800000D03*
%TD*%
D20*
%TO.P,R36,1*%
%TO.N,GND*%
X118100000Y-96975000D03*
%TO.P,R36,2*%
%TO.N,Net-(U7-VSENSE)*%
X118100000Y-98625000D03*
%TD*%
D41*
%TO.P,U4,1,VDD*%
%TO.N,Net-(U4-VDD)*%
X83000000Y-92000000D03*
%TO.P,U4,2,CFG2*%
%TO.N,unconnected-(U4-CFG2-Pad2)*%
X82000000Y-92000000D03*
%TO.P,U4,3,CFG3*%
%TO.N,unconnected-(U4-CFG3-Pad3)*%
X81000000Y-92000000D03*
%TO.P,U4,4,DP*%
%TO.N,Net-(U4-DP)*%
X80000000Y-92000000D03*
%TO.P,U4,5,DM*%
%TO.N,Net-(U4-DM)*%
X79000000Y-92000000D03*
%TO.P,U4,6,CC2*%
%TO.N,Net-(U4-CC2)*%
X79000000Y-98000000D03*
%TO.P,U4,7,CC1*%
%TO.N,Net-(U4-CC1)*%
X80000000Y-98000000D03*
%TO.P,U4,8,VBUS*%
%TO.N,Net-(U4-VBUS)*%
X81000000Y-98000000D03*
%TO.P,U4,9,CFG1*%
%TO.N,Net-(U4-CFG1)*%
X82000000Y-98000000D03*
%TO.P,U4,10,PG*%
%TO.N,USB_EN*%
X83000000Y-98000000D03*
D42*
%TO.P,U4,11,GND*%
%TO.N,GND*%
X81000000Y-95000000D03*
%TD*%
D43*
%TO.P,L2,1,1*%
%TO.N,Net-(D6-K)*%
X107500000Y-89212500D03*
%TO.P,L2,2,2*%
%TO.N,+3.3V*%
X107500000Y-90787500D03*
%TD*%
D44*
%TO.P,C22,1*%
%TO.N,GND*%
X117796348Y-56116953D03*
%TO.P,C22,2*%
%TO.N,+12V?*%
X117796348Y-59066953D03*
%TD*%
D24*
%TO.P,C25,1*%
%TO.N,+12V_USB*%
X87425000Y-94200000D03*
%TO.P,C25,2*%
%TO.N,GND*%
X88975000Y-94200000D03*
%TD*%
D45*
%TO.P,U11,1,SCL/SPC*%
%TO.N,/General/I2C_SCL*%
X123987500Y-122512500D03*
%TO.P,U11,2,~{CS}*%
%TO.N,+3.3V*%
X124487500Y-122512500D03*
%TO.P,U11,3,SA0/SDO*%
%TO.N,unconnected-(U11-SA0{slash}SDO-Pad3)*%
X124987500Y-122512500D03*
%TO.P,U11,4,SDA/SDI*%
%TO.N,/General/I2C_SDA*%
X125487500Y-122512500D03*
D46*
%TO.P,U11,5,RES*%
%TO.N,GND*%
X125500000Y-122000000D03*
%TO.P,U11,6,GND*%
X125500000Y-121500000D03*
D45*
%TO.P,U11,7,GND*%
X125487500Y-120987500D03*
%TO.P,U11,8,GND*%
X124987500Y-120987500D03*
%TO.P,U11,9,Vdd*%
%TO.N,+3.3V*%
X124487500Y-120987500D03*
%TO.P,U11,10,Vdd_IO*%
X123987500Y-120987500D03*
D46*
%TO.P,U11,11,INT2*%
%TO.N,unconnected-(U11-INT2-Pad11)*%
X123975000Y-121500000D03*
%TO.P,U11,12,INT1*%
%TO.N,unconnected-(U11-INT1-Pad12)*%
X123975000Y-122000000D03*
%TD*%
D17*
%TO.P,D7,1,K*%
%TO.N,Net-(D7-K)*%
X162687500Y-53500000D03*
%TO.P,D7,2,A*%
%TO.N,Net-(D7-A)*%
X160812500Y-53500000D03*
%TD*%
D16*
%TO.P,C30,1*%
%TO.N,GND*%
X111279121Y-96108243D03*
%TO.P,C30,2*%
%TO.N,Net-(U7-COMP)*%
X111279121Y-98008243D03*
%TD*%
D14*
%TO.P,C5,1*%
%TO.N,Net-(C5-Pad1)*%
X74020000Y-61275000D03*
%TO.P,C5,2*%
%TO.N,/POE/TXCT*%
X74020000Y-59725000D03*
%TD*%
D47*
%TO.P,D2,1,K*%
%TO.N,Net-(D1-K)*%
X156000000Y-83000000D03*
%TO.P,D2,2,A*%
%TO.N,/General/REF_CLK*%
X152000000Y-83000000D03*
%TD*%
D48*
%TO.P,C38,1*%
%TO.N,+3.3V*%
X127500000Y-95950000D03*
%TO.P,C38,2*%
%TO.N,GND*%
X127500000Y-94050000D03*
%TD*%
D49*
%TO.P,L1,1,TD+*%
%TO.N,/POE/TD+*%
X98390000Y-84450000D03*
%TO.P,L1,2,TCT*%
%TO.N,/POE/RCT*%
X98390000Y-83180000D03*
%TO.P,L1,3,TD-*%
%TO.N,/POE/TD-*%
X98390000Y-81910000D03*
%TO.P,L1,4,NC*%
%TO.N,unconnected-(L1-NC-Pad4)*%
X98390000Y-80630000D03*
%TO.P,L1,5,NC*%
%TO.N,unconnected-(L1-NC-Pad5)*%
X98390000Y-79370000D03*
%TO.P,L1,6,RD+*%
%TO.N,/POE/RD+*%
X98390000Y-78100000D03*
%TO.P,L1,7,RCT*%
%TO.N,/POE/RCT*%
X98390000Y-76830000D03*
%TO.P,L1,8,RD-*%
%TO.N,/POE/RD-*%
X98390000Y-75560000D03*
%TO.P,L1,9,RX-*%
%TO.N,/POE/RX-*%
X89610000Y-75560000D03*
%TO.P,L1,10,RXCT*%
%TO.N,/POE/RXCT*%
X89610000Y-76830000D03*
%TO.P,L1,11,RX+*%
%TO.N,/POE/RX+*%
X89610000Y-78100000D03*
%TO.P,L1,12,NC*%
%TO.N,unconnected-(L1-NC-Pad12)*%
X89610000Y-79370000D03*
%TO.P,L1,13,NC*%
%TO.N,unconnected-(L1-NC-Pad13)*%
X89610000Y-80630000D03*
%TO.P,L1,14,TX-*%
%TO.N,/POE/TX-*%
X89610000Y-81910000D03*
%TO.P,L1,15,TXCT*%
%TO.N,/POE/TXCT*%
X89610000Y-83180000D03*
%TO.P,L1,16,TX+*%
%TO.N,/POE/TX+*%
X89610000Y-84450000D03*
%TD*%
D50*
%TO.P,R9,1*%
%TO.N,Net-(C14-Pad2)*%
X100600000Y-74690000D03*
%TO.P,R9,2*%
%TO.N,/POE/RD-*%
X100600000Y-75710000D03*
%TD*%
D51*
%TO.P,U15,1,SDA*%
%TO.N,/General/I2C_SDA*%
X123580000Y-127500000D03*
%TO.P,U15,2,No_used*%
%TO.N,unconnected-(U15-No_used-Pad2)*%
X123580000Y-128000000D03*
%TO.P,U15,3,SCL*%
%TO.N,/General/I2C_SCL*%
X123580000Y-128500000D03*
%TO.P,U15,4,VDD*%
%TO.N,+3.3V*%
X125420000Y-128500000D03*
%TO.P,U15,5,No_used*%
%TO.N,unconnected-(U15-No_used-Pad5)*%
X125420000Y-128000000D03*
%TO.P,U15,6,GND*%
%TO.N,GND*%
X125420000Y-127500000D03*
D52*
%TO.P,U15,7,EP*%
X124500000Y-128000000D03*
%TD*%
D53*
%TO.P,BUZZER1,1,+*%
%TO.N,/General/ESP_IO2*%
X137900000Y-127600000D03*
%TO.P,BUZZER1,2,2*%
%TO.N,GND*%
X130700000Y-127600000D03*
%TO.P,BUZZER1,3,3*%
%TO.N,unconnected-(BUZZER1-Pad3)*%
X130700000Y-134800000D03*
%TO.P,BUZZER1,4,4*%
%TO.N,unconnected-(BUZZER1-Pad4)*%
X137900000Y-134800000D03*
%TD*%
D16*
%TO.P,C28,1*%
%TO.N,GND*%
X116300000Y-96050000D03*
%TO.P,C28,2*%
%TO.N,Net-(C28-Pad2)*%
X116300000Y-97950000D03*
%TD*%
D54*
%TO.P,U8,1,BOOT*%
%TO.N,Net-(U8-BOOT)*%
X124346348Y-57821953D03*
%TO.P,U8,2,VIN*%
%TO.N,+12V?*%
X124346348Y-59091953D03*
%TO.P,U8,3,EN*%
%TO.N,Net-(U8-EN)*%
X124346348Y-60361953D03*
%TO.P,U8,4,SS*%
%TO.N,Net-(U8-SS)*%
X124346348Y-61631953D03*
%TO.P,U8,5,VSENSE*%
%TO.N,Net-(U8-VSENSE)*%
X129296348Y-61631953D03*
%TO.P,U8,6,COMP*%
%TO.N,Net-(U8-COMP)*%
X129296348Y-60361953D03*
%TO.P,U8,7,GND*%
%TO.N,GND*%
X129296348Y-59091953D03*
%TO.P,U8,8,PH*%
%TO.N,Net-(D11-K)*%
X129296348Y-57821953D03*
%TD*%
D20*
%TO.P,R5,1*%
%TO.N,Net-(C5-Pad1)*%
X74020000Y-62675000D03*
%TO.P,R5,2*%
%TO.N,Net-(C4-Pad2)*%
X74020000Y-64325000D03*
%TD*%
D18*
%TO.P,R24,1*%
%TO.N,+12V_USB*%
X154575000Y-53500000D03*
%TO.P,R24,2*%
%TO.N,Net-(R24-Pad2)*%
X156225000Y-53500000D03*
%TD*%
D55*
%TO.P,U12,1,SCL/SPC*%
%TO.N,/General/I2C_SCL*%
X125880000Y-134870000D03*
%TO.P,U12,2,NC*%
%TO.N,unconnected-(U12-NC-Pad2)*%
X125880000Y-134370000D03*
%TO.P,U12,3,CS*%
%TO.N,+3.3V*%
X125880000Y-133870000D03*
%TO.P,U12,4,SDA/SDI/SDO*%
%TO.N,/General/I2C_SDA*%
X125880000Y-133370000D03*
D56*
%TO.P,U12,5,C1*%
%TO.N,Net-(U12-C1)*%
X125250000Y-133240000D03*
%TO.P,U12,6,GND*%
%TO.N,GND*%
X124750000Y-133240000D03*
D55*
%TO.P,U12,7,INT/DRDY/SDO*%
%TO.N,unconnected-(U12-INT{slash}DRDY{slash}SDO-Pad7)*%
X124120000Y-133370000D03*
%TO.P,U12,8,GND*%
%TO.N,GND*%
X124120000Y-133870000D03*
%TO.P,U12,9,Vdd*%
%TO.N,+3.3V*%
X124120000Y-134370000D03*
%TO.P,U12,10,Vdd_IO*%
X124120000Y-134870000D03*
D56*
%TO.P,U12,11,NC*%
%TO.N,unconnected-(U12-NC-Pad11)*%
X124750000Y-135000000D03*
%TO.P,U12,12,NC*%
%TO.N,unconnected-(U12-NC-Pad12)*%
X125250000Y-135000000D03*
%TD*%
D40*
%TO.P,C14,1*%
%TO.N,GND*%
X104450000Y-73300000D03*
%TO.P,C14,2*%
%TO.N,Net-(C14-Pad2)*%
X102900000Y-73300000D03*
%TD*%
D54*
%TO.P,U7,1,BOOT*%
%TO.N,Net-(U7-BOOT)*%
X104025000Y-95095000D03*
%TO.P,U7,2,VIN*%
%TO.N,+12V?*%
X104025000Y-96365000D03*
%TO.P,U7,3,EN*%
%TO.N,Net-(U7-EN)*%
X104025000Y-97635000D03*
%TO.P,U7,4,SS*%
%TO.N,Net-(U7-SS)*%
X104025000Y-98905000D03*
%TO.P,U7,5,VSENSE*%
%TO.N,Net-(U7-VSENSE)*%
X108975000Y-98905000D03*
%TO.P,U7,6,COMP*%
%TO.N,Net-(U7-COMP)*%
X108975000Y-97635000D03*
%TO.P,U7,7,GND*%
%TO.N,GND*%
X108975000Y-96365000D03*
%TO.P,U7,8,PH*%
%TO.N,Net-(D10-K)*%
X108975000Y-95095000D03*
%TD*%
D57*
%TO.P,L4,1,1*%
%TO.N,Net-(D11-K)*%
X140950000Y-65300000D03*
%TO.P,L4,2,2*%
%TO.N,+5V*%
X144650000Y-65300000D03*
%TD*%
D58*
%TO.P,C17,1*%
%TO.N,GND*%
X110700000Y-74625000D03*
%TO.P,C17,2*%
%TO.N,Net-(U3-DVDD10OUT)*%
X110700000Y-76175000D03*
%TD*%
D59*
%TO.P,U9,1,VCP*%
%TO.N,Net-(U9-VCP)*%
X109862500Y-57000000D03*
%TO.P,U9,2,GND*%
%TO.N,GND*%
X109862500Y-57950000D03*
%TO.P,U9,3,EN*%
%TO.N,+12V_POE*%
X109862500Y-58900000D03*
%TO.P,U9,4,CATHODE*%
%TO.N,+12V?*%
X112137500Y-58900000D03*
%TO.P,U9,5,GATE*%
%TO.N,Net-(U10-G)*%
X112137500Y-57950000D03*
%TO.P,U9,6,ANODE*%
%TO.N,+12V_POE*%
X112137500Y-57000000D03*
%TD*%
D13*
%TO.P,R16,1*%
%TO.N,GND*%
X113825000Y-74500000D03*
%TO.P,R16,2*%
%TO.N,Net-(U3-LED1{slash}PHYAD[1])*%
X112175000Y-74500000D03*
%TD*%
D15*
%TO.P,H3,1,Pin_1*%
%TO.N,+5V*%
X100670000Y-133300000D03*
%TO.P,H3,2,Pin_2*%
X100670000Y-128250000D03*
%TO.P,H3,3,Pin_3*%
X103210000Y-133300000D03*
%TO.P,H3,4,Pin_4*%
X103210000Y-128250000D03*
%TO.P,H3,5,Pin_5*%
X105750000Y-133300000D03*
%TO.P,H3,6,Pin_6*%
X105750000Y-128250000D03*
%TO.P,H3,7,Pin_7*%
X108290000Y-133300000D03*
%TO.P,H3,8,Pin_8*%
X108290000Y-128250000D03*
%TD*%
D25*
%TO.P,C9,1*%
%TO.N,+3.3V*%
X109600000Y-87000000D03*
%TO.P,C9,2*%
%TO.N,GND*%
X111500000Y-87000000D03*
%TD*%
D60*
%TO.P,R33,1*%
%TO.N,Net-(D9-A)*%
X135200000Y-99670000D03*
%TO.P,R33,2*%
%TO.N,+12V?*%
X135200000Y-98020000D03*
%TD*%
D18*
%TO.P,R41,1*%
%TO.N,+3.3V*%
X126850000Y-120000000D03*
%TO.P,R41,2*%
%TO.N,/General/I2C_SCL*%
X128500000Y-120000000D03*
%TD*%
D60*
%TO.P,R1,1*%
%TO.N,USB_EN*%
X109100000Y-69825000D03*
%TO.P,R1,2*%
%TO.N,+3.3V*%
X109100000Y-68175000D03*
%TD*%
D14*
%TO.P,C13,1*%
%TO.N,GND*%
X105380000Y-83095000D03*
%TO.P,C13,2*%
%TO.N,Net-(D6-K)*%
X105380000Y-81545000D03*
%TD*%
D61*
%TO.P,U1,1,GND*%
%TO.N,GND*%
X117590000Y-88750000D03*
%TO.P,U1,2,VDD*%
%TO.N,+3.3V*%
X118860000Y-88750000D03*
%TO.P,U1,3,EN*%
%TO.N,USB_EN*%
X120130000Y-88750000D03*
%TO.P,U1,4,SENSOR_VP*%
%TO.N,/General/ESP_IO36*%
X121400000Y-88750000D03*
%TO.P,U1,5,SENSOR_VN*%
%TO.N,/General/ESP_IO39*%
X122670000Y-88750000D03*
%TO.P,U1,6,IO34*%
%TO.N,/General/USB_GOOD*%
X123940000Y-88750000D03*
%TO.P,U1,7,IO35*%
%TO.N,/General/ESP_IO35*%
X125210000Y-88750000D03*
%TO.P,U1,8,IO32*%
%TO.N,/General/I2C_SDA*%
X126480000Y-88750000D03*
%TO.P,U1,9,IO33*%
%TO.N,/General/I2C_SCL*%
X127750000Y-88750000D03*
%TO.P,U1,10,IO25*%
%TO.N,/General/EMAC_RXD+*%
X129020000Y-88750000D03*
%TO.P,U1,11,IO26*%
%TO.N,/General/EMAC_RXD-*%
X130290000Y-88750000D03*
%TO.P,U1,12,IO27*%
%TO.N,/General/EMAC_CRS_DV*%
X131560000Y-88750000D03*
%TO.P,U1,13,IO14*%
%TO.N,/General/SPI_SCK*%
X132830000Y-88750000D03*
%TO.P,U1,14,IO12*%
%TO.N,/General/SPI_MISO*%
X134100000Y-88750000D03*
D62*
%TO.P,U1,15,GND*%
%TO.N,GND*%
X135350000Y-85715000D03*
%TO.P,U1,16,IO13*%
%TO.N,/General/SPI_MOSI*%
X135350000Y-84445000D03*
%TO.P,U1,17,NC*%
%TO.N,unconnected-(U1-NC-Pad17)*%
X135350000Y-83175000D03*
%TO.P,U1,18,NC*%
%TO.N,unconnected-(U1-NC-Pad18)*%
X135350000Y-81905000D03*
%TO.P,U1,19,NC*%
%TO.N,unconnected-(U1-NC-Pad19)*%
X135350000Y-80635000D03*
%TO.P,U1,20,NC*%
%TO.N,unconnected-(U1-NC-Pad20)*%
X135350000Y-79365000D03*
%TO.P,U1,21,NC*%
%TO.N,unconnected-(U1-NC-Pad21)*%
X135350000Y-78095000D03*
%TO.P,U1,22,NC*%
%TO.N,unconnected-(U1-NC-Pad22)*%
X135350000Y-76825000D03*
%TO.P,U1,23,IO15*%
%TO.N,/General/SPI_CS*%
X135350000Y-75555000D03*
%TO.P,U1,24,IO2*%
%TO.N,/General/ESP_IO2*%
X135350000Y-74285000D03*
D61*
%TO.P,U1,25,IO0*%
%TO.N,/General/REF_CLK*%
X134100000Y-71250000D03*
%TO.P,U1,26,IO4*%
%TO.N,/General/ESP_IO4*%
X132830000Y-71250000D03*
%TO.P,U1,27,IO16*%
%TO.N,/General/ESP_IO16*%
X131560000Y-71250000D03*
%TO.P,U1,28,IO17*%
%TO.N,/General/ESP_IO17*%
X130290000Y-71250000D03*
%TO.P,U1,29,IO5*%
%TO.N,/General/ESP_IO5*%
X129020000Y-71250000D03*
%TO.P,U1,30,IO18*%
%TO.N,/General/EMAC_MDIO*%
X127750000Y-71250000D03*
%TO.P,U1,31,IO19*%
%TO.N,/General/EMAC_TXD+*%
X126480000Y-71250000D03*
%TO.P,U1,32,NC*%
%TO.N,unconnected-(U1-NC-Pad32)*%
X125210000Y-71250000D03*
%TO.P,U1,33,IO21*%
%TO.N,/General/EMAC_TX_EN*%
X123940000Y-71250000D03*
%TO.P,U1,34,RXD0/IO3*%
%TO.N,/General/ESP_RXD*%
X122670000Y-71250000D03*
%TO.P,U1,35,TXD0/IO1*%
%TO.N,/General/ESP_TXD*%
X121400000Y-71250000D03*
%TO.P,U1,36,IO22*%
%TO.N,/General/EMAC_TXD-*%
X120130000Y-71250000D03*
%TO.P,U1,37,IO23*%
%TO.N,/General/EMAC_MDC*%
X118860000Y-71250000D03*
%TO.P,U1,38,GND*%
%TO.N,GND*%
X117590000Y-71250000D03*
D63*
%TO.P,U1,39,GND*%
X123530000Y-82900000D03*
D37*
X124230000Y-82900000D03*
D63*
X124930000Y-82900000D03*
D37*
X125630000Y-82900000D03*
D63*
X126330000Y-82900000D03*
D37*
X123530000Y-82200000D03*
X124930000Y-82200000D03*
X126330000Y-82200000D03*
D63*
X123530000Y-81500000D03*
D37*
X124230000Y-81500000D03*
D63*
X124930000Y-81500000D03*
D64*
X124930000Y-81500000D03*
D37*
X125630000Y-81500000D03*
D63*
X126330000Y-81500000D03*
D37*
X123530000Y-80800000D03*
X124930000Y-80800000D03*
X126330000Y-80800000D03*
D63*
X123530000Y-80100000D03*
D37*
X124230000Y-80100000D03*
D63*
X124930000Y-80100000D03*
D37*
X125630000Y-80100000D03*
D63*
X126330000Y-80100000D03*
%TD*%
D65*
%TO.P,D9,1,K*%
%TO.N,USB_EN*%
X137400000Y-96800000D03*
%TO.P,D9,2,A*%
%TO.N,Net-(D9-A)*%
X137400000Y-99600000D03*
%TD*%
D47*
%TO.P,D10,1,K*%
%TO.N,Net-(D10-K)*%
X116050000Y-93500000D03*
%TO.P,D10,2,A*%
%TO.N,GND*%
X112050000Y-93500000D03*
%TD*%
D48*
%TO.P,C36,1*%
%TO.N,+3.3V*%
X125500000Y-95950000D03*
%TO.P,C36,2*%
%TO.N,GND*%
X125500000Y-94050000D03*
%TD*%
D24*
%TO.P,C39,1*%
%TO.N,+12V_POE*%
X111225000Y-55450000D03*
%TO.P,C39,2*%
%TO.N,GND*%
X112775000Y-55450000D03*
%TD*%
D19*
%TO.P,SW2,1,A*%
%TO.N,Net-(D1-K)*%
X154150000Y-68800000D03*
%TO.P,SW2,2,B*%
%TO.N,unconnected-(SW2-B-Pad2)*%
X154150000Y-62200000D03*
%TO.P,SW2,3,C*%
%TO.N,GND*%
X157850000Y-68800000D03*
%TO.P,SW2,4,D*%
%TO.N,unconnected-(SW2-D-Pad4)*%
X157850000Y-62200000D03*
%TD*%
D58*
%TO.P,C2,1*%
%TO.N,USB_EN*%
X121000000Y-90571296D03*
%TO.P,C2,2*%
%TO.N,+3.3V*%
X121000000Y-92121296D03*
%TD*%
D24*
%TO.P,C27,1*%
%TO.N,GND*%
X122521348Y-63591953D03*
%TO.P,C27,2*%
%TO.N,Net-(U8-SS)*%
X124071348Y-63591953D03*
%TD*%
%TO.P,C42,1*%
%TO.N,GND*%
X124725000Y-125700000D03*
%TO.P,C42,2*%
%TO.N,+3.3V*%
X126275000Y-125700000D03*
%TD*%
D14*
%TO.P,C3,1*%
%TO.N,+3.3V*%
X107500000Y-70775000D03*
%TO.P,C3,2*%
%TO.N,GND*%
X107500000Y-69225000D03*
%TD*%
D20*
%TO.P,R6,1*%
%TO.N,Net-(C6-Pad1)*%
X76560000Y-62675000D03*
%TO.P,R6,2*%
%TO.N,Net-(C4-Pad2)*%
X76560000Y-64325000D03*
%TD*%
D18*
%TO.P,R35,1*%
%TO.N,Net-(U7-VSENSE)*%
X117975000Y-100400000D03*
%TO.P,R35,2*%
%TO.N,+3.3V*%
X119625000Y-100400000D03*
%TD*%
D50*
%TO.P,R10,1*%
%TO.N,Net-(C14-Pad2)*%
X101600000Y-74690000D03*
%TO.P,R10,2*%
%TO.N,/POE/RD+*%
X101600000Y-75710000D03*
%TD*%
D17*
%TO.P,D3,1,K*%
%TO.N,GND*%
X162687500Y-57500000D03*
%TO.P,D3,2,A*%
%TO.N,Net-(D3-A)*%
X160812500Y-57500000D03*
%TD*%
D44*
%TO.P,C23,1*%
%TO.N,GND*%
X101000000Y-94025000D03*
%TO.P,C23,2*%
%TO.N,+12V?*%
X101000000Y-96975000D03*
%TD*%
D21*
%TO.P,U6,1,G*%
%TO.N,Net-(U5-GATE)*%
X90000000Y-97600000D03*
%TO.P,U6,2,S*%
%TO.N,+12V_USB*%
X90000000Y-99500000D03*
%TO.P,U6,3,D*%
%TO.N,+12V?*%
X91875000Y-98550000D03*
%TD*%
D48*
%TO.P,C40,1*%
%TO.N,+12V?*%
X114500000Y-58400000D03*
%TO.P,C40,2*%
%TO.N,GND*%
X114500000Y-56500000D03*
%TD*%
D66*
%TO.P,D8,1,K*%
%TO.N,USB_EN*%
X164600000Y-59300000D03*
%TO.P,D8,2,A*%
%TO.N,Net-(D7-K)*%
X164600000Y-56500000D03*
%TD*%
D18*
%TO.P,R39,1*%
%TO.N,Net-(R34-Pad2)*%
X157550000Y-55500000D03*
%TO.P,R39,2*%
%TO.N,Net-(D12-A)*%
X159200000Y-55500000D03*
%TD*%
D24*
%TO.P,C26,1*%
%TO.N,GND*%
X102475000Y-100500000D03*
%TO.P,C26,2*%
%TO.N,Net-(U7-SS)*%
X104025000Y-100500000D03*
%TD*%
D18*
%TO.P,R19,1*%
%TO.N,Net-(U4-VDD)*%
X87175000Y-91800000D03*
%TO.P,R19,2*%
%TO.N,+12V_USB*%
X88825000Y-91800000D03*
%TD*%
D44*
%TO.P,C24,1*%
%TO.N,GND*%
X121296348Y-56116953D03*
%TO.P,C24,2*%
%TO.N,+12V?*%
X121296348Y-59066953D03*
%TD*%
D25*
%TO.P,C12,1*%
%TO.N,GND*%
X107500000Y-72900000D03*
%TO.P,C12,2*%
%TO.N,Net-(D6-K)*%
X109400000Y-72900000D03*
%TD*%
D18*
%TO.P,R29,1*%
%TO.N,Net-(R24-Pad2)*%
X157575000Y-53500000D03*
%TO.P,R29,2*%
%TO.N,Net-(D7-A)*%
X159225000Y-53500000D03*
%TD*%
D20*
%TO.P,R2,1*%
%TO.N,+3.3V*%
X101600000Y-69175000D03*
%TO.P,R2,2*%
%TO.N,/General/REF_CLK*%
X101600000Y-70825000D03*
%TD*%
D11*
%TO.P,J1,1,1*%
%TO.N,/POE/TX+*%
X76705000Y-83570000D03*
%TO.P,J1,2,2*%
%TO.N,/POE/TX-*%
X78485000Y-82550000D03*
%TO.P,J1,3,3*%
%TO.N,/POE/RX+*%
X76705000Y-81530000D03*
%TO.P,J1,4,4*%
%TO.N,Net-(U2-VB1)*%
X78485000Y-80510000D03*
%TO.P,J1,5,5*%
X76705000Y-79490000D03*
%TO.P,J1,6,6*%
%TO.N,/POE/RX-*%
X78485000Y-78470000D03*
%TO.P,J1,7,7*%
%TO.N,Net-(U2-VB2)*%
X76705000Y-77450000D03*
%TO.P,J1,8,8*%
X78485000Y-76430000D03*
%TO.P,J1,9,L+*%
%TO.N,RJ45_LED_Activity*%
X83295000Y-73140000D03*
%TO.P,J1,10,L-*%
%TO.N,GND*%
X83295000Y-75430000D03*
%TO.P,J1,11,R+*%
%TO.N,RJ45_LED_Link*%
X83295000Y-84570000D03*
%TO.P,J1,12,R-*%
%TO.N,GND*%
X83295000Y-86860000D03*
D67*
%TO.P,J1,13,S*%
%TO.N,Net-(C4-Pad2)*%
X77725000Y-88130000D03*
%TO.P,J1,14,S*%
X77725000Y-71870000D03*
%TD*%
D13*
%TO.P,R15,1*%
%TO.N,Net-(U3-LED1{slash}PHYAD[1])*%
X86825000Y-87500000D03*
%TO.P,R15,2*%
%TO.N,RJ45_LED_Link*%
X85175000Y-87500000D03*
%TD*%
D47*
%TO.P,D11,1,K*%
%TO.N,Net-(D11-K)*%
X136296348Y-56091953D03*
%TO.P,D11,2,A*%
%TO.N,GND*%
X132296348Y-56091953D03*
%TD*%
D13*
%TO.P,R40,1*%
%TO.N,/General/I2C_SDA*%
X129575000Y-124000000D03*
%TO.P,R40,2*%
%TO.N,+3.3V*%
X127925000Y-124000000D03*
%TD*%
D15*
%TO.P,H1,1,Pin_1*%
%TO.N,GND*%
X142110000Y-59850000D03*
%TO.P,H1,2,Pin_2*%
%TO.N,+12V*%
X142110000Y-54800000D03*
%TO.P,H1,3,Pin_3*%
%TO.N,/General/ESP_TXD*%
X144650000Y-59850000D03*
%TO.P,H1,4,Pin_4*%
%TO.N,+5V*%
X144650000Y-54800000D03*
%TO.P,H1,5,Pin_5*%
%TO.N,/General/ESP_RXD*%
X147190000Y-59850000D03*
%TO.P,H1,6,Pin_6*%
%TO.N,/General/ESP_IO5*%
X147190000Y-54800000D03*
%TO.P,H1,7,Pin_7*%
%TO.N,+3.3V*%
X149730000Y-59850000D03*
%TO.P,H1,8,Pin_8*%
%TO.N,/General/ESP_IO39*%
X149730000Y-54800000D03*
%TD*%
D13*
%TO.P,R30,1*%
%TO.N,Net-(C28-Pad2)*%
X114625000Y-98200000D03*
%TO.P,R30,2*%
%TO.N,Net-(U7-COMP)*%
X112975000Y-98200000D03*
%TD*%
%TO.P,R3,1*%
%TO.N,Net-(D3-A)*%
X159200000Y-57500000D03*
%TO.P,R3,2*%
%TO.N,/General/ESP_IO4*%
X157550000Y-57500000D03*
%TD*%
D20*
%TO.P,R8,1*%
%TO.N,Net-(C8-Pad2)*%
X81640000Y-62675000D03*
%TO.P,R8,2*%
%TO.N,Net-(C4-Pad2)*%
X81640000Y-64325000D03*
%TD*%
D68*
%TO.P,D6,1,K*%
%TO.N,Net-(D6-K)*%
X105000000Y-88500000D03*
%TO.P,D6,2,A*%
%TO.N,GND*%
X101500000Y-88500000D03*
%TD*%
D69*
%TO.P,U10,1,G*%
%TO.N,Net-(U10-G)*%
X111450000Y-60950000D03*
%TO.P,U10,2,S*%
%TO.N,+12V_POE*%
X109550000Y-60950000D03*
%TO.P,U10,3,D*%
%TO.N,+12V?*%
X110500000Y-62825000D03*
%TD*%
D25*
%TO.P,C32,1*%
%TO.N,+12V?*%
X90550000Y-95500000D03*
%TO.P,C32,2*%
%TO.N,GND*%
X92450000Y-95500000D03*
%TD*%
D15*
%TO.P,H4,1,Pin_1*%
%TO.N,+3.3V*%
X100670000Y-121300000D03*
%TO.P,H4,2,Pin_2*%
X100670000Y-116250000D03*
%TO.P,H4,3,Pin_3*%
X103210000Y-121300000D03*
%TO.P,H4,4,Pin_4*%
X103210000Y-116250000D03*
%TO.P,H4,5,Pin_5*%
X105750000Y-121300000D03*
%TO.P,H4,6,Pin_6*%
X105750000Y-116250000D03*
%TO.P,H4,7,Pin_7*%
X108290000Y-121300000D03*
%TO.P,H4,8,Pin_8*%
X108290000Y-116250000D03*
%TD*%
D13*
%TO.P,R4,1*%
%TO.N,Net-(D4-A)*%
X159200000Y-59500000D03*
%TO.P,R4,2*%
%TO.N,/General/ESP_IO5*%
X157550000Y-59500000D03*
%TD*%
D14*
%TO.P,C43,1*%
%TO.N,+3.3V*%
X122500000Y-135275000D03*
%TO.P,C43,2*%
%TO.N,GND*%
X122500000Y-133725000D03*
%TD*%
D20*
%TO.P,R22,1*%
%TO.N,+12V*%
X130750000Y-92925000D03*
%TO.P,R22,2*%
%TO.N,/General/USB_GOOD*%
X130750000Y-94575000D03*
%TD*%
D16*
%TO.P,C37,1*%
%TO.N,GND*%
X148300000Y-66450000D03*
%TO.P,C37,2*%
%TO.N,+5V*%
X148300000Y-68350000D03*
%TD*%
D44*
%TO.P,C21,1*%
%TO.N,GND*%
X96500000Y-94025000D03*
%TO.P,C21,2*%
%TO.N,+12V?*%
X96500000Y-96975000D03*
%TD*%
D13*
%TO.P,R37,1*%
%TO.N,Net-(U8-VSENSE)*%
X148525000Y-64100000D03*
%TO.P,R37,2*%
%TO.N,+5V*%
X146875000Y-64100000D03*
%TD*%
D40*
%TO.P,C33,1*%
%TO.N,+12V_POE*%
X110975000Y-53900000D03*
%TO.P,C33,2*%
%TO.N,Net-(U9-VCP)*%
X109425000Y-53900000D03*
%TD*%
D60*
%TO.P,R28,1*%
%TO.N,GND*%
X121000000Y-63825000D03*
%TO.P,R28,2*%
%TO.N,Net-(U8-EN)*%
X121000000Y-62175000D03*
%TD*%
D70*
%TO.P,Q1,1,G*%
%TO.N,Net-(D9-A)*%
X133375000Y-100450000D03*
%TO.P,Q1,2,S*%
%TO.N,+12V?*%
X133375000Y-98550000D03*
%TO.P,Q1,3,D*%
%TO.N,+12V*%
X131500000Y-99500000D03*
%TD*%
D20*
%TO.P,R42,1*%
%TO.N,Net-(U14-G)*%
X112400000Y-119675000D03*
%TO.P,R42,2*%
%TO.N,GND*%
X112400000Y-121325000D03*
%TD*%
D60*
%TO.P,R12,1*%
%TO.N,+3.3V*%
X107000000Y-85525000D03*
%TO.P,R12,2*%
%TO.N,Net-(U3-RXDV)*%
X107000000Y-83875000D03*
%TD*%
D39*
%TO.P,R13,1*%
%TO.N,Net-(C14-Pad2)*%
X103990000Y-78000000D03*
%TO.P,R13,2*%
%TO.N,/POE/TD+*%
X105010000Y-78000000D03*
%TD*%
D13*
%TO.P,R14,1*%
%TO.N,Net-(U3-RSET)*%
X106125000Y-75200000D03*
%TO.P,R14,2*%
%TO.N,GND*%
X104475000Y-75200000D03*
%TD*%
%TO.P,R25,1*%
%TO.N,Net-(U7-EN)*%
X101825000Y-98600000D03*
%TO.P,R25,2*%
%TO.N,+12V?*%
X100175000Y-98600000D03*
%TD*%
D24*
%TO.P,C15,1*%
%TO.N,GND*%
X107625000Y-75100000D03*
%TO.P,C15,2*%
%TO.N,Net-(D6-K)*%
X109175000Y-75100000D03*
%TD*%
D18*
%TO.P,R21,1*%
%TO.N,Net-(U4-CFG1)*%
X81175000Y-99500000D03*
%TO.P,R21,2*%
%TO.N,GND*%
X82825000Y-99500000D03*
%TD*%
D71*
%TO.P,C4,1*%
%TO.N,GND*%
X83475000Y-89500000D03*
%TO.P,C4,2*%
%TO.N,Net-(C4-Pad2)*%
X80525000Y-89500000D03*
%TD*%
D14*
%TO.P,C41,1*%
%TO.N,+3.3V*%
X124600000Y-119575000D03*
%TO.P,C41,2*%
%TO.N,GND*%
X124600000Y-118025000D03*
%TD*%
D10*
%TO.P,CON1,P1,AN*%
%TO.N,/General/ESP_IO36*%
X142720000Y-95860000D03*
D11*
%TO.P,CON1,P2,RST*%
%TO.N,/General/ESP_IO35*%
X145260000Y-95860000D03*
%TO.P,CON1,P3,CS*%
%TO.N,/General/SPI_CS*%
X147800000Y-95860000D03*
%TO.P,CON1,P4,SCK*%
%TO.N,/General/SPI_SCK*%
X150340000Y-95860000D03*
%TO.P,CON1,P5,MISO*%
%TO.N,/General/SPI_MISO*%
X152880000Y-95860000D03*
%TO.P,CON1,P6,MOSI*%
%TO.N,/General/SPI_MOSI*%
X155420000Y-95860000D03*
%TO.P,CON1,P7,3V3*%
%TO.N,+3.3V*%
X157960000Y-95860000D03*
%TO.P,CON1,P8,GND1*%
%TO.N,GND*%
X160500000Y-95860000D03*
%TO.P,CON1,P9,GND2*%
X160500000Y-73000000D03*
%TO.P,CON1,P10,5V*%
%TO.N,+5V*%
X157960000Y-73000000D03*
%TO.P,CON1,P11,SDA*%
%TO.N,/General/I2C_SDA*%
X155420000Y-73000000D03*
%TO.P,CON1,P12,SCL*%
%TO.N,/General/I2C_SCL*%
X152880000Y-73000000D03*
%TO.P,CON1,P13,RX*%
%TO.N,/General/ESP_IO16*%
X150340000Y-73000000D03*
%TO.P,CON1,P14,TX*%
%TO.N,/General/ESP_IO17*%
X147800000Y-73000000D03*
%TO.P,CON1,P15,INT*%
%TO.N,/General/ESP_IO4*%
X145260000Y-73000000D03*
D12*
%TO.P,CON1,P16,PWM*%
%TO.N,/General/ESP_IO2*%
X142720000Y-73000000D03*
%TD*%
D58*
%TO.P,C8,1*%
%TO.N,Net-(U2-VB2)*%
X81640000Y-59725000D03*
%TO.P,C8,2*%
%TO.N,Net-(C8-Pad2)*%
X81640000Y-61275000D03*
%TD*%
D40*
%TO.P,C35,1*%
%TO.N,Net-(D11-K)*%
X129571348Y-56091953D03*
%TO.P,C35,2*%
%TO.N,Net-(U8-BOOT)*%
X128021348Y-56091953D03*
%TD*%
D57*
%TO.P,L3,1,1*%
%TO.N,Net-(D10-K)*%
X119700000Y-96500000D03*
%TO.P,L3,2,2*%
%TO.N,+3.3V*%
X123400000Y-96500000D03*
%TD*%
D24*
%TO.P,C18,1*%
%TO.N,+3.3V*%
X109585288Y-84106969D03*
%TO.P,C18,2*%
%TO.N,GND*%
X111135288Y-84106969D03*
%TD*%
%TO.P,C11,1*%
%TO.N,GND*%
X95825000Y-72700000D03*
%TO.P,C11,2*%
%TO.N,/POE/RCT*%
X97375000Y-72700000D03*
%TD*%
D16*
%TO.P,C19,1*%
%TO.N,GND*%
X85300000Y-89950000D03*
%TO.P,C19,2*%
%TO.N,Net-(U4-VDD)*%
X85300000Y-91850000D03*
%TD*%
D17*
%TO.P,D4,1,K*%
%TO.N,GND*%
X162687500Y-59500000D03*
%TO.P,D4,2,A*%
%TO.N,Net-(D4-A)*%
X160812500Y-59500000D03*
%TD*%
D60*
%TO.P,R23,1*%
%TO.N,/General/USB_GOOD*%
X129250000Y-94575000D03*
%TO.P,R23,2*%
%TO.N,GND*%
X129250000Y-92925000D03*
%TD*%
D15*
%TO.P,H5,1,Pin_1*%
%TO.N,GND*%
X89420000Y-133300000D03*
%TO.P,H5,2,Pin_2*%
X89420000Y-128250000D03*
%TO.P,H5,3,Pin_3*%
X91960000Y-133300000D03*
%TO.P,H5,4,Pin_4*%
X91960000Y-128250000D03*
%TO.P,H5,5,Pin_5*%
X94500000Y-133300000D03*
%TO.P,H5,6,Pin_6*%
X94500000Y-128250000D03*
%TO.P,H5,7,Pin_7*%
X97040000Y-133300000D03*
%TO.P,H5,8,Pin_8*%
X97040000Y-128250000D03*
%TD*%
D13*
%TO.P,R27,1*%
%TO.N,Net-(U8-EN)*%
X121325000Y-60700000D03*
%TO.P,R27,2*%
%TO.N,+12V?*%
X119675000Y-60700000D03*
%TD*%
D72*
%TO.P,U5,1,VCP*%
%TO.N,Net-(U5-VCP)*%
X86050000Y-98137500D03*
%TO.P,U5,2,GND*%
%TO.N,GND*%
X87000000Y-98137500D03*
%TO.P,U5,3,EN*%
%TO.N,+12V_USB*%
X87950000Y-98137500D03*
%TO.P,U5,4,CATHODE*%
%TO.N,+12V?*%
X87950000Y-95862500D03*
%TO.P,U5,5,GATE*%
%TO.N,Net-(U5-GATE)*%
X87000000Y-95862500D03*
%TO.P,U5,6,ANODE*%
%TO.N,+12V_USB*%
X86050000Y-95862500D03*
%TD*%
D68*
%TO.P,D5,1,K*%
%TO.N,+3.3V*%
X105000000Y-91340000D03*
%TO.P,D5,2,A*%
%TO.N,GND*%
X101500000Y-91340000D03*
%TD*%
D24*
%TO.P,C16,1*%
%TO.N,GND*%
X104525000Y-76700000D03*
%TO.P,C16,2*%
%TO.N,Net-(U3-AVDD10OUT)*%
X106075000Y-76700000D03*
%TD*%
D73*
%TO.P,USB1,1,SHELL*%
%TO.N,GND*%
X75382250Y-90500000D03*
%TO.P,USB1,2,SHELL*%
X75382250Y-99140000D03*
D74*
%TO.P,USB1,3,SHELL*%
X71232250Y-90500000D03*
%TO.P,USB1,4,SHELL*%
X71232250Y-99140000D03*
D75*
%TO.P,USB1,A1B12,GND*%
X75957250Y-91620000D03*
%TO.P,USB1,A4B9,VBUS*%
%TO.N,+12V_USB*%
X75957250Y-92420000D03*
D76*
%TO.P,USB1,A5,CC1*%
%TO.N,Net-(U4-CC1)*%
X75957250Y-93570000D03*
%TO.P,USB1,A6,DP1*%
%TO.N,Net-(U4-DP)*%
X75957250Y-94570000D03*
%TO.P,USB1,A7,DN1*%
%TO.N,Net-(U4-DM)*%
X75957250Y-95070000D03*
%TO.P,USB1,A8,SBU1*%
%TO.N,unconnected-(USB1-SBU1-PadA8)*%
X75957250Y-93070000D03*
D75*
%TO.P,USB1,B1A12,GND*%
%TO.N,GND*%
X75957250Y-98020000D03*
%TO.P,USB1,B4A9,VBUS*%
%TO.N,+12V_USB*%
X75957250Y-97220000D03*
D76*
%TO.P,USB1,B5,CC2*%
%TO.N,Net-(U4-CC2)*%
X75957250Y-96570000D03*
%TO.P,USB1,B6,DP2*%
%TO.N,Net-(U4-DP)*%
X75957250Y-95570000D03*
%TO.P,USB1,B7,DN2*%
%TO.N,Net-(U4-DM)*%
X75957250Y-94070000D03*
%TO.P,USB1,B8,SBU2*%
%TO.N,unconnected-(USB1-SBU2-PadB8)*%
X75957250Y-96070000D03*
%TD*%
D77*
%TO.P,X1,1,Tri-State*%
%TO.N,USB_EN*%
X105600000Y-69150000D03*
%TO.P,X1,2,GND*%
%TO.N,GND*%
X103400000Y-69150000D03*
%TO.P,X1,3,OUT*%
%TO.N,/General/REF_CLK*%
X103400000Y-70850000D03*
%TO.P,X1,4,VDD*%
%TO.N,+3.3V*%
X105600000Y-70850000D03*
%TD*%
D60*
%TO.P,R32,1*%
%TO.N,Net-(D7-K)*%
X164200000Y-55025000D03*
%TO.P,R32,2*%
%TO.N,+12V_USB*%
X164200000Y-53375000D03*
%TD*%
D78*
%TO.N,+3.3V*%
X127500000Y-126500000D03*
X102800000Y-63700000D03*
X126900000Y-104300000D03*
X113977000Y-54177000D03*
X127100000Y-124000000D03*
X139500000Y-54254000D03*
X108000000Y-68100000D03*
X127000000Y-100500000D03*
X108500000Y-86750000D03*
X126900000Y-119100000D03*
X111852000Y-54154000D03*
X108750000Y-70750000D03*
X127500000Y-97250000D03*
X111900000Y-113900000D03*
X151250000Y-53527000D03*
X109573566Y-83263878D03*
%TO.N,GND*%
X110700000Y-73750000D03*
X124500000Y-129500000D03*
X102750000Y-94000000D03*
X108750000Y-58000000D03*
X149750000Y-66500000D03*
X111750000Y-90750000D03*
X122500000Y-132000000D03*
X163750000Y-57500000D03*
X133000000Y-58600000D03*
X143250000Y-59850000D03*
X114500000Y-55500000D03*
X82000000Y-95500000D03*
X82000000Y-94500000D03*
X77000000Y-98750000D03*
X87300000Y-99473000D03*
X93250000Y-130750000D03*
X90750000Y-130750000D03*
X105400000Y-84000000D03*
X105802814Y-79219696D03*
X80000000Y-95500000D03*
X112750000Y-86750000D03*
X85000000Y-88750000D03*
X76973000Y-91500000D03*
X126200000Y-121400000D03*
X160000000Y-68500000D03*
X81000000Y-94500000D03*
X100698341Y-82747252D03*
X136750000Y-85751615D03*
X95750000Y-71750000D03*
X94400000Y-94400000D03*
X117590000Y-72500000D03*
X101472883Y-100683467D03*
X100250000Y-88500000D03*
X113635000Y-96365000D03*
X80000000Y-94500000D03*
X104500000Y-74200000D03*
X128750000Y-127500000D03*
X100718810Y-76608874D03*
X107000000Y-68250000D03*
X115750000Y-91000000D03*
X119500000Y-55250000D03*
X81000000Y-95500000D03*
X101000000Y-79250000D03*
X116500000Y-82500000D03*
X113250000Y-122250000D03*
X124600000Y-116800000D03*
X121750000Y-64750000D03*
X112250000Y-84000000D03*
X127505178Y-92994824D03*
X124725000Y-124750000D03*
X84000000Y-99000000D03*
X132250000Y-54804000D03*
X95750000Y-130750000D03*
X135750000Y-58370000D03*
X99000000Y-99000000D03*
X100206281Y-91316981D03*
X107500000Y-74250000D03*
X114800000Y-74500000D03*
%TO.N,/POE/TXCT*%
X91750000Y-83175000D03*
%TO.N,/POE/RXCT*%
X91123000Y-76777000D03*
%TO.N,+12V*%
X116500000Y-100500000D03*
X128000000Y-104500000D03*
X97000000Y-121200000D03*
X139750000Y-53527000D03*
X105300000Y-100100000D03*
X128200000Y-99900000D03*
X91944500Y-100200000D03*
X97000000Y-122300000D03*
X113527000Y-128250000D03*
X97700000Y-100191375D03*
%TO.N,+12V_USB*%
X77000000Y-92500000D03*
X77000000Y-97250000D03*
X85000000Y-98000000D03*
%TO.N,/General/ESP_IO2*%
X138650000Y-83650000D03*
X144500000Y-104200000D03*
X144500000Y-100600000D03*
%TO.N,USB_EN*%
X113500000Y-79500000D03*
X148500000Y-81000000D03*
X103315032Y-92315032D03*
X110000000Y-71000000D03*
X163500000Y-81000000D03*
X120000000Y-87240500D03*
X122200000Y-92100000D03*
X139100000Y-81000000D03*
X135400000Y-92727000D03*
X117500000Y-86027000D03*
X85000000Y-95000000D03*
X90375000Y-93000000D03*
%TO.N,Net-(D6-K)*%
X109320000Y-76500000D03*
X106490000Y-81610000D03*
%TO.N,/General/SPI_SCK*%
X157300000Y-91050000D03*
X164400000Y-105450000D03*
X145540000Y-91060000D03*
X164400000Y-99250000D03*
%TO.N,/General/I2C_SDA*%
X137200000Y-115800000D03*
X146935000Y-81527000D03*
X147250000Y-100550000D03*
X126000000Y-124100000D03*
X125802679Y-130598000D03*
X137354000Y-90946000D03*
X147250000Y-104250000D03*
X125589502Y-122602002D03*
%TO.N,/General/ESP_IO16*%
X141900000Y-82494746D03*
X146350000Y-99400000D03*
X146250000Y-105500000D03*
%TO.N,/General/ESP_IO35*%
X158400000Y-92200000D03*
X138400000Y-91400000D03*
X145568356Y-92231644D03*
X141695000Y-92255000D03*
X162900000Y-99750000D03*
X162900000Y-104950000D03*
%TO.N,/General/ESP_IO36*%
X159100000Y-92750000D03*
X146250000Y-92800000D03*
X162650000Y-104150000D03*
X162650000Y-100550000D03*
%TO.N,/General/SPI_MOSI*%
X165400000Y-100500000D03*
X149380000Y-89820000D03*
X156050000Y-89850000D03*
X165400000Y-104200000D03*
%TO.N,/General/SPI_MISO*%
X165150000Y-99750000D03*
X156700000Y-90450000D03*
X147450000Y-90450000D03*
X165150000Y-104950000D03*
%TO.N,/General/SPI_CS*%
X163650000Y-105450000D03*
X157850000Y-91698000D03*
X163650000Y-99250000D03*
X142500000Y-87500000D03*
%TO.N,/General/ESP_IO4*%
X144750000Y-105000000D03*
X133006356Y-72293639D03*
X144750000Y-99800000D03*
X139700000Y-83300000D03*
X152646131Y-58750000D03*
X143523131Y-67873000D03*
%TO.N,/General/ESP_IO17*%
X145500000Y-99400000D03*
X140650000Y-82996746D03*
X145500000Y-105500000D03*
%TO.N,/General/I2C_SCL*%
X143715000Y-81998000D03*
X137100000Y-115000000D03*
X136400000Y-90419000D03*
X147000000Y-99800000D03*
X147000000Y-105000000D03*
%TO.N,/General/ESP_IO39*%
X122705214Y-87567500D03*
X93300000Y-105200000D03*
X91952647Y-99473000D03*
X113081500Y-123318500D03*
X122500000Y-86250000D03*
X148500000Y-54750000D03*
%TO.N,/General/ESP_IO5*%
X91164499Y-99414783D03*
X116300000Y-123600000D03*
X130500000Y-69500000D03*
X116300000Y-119700000D03*
X146250000Y-55250000D03*
X90900000Y-104100000D03*
X152700000Y-59500000D03*
%TO.N,/General/ESP_RXD*%
X122800000Y-65750000D03*
X142400000Y-62300000D03*
X148750000Y-60750000D03*
X122700000Y-70027000D03*
%TO.N,/General/ESP_TXD*%
X121550000Y-66350000D03*
X121400000Y-70027000D03*
%TO.N,/POE/TD+*%
X101236283Y-83236283D03*
X105796415Y-78492722D03*
%TO.N,/POE/RD-*%
X100200000Y-79300000D03*
X100000000Y-76300000D03*
%TO.N,/POE/TD-*%
X100046422Y-82425485D03*
X105798555Y-79946686D03*
%TO.N,/POE/RD+*%
X101750000Y-79250000D03*
X101228833Y-77127528D03*
%TO.N,/General/REF_CLK*%
X151500000Y-69000000D03*
X134100000Y-70000000D03*
%TO.N,Net-(U3-LED1{slash}PHYAD[1])*%
X112736147Y-73009144D03*
X86750000Y-86500000D03*
X87000000Y-67500000D03*
X112727003Y-70000000D03*
%TO.N,Net-(U3-LED0{slash}PHYAD[0]{slash}PMEB)*%
X113000000Y-77000000D03*
X112000000Y-70000000D03*
%TO.N,/General/USB_GOOD*%
X123940000Y-90000000D03*
X130000000Y-95500000D03*
%TO.N,Net-(U8-VSENSE)*%
X138300000Y-63300000D03*
X147500000Y-63000000D03*
%TO.N,+5V*%
X135000000Y-100700000D03*
X128800000Y-100500000D03*
X161607423Y-98807423D03*
X146000000Y-54100000D03*
X149627000Y-68373000D03*
X128700000Y-112400000D03*
X138600000Y-100700000D03*
X128800000Y-104100000D03*
X162306644Y-95306644D03*
%TO.N,/General/EMAC_TX_EN*%
X121000000Y-73000000D03*
X114027000Y-80500000D03*
%TO.N,+12V?*%
X101000000Y-53127000D03*
X131900000Y-98500000D03*
X106065000Y-96365000D03*
%TO.N,/General/EMAC_CRS_DV*%
X129000000Y-69500000D03*
X131560000Y-87500000D03*
%TD*%
D79*
%TO.N,+3.3V*%
X127500000Y-97250000D02*
X127500000Y-95950000D01*
D80*
X110750000Y-82437500D02*
X110750000Y-82942257D01*
D79*
X118700000Y-87300000D02*
X119000000Y-87600000D01*
D80*
X124120000Y-135275000D02*
X122500000Y-135275000D01*
D79*
X127000000Y-100500000D02*
X126900000Y-100400000D01*
X121000000Y-95000000D02*
X121000000Y-93750000D01*
X128850000Y-129150000D02*
X132265200Y-132565200D01*
X114500000Y-90100000D02*
X117300000Y-87300000D01*
D81*
X127500000Y-126500000D02*
X127600000Y-126600000D01*
D80*
X106160000Y-91340000D02*
X105000000Y-91340000D01*
X124487500Y-120987500D02*
X124487500Y-120400000D01*
D79*
X127600000Y-127900000D02*
X128850000Y-129150000D01*
X141734800Y-133200000D02*
X156655000Y-133200000D01*
D80*
X105552500Y-90787500D02*
X105000000Y-91340000D01*
D79*
X107500000Y-70775000D02*
X105675000Y-70775000D01*
X127500000Y-127800000D02*
X127600000Y-127900000D01*
X109600000Y-89000000D02*
X109600000Y-87000000D01*
X125525000Y-95975000D02*
X125500000Y-95950000D01*
X123400000Y-96500000D02*
X122500000Y-96500000D01*
D80*
X109600000Y-89900000D02*
X108712500Y-90787500D01*
X125804000Y-128500000D02*
X125420000Y-128500000D01*
D81*
X123225000Y-136000000D02*
X126275000Y-136000000D01*
D79*
X118860000Y-91610000D02*
X118860000Y-88750000D01*
D80*
X125880000Y-133870000D02*
X124964000Y-133870000D01*
X124120000Y-134370000D02*
X123405000Y-134370000D01*
D79*
X119625000Y-100400000D02*
X123400000Y-100400000D01*
D80*
X123405000Y-134370000D02*
X122500000Y-135275000D01*
D79*
X125500000Y-95950000D02*
X125450000Y-96000000D01*
D80*
X123987500Y-120987500D02*
X123987500Y-120512500D01*
D79*
X126900000Y-100400000D02*
X119625000Y-100400000D01*
D80*
X104727000Y-69977000D02*
X105600000Y-70850000D01*
D79*
X108750000Y-70750000D02*
X107525000Y-70750000D01*
X125750000Y-120000000D02*
X125325000Y-119575000D01*
X105675000Y-70775000D02*
X105600000Y-70850000D01*
D80*
X124464000Y-134370000D02*
X124120000Y-134370000D01*
D79*
X127500000Y-95975000D02*
X127025000Y-95975000D01*
X125325000Y-119575000D02*
X124600000Y-119575000D01*
X123400000Y-100400000D02*
X123400000Y-96500000D01*
X111852000Y-54154000D02*
X111852000Y-53352000D01*
X109350000Y-86750000D02*
X108500000Y-86750000D01*
D80*
X108500000Y-89000000D02*
X109600000Y-89000000D01*
D79*
X107525000Y-70750000D02*
X107500000Y-70775000D01*
D81*
X126275000Y-136000000D02*
X130987500Y-131287500D01*
D79*
X113977000Y-54177000D02*
X139423000Y-54177000D01*
X111900000Y-113900000D02*
X109550000Y-116250000D01*
D80*
X106712500Y-90787500D02*
X106160000Y-91340000D01*
X123987500Y-120512500D02*
X124100000Y-120400000D01*
D79*
X104423000Y-53027000D02*
X102800000Y-54650000D01*
X121000000Y-93750000D02*
X120375000Y-93125000D01*
D80*
X126287500Y-128016500D02*
X125804000Y-128500000D01*
D79*
X126975000Y-95975000D02*
X125525000Y-95975000D01*
X108000000Y-68100000D02*
X109025000Y-68100000D01*
D80*
X124100000Y-120400000D02*
X124487500Y-120400000D01*
X102402000Y-69977000D02*
X104727000Y-69977000D01*
D81*
X122500000Y-135275000D02*
X123225000Y-136000000D01*
D79*
X127025000Y-95975000D02*
X127000000Y-96000000D01*
D80*
X109573566Y-83748566D02*
X109725000Y-83900000D01*
D79*
X156655000Y-133200000D02*
X158455000Y-131400000D01*
D80*
X124487500Y-122512500D02*
X124487500Y-120987500D01*
D79*
X117300000Y-87300000D02*
X118700000Y-87300000D01*
X125450000Y-96000000D02*
X123900000Y-96000000D01*
X126850000Y-120000000D02*
X125750000Y-120000000D01*
X127100000Y-124000000D02*
X127575000Y-124000000D01*
D81*
X151250000Y-58330000D02*
X151250000Y-53527000D01*
D79*
X127500000Y-126500000D02*
X127500000Y-127800000D01*
X126850000Y-119150000D02*
X126900000Y-119100000D01*
D80*
X124487500Y-119687500D02*
X124600000Y-119575000D01*
D79*
X141100000Y-132565200D02*
X141734800Y-133200000D01*
X126850000Y-120000000D02*
X126850000Y-119150000D01*
D80*
X124120000Y-134870000D02*
X124120000Y-135275000D01*
X127500000Y-126500000D02*
X127075000Y-126500000D01*
X107000000Y-87500000D02*
X108500000Y-89000000D01*
D79*
X102800000Y-54650000D02*
X102800000Y-63700000D01*
X119000000Y-87600000D02*
X119000000Y-88306000D01*
X121000000Y-92121296D02*
X121000000Y-93750000D01*
D80*
X109600000Y-89000000D02*
X109600000Y-89900000D01*
X101600000Y-69175000D02*
X102402000Y-69977000D01*
D79*
X109600000Y-87000000D02*
X109350000Y-86750000D01*
D80*
X126287500Y-125712500D02*
X126287500Y-128016500D01*
X110750000Y-82942257D02*
X109585288Y-84106969D01*
X124964000Y-133870000D02*
X124464000Y-134370000D01*
D79*
X110700000Y-90100000D02*
X114500000Y-90100000D01*
X139423000Y-54177000D02*
X139500000Y-54254000D01*
X123900000Y-96000000D02*
X123400000Y-96500000D01*
X109600000Y-89000000D02*
X110700000Y-90100000D01*
D80*
X107000000Y-85525000D02*
X107000000Y-87500000D01*
X124487500Y-120400000D02*
X124487500Y-119687500D01*
D79*
X109550000Y-116250000D02*
X108290000Y-116250000D01*
D80*
X107500000Y-90787500D02*
X106712500Y-90787500D01*
D79*
X122500000Y-96500000D02*
X121000000Y-95000000D01*
D80*
X127075000Y-126500000D02*
X126275000Y-125700000D01*
D81*
X149730000Y-59850000D02*
X151250000Y-58330000D01*
D79*
X120375000Y-93125000D02*
X118860000Y-91610000D01*
D80*
X105000000Y-91340000D02*
X105000000Y-91000000D01*
X109573566Y-83263878D02*
X109573566Y-83748566D01*
D79*
X111527000Y-53027000D02*
X104423000Y-53027000D01*
D80*
X108712500Y-90787500D02*
X107500000Y-90787500D01*
D79*
X111852000Y-53352000D02*
X111527000Y-53027000D01*
X132265200Y-132565200D02*
X141100000Y-132565200D01*
X127000000Y-96000000D02*
X126975000Y-95975000D01*
D80*
X126275000Y-125700000D02*
X126287500Y-125712500D01*
D79*
X109025000Y-68100000D02*
X109100000Y-68175000D01*
D80*
%TO.N,GND*%
X105400000Y-84000000D02*
X105400000Y-83000000D01*
D82*
X113825000Y-74500000D02*
X114000000Y-74675000D01*
D79*
X118616953Y-56116953D02*
X119500000Y-56116953D01*
X107263288Y-68250000D02*
X107500000Y-68486712D01*
D80*
X85300000Y-89950000D02*
X83925000Y-89950000D01*
D79*
X135170000Y-58600000D02*
X133000000Y-58600000D01*
D80*
X100206281Y-91316981D02*
X101476981Y-91316981D01*
X124120000Y-133870000D02*
X122645000Y-133870000D01*
D79*
X77000000Y-98750000D02*
X76270000Y-98020000D01*
X113635000Y-96365000D02*
X108975000Y-96365000D01*
X92450000Y-95500000D02*
X92450000Y-95250000D01*
D80*
X103150000Y-69150000D02*
X103400000Y-69400000D01*
D79*
X117500000Y-89000000D02*
X117500000Y-88840000D01*
X96500000Y-94025000D02*
X96975000Y-94025000D01*
D80*
X126000000Y-122000000D02*
X125500000Y-122000000D01*
X149750000Y-66500000D02*
X148350000Y-66500000D01*
X160000000Y-68500000D02*
X159700000Y-68800000D01*
D79*
X136720000Y-58370000D02*
X137000000Y-58650000D01*
X113635000Y-96365000D02*
X115985000Y-96365000D01*
X107500000Y-68486712D02*
X107500000Y-69225000D01*
D83*
X112500000Y-91000000D02*
X112000000Y-91000000D01*
D80*
X99300000Y-100900000D02*
X99075000Y-100675000D01*
X112400000Y-121900000D02*
X112400000Y-121325000D01*
X108750000Y-76650000D02*
X108750000Y-77562500D01*
D79*
X117340000Y-89000000D02*
X117500000Y-89000000D01*
X135400000Y-58370000D02*
X135170000Y-58600000D01*
X104500000Y-74200000D02*
X104500000Y-76675000D01*
D83*
X143250000Y-59850000D02*
X142110000Y-59850000D01*
D79*
X119500000Y-56116953D02*
X120383047Y-56116953D01*
D80*
X111750000Y-86750000D02*
X111500000Y-87000000D01*
D79*
X122521348Y-64228652D02*
X122521348Y-63591953D01*
X119500000Y-56116953D02*
X119500000Y-55250000D01*
D80*
X114662500Y-121650000D02*
X113250000Y-121650000D01*
X123000000Y-131500000D02*
X124225000Y-131500000D01*
D83*
X116681023Y-91000000D02*
X116917168Y-90763855D01*
D80*
X126100000Y-121500000D02*
X125500000Y-121500000D01*
D82*
X114800000Y-74500000D02*
X113825000Y-74500000D01*
D79*
X116300000Y-96050000D02*
X116550000Y-96050000D01*
X114450000Y-55450000D02*
X112775000Y-55450000D01*
D80*
X126200000Y-121400000D02*
X126200000Y-121300000D01*
X126200000Y-121800000D02*
X126000000Y-122000000D01*
D79*
X121000000Y-64500000D02*
X121000000Y-63600000D01*
D80*
X95825000Y-72575000D02*
X95825000Y-72700000D01*
D81*
X108750000Y-58000000D02*
X109812500Y-58000000D01*
D80*
X107500000Y-75400000D02*
X108750000Y-76650000D01*
X83500000Y-99500000D02*
X82825000Y-99500000D01*
D83*
X115750000Y-91000000D02*
X116681023Y-91000000D01*
D80*
X124225000Y-131572908D02*
X124750000Y-132097908D01*
X129180176Y-92994824D02*
X129250000Y-92925000D01*
X101256350Y-100900000D02*
X99300000Y-100900000D01*
D79*
X76077250Y-91500000D02*
X75957250Y-91620000D01*
X104500000Y-76675000D02*
X104525000Y-76700000D01*
D80*
X110700000Y-73750000D02*
X110700000Y-74625000D01*
X126200000Y-121300000D02*
X125887500Y-120987500D01*
X87300000Y-99473000D02*
X87000000Y-99173000D01*
D79*
X117590000Y-89250000D02*
X117340000Y-89000000D01*
X94775000Y-94025000D02*
X96500000Y-94025000D01*
D80*
X83925000Y-89950000D02*
X83475000Y-89500000D01*
D79*
X135386615Y-85751615D02*
X135350000Y-85715000D01*
X115985000Y-96365000D02*
X116300000Y-96050000D01*
D80*
X163750000Y-57500000D02*
X162687500Y-57500000D01*
X125100000Y-121500000D02*
X125500000Y-121500000D01*
D79*
X115000000Y-84000000D02*
X116500000Y-82500000D01*
X115866953Y-56116953D02*
X115250000Y-55500000D01*
D80*
X102041533Y-100683467D02*
X102225000Y-100500000D01*
D79*
X122000000Y-64750000D02*
X122521348Y-64228652D01*
X117475000Y-96975000D02*
X118100000Y-96975000D01*
X94400000Y-94400000D02*
X94775000Y-94025000D01*
X121750000Y-64750000D02*
X121250000Y-64750000D01*
X114500000Y-55500000D02*
X114450000Y-55450000D01*
D80*
X112250000Y-84000000D02*
X111242257Y-84000000D01*
D79*
X107000000Y-68250000D02*
X107263288Y-68250000D01*
D80*
X113250000Y-122250000D02*
X112750000Y-122250000D01*
D82*
X114000000Y-74675000D02*
X114000000Y-75975000D01*
D79*
X133000000Y-58600000D02*
X131838301Y-58600000D01*
X100475000Y-94025000D02*
X100500000Y-94000000D01*
D80*
X101476981Y-91316981D02*
X101500000Y-91340000D01*
X130600000Y-127500000D02*
X130700000Y-127600000D01*
D83*
X112500000Y-91000000D02*
X111500000Y-92000000D01*
D80*
X87000000Y-99173000D02*
X87000000Y-98137500D01*
X99075000Y-100675000D02*
X99075000Y-100100000D01*
X104450000Y-74150000D02*
X104500000Y-74200000D01*
X127505178Y-92994824D02*
X127500000Y-93000002D01*
X162637500Y-57500000D02*
X162637500Y-59500000D01*
X124987500Y-120987500D02*
X124987500Y-121387500D01*
X127500000Y-93000002D02*
X127500000Y-94050000D01*
X124500000Y-129500000D02*
X124500000Y-128036000D01*
D81*
X109812500Y-58000000D02*
X109862500Y-57950000D01*
D79*
X94400000Y-94400000D02*
X93300000Y-95500000D01*
X135750000Y-58370000D02*
X136720000Y-58370000D01*
D80*
X99000000Y-99000000D02*
X99075000Y-99075000D01*
D79*
X101000000Y-94025000D02*
X102725000Y-94025000D01*
D80*
X148350000Y-66500000D02*
X148300000Y-66450000D01*
X125887500Y-120987500D02*
X125487500Y-120987500D01*
D83*
X112000000Y-91000000D02*
X111750000Y-90750000D01*
D80*
X104450000Y-73300000D02*
X104450000Y-74150000D01*
X112750000Y-86750000D02*
X111750000Y-86750000D01*
D79*
X136750000Y-85751615D02*
X135386615Y-85751615D01*
D80*
X132250000Y-54804000D02*
X132250000Y-56045605D01*
X107500000Y-74250000D02*
X107500000Y-75400000D01*
D83*
X116917168Y-89422832D02*
X117590000Y-88750000D01*
D79*
X117796348Y-56116953D02*
X115866953Y-56116953D01*
X115250000Y-55500000D02*
X114500000Y-55500000D01*
X117500000Y-88840000D02*
X117590000Y-88750000D01*
D80*
X124500000Y-128036000D02*
X125036000Y-127500000D01*
X112750000Y-122250000D02*
X112400000Y-121900000D01*
D79*
X121250000Y-64750000D02*
X121000000Y-64500000D01*
X104550000Y-68000000D02*
X103400000Y-69150000D01*
D80*
X124987500Y-121387500D02*
X125100000Y-121500000D01*
D79*
X135750000Y-58370000D02*
X135400000Y-58370000D01*
D80*
X84000000Y-99000000D02*
X83500000Y-99500000D01*
X126200000Y-121400000D02*
X126200000Y-121800000D01*
D79*
X106750000Y-68000000D02*
X104550000Y-68000000D01*
D80*
X85000000Y-88750000D02*
X85000000Y-89650000D01*
X107500000Y-74250000D02*
X107500000Y-72900000D01*
D79*
X124600000Y-118025000D02*
X124600000Y-116800000D01*
D80*
X95750000Y-71750000D02*
X95750000Y-72500000D01*
X124225000Y-131500000D02*
X124225000Y-131572908D01*
X76270000Y-98020000D02*
X75957250Y-98020000D01*
D79*
X107000000Y-68250000D02*
X106750000Y-68000000D01*
D83*
X115750000Y-91000000D02*
X112500000Y-91000000D01*
D80*
X125036000Y-127500000D02*
X125420000Y-127500000D01*
X100250000Y-88500000D02*
X101500000Y-88500000D01*
X111500000Y-87000000D02*
X111500000Y-89000000D01*
X122500000Y-132000000D02*
X123000000Y-131500000D01*
D79*
X112250000Y-84000000D02*
X115000000Y-84000000D01*
X125500000Y-94050000D02*
X127500000Y-94050000D01*
X93300000Y-95500000D02*
X92450000Y-95500000D01*
D80*
X113250000Y-121650000D02*
X113250000Y-122250000D01*
D79*
X96975000Y-94025000D02*
X97000000Y-94000000D01*
D80*
X126200000Y-121400000D02*
X126100000Y-121500000D01*
D79*
X92450000Y-95250000D02*
X91400000Y-94200000D01*
X97000000Y-94000000D02*
X97025000Y-94025000D01*
X114500000Y-55500000D02*
X114500000Y-56500000D01*
D83*
X116917168Y-90763855D02*
X116917168Y-89422832D01*
D79*
X116550000Y-96050000D02*
X117475000Y-96975000D01*
D80*
X122500000Y-132000000D02*
X122500000Y-133725000D01*
D79*
X97025000Y-94025000D02*
X100475000Y-94025000D01*
D80*
X160300000Y-68800000D02*
X162150000Y-68800000D01*
X117590000Y-72500000D02*
X117590000Y-71250000D01*
X162687500Y-57500000D02*
X162687500Y-55500000D01*
X128750000Y-127500000D02*
X130600000Y-127500000D01*
X124750000Y-132097908D02*
X124750000Y-133240000D01*
D79*
X91400000Y-94200000D02*
X88975000Y-94200000D01*
D80*
X111242257Y-84000000D02*
X111135288Y-84106969D01*
X159700000Y-68800000D02*
X157850000Y-68800000D01*
D79*
X107500000Y-73300000D02*
X107500000Y-73100000D01*
D83*
X111500000Y-92000000D02*
X111500000Y-93000000D01*
D79*
X131346348Y-59091953D02*
X129296348Y-59091953D01*
X131838301Y-58600000D02*
X131346348Y-59091953D01*
D80*
X132250000Y-56045605D02*
X132296348Y-56091953D01*
X99075000Y-99075000D02*
X99075000Y-100100000D01*
X85000000Y-89650000D02*
X85300000Y-89950000D01*
X101472883Y-100683467D02*
X101256350Y-100900000D01*
X95750000Y-72500000D02*
X95825000Y-72575000D01*
D79*
X76973000Y-91500000D02*
X76077250Y-91500000D01*
D82*
X114000000Y-75975000D02*
X114125000Y-76100000D01*
D80*
X127505178Y-92994824D02*
X129180176Y-92994824D01*
X101472883Y-100683467D02*
X102041533Y-100683467D01*
X160000000Y-68500000D02*
X160300000Y-68800000D01*
X124725000Y-124750000D02*
X124725000Y-125700000D01*
D79*
X121750000Y-64750000D02*
X122000000Y-64750000D01*
D80*
X122645000Y-133870000D02*
X122500000Y-133725000D01*
D79*
%TO.N,/POE/TXCT*%
X91750000Y-83175000D02*
X89490000Y-83175000D01*
X74000000Y-58120000D02*
X74020000Y-58100000D01*
X74020000Y-59780000D02*
X74020000Y-58100000D01*
%TO.N,/POE/RXCT*%
X76560000Y-59780000D02*
X76560000Y-58100000D01*
X91123000Y-76777000D02*
X89538000Y-76777000D01*
X76500000Y-58160000D02*
X76560000Y-58100000D01*
X89538000Y-76777000D02*
X89490000Y-76825000D01*
%TO.N,Net-(U2-VB1)*%
X79100000Y-59780000D02*
X79100000Y-58100000D01*
X79000000Y-58200000D02*
X79100000Y-58100000D01*
%TO.N,Net-(U2-VB2)*%
X81640000Y-59780000D02*
X81640000Y-58100000D01*
%TO.N,Net-(C5-Pad1)*%
X74020000Y-62600000D02*
X74020000Y-61240000D01*
%TO.N,+12V*%
X115700000Y-100500000D02*
X116500000Y-100500000D01*
X105300000Y-100100000D02*
X115300000Y-100100000D01*
X128000000Y-104500000D02*
X128000000Y-100100000D01*
X139801134Y-53527000D02*
X140227000Y-53952866D01*
D83*
X117000000Y-128250000D02*
X119540000Y-128250000D01*
D79*
X131000000Y-98500000D02*
X131000000Y-99000000D01*
X139750000Y-53527000D02*
X139801134Y-53527000D01*
X119327000Y-113173000D02*
X97827000Y-113173000D01*
X91953125Y-100191375D02*
X91944500Y-100200000D01*
D83*
X114460000Y-128250000D02*
X117000000Y-128250000D01*
D79*
X140227000Y-53977000D02*
X141050000Y-54800000D01*
X131552000Y-97948000D02*
X131000000Y-98500000D01*
X140227000Y-53952866D02*
X140227000Y-53977000D01*
X128000000Y-104500000D02*
X119327000Y-113173000D01*
X115300000Y-100100000D02*
X115700000Y-100500000D01*
X97827000Y-113173000D02*
X97040000Y-113960000D01*
X141050000Y-54800000D02*
X142110000Y-54800000D01*
X131552000Y-93727000D02*
X131552000Y-97948000D01*
X130750000Y-92925000D02*
X131552000Y-93727000D01*
X128200000Y-99900000D02*
X128600000Y-99500000D01*
X128000000Y-100100000D02*
X128200000Y-99900000D01*
X131000000Y-99000000D02*
X131500000Y-99500000D01*
X97700000Y-100191375D02*
X91953125Y-100191375D01*
X97040000Y-113960000D02*
X97040000Y-116250000D01*
X128600000Y-99500000D02*
X131500000Y-99500000D01*
D83*
X131482002Y-99482002D02*
X131500000Y-99500000D01*
X113527000Y-128250000D02*
X114460000Y-128250000D01*
D80*
%TO.N,Net-(D1-K)*%
X154200000Y-68750000D02*
X154150000Y-68800000D01*
X159500000Y-83000000D02*
X156000000Y-83000000D01*
X156500000Y-82500000D02*
X156500000Y-71150000D01*
X156000000Y-83000000D02*
X156500000Y-82500000D01*
X156500000Y-71150000D02*
X154150000Y-68800000D01*
D79*
%TO.N,+12V_USB*%
X87225000Y-93400000D02*
X85925000Y-93400000D01*
X88550000Y-100650000D02*
X88550000Y-100200000D01*
X88400000Y-100800000D02*
X88550000Y-100650000D01*
X84750000Y-100500000D02*
X85050000Y-100800000D01*
D80*
X154575000Y-53500000D02*
X152462448Y-53500000D01*
X77400000Y-52600000D02*
X70000000Y-60000000D01*
D79*
X87425000Y-93200000D02*
X87225000Y-93400000D01*
X76970000Y-97220000D02*
X75957250Y-97220000D01*
D80*
X70000000Y-86500000D02*
X72500000Y-89000000D01*
D79*
X75957250Y-92420000D02*
X76920000Y-92420000D01*
X85000000Y-98000000D02*
X84750000Y-98250000D01*
D80*
X164200000Y-53950000D02*
X164200000Y-53175000D01*
D79*
X87950000Y-99050000D02*
X87950000Y-98137500D01*
X86300000Y-94200000D02*
X87425000Y-94200000D01*
D80*
X154575000Y-53500000D02*
X154575000Y-54075000D01*
D79*
X86050000Y-94450000D02*
X86300000Y-94200000D01*
X88550000Y-100200000D02*
X90000000Y-100200000D01*
D80*
X151562448Y-52600000D02*
X77400000Y-52600000D01*
D79*
X88550000Y-99650000D02*
X87950000Y-99050000D01*
D80*
X152462448Y-53500000D02*
X151562448Y-52600000D01*
D79*
X85000000Y-98000000D02*
X85000000Y-96912500D01*
D80*
X163723000Y-54427000D02*
X164200000Y-53950000D01*
D79*
X86050000Y-95862500D02*
X86050000Y-94450000D01*
X77000000Y-97250000D02*
X76970000Y-97220000D01*
X76920000Y-92420000D02*
X77000000Y-92500000D01*
X84750000Y-98250000D02*
X84750000Y-100500000D01*
X87425000Y-93200000D02*
X88825000Y-91800000D01*
X87425000Y-94200000D02*
X87425000Y-93200000D01*
X85050000Y-100800000D02*
X88400000Y-100800000D01*
D80*
X70000000Y-60000000D02*
X70000000Y-86500000D01*
X154575000Y-54075000D02*
X154927000Y-54427000D01*
X72500000Y-89000000D02*
X76223474Y-89000000D01*
X76223474Y-89000000D02*
X77500000Y-90276526D01*
D79*
X85000000Y-96912500D02*
X86050000Y-95862500D01*
D80*
X77500000Y-92000000D02*
X77000000Y-92500000D01*
D79*
X88550000Y-100200000D02*
X88550000Y-99650000D01*
D80*
X154927000Y-54427000D02*
X163723000Y-54427000D01*
D79*
X90000000Y-100200000D02*
X90000000Y-99500000D01*
D80*
X77500000Y-90276526D02*
X77500000Y-92000000D01*
D79*
%TO.N,+12V_POE*%
X110253736Y-58900000D02*
X111000000Y-58153736D01*
D80*
X112000000Y-55450000D02*
X112000000Y-55104540D01*
X114154540Y-52950000D02*
X151450000Y-52950000D01*
D79*
X106980000Y-59480000D02*
X106980000Y-58000000D01*
D80*
X154000000Y-55500000D02*
X154575000Y-55500000D01*
D79*
X108450000Y-60950000D02*
X106980000Y-59480000D01*
D80*
X151450000Y-52950000D02*
X154000000Y-55500000D01*
X111225000Y-55450000D02*
X112000000Y-55450000D01*
D79*
X109550000Y-60950000D02*
X108450000Y-60950000D01*
X109862500Y-58900000D02*
X110253736Y-58900000D01*
X111225000Y-55450000D02*
X112137500Y-56362500D01*
X112137500Y-56362500D02*
X112137500Y-57000000D01*
D80*
X112000000Y-55104540D02*
X114154540Y-52950000D01*
D79*
X111000000Y-57475001D02*
X111475001Y-57000000D01*
X109550000Y-60950000D02*
X109550000Y-59212500D01*
X111475001Y-57000000D02*
X112137500Y-57000000D01*
X109550000Y-59212500D02*
X109862500Y-58900000D01*
X111000000Y-58153736D02*
X111000000Y-57475001D01*
X110975000Y-53900000D02*
X110975000Y-55200000D01*
X110975000Y-55200000D02*
X111225000Y-55450000D01*
D81*
%TO.N,/General/ESP_IO2*%
X155800000Y-97000000D02*
X146000000Y-97000000D01*
X146000000Y-97000000D02*
X144100000Y-98900000D01*
X144100000Y-100200000D02*
X144500000Y-100600000D01*
X145200000Y-104200000D02*
X145623000Y-103777000D01*
X145623000Y-103777000D02*
X145623000Y-100923000D01*
X145623000Y-100923000D02*
X145300000Y-100600000D01*
X138650000Y-83650000D02*
X138900000Y-83900000D01*
D80*
X137900000Y-113855000D02*
X143215000Y-108540000D01*
D81*
X145700000Y-83900000D02*
X156400000Y-94600000D01*
X144100000Y-98900000D02*
X144100000Y-100200000D01*
X138900000Y-83900000D02*
X145700000Y-83900000D01*
D79*
X142720000Y-73000000D02*
X141435000Y-74285000D01*
X141435000Y-74285000D02*
X135350000Y-74285000D01*
D81*
X145300000Y-100600000D02*
X144500000Y-100600000D01*
X156400000Y-94600000D02*
X156400000Y-96400000D01*
X144500000Y-104200000D02*
X145200000Y-104200000D01*
D80*
X137900000Y-128200000D02*
X137900000Y-113855000D01*
D81*
X143215000Y-105485000D02*
X143215000Y-108540000D01*
X156400000Y-96400000D02*
X155800000Y-97000000D01*
X144500000Y-104200000D02*
X143215000Y-105485000D01*
D80*
%TO.N,USB_EN*%
X113500000Y-79500000D02*
X113250000Y-79750000D01*
D81*
X100000000Y-92100000D02*
X100500000Y-92600000D01*
D80*
X137400000Y-94727000D02*
X135400000Y-92727000D01*
D81*
X103315032Y-92315032D02*
X103250000Y-92250000D01*
D80*
X106352000Y-69902000D02*
X105600000Y-69150000D01*
D79*
X122200000Y-92100000D02*
X122200000Y-91000000D01*
D80*
X164600000Y-59300000D02*
X164600000Y-68400000D01*
D81*
X83000000Y-98000000D02*
X83000000Y-97000000D01*
D80*
X139100000Y-81000000D02*
X148500000Y-81000000D01*
X120000000Y-87240500D02*
X118759500Y-86000000D01*
X117527000Y-86000000D02*
X117500000Y-86027000D01*
D81*
X83000000Y-97000000D02*
X85000000Y-95000000D01*
D80*
X163500000Y-81000000D02*
X163500000Y-83000000D01*
X118759500Y-86000000D02*
X117527000Y-86000000D01*
X163500000Y-78000000D02*
X165850000Y-75650000D01*
X137400000Y-96800000D02*
X137400000Y-94727000D01*
X110000000Y-71000000D02*
X110000000Y-70100000D01*
X110000000Y-70100000D02*
X109802000Y-69902000D01*
D79*
X120271296Y-90571296D02*
X121000000Y-90571296D01*
D80*
X165850000Y-75650000D02*
X165850000Y-68800000D01*
D81*
X103030064Y-92600000D02*
X103315032Y-92315032D01*
X91275000Y-92100000D02*
X100000000Y-92100000D01*
D80*
X109802000Y-69902000D02*
X106352000Y-69902000D01*
X165000000Y-68800000D02*
X165850000Y-68800000D01*
D81*
X91000000Y-92375000D02*
X90375000Y-93000000D01*
D80*
X164600000Y-68400000D02*
X165000000Y-68800000D01*
D81*
X91000000Y-92375000D02*
X91275000Y-92100000D01*
D80*
X113250000Y-79750000D02*
X112437500Y-79750000D01*
D79*
X122200000Y-91000000D02*
X121771296Y-90571296D01*
D80*
X163500000Y-81000000D02*
X163500000Y-78000000D01*
D79*
X120000000Y-90300000D02*
X120271296Y-90571296D01*
X121771296Y-90571296D02*
X121000000Y-90571296D01*
X120000000Y-87240500D02*
X120000000Y-90300000D01*
D81*
X100500000Y-92600000D02*
X103030064Y-92600000D01*
D79*
%TO.N,Net-(C4-Pad2)*%
X75600000Y-67900000D02*
X74020000Y-66320000D01*
X81640000Y-66110000D02*
X79875000Y-67875000D01*
X79100000Y-67100000D02*
X79875000Y-67875000D01*
X76560000Y-66940000D02*
X75600000Y-67900000D01*
X79100000Y-64325000D02*
X79100000Y-67100000D01*
X76560000Y-64325000D02*
X76560000Y-66940000D01*
X74020000Y-64870000D02*
X74020000Y-64325000D01*
X77725000Y-70025000D02*
X75600000Y-67900000D01*
X77725000Y-71870000D02*
X77725000Y-70025000D01*
X74020000Y-66320000D02*
X74020000Y-64325000D01*
X79875000Y-67875000D02*
X77725000Y-70025000D01*
X81640000Y-64325000D02*
X81640000Y-66110000D01*
%TO.N,Net-(C6-Pad1)*%
X76560000Y-62600000D02*
X76560000Y-61240000D01*
%TO.N,Net-(C7-Pad1)*%
X79100000Y-62600000D02*
X79100000Y-61240000D01*
%TO.N,Net-(C8-Pad2)*%
X81640000Y-62600000D02*
X81640000Y-61240000D01*
D80*
%TO.N,Net-(D6-K)*%
X105290000Y-81610000D02*
X106490000Y-81610000D01*
X106490000Y-81610000D02*
X106850000Y-81250000D01*
X106712500Y-89212500D02*
X107500000Y-89212500D01*
X106000000Y-88500000D02*
X106712500Y-89212500D01*
X104612377Y-88112377D02*
X104612377Y-82287623D01*
X105000000Y-88500000D02*
X105500000Y-88500000D01*
X109250000Y-77562500D02*
X109250000Y-76570000D01*
X106850000Y-81250000D02*
X107562500Y-81250000D01*
X109320000Y-76500000D02*
X109320000Y-75500000D01*
X104612377Y-82287623D02*
X105290000Y-81610000D01*
X105000000Y-88500000D02*
X104612377Y-88112377D01*
X109320000Y-75500000D02*
X109400000Y-75420000D01*
X105000000Y-88500000D02*
X106000000Y-88500000D01*
X109400000Y-75420000D02*
X109400000Y-72900000D01*
X109250000Y-76570000D02*
X109320000Y-76500000D01*
%TO.N,Net-(C14-Pad2)*%
X103000000Y-76910000D02*
X103000000Y-75400000D01*
X103000000Y-75400000D02*
X102600000Y-75000000D01*
X102900000Y-73300000D02*
X102900000Y-74700000D01*
X104000000Y-78910000D02*
X104000000Y-77910000D01*
X102290000Y-74690000D02*
X101600000Y-74690000D01*
X104000000Y-77910000D02*
X103000000Y-76910000D01*
X102900000Y-74700000D02*
X102600000Y-75000000D01*
X104090000Y-79000000D02*
X104000000Y-78910000D01*
X102600000Y-75000000D02*
X102290000Y-74690000D01*
X100600000Y-74690000D02*
X101600000Y-74690000D01*
%TO.N,Net-(U3-AVDD10OUT)*%
X107000000Y-78750000D02*
X106773000Y-78523000D01*
X106773000Y-78523000D02*
X106773000Y-76873000D01*
X107562500Y-78750000D02*
X107000000Y-78750000D01*
X106773000Y-76873000D02*
X106600000Y-76700000D01*
X106600000Y-76700000D02*
X106075000Y-76700000D01*
%TO.N,Net-(U3-DVDD10OUT)*%
X110500000Y-76475000D02*
X110225000Y-76475000D01*
X110225000Y-76475000D02*
X109750000Y-76950000D01*
X109750000Y-76950000D02*
X109750000Y-77562500D01*
D79*
%TO.N,Net-(U4-VDD)*%
X85350000Y-91800000D02*
X85300000Y-91850000D01*
X85150000Y-92000000D02*
X85300000Y-91850000D01*
X83000000Y-92000000D02*
X85150000Y-92000000D01*
X87175000Y-91800000D02*
X85350000Y-91800000D01*
D80*
%TO.N,Net-(U5-VCP)*%
X86620000Y-99800000D02*
X86250000Y-99430000D01*
X86250000Y-98337500D02*
X86050000Y-98137500D01*
X86250000Y-99430000D02*
X86250000Y-98337500D01*
D79*
%TO.N,Net-(U7-SS)*%
X104025000Y-100500000D02*
X104025000Y-98905000D01*
%TO.N,Net-(U8-SS)*%
X124071348Y-63591953D02*
X124071348Y-61906953D01*
X124071348Y-61906953D02*
X124346348Y-61631953D01*
%TO.N,Net-(C28-Pad2)*%
X116050000Y-98200000D02*
X116300000Y-97950000D01*
X114625000Y-98200000D02*
X116050000Y-98200000D01*
D80*
%TO.N,/POE/RX+*%
X80000000Y-78302317D02*
X80000000Y-80696829D01*
X88154999Y-78095000D02*
X87116223Y-77056224D01*
X89490000Y-78095000D02*
X88154999Y-78095000D01*
X87096647Y-77075800D02*
X81226517Y-77075800D01*
X87116223Y-77056224D02*
X87096647Y-77075800D01*
X81226517Y-77075800D02*
X80000000Y-78302317D01*
X79166829Y-81530000D02*
X76705000Y-81530000D01*
X80000000Y-80696829D02*
X79166829Y-81530000D01*
D79*
%TO.N,Net-(C29-Pad2)*%
X135225000Y-61600000D02*
X135850000Y-61600000D01*
X135850000Y-61600000D02*
X137000000Y-60450000D01*
%TO.N,Net-(U7-COMP)*%
X112783243Y-98008243D02*
X112975000Y-98200000D01*
X111279121Y-98008243D02*
X112783243Y-98008243D01*
X108975000Y-97635000D02*
X110905878Y-97635000D01*
X110905878Y-97635000D02*
X111279121Y-98008243D01*
%TO.N,Net-(U8-COMP)*%
X129296348Y-60361953D02*
X131616348Y-60361953D01*
X131616348Y-60361953D02*
X131796348Y-60541953D01*
X133575000Y-61600000D02*
X132658047Y-61600000D01*
X132658047Y-61600000D02*
X131600000Y-60541953D01*
D80*
%TO.N,/POE/TX+*%
X79687429Y-83279400D02*
X86779400Y-83279400D01*
X79396829Y-83570000D02*
X79687429Y-83279400D01*
X87945000Y-84445000D02*
X89490000Y-84445000D01*
X86779400Y-83279400D02*
X87945000Y-84445000D01*
X76705000Y-83570000D02*
X79396829Y-83570000D01*
D79*
%TO.N,Net-(U9-VCP)*%
X110000000Y-56862500D02*
X109862500Y-57000000D01*
X110000000Y-56000000D02*
X110000000Y-56862500D01*
X109425000Y-55425000D02*
X110000000Y-56000000D01*
X109425000Y-53900000D02*
X109425000Y-55425000D01*
D80*
%TO.N,/POE/RX-*%
X88154999Y-75555000D02*
X87854999Y-75855000D01*
X89490000Y-75555000D02*
X88154999Y-75555000D01*
X87854999Y-75855000D02*
X87493565Y-76216434D01*
X81091069Y-76748800D02*
X86961199Y-76748800D01*
X78485000Y-78470000D02*
X79369868Y-78470000D01*
X86961199Y-76748800D02*
X87493565Y-76216434D01*
X79369868Y-78470000D02*
X81091069Y-76748800D01*
%TO.N,/POE/TX-*%
X87047600Y-82952400D02*
X88095000Y-81905000D01*
X78887400Y-82952400D02*
X87047600Y-82952400D01*
X88095000Y-81905000D02*
X89490000Y-81905000D01*
X78485000Y-82550000D02*
X78887400Y-82952400D01*
D79*
%TO.N,Net-(D10-K)*%
X115625000Y-93500000D02*
X116050000Y-93500000D01*
X108275000Y-93500000D02*
X109300000Y-93500000D01*
X119700000Y-94100000D02*
X119700000Y-96500000D01*
X108275000Y-93500000D02*
X108275000Y-94395000D01*
X119100000Y-93500000D02*
X119700000Y-94100000D01*
X110900000Y-95100000D02*
X114025000Y-95100000D01*
X109300000Y-93500000D02*
X110900000Y-95100000D01*
X108275000Y-94395000D02*
X108975000Y-95095000D01*
X116050000Y-93500000D02*
X119100000Y-93500000D01*
X114025000Y-95100000D02*
X115625000Y-93500000D01*
%TO.N,Net-(U7-BOOT)*%
X106725000Y-94275000D02*
X105905000Y-95095000D01*
X105905000Y-95095000D02*
X104025000Y-95095000D01*
X106725000Y-93500000D02*
X106725000Y-94275000D01*
%TO.N,Net-(D11-K)*%
X141200000Y-60600000D02*
X136691953Y-56091953D01*
X141400000Y-66700000D02*
X141200000Y-66500000D01*
X134866348Y-57521953D02*
X136296348Y-56091953D01*
X129296348Y-56366953D02*
X129571348Y-56091953D01*
X129296348Y-57821953D02*
X129596348Y-57521953D01*
X129296348Y-57821953D02*
X129296348Y-56366953D01*
X136691953Y-56091953D02*
X136296348Y-56091953D01*
X129596348Y-57521953D02*
X134866348Y-57521953D01*
X141200000Y-66500000D02*
X141200000Y-60600000D01*
%TO.N,Net-(U8-BOOT)*%
X126291348Y-57821953D02*
X128021348Y-56091953D01*
X124346348Y-57821953D02*
X126291348Y-57821953D01*
D80*
%TO.N,RJ45_LED_Activity*%
X83330000Y-71000000D02*
X83330000Y-73105000D01*
X83330000Y-73105000D02*
X83295000Y-73140000D01*
%TO.N,RJ45_LED_Link*%
X85000000Y-86275000D02*
X83295000Y-84570000D01*
X85000000Y-87000000D02*
X85000000Y-86275000D01*
D79*
%TO.N,/General/SPI_SCK*%
X133323000Y-89827000D02*
X134842000Y-89827000D01*
X145540000Y-91060000D02*
X150340000Y-95860000D01*
X134842000Y-89827000D02*
X134877000Y-89792000D01*
X132830000Y-89334000D02*
X133323000Y-89827000D01*
D81*
X160025213Y-91050000D02*
X157300000Y-91050000D01*
D79*
X134877000Y-89792000D02*
X144272000Y-89792000D01*
X144272000Y-89792000D02*
X145540000Y-91060000D01*
X132830000Y-88750000D02*
X132830000Y-89334000D01*
D81*
X164400000Y-117835000D02*
X164400000Y-105450000D01*
X164400000Y-99250000D02*
X164400000Y-95424787D01*
X150835000Y-131400000D02*
X164400000Y-117835000D01*
X164400000Y-95424787D02*
X160025213Y-91050000D01*
%TO.N,/General/I2C_SDA*%
X147250000Y-104250000D02*
X146550000Y-104250000D01*
X146935000Y-81543065D02*
X159500000Y-94108065D01*
D80*
X126598000Y-130598000D02*
X127000000Y-131000000D01*
D81*
X158190213Y-98385000D02*
X149415000Y-98385000D01*
D79*
X137254000Y-91046000D02*
X128246000Y-91046000D01*
D80*
X126000000Y-124100000D02*
X126227355Y-124100000D01*
X123580000Y-127135620D02*
X123980947Y-126734673D01*
D81*
X146177000Y-100923000D02*
X146550000Y-100550000D01*
D80*
X123980947Y-126734673D02*
X124965062Y-126734673D01*
D81*
X147250000Y-104250000D02*
X151625000Y-104250000D01*
D80*
X123580000Y-127500000D02*
X123580000Y-127135620D01*
D81*
X151625000Y-104250000D02*
X155915000Y-108540000D01*
D80*
X125500000Y-124600000D02*
X126000000Y-124100000D01*
X127000000Y-133000000D02*
X126630000Y-133370000D01*
D81*
X159500000Y-94108065D02*
X159500000Y-97075213D01*
D80*
X129575000Y-122875000D02*
X129575000Y-124000000D01*
X134527355Y-115800000D02*
X137200000Y-115800000D01*
D79*
X137354000Y-90946000D02*
X137254000Y-91046000D01*
X128246000Y-91046000D02*
X126480000Y-89280000D01*
X126480000Y-89280000D02*
X126480000Y-88750000D01*
D80*
X126630000Y-133370000D02*
X125880000Y-133370000D01*
X127000000Y-131000000D02*
X127000000Y-133000000D01*
X128520000Y-121820000D02*
X129575000Y-122875000D01*
X126227355Y-124100000D02*
X134527355Y-115800000D01*
D81*
X159500000Y-97075213D02*
X158190213Y-98385000D01*
X146177000Y-103877000D02*
X146177000Y-100923000D01*
X146550000Y-104250000D02*
X146177000Y-103877000D01*
D80*
X124965062Y-126734673D02*
X125500000Y-126199735D01*
D81*
X146550000Y-100550000D02*
X147250000Y-100550000D01*
X146935000Y-81527000D02*
X146935000Y-81543065D01*
X149415000Y-98385000D02*
X147250000Y-100550000D01*
D80*
X125802679Y-130598000D02*
X126598000Y-130598000D01*
X125500000Y-126199735D02*
X125500000Y-124600000D01*
D81*
%TO.N,/General/ESP_IO16*%
X147919000Y-97831000D02*
X146350000Y-99400000D01*
D79*
X139079361Y-72920639D02*
X141761745Y-70238255D01*
D81*
X141900000Y-82494746D02*
X141905254Y-82500000D01*
X146800000Y-82500000D02*
X158946000Y-94646000D01*
X158946000Y-96845737D02*
X157960737Y-97831000D01*
X146717370Y-105500000D02*
X149757370Y-108540000D01*
D79*
X131560000Y-71834000D02*
X132646639Y-72920639D01*
X147578255Y-70238255D02*
X150340000Y-73000000D01*
X141761745Y-70238255D02*
X147578255Y-70238255D01*
X132646639Y-72920639D02*
X139079361Y-72920639D01*
D81*
X157960737Y-97831000D02*
X147919000Y-97831000D01*
X149757370Y-108540000D02*
X150835000Y-108540000D01*
X141905254Y-82500000D02*
X146800000Y-82500000D01*
D79*
X131560000Y-71250000D02*
X131560000Y-71834000D01*
D81*
X158946000Y-94646000D02*
X158946000Y-96845737D01*
X146250000Y-105500000D02*
X146717370Y-105500000D01*
%TO.N,/General/ESP_IO35*%
X162900000Y-104950000D02*
X162900000Y-114255000D01*
D79*
X138227000Y-91573000D02*
X127449000Y-91573000D01*
D81*
X162900000Y-114255000D02*
X145755000Y-131400000D01*
D79*
X138400000Y-91400000D02*
X138227000Y-91573000D01*
D81*
X141718356Y-92231644D02*
X141695000Y-92255000D01*
X163085644Y-99564356D02*
X163085644Y-94893906D01*
X160391738Y-92200000D02*
X158400000Y-92200000D01*
X145568356Y-92231644D02*
X141718356Y-92231644D01*
X163085644Y-94893906D02*
X160391738Y-92200000D01*
D79*
X127449000Y-91573000D02*
X125210000Y-89334000D01*
X125210000Y-89334000D02*
X125210000Y-88750000D01*
D81*
X162900000Y-99750000D02*
X163085644Y-99564356D01*
%TO.N,/General/ESP_IO36*%
X145780000Y-92800000D02*
X142720000Y-95860000D01*
X162400000Y-111900000D02*
X162400000Y-111400000D01*
D79*
X121400000Y-89334000D02*
X121400000Y-88750000D01*
D81*
X163723000Y-103777000D02*
X163723000Y-101023000D01*
X143215000Y-131085000D02*
X162400000Y-111900000D01*
X162808644Y-95008644D02*
X160550000Y-92750000D01*
X163350000Y-104150000D02*
X163723000Y-103777000D01*
D79*
X139100000Y-92100000D02*
X124166000Y-92100000D01*
D81*
X146250000Y-92800000D02*
X145780000Y-92800000D01*
X163723000Y-101023000D02*
X163250000Y-100550000D01*
X162398000Y-111398000D02*
X162398000Y-104402000D01*
X162150000Y-98833360D02*
X162808644Y-98174716D01*
X162808644Y-98174716D02*
X162808644Y-95008644D01*
D79*
X142720000Y-95720000D02*
X139100000Y-92100000D01*
X124166000Y-92100000D02*
X121400000Y-89334000D01*
D81*
X162398000Y-104402000D02*
X162650000Y-104150000D01*
X162400000Y-111400000D02*
X162398000Y-111398000D01*
X162150000Y-100050000D02*
X162150000Y-98833360D01*
X160550000Y-92750000D02*
X159100000Y-92750000D01*
X162650000Y-104150000D02*
X163350000Y-104150000D01*
X143215000Y-131400000D02*
X143215000Y-131085000D01*
X162650000Y-100550000D02*
X162150000Y-100050000D01*
D79*
X142720000Y-95860000D02*
X142720000Y-95720000D01*
D81*
X163250000Y-100550000D02*
X162650000Y-100550000D01*
%TO.N,/General/SPI_MOSI*%
X155915000Y-131400000D02*
X166100000Y-121215000D01*
X164277000Y-103777000D02*
X164700000Y-104200000D01*
X166100000Y-121215000D02*
X166100000Y-104900000D01*
X164277000Y-101023000D02*
X164277000Y-103777000D01*
X165400000Y-100500000D02*
X165652000Y-100248000D01*
D79*
X155420000Y-95860000D02*
X149380000Y-89820000D01*
D81*
X166100000Y-104900000D02*
X165400000Y-104200000D01*
X165400000Y-100500000D02*
X164800000Y-100500000D01*
X159608687Y-89850000D02*
X156050000Y-89850000D01*
X165652000Y-95893313D02*
X159608687Y-89850000D01*
D79*
X144005000Y-84445000D02*
X135350000Y-84445000D01*
D81*
X164800000Y-100500000D02*
X164277000Y-101023000D01*
X165652000Y-100248000D02*
X165652000Y-95893313D01*
D79*
X149380000Y-89820000D02*
X144005000Y-84445000D01*
D81*
X164700000Y-104200000D02*
X165400000Y-104200000D01*
%TO.N,/General/SPI_MISO*%
X165150000Y-95783050D02*
X159816950Y-90450000D01*
D79*
X145750000Y-88750000D02*
X147450000Y-90450000D01*
D81*
X165150000Y-119625000D02*
X153375000Y-131400000D01*
D79*
X134100000Y-88750000D02*
X145750000Y-88750000D01*
D81*
X159816950Y-90450000D02*
X156700000Y-90450000D01*
D79*
X147450000Y-90450000D02*
X152860000Y-95860000D01*
X152860000Y-95860000D02*
X152880000Y-95860000D01*
D81*
X165150000Y-104950000D02*
X165150000Y-119625000D01*
X165150000Y-99750000D02*
X165150000Y-95783050D01*
%TO.N,/General/SPI_CS*%
X164000000Y-99600000D02*
X164000000Y-105100000D01*
X163650000Y-116045000D02*
X148295000Y-131400000D01*
X163650000Y-95066524D02*
X160281476Y-91698000D01*
D79*
X133000000Y-85500000D02*
X133000000Y-76755000D01*
D81*
X163650000Y-99250000D02*
X163650000Y-95066524D01*
D79*
X134500000Y-87000000D02*
X133000000Y-85500000D01*
D81*
X163650000Y-105450000D02*
X163650000Y-116045000D01*
X160281476Y-91698000D02*
X157850000Y-91698000D01*
X164000000Y-105100000D02*
X163650000Y-105450000D01*
D79*
X133000000Y-76755000D02*
X134200000Y-75555000D01*
X134200000Y-75555000D02*
X135350000Y-75555000D01*
X142000000Y-87000000D02*
X134500000Y-87000000D01*
X142500000Y-87500000D02*
X142000000Y-87000000D01*
D81*
X163650000Y-99250000D02*
X164000000Y-99600000D01*
D80*
%TO.N,/General/ESP_IO4*%
X133006356Y-72293639D02*
X132830000Y-72117283D01*
D81*
X146813064Y-97277000D02*
X144750000Y-99340064D01*
X139898746Y-83498746D02*
X140811162Y-83498746D01*
X156677000Y-93877000D02*
X156677000Y-96514738D01*
X144750000Y-99340064D02*
X144750000Y-99800000D01*
X139700000Y-83300000D02*
X139898746Y-83498746D01*
X140811162Y-83498746D02*
X140812416Y-83500000D01*
X144750000Y-107535000D02*
X145755000Y-108540000D01*
D80*
X133006356Y-72293639D02*
X139102492Y-72293639D01*
X132830000Y-72117283D02*
X132830000Y-71250000D01*
D81*
X156677000Y-96514738D02*
X155914738Y-97277000D01*
D80*
X139102492Y-72293639D02*
X143523131Y-67873000D01*
X153896131Y-57500000D02*
X152646131Y-58750000D01*
D81*
X146300000Y-83500000D02*
X156677000Y-93877000D01*
D80*
X157550000Y-57500000D02*
X153896131Y-57500000D01*
D81*
X155914738Y-97277000D02*
X146813064Y-97277000D01*
X140812416Y-83500000D02*
X146300000Y-83500000D01*
X144750000Y-105000000D02*
X144750000Y-107535000D01*
%TO.N,/General/ESP_IO17*%
X145900000Y-105100000D02*
X145500000Y-105500000D01*
X145500000Y-105745000D02*
X148295000Y-108540000D01*
D79*
X130960290Y-73460290D02*
X130290000Y-72790000D01*
X130290000Y-72790000D02*
X130290000Y-71250000D01*
D81*
X147346000Y-97554000D02*
X145500000Y-99400000D01*
X145500000Y-99400000D02*
X145900000Y-99800000D01*
X156954000Y-96900000D02*
X156300000Y-97554000D01*
X156300000Y-97554000D02*
X147346000Y-97554000D01*
X156954000Y-93254000D02*
X156954000Y-96900000D01*
D79*
X141936396Y-71063604D02*
X139539710Y-73460290D01*
D81*
X146696746Y-82996746D02*
X156954000Y-93254000D01*
D79*
X145863604Y-71063604D02*
X141936396Y-71063604D01*
D81*
X140650000Y-82996746D02*
X146696746Y-82996746D01*
X145500000Y-105500000D02*
X145500000Y-105745000D01*
X145900000Y-99800000D02*
X145900000Y-105100000D01*
D79*
X147800000Y-73000000D02*
X145863604Y-71063604D01*
X139539710Y-73460290D02*
X130960290Y-73460290D01*
D80*
%TO.N,/General/I2C_SCL*%
X129192261Y-120000000D02*
X129492261Y-120300000D01*
X123580000Y-128500000D02*
X122500000Y-128500000D01*
X123987500Y-122829000D02*
X123987500Y-122512500D01*
X124027000Y-130027000D02*
X122500000Y-128500000D01*
X122500000Y-126800000D02*
X122500000Y-128500000D01*
X126100000Y-123300000D02*
X124458500Y-123300000D01*
D79*
X127750000Y-89334000D02*
X127750000Y-88750000D01*
X136300000Y-90519000D02*
X128935000Y-90519000D01*
D80*
X127500000Y-133700000D02*
X127500000Y-131037552D01*
X126489448Y-130027000D02*
X124027000Y-130027000D01*
X123587500Y-122512500D02*
X123400000Y-122700000D01*
X126330000Y-134870000D02*
X127500000Y-133700000D01*
D81*
X158075475Y-98108000D02*
X159223000Y-96960475D01*
D80*
X128500000Y-120200000D02*
X128700000Y-120000000D01*
D81*
X147000000Y-105000000D02*
X149835000Y-105000000D01*
D80*
X125880000Y-134870000D02*
X126330000Y-134870000D01*
D81*
X159223000Y-96960475D02*
X159223000Y-94473000D01*
X143867000Y-82150000D02*
X143715000Y-81998000D01*
X147000000Y-99800000D02*
X148692000Y-98108000D01*
D80*
X127500000Y-131037552D02*
X126489448Y-130027000D01*
D81*
X146900000Y-82150000D02*
X143867000Y-82150000D01*
X159223000Y-94473000D02*
X146900000Y-82150000D01*
D80*
X124458500Y-123300000D02*
X123987500Y-122829000D01*
D79*
X136400000Y-90419000D02*
X136300000Y-90519000D01*
D80*
X123987500Y-122512500D02*
X123587500Y-122512500D01*
X123400000Y-122700000D02*
X123400000Y-125900000D01*
D81*
X148692000Y-98108000D02*
X158075475Y-98108000D01*
D80*
X137100000Y-115000000D02*
X134827617Y-115000000D01*
X126527617Y-123300000D02*
X126100000Y-123300000D01*
X128700000Y-120000000D02*
X129192261Y-120000000D01*
X134827617Y-115000000D02*
X126527617Y-123300000D01*
X123400000Y-125900000D02*
X122500000Y-126800000D01*
D79*
X128935000Y-90519000D02*
X127750000Y-89334000D01*
D81*
X149835000Y-105000000D02*
X153375000Y-108540000D01*
D80*
%TO.N,Net-(D3-A)*%
X159495000Y-57500000D02*
X160737500Y-57500000D01*
%TO.N,Net-(D4-A)*%
X159495000Y-59500000D02*
X160737500Y-59500000D01*
%TO.N,Net-(D7-K)*%
X164200000Y-56100000D02*
X164600000Y-56500000D01*
X165160000Y-52940000D02*
X165160000Y-54065000D01*
X162687500Y-53500000D02*
X163587500Y-52600000D01*
X164200000Y-55025000D02*
X164200000Y-56100000D01*
X163587500Y-52600000D02*
X164820000Y-52600000D01*
X165160000Y-54065000D02*
X164200000Y-55025000D01*
X164820000Y-52600000D02*
X165160000Y-52940000D01*
%TO.N,Net-(D9-A)*%
X135000000Y-99670000D02*
X135000000Y-99870000D01*
X135200000Y-99670000D02*
X137330000Y-99670000D01*
X135000000Y-99870000D02*
X134420000Y-100450000D01*
X134420000Y-100450000D02*
X133375000Y-100450000D01*
X137330000Y-99670000D02*
X137400000Y-99600000D01*
%TO.N,Net-(D12-A)*%
X159200000Y-55500000D02*
X160762500Y-55500000D01*
D82*
%TO.N,/General/ESP_IO39*%
X91454000Y-103354000D02*
X91454000Y-99971647D01*
D80*
X111920000Y-124480000D02*
X113081500Y-123318500D01*
D82*
X122500000Y-87362286D02*
X122500000Y-86250000D01*
D80*
X111920000Y-128250000D02*
X111920000Y-124480000D01*
D82*
X122705214Y-87567500D02*
X122500000Y-87362286D01*
X91454000Y-99971647D02*
X91952647Y-99473000D01*
X149680000Y-54750000D02*
X149730000Y-54800000D01*
X93300000Y-105200000D02*
X91454000Y-103354000D01*
X122705214Y-87567500D02*
X122670000Y-87602714D01*
X122670000Y-87602714D02*
X122670000Y-88750000D01*
X148500000Y-54750000D02*
X149680000Y-54750000D01*
D80*
%TO.N,/General/ESP_IO5*%
X130500000Y-69500000D02*
X129020000Y-70980000D01*
X111920000Y-133300000D02*
X111920000Y-131280000D01*
X117225000Y-119075000D02*
X117225000Y-118200000D01*
X111920000Y-131280000D02*
X113000000Y-130200000D01*
D82*
X146740000Y-55250000D02*
X147190000Y-54800000D01*
D80*
X116600000Y-119700000D02*
X117225000Y-119075000D01*
D82*
X90900000Y-104100000D02*
X91200000Y-103800000D01*
X116300000Y-119700000D02*
X116300000Y-119480000D01*
D80*
X129020000Y-70980000D02*
X129020000Y-71250000D01*
D82*
X91200000Y-103800000D02*
X91200000Y-99450284D01*
D80*
X113000000Y-126900000D02*
X116300000Y-123600000D01*
D82*
X91200000Y-99450284D02*
X91164499Y-99414783D01*
D80*
X152752577Y-59447423D02*
X152752577Y-59420711D01*
X152700000Y-59500000D02*
X152752577Y-59447423D01*
X113000000Y-130200000D02*
X113000000Y-126900000D01*
D82*
X146250000Y-55250000D02*
X146740000Y-55250000D01*
D80*
X116300000Y-119700000D02*
X116600000Y-119700000D01*
X157550000Y-59500000D02*
X152700000Y-59500000D01*
D81*
%TO.N,/General/ESP_RXD*%
X148750000Y-60750000D02*
X147850000Y-59850000D01*
X147850000Y-59850000D02*
X147190000Y-59850000D01*
X132300000Y-65750000D02*
X122800000Y-65750000D01*
X122700000Y-70027000D02*
X122700000Y-71220000D01*
X141204000Y-68300000D02*
X134850000Y-68300000D01*
X134850000Y-68300000D02*
X132300000Y-65750000D01*
X142400000Y-67104000D02*
X141204000Y-68300000D01*
X122700000Y-71220000D02*
X122670000Y-71250000D01*
X142400000Y-62300000D02*
X142400000Y-67104000D01*
%TO.N,/General/ESP_TXD*%
X134758262Y-68600000D02*
X132508262Y-66350000D01*
X141450000Y-68600000D02*
X134758262Y-68600000D01*
X132508262Y-66350000D02*
X121550000Y-66350000D01*
X121400000Y-70027000D02*
X121400000Y-71250000D01*
X143500000Y-61200000D02*
X143500000Y-66550000D01*
X143500000Y-66550000D02*
X141450000Y-68600000D01*
X144550000Y-60150000D02*
X143500000Y-61200000D01*
D80*
%TO.N,Net-(H6-Pin_3)*%
X121250000Y-126808930D02*
X121250000Y-132500000D01*
X120450000Y-133300000D02*
X119540000Y-133300000D01*
X121250000Y-132500000D02*
X120450000Y-133300000D01*
D79*
X117000000Y-133300000D02*
X119540000Y-133300000D01*
X114460000Y-133300000D02*
X117000000Y-133300000D01*
D80*
X116537500Y-122096430D02*
X121250000Y-126808930D01*
X116537500Y-120700000D02*
X116537500Y-122096430D01*
%TO.N,/POE/RCT*%
X97475000Y-76825000D02*
X96900000Y-77400000D01*
X97320000Y-73000000D02*
X97320000Y-73680000D01*
X97375000Y-83175000D02*
X98510000Y-83175000D01*
X96900000Y-76700000D02*
X97250000Y-77050000D01*
X96900000Y-74100000D02*
X96900000Y-76700000D01*
X97250000Y-77050000D02*
X97475000Y-76825000D01*
X97930000Y-76825000D02*
X97475000Y-76825000D01*
X97320000Y-73680000D02*
X96900000Y-74100000D01*
X96900000Y-77400000D02*
X96900000Y-82700000D01*
X98510000Y-76825000D02*
X97930000Y-76825000D01*
X96900000Y-82700000D02*
X97375000Y-83175000D01*
%TO.N,/POE/TD+*%
X105500000Y-78100000D02*
X105110000Y-78100000D01*
X100027566Y-84445000D02*
X98510000Y-84445000D01*
X101236283Y-83236283D02*
X100027566Y-84445000D01*
X98510000Y-84445000D02*
X98565000Y-84500000D01*
X106950000Y-79250000D02*
X107512500Y-79250000D01*
X105796415Y-78492722D02*
X106192722Y-78492722D01*
X105796415Y-78492722D02*
X105796415Y-78396415D01*
X105796415Y-78396415D02*
X105500000Y-78100000D01*
X106192722Y-78492722D02*
X106950000Y-79250000D01*
%TO.N,/POE/RD-*%
X100000000Y-75700000D02*
X99855000Y-75555000D01*
X98510000Y-75559014D02*
X98525946Y-75574960D01*
X101700686Y-80800686D02*
X100200000Y-79300000D01*
X100600000Y-75710000D02*
X100590000Y-75710000D01*
X98510000Y-75555000D02*
X98510000Y-75559014D01*
X100000000Y-76300000D02*
X100000000Y-75700000D01*
X107562500Y-80750000D02*
X107511814Y-80800686D01*
X107511814Y-80800686D02*
X101700686Y-80800686D01*
X100590000Y-75710000D02*
X100000000Y-76300000D01*
X99855000Y-75555000D02*
X98510000Y-75555000D01*
%TO.N,/POE/TD-*%
X100046422Y-82425485D02*
X100046422Y-82116422D01*
X105798555Y-79946686D02*
X105446686Y-79946686D01*
X105798555Y-79946686D02*
X105977711Y-79946686D01*
X105977711Y-79946686D02*
X106174397Y-79750000D01*
X105010000Y-79510000D02*
X105010000Y-79100000D01*
X105010000Y-79100000D02*
X105110000Y-79000000D01*
X106174397Y-79750000D02*
X107512500Y-79750000D01*
X99835000Y-81905000D02*
X98510000Y-81905000D01*
X100046422Y-82116422D02*
X99835000Y-81905000D01*
X105446686Y-79946686D02*
X105010000Y-79510000D01*
%TO.N,/POE/RD+*%
X106943749Y-80250000D02*
X107562500Y-80250000D01*
X101600000Y-76756361D02*
X101228833Y-77127528D01*
X98510000Y-78095000D02*
X98525946Y-78110946D01*
X99905000Y-78095000D02*
X98510000Y-78095000D01*
X105576578Y-80470000D02*
X105580264Y-80473686D01*
X102970000Y-80470000D02*
X105576578Y-80470000D01*
X101014194Y-77127528D02*
X100979628Y-77162094D01*
X106720063Y-80473686D02*
X106943749Y-80250000D01*
X101750000Y-79250000D02*
X102970000Y-80470000D01*
X100979628Y-77162094D02*
X100837906Y-77162094D01*
X100837906Y-77162094D02*
X99905000Y-78095000D01*
X98525946Y-78110946D02*
X98525946Y-78114960D01*
X101600000Y-75710000D02*
X101600000Y-76756361D01*
X105580264Y-80473686D02*
X106720063Y-80473686D01*
X101228833Y-77127528D02*
X101014194Y-77127528D01*
%TO.N,/General/REF_CLK*%
X108250000Y-77050000D02*
X108250000Y-77562500D01*
X103375000Y-70825000D02*
X103400000Y-70850000D01*
X106852000Y-75652000D02*
X108250000Y-77050000D01*
X134100000Y-70000000D02*
X131600000Y-67500000D01*
X151500000Y-69000000D02*
X151500000Y-82500000D01*
X134100000Y-70000000D02*
X134100000Y-71250000D01*
X101600000Y-70825000D02*
X103375000Y-70825000D01*
X151500000Y-82500000D02*
X152000000Y-83000000D01*
X104796000Y-72296000D02*
X104796000Y-71952000D01*
X111552000Y-71948000D02*
X104800000Y-71948000D01*
X106852000Y-74352000D02*
X106852000Y-75652000D01*
X116000000Y-67500000D02*
X111552000Y-71948000D01*
X131600000Y-67500000D02*
X116000000Y-67500000D01*
X101600000Y-71500000D02*
X101600000Y-70825000D01*
X104796000Y-72296000D02*
X106852000Y-74352000D01*
X104796000Y-71952000D02*
X104800000Y-71948000D01*
X102048000Y-71948000D02*
X101600000Y-71500000D01*
X104800000Y-71948000D02*
X102048000Y-71948000D01*
%TO.N,Net-(U3-RXDV)*%
X107000000Y-83000000D02*
X107000000Y-83525000D01*
X107562500Y-82437500D02*
X107000000Y-83000000D01*
X107562500Y-81750000D02*
X107562500Y-82437500D01*
%TO.N,Net-(U3-RSET)*%
X107100000Y-76362448D02*
X106125000Y-75387448D01*
X107100000Y-78250000D02*
X107100000Y-76362448D01*
X106125000Y-75387448D02*
X106125000Y-75200000D01*
X107562500Y-78250000D02*
X107100000Y-78250000D01*
%TO.N,Net-(U3-LED1{slash}PHYAD[1])*%
X112727003Y-69981712D02*
X109918291Y-67173000D01*
X111750000Y-77562500D02*
X111750000Y-74925000D01*
X86750000Y-86500000D02*
X86750000Y-87425000D01*
X112175000Y-74500000D02*
X112175000Y-73570291D01*
X112727003Y-70000000D02*
X112727003Y-69981712D01*
X111750000Y-74925000D02*
X112175000Y-74500000D01*
X112175000Y-73570291D02*
X112736147Y-73009144D01*
X86750000Y-87425000D02*
X86825000Y-87500000D01*
X87327000Y-67173000D02*
X87000000Y-67500000D01*
X109918291Y-67173000D02*
X87327000Y-67173000D01*
%TO.N,Net-(U3-LED0{slash}PHYAD[0]{slash}PMEB)*%
X112000000Y-69800000D02*
X112000000Y-70000000D01*
X89237500Y-67500000D02*
X109700000Y-67500000D01*
X112500000Y-76500000D02*
X112437500Y-76562500D01*
X84980000Y-71000000D02*
X85737500Y-71000000D01*
X112437500Y-76562500D02*
X112437500Y-78250000D01*
X113000000Y-77000000D02*
X113000000Y-76625000D01*
X113000000Y-76625000D02*
X112475000Y-76100000D01*
X85737500Y-71000000D02*
X89237500Y-67500000D01*
X109700000Y-67500000D02*
X112000000Y-69800000D01*
%TO.N,Net-(U4-VBUS)*%
X84275000Y-94879000D02*
X82654000Y-96500000D01*
X81000000Y-97000000D02*
X81000000Y-98000000D01*
X81500000Y-96500000D02*
X81000000Y-97000000D01*
X84575000Y-93565575D02*
X84275000Y-93865575D01*
X82654000Y-96500000D02*
X81500000Y-96500000D01*
X84275000Y-93865575D02*
X84275000Y-94879000D01*
%TO.N,Net-(U4-CFG1)*%
X81750000Y-99500000D02*
X81175000Y-99500000D01*
X82000000Y-99250000D02*
X81750000Y-99500000D01*
X82000000Y-98000000D02*
X82000000Y-99250000D01*
%TO.N,/General/USB_GOOD*%
X130750000Y-94575000D02*
X129250000Y-94575000D01*
D81*
X130000000Y-95500000D02*
X129500000Y-95500000D01*
X129250000Y-95250000D02*
X129250000Y-94575000D01*
X123940000Y-90000000D02*
X123940000Y-88750000D01*
X129500000Y-95500000D02*
X129250000Y-95250000D01*
D80*
%TO.N,Net-(R24-Pad2)*%
X156225000Y-53500000D02*
X157650000Y-53500000D01*
%TO.N,Net-(U7-EN)*%
X102400000Y-98600000D02*
X101825000Y-98600000D01*
X101825000Y-99675000D02*
X101825000Y-98600000D01*
X103365000Y-97635000D02*
X102400000Y-98600000D01*
X101400000Y-100100000D02*
X101825000Y-99675000D01*
X100725000Y-100100000D02*
X101400000Y-100100000D01*
X104025000Y-97635000D02*
X103365000Y-97635000D01*
D79*
%TO.N,Net-(U8-EN)*%
X124208301Y-60500000D02*
X121296348Y-60500000D01*
X124346348Y-60361953D02*
X124208301Y-60500000D01*
X121296348Y-60500000D02*
X121296347Y-61891147D01*
D80*
%TO.N,Net-(R34-Pad2)*%
X156225000Y-55500000D02*
X157550000Y-55500000D01*
D79*
%TO.N,Net-(U7-VSENSE)*%
X116732879Y-99300000D02*
X117407879Y-98625000D01*
X110800000Y-99300000D02*
X116732879Y-99300000D01*
D80*
X118100000Y-100275000D02*
X117975000Y-100400000D01*
X118100000Y-98625000D02*
X118100000Y-100275000D01*
D79*
X108975000Y-98905000D02*
X110405000Y-98905000D01*
X110405000Y-98905000D02*
X110800000Y-99300000D01*
X117407879Y-98625000D02*
X118100000Y-98625000D01*
%TO.N,Net-(U8-VSENSE)*%
X148469999Y-64100000D02*
X148525000Y-64100000D01*
X147500000Y-63000000D02*
X147500000Y-63130001D01*
X147500000Y-63130001D02*
X148469999Y-64100000D01*
X130964395Y-63300000D02*
X134300000Y-63300000D01*
X134200000Y-60178987D02*
X134302000Y-60280987D01*
X129296348Y-61631953D02*
X130964395Y-63300000D01*
X134302000Y-63298000D02*
X134300000Y-63300000D01*
X134302000Y-60280987D02*
X134302000Y-63298000D01*
X134300000Y-63300000D02*
X138300000Y-63300000D01*
D80*
%TO.N,Net-(U14-G)*%
X115575000Y-118200000D02*
X114650000Y-118200000D01*
X114650000Y-118200000D02*
X113175000Y-119675000D01*
X112400000Y-119675000D02*
X112475000Y-119750000D01*
X113425000Y-119425000D02*
X113175000Y-119675000D01*
X114662500Y-119750000D02*
X113750000Y-119750000D01*
X113750000Y-119750000D02*
X113425000Y-119425000D01*
X114680000Y-119732500D02*
X114662500Y-119750000D01*
X112400000Y-119675000D02*
X113175000Y-119675000D01*
%TO.N,/General/EMAC_TXD-*%
X120130000Y-71250000D02*
X120130000Y-77025263D01*
X115405263Y-81750000D02*
X112437500Y-81750000D01*
X120130000Y-77025263D02*
X115405263Y-81750000D01*
D79*
%TO.N,+5V*%
X108290000Y-125610000D02*
X108290000Y-128250000D01*
X146000000Y-63225000D02*
X146000000Y-58100000D01*
X144850000Y-65500000D02*
X144650000Y-65300000D01*
X145373000Y-68373000D02*
X144650000Y-67650000D01*
X145700000Y-54800000D02*
X144650000Y-54800000D01*
X144650000Y-67650000D02*
X144650000Y-65300000D01*
X146000000Y-54100000D02*
X146000000Y-54500000D01*
X146000000Y-58100000D02*
X144650000Y-56750000D01*
X138600000Y-100700000D02*
X135000000Y-100700000D01*
X144650000Y-56750000D02*
X144650000Y-54800000D01*
X105750000Y-128150000D02*
X105750000Y-128250000D01*
X128700000Y-112400000D02*
X125700000Y-115400000D01*
X146500000Y-65500000D02*
X144850000Y-65500000D01*
X125700000Y-115400000D02*
X113000000Y-115400000D01*
X110600000Y-117800000D02*
X110600000Y-123300000D01*
X162306644Y-98108202D02*
X162306644Y-95306644D01*
X113000000Y-115400000D02*
X110600000Y-117800000D01*
X110600000Y-123300000D02*
X108290000Y-125610000D01*
X149627000Y-68373000D02*
X145373000Y-68373000D01*
X161607423Y-98807423D02*
X162306644Y-98108202D01*
X146875000Y-64100000D02*
X146875000Y-65125000D01*
X146875000Y-64100000D02*
X146000000Y-63225000D01*
X146875000Y-65125000D02*
X146500000Y-65500000D01*
X146000000Y-54500000D02*
X145700000Y-54800000D01*
D80*
%TO.N,/General/EMAC_TX_EN*%
X113281709Y-80527000D02*
X114000000Y-80527000D01*
X121000000Y-73000000D02*
X122490000Y-73000000D01*
X112437500Y-80250000D02*
X113004709Y-80250000D01*
X123940000Y-71550000D02*
X123940000Y-71250000D01*
X113004709Y-80250000D02*
X113281709Y-80527000D01*
X114000000Y-80527000D02*
X114027000Y-80500000D01*
X122490000Y-73000000D02*
X123940000Y-71550000D01*
D79*
%TO.N,+12V?*%
X119675000Y-60688301D02*
X121296348Y-59066953D01*
X91875000Y-96825000D02*
X91875000Y-98550000D01*
X90550000Y-95500000D02*
X91875000Y-96825000D01*
X99500000Y-62100000D02*
X101900000Y-64500000D01*
X92950000Y-98550000D02*
X91875000Y-98550000D01*
X103365000Y-96365000D02*
X104025000Y-96365000D01*
X101000000Y-53127000D02*
X99500000Y-54627000D01*
X96500000Y-96975000D02*
X96475000Y-97000000D01*
X134670000Y-98550000D02*
X135200000Y-98020000D01*
X99500000Y-54627000D02*
X99500000Y-62100000D01*
X101000000Y-96975000D02*
X102755000Y-96975000D01*
X94500000Y-97000000D02*
X92950000Y-98550000D01*
X100175000Y-97800000D02*
X100175000Y-98578874D01*
X131950000Y-98550000D02*
X131900000Y-98500000D01*
X90187500Y-95862500D02*
X90550000Y-95500000D01*
X106065000Y-96365000D02*
X104025000Y-96365000D01*
X111675000Y-62825000D02*
X114500000Y-60000000D01*
X110500000Y-63500000D02*
X110500000Y-62825000D01*
X96475000Y-97000000D02*
X94500000Y-97000000D01*
X133375000Y-98550000D02*
X134670000Y-98550000D01*
X114500000Y-60000000D02*
X114500000Y-58400000D01*
X133375000Y-98550000D02*
X131950000Y-98550000D01*
X87950000Y-95862500D02*
X90187500Y-95862500D01*
X121296348Y-59066953D02*
X124321348Y-59066953D01*
X117796348Y-59066953D02*
X121296348Y-59066953D01*
X101000000Y-96975000D02*
X96500000Y-96975000D01*
X119675000Y-60700000D02*
X119675000Y-60688301D01*
X101900000Y-64500000D02*
X109500000Y-64500000D01*
X101000000Y-96975000D02*
X100175000Y-97800000D01*
X102755000Y-96975000D02*
X103365000Y-96365000D01*
X114000000Y-58900000D02*
X114500000Y-58400000D01*
X112137500Y-58900000D02*
X114000000Y-58900000D01*
X115166953Y-59066953D02*
X114500000Y-58400000D01*
X110500000Y-62825000D02*
X111675000Y-62825000D01*
X117796348Y-59066953D02*
X115166953Y-59066953D01*
X109500000Y-64500000D02*
X110500000Y-63500000D01*
D80*
%TO.N,/General/EMAC_MDC*%
X112437500Y-79250000D02*
X112899999Y-79250000D01*
X112899999Y-79250000D02*
X118860000Y-73289999D01*
X118860000Y-73289999D02*
X118860000Y-71250000D01*
%TO.N,/General/EMAC_RXD+*%
X129451800Y-87739170D02*
X127039630Y-85327000D01*
X129020000Y-88450000D02*
X129451800Y-88018200D01*
X129451800Y-88018200D02*
X129451800Y-87739170D01*
X108927000Y-85327000D02*
X108250000Y-84650000D01*
X129020000Y-88750000D02*
X129020000Y-88450000D01*
X108250000Y-84650000D02*
X108250000Y-82437500D01*
X127039630Y-85327000D02*
X108927000Y-85327000D01*
%TO.N,/General/EMAC_CRS_DV*%
X128000000Y-68500000D02*
X129000000Y-69500000D01*
X111403561Y-73596439D02*
X116500000Y-68500000D01*
X116500000Y-68500000D02*
X128000000Y-68500000D01*
X131560000Y-87500000D02*
X131560000Y-88750000D01*
X111250000Y-77562500D02*
X111250000Y-77050000D01*
X111403561Y-76896439D02*
X111403561Y-73596439D01*
X111250000Y-77050000D02*
X111403561Y-76896439D01*
%TO.N,/General/EMAC_RXD-*%
X127175078Y-85000000D02*
X109100000Y-85000000D01*
X109100000Y-85000000D02*
X108577000Y-84477000D01*
X108577000Y-84477000D02*
X108577000Y-83244251D01*
X129858200Y-87683122D02*
X127175078Y-85000000D01*
X130290000Y-88450000D02*
X129858200Y-88018200D01*
X129858200Y-88018200D02*
X129858200Y-87683122D01*
X108577000Y-83244251D02*
X108750000Y-83071251D01*
X108750000Y-83071251D02*
X108750000Y-82437500D01*
X130290000Y-88750000D02*
X130290000Y-88450000D01*
%TO.N,/General/EMAC_TXD+*%
X123750000Y-75500000D02*
X126480000Y-72770000D01*
X126480000Y-72770000D02*
X126480000Y-71250000D01*
X112585520Y-82437500D02*
X112946020Y-82077000D01*
X122117711Y-75500000D02*
X123750000Y-75500000D01*
X112946020Y-82077000D02*
X115540711Y-82077000D01*
X111750000Y-82437500D02*
X112585520Y-82437500D01*
X115540711Y-82077000D02*
X122117711Y-75500000D01*
%TO.N,/General/EMAC_MDIO*%
X116000000Y-70500000D02*
X117673000Y-68827000D01*
X117673000Y-68827000D02*
X126827000Y-68827000D01*
X126827000Y-68827000D02*
X127750000Y-69750000D01*
X112937551Y-78750000D02*
X116000000Y-75687551D01*
X116000000Y-75687551D02*
X116000000Y-70500000D01*
X127750000Y-69750000D02*
X127750000Y-71250000D01*
X112437500Y-78750000D02*
X112937551Y-78750000D01*
%TO.N,Net-(D7-A)*%
X159300000Y-53500000D02*
X160737500Y-53500000D01*
%TO.N,Net-(U4-CC1)*%
X73500000Y-95252250D02*
X73500000Y-99500000D01*
X80000000Y-99250000D02*
X80000000Y-98000000D01*
X75957250Y-93570000D02*
X75182250Y-93570000D01*
X74500000Y-100500000D02*
X78750000Y-100500000D01*
X78750000Y-100500000D02*
X80000000Y-99250000D01*
X73500000Y-99500000D02*
X74500000Y-100500000D01*
X75182250Y-93570000D02*
X73500000Y-95252250D01*
%TO.N,Net-(U4-CC2)*%
X78500000Y-98000000D02*
X77070000Y-96570000D01*
X77070000Y-96570000D02*
X75957250Y-96570000D01*
X79000000Y-98000000D02*
X78500000Y-98000000D01*
%TO.N,Net-(U4-DP)*%
X75957250Y-94570000D02*
X76586250Y-94570000D01*
X77000000Y-94837750D02*
X77000000Y-95302250D01*
X77000000Y-95302250D02*
X76732250Y-95570000D01*
X76732250Y-95570000D02*
X75957250Y-95570000D01*
X76586250Y-94570000D02*
X76759250Y-94397000D01*
X76732250Y-94570000D02*
X77000000Y-94837750D01*
X76759250Y-94397000D02*
X78365448Y-94397000D01*
X80000000Y-92762448D02*
X80000000Y-92000000D01*
X78365448Y-94397000D02*
X80000000Y-92762448D01*
X75957250Y-94570000D02*
X76732250Y-94570000D01*
%TO.N,Net-(U4-DM)*%
X78230000Y-94070000D02*
X79000000Y-93300000D01*
X75278250Y-95070000D02*
X75000000Y-94791750D01*
X75000000Y-94791750D02*
X75000000Y-94348250D01*
X75278250Y-94070000D02*
X75957250Y-94070000D01*
X75957250Y-95070000D02*
X75278250Y-95070000D01*
X75957250Y-94070000D02*
X78230000Y-94070000D01*
X75000000Y-94348250D02*
X75278250Y-94070000D01*
X79000000Y-93300000D02*
X79000000Y-92000000D01*
%TO.N,Net-(U5-GATE)*%
X90000000Y-97600000D02*
X89152000Y-96752000D01*
X87227001Y-96752000D02*
X87000000Y-96524999D01*
X89152000Y-96752000D02*
X87227001Y-96752000D01*
X87000000Y-96524999D02*
X87000000Y-95862500D01*
%TO.N,Net-(U10-G)*%
X111000000Y-60500000D02*
X111450000Y-60950000D01*
X111000000Y-58837684D02*
X111000000Y-60500000D01*
X112137500Y-57950000D02*
X111887684Y-57950000D01*
X111887684Y-57950000D02*
X111000000Y-58837684D01*
%TO.N,Net-(U12-C1)*%
X125775000Y-131500000D02*
X125250000Y-132025000D01*
X125250000Y-132025000D02*
X125250000Y-133240000D01*
%TD*%
%TA.AperFunction,Conductor*%
%TO.N,GND*%
G36*
X91088299Y-126119685D02*
G01*
X91134054Y-126172489D01*
X91143998Y-126241647D01*
X91114973Y-126305203D01*
X91108941Y-126311681D01*
X91102809Y-126317812D01*
X91016649Y-126432906D01*
X91016645Y-126432913D01*
X90966403Y-126567620D01*
X90966401Y-126567627D01*
X90960000Y-126627155D01*
X90960000Y-128000000D01*
X92960000Y-128000000D01*
X92960000Y-126627172D01*
X92959999Y-126627155D01*
X92953598Y-126567627D01*
X92953596Y-126567620D01*
X92903354Y-126432913D01*
X92903350Y-126432906D01*
X92817190Y-126317812D01*
X92811059Y-126311681D01*
X92777574Y-126250358D01*
X92782558Y-126180666D01*
X92824430Y-126124733D01*
X92889894Y-126100316D01*
X92898740Y-126100000D01*
X93561260Y-126100000D01*
X93628299Y-126119685D01*
X93674054Y-126172489D01*
X93683998Y-126241647D01*
X93654973Y-126305203D01*
X93648941Y-126311681D01*
X93642809Y-126317812D01*
X93556649Y-126432906D01*
X93556645Y-126432913D01*
X93506403Y-126567620D01*
X93506401Y-126567627D01*
X93500000Y-126627155D01*
X93500000Y-128000000D01*
X95500000Y-128000000D01*
X95500000Y-126627172D01*
X95499999Y-126627155D01*
X95493598Y-126567627D01*
X95493596Y-126567620D01*
X95443354Y-126432913D01*
X95443350Y-126432906D01*
X95357190Y-126317812D01*
X95351059Y-126311681D01*
X95317574Y-126250358D01*
X95322558Y-126180666D01*
X95364430Y-126124733D01*
X95429894Y-126100316D01*
X95438740Y-126100000D01*
X96101260Y-126100000D01*
X96168299Y-126119685D01*
X96214054Y-126172489D01*
X96223998Y-126241647D01*
X96194973Y-126305203D01*
X96188941Y-126311681D01*
X96182809Y-126317812D01*
X96096649Y-126432906D01*
X96096645Y-126432913D01*
X96046403Y-126567620D01*
X96046401Y-126567627D01*
X96040000Y-126627155D01*
X96040000Y-128000000D01*
X97166000Y-128000000D01*
X97233039Y-128019685D01*
X97278794Y-128072489D01*
X97290000Y-128124000D01*
X97290000Y-130325000D01*
X97587828Y-130325000D01*
X97587844Y-130324999D01*
X97647372Y-130318598D01*
X97647376Y-130318597D01*
X97782666Y-130268137D01*
X97852358Y-130263153D01*
X97913681Y-130296638D01*
X97947166Y-130357961D01*
X97950000Y-130384319D01*
X97950000Y-131165680D01*
X97930315Y-131232719D01*
X97877511Y-131278474D01*
X97808353Y-131288418D01*
X97782667Y-131281862D01*
X97647379Y-131231403D01*
X97647372Y-131231401D01*
X97587844Y-131225000D01*
X97290000Y-131225000D01*
X97290000Y-133426000D01*
X97270315Y-133493039D01*
X97217511Y-133538794D01*
X97166000Y-133550000D01*
X96040000Y-133550000D01*
X96040000Y-134922844D01*
X96046401Y-134982372D01*
X96046403Y-134982379D01*
X96096645Y-135117086D01*
X96096649Y-135117093D01*
X96182809Y-135232187D01*
X96242315Y-135276734D01*
X96284185Y-135332668D01*
X96289169Y-135402360D01*
X96255683Y-135463682D01*
X96194360Y-135497167D01*
X96168003Y-135500000D01*
X95371997Y-135500000D01*
X95304958Y-135480315D01*
X95259203Y-135427511D01*
X95249259Y-135358353D01*
X95278284Y-135294797D01*
X95297685Y-135276734D01*
X95357190Y-135232187D01*
X95443350Y-135117093D01*
X95443354Y-135117086D01*
X95493596Y-134982379D01*
X95493598Y-134982372D01*
X95499999Y-134922844D01*
X95500000Y-134922827D01*
X95500000Y-133550000D01*
X93500000Y-133550000D01*
X93500000Y-134922844D01*
X93506401Y-134982372D01*
X93506403Y-134982379D01*
X93556645Y-135117086D01*
X93556649Y-135117093D01*
X93642809Y-135232187D01*
X93702315Y-135276734D01*
X93744185Y-135332668D01*
X93749169Y-135402360D01*
X93715683Y-135463682D01*
X93654360Y-135497167D01*
X93628003Y-135500000D01*
X92831997Y-135500000D01*
X92764958Y-135480315D01*
X92719203Y-135427511D01*
X92709259Y-135358353D01*
X92738284Y-135294797D01*
X92757685Y-135276734D01*
X92817190Y-135232187D01*
X92903350Y-135117093D01*
X92903354Y-135117086D01*
X92953596Y-134982379D01*
X92953598Y-134982372D01*
X92959999Y-134922844D01*
X92960000Y-134922827D01*
X92960000Y-133550000D01*
X90960000Y-133550000D01*
X90960000Y-134922844D01*
X90966401Y-134982372D01*
X90966403Y-134982379D01*
X91016645Y-135117086D01*
X91016649Y-135117093D01*
X91102809Y-135232187D01*
X91162315Y-135276734D01*
X91204185Y-135332668D01*
X91209169Y-135402360D01*
X91175683Y-135463682D01*
X91114360Y-135497167D01*
X91088003Y-135500000D01*
X90291997Y-135500000D01*
X90224958Y-135480315D01*
X90179203Y-135427511D01*
X90169259Y-135358353D01*
X90198284Y-135294797D01*
X90217685Y-135276734D01*
X90277190Y-135232187D01*
X90363350Y-135117093D01*
X90363354Y-135117086D01*
X90413596Y-134982379D01*
X90413598Y-134982372D01*
X90419999Y-134922844D01*
X90420000Y-134922827D01*
X90420000Y-133550000D01*
X89294000Y-133550000D01*
X89226961Y-133530315D01*
X89181206Y-133477511D01*
X89170000Y-133426000D01*
X89170000Y-131225000D01*
X89670000Y-131225000D01*
X89670000Y-133050000D01*
X90420000Y-133050000D01*
X90960000Y-133050000D01*
X91710000Y-133050000D01*
X91710000Y-131225000D01*
X92210000Y-131225000D01*
X92210000Y-133050000D01*
X92960000Y-133050000D01*
X93500000Y-133050000D01*
X94250000Y-133050000D01*
X94250000Y-131225000D01*
X94750000Y-131225000D01*
X94750000Y-133050000D01*
X95500000Y-133050000D01*
X96040000Y-133050000D01*
X96790000Y-133050000D01*
X96790000Y-131225000D01*
X96492155Y-131225000D01*
X96432627Y-131231401D01*
X96432620Y-131231403D01*
X96297913Y-131281645D01*
X96297906Y-131281649D01*
X96182812Y-131367809D01*
X96182809Y-131367812D01*
X96096649Y-131482906D01*
X96096645Y-131482913D01*
X96046403Y-131617620D01*
X96046401Y-131617627D01*
X96040000Y-131677155D01*
X96040000Y-133050000D01*
X95500000Y-133050000D01*
X95500000Y-131677172D01*
X95499999Y-131677155D01*
X95493598Y-131617627D01*
X95493596Y-131617620D01*
X95443354Y-131482913D01*
X95443350Y-131482906D01*
X95357190Y-131367812D01*
X95357187Y-131367809D01*
X95242093Y-131281649D01*
X95242086Y-131281645D01*
X95107379Y-131231403D01*
X95107372Y-131231401D01*
X95047844Y-131225000D01*
X94750000Y-131225000D01*
X94250000Y-131225000D01*
X93952155Y-131225000D01*
X93892627Y-131231401D01*
X93892620Y-131231403D01*
X93757913Y-131281645D01*
X93757906Y-131281649D01*
X93642812Y-131367809D01*
X93642809Y-131367812D01*
X93556649Y-131482906D01*
X93556645Y-131482913D01*
X93506403Y-131617620D01*
X93506401Y-131617627D01*
X93500000Y-131677155D01*
X93500000Y-133050000D01*
X92960000Y-133050000D01*
X92960000Y-131677172D01*
X92959999Y-131677155D01*
X92953598Y-131617627D01*
X92953596Y-131617620D01*
X92903354Y-131482913D01*
X92903350Y-131482906D01*
X92817190Y-131367812D01*
X92817187Y-131367809D01*
X92702093Y-131281649D01*
X92702086Y-131281645D01*
X92567379Y-131231403D01*
X92567372Y-131231401D01*
X92507844Y-131225000D01*
X92210000Y-131225000D01*
X91710000Y-131225000D01*
X91412155Y-131225000D01*
X91352627Y-131231401D01*
X91352620Y-131231403D01*
X91217913Y-131281645D01*
X91217906Y-131281649D01*
X91102812Y-131367809D01*
X91102809Y-131367812D01*
X91016649Y-131482906D01*
X91016645Y-131482913D01*
X90966403Y-131617620D01*
X90966401Y-131617627D01*
X90960000Y-131677155D01*
X90960000Y-133050000D01*
X90420000Y-133050000D01*
X90420000Y-131677172D01*
X90419999Y-131677155D01*
X90413598Y-131617627D01*
X90413596Y-131617620D01*
X90363354Y-131482913D01*
X90363350Y-131482906D01*
X90277190Y-131367812D01*
X90277187Y-131367809D01*
X90162093Y-131281649D01*
X90162086Y-131281645D01*
X90027379Y-131231403D01*
X90027372Y-131231401D01*
X89967844Y-131225000D01*
X89670000Y-131225000D01*
X89170000Y-131225000D01*
X88872155Y-131225000D01*
X88812627Y-131231401D01*
X88812620Y-131231403D01*
X88677913Y-131281645D01*
X88677906Y-131281649D01*
X88562812Y-131367809D01*
X88562809Y-131367812D01*
X88473266Y-131487426D01*
X88417332Y-131529297D01*
X88347641Y-131534281D01*
X88286318Y-131500795D01*
X88252834Y-131439472D01*
X88250000Y-131413115D01*
X88250000Y-130136884D01*
X88269685Y-130069845D01*
X88322489Y-130024090D01*
X88391647Y-130014146D01*
X88455203Y-130043171D01*
X88473267Y-130062573D01*
X88562813Y-130182190D01*
X88677906Y-130268350D01*
X88677913Y-130268354D01*
X88812620Y-130318596D01*
X88812627Y-130318598D01*
X88872155Y-130324999D01*
X88872172Y-130325000D01*
X89170000Y-130325000D01*
X89170000Y-128500000D01*
X89670000Y-128500000D01*
X89670000Y-130325000D01*
X89967828Y-130325000D01*
X89967844Y-130324999D01*
X90027372Y-130318598D01*
X90027379Y-130318596D01*
X90162086Y-130268354D01*
X90162093Y-130268350D01*
X90277187Y-130182190D01*
X90277190Y-130182187D01*
X90363350Y-130067093D01*
X90363354Y-130067086D01*
X90413596Y-129932379D01*
X90413598Y-129932372D01*
X90419999Y-129872844D01*
X90420000Y-129872827D01*
X90420000Y-128500000D01*
X90960000Y-128500000D01*
X90960000Y-129872844D01*
X90966401Y-129932372D01*
X90966403Y-129932379D01*
X91016645Y-130067086D01*
X91016649Y-130067093D01*
X91102809Y-130182187D01*
X91102812Y-130182190D01*
X91217906Y-130268350D01*
X91217913Y-130268354D01*
X91352620Y-130318596D01*
X91352627Y-130318598D01*
X91412155Y-130324999D01*
X91412172Y-130325000D01*
X91710000Y-130325000D01*
X91710000Y-128500000D01*
X92210000Y-128500000D01*
X92210000Y-130325000D01*
X92507828Y-130325000D01*
X92507844Y-130324999D01*
X92567372Y-130318598D01*
X92567379Y-130318596D01*
X92702086Y-130268354D01*
X92702093Y-130268350D01*
X92817187Y-130182190D01*
X92817190Y-130182187D01*
X92903350Y-130067093D01*
X92903354Y-130067086D01*
X92953596Y-129932379D01*
X92953598Y-129932372D01*
X92959999Y-129872844D01*
X92960000Y-129872827D01*
X92960000Y-128500000D01*
X93500000Y-128500000D01*
X93500000Y-129872844D01*
X93506401Y-129932372D01*
X93506403Y-129932379D01*
X93556645Y-130067086D01*
X93556649Y-130067093D01*
X93642809Y-130182187D01*
X93642812Y-130182190D01*
X93757906Y-130268350D01*
X93757913Y-130268354D01*
X93892620Y-130318596D01*
X93892627Y-130318598D01*
X93952155Y-130324999D01*
X93952172Y-130325000D01*
X94250000Y-130325000D01*
X94250000Y-128500000D01*
X94750000Y-128500000D01*
X94750000Y-130325000D01*
X95047828Y-130325000D01*
X95047844Y-130324999D01*
X95107372Y-130318598D01*
X95107379Y-130318596D01*
X95242086Y-130268354D01*
X95242093Y-130268350D01*
X95357187Y-130182190D01*
X95357190Y-130182187D01*
X95443350Y-130067093D01*
X95443354Y-130067086D01*
X95493596Y-129932379D01*
X95493598Y-129932372D01*
X95499999Y-129872844D01*
X95500000Y-129872827D01*
X95500000Y-128500000D01*
X96040000Y-128500000D01*
X96040000Y-129872844D01*
X96046401Y-129932372D01*
X96046403Y-129932379D01*
X96096645Y-130067086D01*
X96096649Y-130067093D01*
X96182809Y-130182187D01*
X96182812Y-130182190D01*
X96297906Y-130268350D01*
X96297913Y-130268354D01*
X96432620Y-130318596D01*
X96432627Y-130318598D01*
X96492155Y-130324999D01*
X96492172Y-130325000D01*
X96790000Y-130325000D01*
X96790000Y-128500000D01*
X96040000Y-128500000D01*
X95500000Y-128500000D01*
X94750000Y-128500000D01*
X94250000Y-128500000D01*
X93500000Y-128500000D01*
X92960000Y-128500000D01*
X92210000Y-128500000D01*
X91710000Y-128500000D01*
X90960000Y-128500000D01*
X90420000Y-128500000D01*
X89670000Y-128500000D01*
X89170000Y-128500000D01*
X89170000Y-128124000D01*
X89189685Y-128056961D01*
X89242489Y-128011206D01*
X89294000Y-128000000D01*
X90420000Y-128000000D01*
X90420000Y-126627172D01*
X90419999Y-126627155D01*
X90413598Y-126567627D01*
X90413596Y-126567620D01*
X90363354Y-126432913D01*
X90363350Y-126432906D01*
X90277190Y-126317812D01*
X90271059Y-126311681D01*
X90237574Y-126250358D01*
X90242558Y-126180666D01*
X90284430Y-126124733D01*
X90349894Y-126100316D01*
X90358740Y-126100000D01*
X91021260Y-126100000D01*
X91088299Y-126119685D01*
G37*
%TD.AperFunction*%
%TD*%
%TA.AperFunction,Conductor*%
%TO.N,+5V*%
G36*
X102338299Y-126119685D02*
G01*
X102384054Y-126172489D01*
X102393998Y-126241647D01*
X102364973Y-126305203D01*
X102358941Y-126311681D01*
X102352809Y-126317812D01*
X102266649Y-126432906D01*
X102266645Y-126432913D01*
X102216403Y-126567620D01*
X102216401Y-126567627D01*
X102210000Y-126627155D01*
X102210000Y-128000000D01*
X104210000Y-128000000D01*
X104210000Y-126627172D01*
X104209999Y-126627155D01*
X104203598Y-126567627D01*
X104203596Y-126567620D01*
X104153354Y-126432913D01*
X104153350Y-126432906D01*
X104067190Y-126317812D01*
X104061059Y-126311681D01*
X104027574Y-126250358D01*
X104032558Y-126180666D01*
X104074430Y-126124733D01*
X104139894Y-126100316D01*
X104148740Y-126100000D01*
X104811260Y-126100000D01*
X104878299Y-126119685D01*
X104924054Y-126172489D01*
X104933998Y-126241647D01*
X104904973Y-126305203D01*
X104898941Y-126311681D01*
X104892809Y-126317812D01*
X104806649Y-126432906D01*
X104806645Y-126432913D01*
X104756403Y-126567620D01*
X104756401Y-126567627D01*
X104750000Y-126627155D01*
X104750000Y-128000000D01*
X106750000Y-128000000D01*
X106750000Y-126627172D01*
X106749999Y-126627155D01*
X106743598Y-126567627D01*
X106743596Y-126567620D01*
X106693354Y-126432913D01*
X106693350Y-126432906D01*
X106607190Y-126317812D01*
X106601059Y-126311681D01*
X106567574Y-126250358D01*
X106572558Y-126180666D01*
X106614430Y-126124733D01*
X106679894Y-126100316D01*
X106688740Y-126100000D01*
X107351260Y-126100000D01*
X107418299Y-126119685D01*
X107464054Y-126172489D01*
X107473998Y-126241647D01*
X107444973Y-126305203D01*
X107438941Y-126311681D01*
X107432809Y-126317812D01*
X107346649Y-126432906D01*
X107346645Y-126432913D01*
X107296403Y-126567620D01*
X107296401Y-126567627D01*
X107290000Y-126627155D01*
X107290000Y-128000000D01*
X108416000Y-128000000D01*
X108483039Y-128019685D01*
X108528794Y-128072489D01*
X108540000Y-128124000D01*
X108540000Y-130325000D01*
X108837828Y-130325000D01*
X108837844Y-130324999D01*
X108897372Y-130318598D01*
X108897379Y-130318596D01*
X109032086Y-130268354D01*
X109032093Y-130268350D01*
X109147186Y-130182191D01*
X109176733Y-130142722D01*
X109232667Y-130100851D01*
X109302358Y-130095867D01*
X109363681Y-130129352D01*
X109397166Y-130190675D01*
X109400000Y-130217033D01*
X109400000Y-131332966D01*
X109380315Y-131400005D01*
X109327511Y-131445760D01*
X109258353Y-131455704D01*
X109194797Y-131426679D01*
X109176734Y-131407278D01*
X109147187Y-131367809D01*
X109032093Y-131281649D01*
X109032086Y-131281645D01*
X108897379Y-131231403D01*
X108897372Y-131231401D01*
X108837844Y-131225000D01*
X108540000Y-131225000D01*
X108540000Y-133426000D01*
X108520315Y-133493039D01*
X108467511Y-133538794D01*
X108416000Y-133550000D01*
X107290000Y-133550000D01*
X107290000Y-134922844D01*
X107296401Y-134982372D01*
X107296403Y-134982379D01*
X107346645Y-135117086D01*
X107346649Y-135117093D01*
X107432809Y-135232187D01*
X107492315Y-135276734D01*
X107534185Y-135332668D01*
X107539169Y-135402360D01*
X107505683Y-135463682D01*
X107444360Y-135497167D01*
X107418003Y-135500000D01*
X106621997Y-135500000D01*
X106554958Y-135480315D01*
X106509203Y-135427511D01*
X106499259Y-135358353D01*
X106528284Y-135294797D01*
X106547685Y-135276734D01*
X106607190Y-135232187D01*
X106693350Y-135117093D01*
X106693354Y-135117086D01*
X106743596Y-134982379D01*
X106743598Y-134982372D01*
X106749999Y-134922844D01*
X106750000Y-134922827D01*
X106750000Y-133550000D01*
X104750000Y-133550000D01*
X104750000Y-134922844D01*
X104756401Y-134982372D01*
X104756403Y-134982379D01*
X104806645Y-135117086D01*
X104806649Y-135117093D01*
X104892809Y-135232187D01*
X104952315Y-135276734D01*
X104994185Y-135332668D01*
X104999169Y-135402360D01*
X104965683Y-135463682D01*
X104904360Y-135497167D01*
X104878003Y-135500000D01*
X104081997Y-135500000D01*
X104014958Y-135480315D01*
X103969203Y-135427511D01*
X103959259Y-135358353D01*
X103988284Y-135294797D01*
X104007685Y-135276734D01*
X104067190Y-135232187D01*
X104153350Y-135117093D01*
X104153354Y-135117086D01*
X104203596Y-134982379D01*
X104203598Y-134982372D01*
X104209999Y-134922844D01*
X104210000Y-134922827D01*
X104210000Y-133550000D01*
X102210000Y-133550000D01*
X102210000Y-134922844D01*
X102216401Y-134982372D01*
X102216403Y-134982379D01*
X102266645Y-135117086D01*
X102266649Y-135117093D01*
X102352809Y-135232187D01*
X102412315Y-135276734D01*
X102454185Y-135332668D01*
X102459169Y-135402360D01*
X102425683Y-135463682D01*
X102364360Y-135497167D01*
X102338003Y-135500000D01*
X101541997Y-135500000D01*
X101474958Y-135480315D01*
X101429203Y-135427511D01*
X101419259Y-135358353D01*
X101448284Y-135294797D01*
X101467685Y-135276734D01*
X101527190Y-135232187D01*
X101613350Y-135117093D01*
X101613354Y-135117086D01*
X101663596Y-134982379D01*
X101663598Y-134982372D01*
X101669999Y-134922844D01*
X101670000Y-134922827D01*
X101670000Y-133550000D01*
X100544000Y-133550000D01*
X100476961Y-133530315D01*
X100431206Y-133477511D01*
X100420000Y-133426000D01*
X100420000Y-131225000D01*
X100920000Y-131225000D01*
X100920000Y-133050000D01*
X101670000Y-133050000D01*
X102210000Y-133050000D01*
X102960000Y-133050000D01*
X102960000Y-131225000D01*
X103460000Y-131225000D01*
X103460000Y-133050000D01*
X104210000Y-133050000D01*
X104750000Y-133050000D01*
X105500000Y-133050000D01*
X105500000Y-131225000D01*
X106000000Y-131225000D01*
X106000000Y-133050000D01*
X106750000Y-133050000D01*
X107290000Y-133050000D01*
X108040000Y-133050000D01*
X108040000Y-131225000D01*
X107742155Y-131225000D01*
X107682627Y-131231401D01*
X107682620Y-131231403D01*
X107547913Y-131281645D01*
X107547906Y-131281649D01*
X107432812Y-131367809D01*
X107432809Y-131367812D01*
X107346649Y-131482906D01*
X107346645Y-131482913D01*
X107296403Y-131617620D01*
X107296401Y-131617627D01*
X107290000Y-131677155D01*
X107290000Y-133050000D01*
X106750000Y-133050000D01*
X106750000Y-131677172D01*
X106749999Y-131677155D01*
X106743598Y-131617627D01*
X106743596Y-131617620D01*
X106693354Y-131482913D01*
X106693350Y-131482906D01*
X106607190Y-131367812D01*
X106607187Y-131367809D01*
X106492093Y-131281649D01*
X106492086Y-131281645D01*
X106357379Y-131231403D01*
X106357372Y-131231401D01*
X106297844Y-131225000D01*
X106000000Y-131225000D01*
X105500000Y-131225000D01*
X105202155Y-131225000D01*
X105142627Y-131231401D01*
X105142620Y-131231403D01*
X105007913Y-131281645D01*
X105007906Y-131281649D01*
X104892812Y-131367809D01*
X104892809Y-131367812D01*
X104806649Y-131482906D01*
X104806645Y-131482913D01*
X104756403Y-131617620D01*
X104756401Y-131617627D01*
X104750000Y-131677155D01*
X104750000Y-133050000D01*
X104210000Y-133050000D01*
X104210000Y-131677172D01*
X104209999Y-131677155D01*
X104203598Y-131617627D01*
X104203596Y-131617620D01*
X104153354Y-131482913D01*
X104153350Y-131482906D01*
X104067190Y-131367812D01*
X104067187Y-131367809D01*
X103952093Y-131281649D01*
X103952086Y-131281645D01*
X103817379Y-131231403D01*
X103817372Y-131231401D01*
X103757844Y-131225000D01*
X103460000Y-131225000D01*
X102960000Y-131225000D01*
X102662155Y-131225000D01*
X102602627Y-131231401D01*
X102602620Y-131231403D01*
X102467913Y-131281645D01*
X102467906Y-131281649D01*
X102352812Y-131367809D01*
X102352809Y-131367812D01*
X102266649Y-131482906D01*
X102266645Y-131482913D01*
X102216403Y-131617620D01*
X102216401Y-131617627D01*
X102210000Y-131677155D01*
X102210000Y-133050000D01*
X101670000Y-133050000D01*
X101670000Y-131677172D01*
X101669999Y-131677155D01*
X101663598Y-131617627D01*
X101663596Y-131617620D01*
X101613354Y-131482913D01*
X101613350Y-131482906D01*
X101527190Y-131367812D01*
X101527187Y-131367809D01*
X101412093Y-131281649D01*
X101412086Y-131281645D01*
X101277379Y-131231403D01*
X101277372Y-131231401D01*
X101217844Y-131225000D01*
X100920000Y-131225000D01*
X100420000Y-131225000D01*
X100122155Y-131225000D01*
X100062627Y-131231401D01*
X100062620Y-131231403D01*
X99927913Y-131281645D01*
X99927906Y-131281649D01*
X99898310Y-131303805D01*
X99832845Y-131328222D01*
X99764573Y-131313370D01*
X99715168Y-131263964D01*
X99700000Y-131204538D01*
X99700000Y-130345461D01*
X99719685Y-130278422D01*
X99772489Y-130232667D01*
X99841647Y-130222723D01*
X99898312Y-130246195D01*
X99927910Y-130268352D01*
X99927913Y-130268354D01*
X100062620Y-130318596D01*
X100062627Y-130318598D01*
X100122155Y-130324999D01*
X100122172Y-130325000D01*
X100420000Y-130325000D01*
X100420000Y-128500000D01*
X100920000Y-128500000D01*
X100920000Y-130325000D01*
X101217828Y-130325000D01*
X101217844Y-130324999D01*
X101277372Y-130318598D01*
X101277379Y-130318596D01*
X101412086Y-130268354D01*
X101412093Y-130268350D01*
X101527187Y-130182190D01*
X101527190Y-130182187D01*
X101613350Y-130067093D01*
X101613354Y-130067086D01*
X101663596Y-129932379D01*
X101663598Y-129932372D01*
X101669999Y-129872844D01*
X101670000Y-129872827D01*
X101670000Y-128500000D01*
X102210000Y-128500000D01*
X102210000Y-129872844D01*
X102216401Y-129932372D01*
X102216403Y-129932379D01*
X102266645Y-130067086D01*
X102266649Y-130067093D01*
X102352809Y-130182187D01*
X102352812Y-130182190D01*
X102467906Y-130268350D01*
X102467913Y-130268354D01*
X102602620Y-130318596D01*
X102602627Y-130318598D01*
X102662155Y-130324999D01*
X102662172Y-130325000D01*
X102960000Y-130325000D01*
X102960000Y-128500000D01*
X103460000Y-128500000D01*
X103460000Y-130325000D01*
X103757828Y-130325000D01*
X103757844Y-130324999D01*
X103817372Y-130318598D01*
X103817379Y-130318596D01*
X103952086Y-130268354D01*
X103952093Y-130268350D01*
X104067187Y-130182190D01*
X104067190Y-130182187D01*
X104153350Y-130067093D01*
X104153354Y-130067086D01*
X104203596Y-129932379D01*
X104203598Y-129932372D01*
X104209999Y-129872844D01*
X104210000Y-129872827D01*
X104210000Y-128500000D01*
X104750000Y-128500000D01*
X104750000Y-129872844D01*
X104756401Y-129932372D01*
X104756403Y-129932379D01*
X104806645Y-130067086D01*
X104806649Y-130067093D01*
X104892809Y-130182187D01*
X104892812Y-130182190D01*
X105007906Y-130268350D01*
X105007913Y-130268354D01*
X105142620Y-130318596D01*
X105142627Y-130318598D01*
X105202155Y-130324999D01*
X105202172Y-130325000D01*
X105500000Y-130325000D01*
X105500000Y-128500000D01*
X106000000Y-128500000D01*
X106000000Y-130325000D01*
X106297828Y-130325000D01*
X106297844Y-130324999D01*
X106357372Y-130318598D01*
X106357379Y-130318596D01*
X106492086Y-130268354D01*
X106492093Y-130268350D01*
X106607187Y-130182190D01*
X106607190Y-130182187D01*
X106693350Y-130067093D01*
X106693354Y-130067086D01*
X106743596Y-129932379D01*
X106743598Y-129932372D01*
X106749999Y-129872844D01*
X106750000Y-129872827D01*
X106750000Y-128500000D01*
X107290000Y-128500000D01*
X107290000Y-129872844D01*
X107296401Y-129932372D01*
X107296403Y-129932379D01*
X107346645Y-130067086D01*
X107346649Y-130067093D01*
X107432809Y-130182187D01*
X107432812Y-130182190D01*
X107547906Y-130268350D01*
X107547913Y-130268354D01*
X107682620Y-130318596D01*
X107682627Y-130318598D01*
X107742155Y-130324999D01*
X107742172Y-130325000D01*
X108040000Y-130325000D01*
X108040000Y-128500000D01*
X107290000Y-128500000D01*
X106750000Y-128500000D01*
X106000000Y-128500000D01*
X105500000Y-128500000D01*
X104750000Y-128500000D01*
X104210000Y-128500000D01*
X103460000Y-128500000D01*
X102960000Y-128500000D01*
X102210000Y-128500000D01*
X101670000Y-128500000D01*
X100920000Y-128500000D01*
X100420000Y-128500000D01*
X100420000Y-128124000D01*
X100439685Y-128056961D01*
X100492489Y-128011206D01*
X100544000Y-128000000D01*
X101670000Y-128000000D01*
X101670000Y-126627172D01*
X101669999Y-126627155D01*
X101663598Y-126567627D01*
X101663596Y-126567620D01*
X101613354Y-126432913D01*
X101613350Y-126432906D01*
X101527190Y-126317812D01*
X101521059Y-126311681D01*
X101487574Y-126250358D01*
X101492558Y-126180666D01*
X101534430Y-126124733D01*
X101599894Y-126100316D01*
X101608740Y-126100000D01*
X102271260Y-126100000D01*
X102338299Y-126119685D01*
G37*
%TD.AperFunction*%
%TD*%
%TA.AperFunction,Conductor*%
%TO.N,+12V*%
G36*
X91223352Y-114019685D02*
G01*
X91269107Y-114072489D01*
X91279051Y-114141647D01*
X91250026Y-114205203D01*
X91224558Y-114225726D01*
X91225011Y-114226331D01*
X91102812Y-114317809D01*
X91102809Y-114317812D01*
X91016649Y-114432906D01*
X91016645Y-114432913D01*
X90966403Y-114567620D01*
X90966401Y-114567627D01*
X90960000Y-114627155D01*
X90960000Y-116000000D01*
X92960000Y-116000000D01*
X92960000Y-114627172D01*
X92959999Y-114627155D01*
X92953598Y-114567627D01*
X92953596Y-114567620D01*
X92903354Y-114432913D01*
X92903350Y-114432906D01*
X92817190Y-114317812D01*
X92817187Y-114317809D01*
X92694989Y-114226331D01*
X92696174Y-114224747D01*
X92654854Y-114183426D01*
X92640003Y-114115153D01*
X92664421Y-114049689D01*
X92720355Y-114007818D01*
X92763687Y-114000000D01*
X93696313Y-114000000D01*
X93763352Y-114019685D01*
X93809107Y-114072489D01*
X93819051Y-114141647D01*
X93790026Y-114205203D01*
X93764558Y-114225726D01*
X93765011Y-114226331D01*
X93642812Y-114317809D01*
X93642809Y-114317812D01*
X93556649Y-114432906D01*
X93556645Y-114432913D01*
X93506403Y-114567620D01*
X93506401Y-114567627D01*
X93500000Y-114627155D01*
X93500000Y-116000000D01*
X95500000Y-116000000D01*
X95500000Y-114627172D01*
X95499999Y-114627155D01*
X95493598Y-114567627D01*
X95493596Y-114567620D01*
X95443354Y-114432913D01*
X95443350Y-114432906D01*
X95357190Y-114317812D01*
X95357187Y-114317809D01*
X95234989Y-114226331D01*
X95236174Y-114224747D01*
X95194854Y-114183426D01*
X95180003Y-114115153D01*
X95204421Y-114049689D01*
X95260355Y-114007818D01*
X95303687Y-114000000D01*
X96236313Y-114000000D01*
X96303352Y-114019685D01*
X96349107Y-114072489D01*
X96359051Y-114141647D01*
X96330026Y-114205203D01*
X96304558Y-114225726D01*
X96305011Y-114226331D01*
X96182812Y-114317809D01*
X96182809Y-114317812D01*
X96096649Y-114432906D01*
X96096645Y-114432913D01*
X96046403Y-114567620D01*
X96046401Y-114567627D01*
X96040000Y-114627155D01*
X96040000Y-116000000D01*
X97166000Y-116000000D01*
X97233039Y-116019685D01*
X97278794Y-116072489D01*
X97290000Y-116124000D01*
X97290000Y-118325000D01*
X97587828Y-118325000D01*
X97587844Y-118324999D01*
X97647372Y-118318598D01*
X97647379Y-118318596D01*
X97782086Y-118268354D01*
X97782089Y-118268352D01*
X97901688Y-118178820D01*
X97967152Y-118154402D01*
X98035425Y-118169253D01*
X98084831Y-118218658D01*
X98100000Y-118278086D01*
X98100000Y-119271913D01*
X98080315Y-119338952D01*
X98027511Y-119384707D01*
X97958353Y-119394651D01*
X97901689Y-119371180D01*
X97782088Y-119281646D01*
X97782086Y-119281645D01*
X97647379Y-119231403D01*
X97647372Y-119231401D01*
X97587844Y-119225000D01*
X97290000Y-119225000D01*
X97290000Y-121426000D01*
X97270315Y-121493039D01*
X97217511Y-121538794D01*
X97166000Y-121550000D01*
X96040000Y-121550000D01*
X96040000Y-122922844D01*
X96046401Y-122982372D01*
X96046403Y-122982379D01*
X96096645Y-123117086D01*
X96096649Y-123117093D01*
X96159978Y-123201689D01*
X96184396Y-123267153D01*
X96169545Y-123335426D01*
X96120140Y-123384832D01*
X96060712Y-123400000D01*
X95479288Y-123400000D01*
X95412249Y-123380315D01*
X95366494Y-123327511D01*
X95356550Y-123258353D01*
X95380022Y-123201689D01*
X95443350Y-123117093D01*
X95443354Y-123117086D01*
X95493596Y-122982379D01*
X95493598Y-122982372D01*
X95499999Y-122922844D01*
X95500000Y-122922827D01*
X95500000Y-121550000D01*
X93500000Y-121550000D01*
X93500000Y-122922844D01*
X93506401Y-122982372D01*
X93506403Y-122982379D01*
X93556645Y-123117086D01*
X93556649Y-123117093D01*
X93619978Y-123201689D01*
X93644396Y-123267153D01*
X93629545Y-123335426D01*
X93580140Y-123384832D01*
X93520712Y-123400000D01*
X92939288Y-123400000D01*
X92872249Y-123380315D01*
X92826494Y-123327511D01*
X92816550Y-123258353D01*
X92840022Y-123201689D01*
X92903350Y-123117093D01*
X92903354Y-123117086D01*
X92953596Y-122982379D01*
X92953598Y-122982372D01*
X92959999Y-122922844D01*
X92960000Y-122922827D01*
X92960000Y-121550000D01*
X90960000Y-121550000D01*
X90960000Y-122922844D01*
X90966401Y-122982372D01*
X90966403Y-122982379D01*
X91016645Y-123117086D01*
X91016649Y-123117093D01*
X91079978Y-123201689D01*
X91104396Y-123267153D01*
X91089545Y-123335426D01*
X91040140Y-123384832D01*
X90980712Y-123400000D01*
X90399288Y-123400000D01*
X90332249Y-123380315D01*
X90286494Y-123327511D01*
X90276550Y-123258353D01*
X90300022Y-123201689D01*
X90363350Y-123117093D01*
X90363354Y-123117086D01*
X90413596Y-122982379D01*
X90413598Y-122982372D01*
X90419999Y-122922844D01*
X90420000Y-122922827D01*
X90420000Y-121550000D01*
X89294000Y-121550000D01*
X89226961Y-121530315D01*
X89181206Y-121477511D01*
X89170000Y-121426000D01*
X89170000Y-119225000D01*
X89670000Y-119225000D01*
X89670000Y-121050000D01*
X90420000Y-121050000D01*
X90960000Y-121050000D01*
X91710000Y-121050000D01*
X91710000Y-119225000D01*
X92210000Y-119225000D01*
X92210000Y-121050000D01*
X92960000Y-121050000D01*
X93500000Y-121050000D01*
X94250000Y-121050000D01*
X94250000Y-119225000D01*
X94750000Y-119225000D01*
X94750000Y-121050000D01*
X95500000Y-121050000D01*
X96040000Y-121050000D01*
X96790000Y-121050000D01*
X96790000Y-119225000D01*
X96492155Y-119225000D01*
X96432627Y-119231401D01*
X96432620Y-119231403D01*
X96297913Y-119281645D01*
X96297906Y-119281649D01*
X96182812Y-119367809D01*
X96182809Y-119367812D01*
X96096649Y-119482906D01*
X96096645Y-119482913D01*
X96046403Y-119617620D01*
X96046401Y-119617627D01*
X96040000Y-119677155D01*
X96040000Y-121050000D01*
X95500000Y-121050000D01*
X95500000Y-119677172D01*
X95499999Y-119677155D01*
X95493598Y-119617627D01*
X95493596Y-119617620D01*
X95443354Y-119482913D01*
X95443350Y-119482906D01*
X95357190Y-119367812D01*
X95357187Y-119367809D01*
X95242093Y-119281649D01*
X95242086Y-119281645D01*
X95107379Y-119231403D01*
X95107372Y-119231401D01*
X95047844Y-119225000D01*
X94750000Y-119225000D01*
X94250000Y-119225000D01*
X93952155Y-119225000D01*
X93892627Y-119231401D01*
X93892620Y-119231403D01*
X93757913Y-119281645D01*
X93757906Y-119281649D01*
X93642812Y-119367809D01*
X93642809Y-119367812D01*
X93556649Y-119482906D01*
X93556645Y-119482913D01*
X93506403Y-119617620D01*
X93506401Y-119617627D01*
X93500000Y-119677155D01*
X93500000Y-121050000D01*
X92960000Y-121050000D01*
X92960000Y-119677172D01*
X92959999Y-119677155D01*
X92953598Y-119617627D01*
X92953596Y-119617620D01*
X92903354Y-119482913D01*
X92903350Y-119482906D01*
X92817190Y-119367812D01*
X92817187Y-119367809D01*
X92702093Y-119281649D01*
X92702086Y-119281645D01*
X92567379Y-119231403D01*
X92567372Y-119231401D01*
X92507844Y-119225000D01*
X92210000Y-119225000D01*
X91710000Y-119225000D01*
X91412155Y-119225000D01*
X91352627Y-119231401D01*
X91352620Y-119231403D01*
X91217913Y-119281645D01*
X91217906Y-119281649D01*
X91102812Y-119367809D01*
X91102809Y-119367812D01*
X91016649Y-119482906D01*
X91016645Y-119482913D01*
X90966403Y-119617620D01*
X90966401Y-119617627D01*
X90960000Y-119677155D01*
X90960000Y-121050000D01*
X90420000Y-121050000D01*
X90420000Y-119677172D01*
X90419999Y-119677155D01*
X90413598Y-119617627D01*
X90413596Y-119617620D01*
X90363354Y-119482913D01*
X90363350Y-119482906D01*
X90277190Y-119367812D01*
X90277187Y-119367809D01*
X90162093Y-119281649D01*
X90162086Y-119281645D01*
X90027379Y-119231403D01*
X90027372Y-119231401D01*
X89967844Y-119225000D01*
X89670000Y-119225000D01*
X89170000Y-119225000D01*
X88872155Y-119225000D01*
X88812627Y-119231401D01*
X88812620Y-119231403D01*
X88677913Y-119281645D01*
X88677906Y-119281649D01*
X88598311Y-119341235D01*
X88532847Y-119365653D01*
X88464574Y-119350802D01*
X88415168Y-119301397D01*
X88400000Y-119241969D01*
X88400000Y-118308030D01*
X88419685Y-118240991D01*
X88472489Y-118195236D01*
X88541647Y-118185292D01*
X88598312Y-118208764D01*
X88677910Y-118268352D01*
X88677913Y-118268354D01*
X88812620Y-118318596D01*
X88812627Y-118318598D01*
X88872155Y-118324999D01*
X88872172Y-118325000D01*
X89170000Y-118325000D01*
X89170000Y-116500000D01*
X89670000Y-116500000D01*
X89670000Y-118325000D01*
X89967828Y-118325000D01*
X89967844Y-118324999D01*
X90027372Y-118318598D01*
X90027379Y-118318596D01*
X90162086Y-118268354D01*
X90162093Y-118268350D01*
X90277187Y-118182190D01*
X90277190Y-118182187D01*
X90363350Y-118067093D01*
X90363354Y-118067086D01*
X90413596Y-117932379D01*
X90413598Y-117932372D01*
X90419999Y-117872844D01*
X90420000Y-117872827D01*
X90420000Y-116500000D01*
X90960000Y-116500000D01*
X90960000Y-117872844D01*
X90966401Y-117932372D01*
X90966403Y-117932379D01*
X91016645Y-118067086D01*
X91016649Y-118067093D01*
X91102809Y-118182187D01*
X91102812Y-118182190D01*
X91217906Y-118268350D01*
X91217913Y-118268354D01*
X91352620Y-118318596D01*
X91352627Y-118318598D01*
X91412155Y-118324999D01*
X91412172Y-118325000D01*
X91710000Y-118325000D01*
X91710000Y-116500000D01*
X92210000Y-116500000D01*
X92210000Y-118325000D01*
X92507828Y-118325000D01*
X92507844Y-118324999D01*
X92567372Y-118318598D01*
X92567379Y-118318596D01*
X92702086Y-118268354D01*
X92702093Y-118268350D01*
X92817187Y-118182190D01*
X92817190Y-118182187D01*
X92903350Y-118067093D01*
X92903354Y-118067086D01*
X92953596Y-117932379D01*
X92953598Y-117932372D01*
X92959999Y-117872844D01*
X92960000Y-117872827D01*
X92960000Y-116500000D01*
X93500000Y-116500000D01*
X93500000Y-117872844D01*
X93506401Y-117932372D01*
X93506403Y-117932379D01*
X93556645Y-118067086D01*
X93556649Y-118067093D01*
X93642809Y-118182187D01*
X93642812Y-118182190D01*
X93757906Y-118268350D01*
X93757913Y-118268354D01*
X93892620Y-118318596D01*
X93892627Y-118318598D01*
X93952155Y-118324999D01*
X93952172Y-118325000D01*
X94250000Y-118325000D01*
X94250000Y-116500000D01*
X94750000Y-116500000D01*
X94750000Y-118325000D01*
X95047828Y-118325000D01*
X95047844Y-118324999D01*
X95107372Y-118318598D01*
X95107379Y-118318596D01*
X95242086Y-118268354D01*
X95242093Y-118268350D01*
X95357187Y-118182190D01*
X95357190Y-118182187D01*
X95443350Y-118067093D01*
X95443354Y-118067086D01*
X95493596Y-117932379D01*
X95493598Y-117932372D01*
X95499999Y-117872844D01*
X95500000Y-117872827D01*
X95500000Y-116500000D01*
X96040000Y-116500000D01*
X96040000Y-117872844D01*
X96046401Y-117932372D01*
X96046403Y-117932379D01*
X96096645Y-118067086D01*
X96096649Y-118067093D01*
X96182809Y-118182187D01*
X96182812Y-118182190D01*
X96297906Y-118268350D01*
X96297913Y-118268354D01*
X96432620Y-118318596D01*
X96432627Y-118318598D01*
X96492155Y-118324999D01*
X96492172Y-118325000D01*
X96790000Y-118325000D01*
X96790000Y-116500000D01*
X96040000Y-116500000D01*
X95500000Y-116500000D01*
X94750000Y-116500000D01*
X94250000Y-116500000D01*
X93500000Y-116500000D01*
X92960000Y-116500000D01*
X92210000Y-116500000D01*
X91710000Y-116500000D01*
X90960000Y-116500000D01*
X90420000Y-116500000D01*
X89670000Y-116500000D01*
X89170000Y-116500000D01*
X89170000Y-116124000D01*
X89189685Y-116056961D01*
X89242489Y-116011206D01*
X89294000Y-116000000D01*
X90420000Y-116000000D01*
X90420000Y-114627172D01*
X90419999Y-114627155D01*
X90413598Y-114567627D01*
X90413596Y-114567620D01*
X90363354Y-114432913D01*
X90363350Y-114432906D01*
X90277190Y-114317812D01*
X90277187Y-114317809D01*
X90154989Y-114226331D01*
X90156174Y-114224747D01*
X90114854Y-114183426D01*
X90100003Y-114115153D01*
X90124421Y-114049689D01*
X90180355Y-114007818D01*
X90223687Y-114000000D01*
X91156313Y-114000000D01*
X91223352Y-114019685D01*
G37*
%TD.AperFunction*%
%TD*%
%TA.AperFunction,Conductor*%
%TO.N,+3.3V*%
G36*
X102338299Y-114119685D02*
G01*
X102384054Y-114172489D01*
X102393998Y-114241647D01*
X102364973Y-114305203D01*
X102358941Y-114311681D01*
X102352809Y-114317812D01*
X102266649Y-114432906D01*
X102266645Y-114432913D01*
X102216403Y-114567620D01*
X102216401Y-114567627D01*
X102210000Y-114627155D01*
X102210000Y-116000000D01*
X104210000Y-116000000D01*
X104210000Y-114627172D01*
X104209999Y-114627155D01*
X104203598Y-114567627D01*
X104203596Y-114567620D01*
X104153354Y-114432913D01*
X104153350Y-114432906D01*
X104067190Y-114317812D01*
X104061059Y-114311681D01*
X104027574Y-114250358D01*
X104032558Y-114180666D01*
X104074430Y-114124733D01*
X104139894Y-114100316D01*
X104148740Y-114100000D01*
X104811260Y-114100000D01*
X104878299Y-114119685D01*
X104924054Y-114172489D01*
X104933998Y-114241647D01*
X104904973Y-114305203D01*
X104898941Y-114311681D01*
X104892809Y-114317812D01*
X104806649Y-114432906D01*
X104806645Y-114432913D01*
X104756403Y-114567620D01*
X104756401Y-114567627D01*
X104750000Y-114627155D01*
X104750000Y-116000000D01*
X106750000Y-116000000D01*
X106750000Y-114627172D01*
X106749999Y-114627155D01*
X106743598Y-114567627D01*
X106743596Y-114567620D01*
X106693354Y-114432913D01*
X106693350Y-114432906D01*
X106607190Y-114317812D01*
X106601059Y-114311681D01*
X106567574Y-114250358D01*
X106572558Y-114180666D01*
X106614430Y-114124733D01*
X106679894Y-114100316D01*
X106688740Y-114100000D01*
X107351260Y-114100000D01*
X107418299Y-114119685D01*
X107464054Y-114172489D01*
X107473998Y-114241647D01*
X107444973Y-114305203D01*
X107438941Y-114311681D01*
X107432809Y-114317812D01*
X107346649Y-114432906D01*
X107346645Y-114432913D01*
X107296403Y-114567620D01*
X107296401Y-114567627D01*
X107290000Y-114627155D01*
X107290000Y-116000000D01*
X108416000Y-116000000D01*
X108483039Y-116019685D01*
X108528794Y-116072489D01*
X108540000Y-116124000D01*
X108540000Y-118325000D01*
X108837828Y-118325000D01*
X108837844Y-118324999D01*
X108897372Y-118318598D01*
X108897376Y-118318597D01*
X109032666Y-118268137D01*
X109102358Y-118263153D01*
X109163681Y-118296638D01*
X109197166Y-118357961D01*
X109200000Y-118384319D01*
X109200000Y-119165680D01*
X109180315Y-119232719D01*
X109127511Y-119278474D01*
X109058353Y-119288418D01*
X109032667Y-119281862D01*
X108897379Y-119231403D01*
X108897372Y-119231401D01*
X108837844Y-119225000D01*
X108540000Y-119225000D01*
X108540000Y-121426000D01*
X108520315Y-121493039D01*
X108467511Y-121538794D01*
X108416000Y-121550000D01*
X107290000Y-121550000D01*
X107290000Y-122922844D01*
X107296401Y-122982372D01*
X107296403Y-122982379D01*
X107346645Y-123117086D01*
X107346649Y-123117093D01*
X107432809Y-123232187D01*
X107492315Y-123276734D01*
X107534185Y-123332668D01*
X107539169Y-123402360D01*
X107505683Y-123463682D01*
X107444360Y-123497167D01*
X107418003Y-123500000D01*
X106621997Y-123500000D01*
X106554958Y-123480315D01*
X106509203Y-123427511D01*
X106499259Y-123358353D01*
X106528284Y-123294797D01*
X106547685Y-123276734D01*
X106607190Y-123232187D01*
X106693350Y-123117093D01*
X106693354Y-123117086D01*
X106743596Y-122982379D01*
X106743598Y-122982372D01*
X106749999Y-122922844D01*
X106750000Y-122922827D01*
X106750000Y-121550000D01*
X104750000Y-121550000D01*
X104750000Y-122922844D01*
X104756401Y-122982372D01*
X104756403Y-122982379D01*
X104806645Y-123117086D01*
X104806649Y-123117093D01*
X104892809Y-123232187D01*
X104952315Y-123276734D01*
X104994185Y-123332668D01*
X104999169Y-123402360D01*
X104965683Y-123463682D01*
X104904360Y-123497167D01*
X104878003Y-123500000D01*
X104081997Y-123500000D01*
X104014958Y-123480315D01*
X103969203Y-123427511D01*
X103959259Y-123358353D01*
X103988284Y-123294797D01*
X104007685Y-123276734D01*
X104067190Y-123232187D01*
X104153350Y-123117093D01*
X104153354Y-123117086D01*
X104203596Y-122982379D01*
X104203598Y-122982372D01*
X104209999Y-122922844D01*
X104210000Y-122922827D01*
X104210000Y-121550000D01*
X102210000Y-121550000D01*
X102210000Y-122922844D01*
X102216401Y-122982372D01*
X102216403Y-122982379D01*
X102266645Y-123117086D01*
X102266649Y-123117093D01*
X102352809Y-123232187D01*
X102412315Y-123276734D01*
X102454185Y-123332668D01*
X102459169Y-123402360D01*
X102425683Y-123463682D01*
X102364360Y-123497167D01*
X102338003Y-123500000D01*
X101541997Y-123500000D01*
X101474958Y-123480315D01*
X101429203Y-123427511D01*
X101419259Y-123358353D01*
X101448284Y-123294797D01*
X101467685Y-123276734D01*
X101527190Y-123232187D01*
X101613350Y-123117093D01*
X101613354Y-123117086D01*
X101663596Y-122982379D01*
X101663598Y-122982372D01*
X101669999Y-122922844D01*
X101670000Y-122922827D01*
X101670000Y-121550000D01*
X100544000Y-121550000D01*
X100476961Y-121530315D01*
X100431206Y-121477511D01*
X100420000Y-121426000D01*
X100420000Y-119225000D01*
X100920000Y-119225000D01*
X100920000Y-121050000D01*
X101670000Y-121050000D01*
X102210000Y-121050000D01*
X102960000Y-121050000D01*
X102960000Y-119225000D01*
X103460000Y-119225000D01*
X103460000Y-121050000D01*
X104210000Y-121050000D01*
X104750000Y-121050000D01*
X105500000Y-121050000D01*
X105500000Y-119225000D01*
X106000000Y-119225000D01*
X106000000Y-121050000D01*
X106750000Y-121050000D01*
X107290000Y-121050000D01*
X108040000Y-121050000D01*
X108040000Y-119225000D01*
X107742155Y-119225000D01*
X107682627Y-119231401D01*
X107682620Y-119231403D01*
X107547913Y-119281645D01*
X107547906Y-119281649D01*
X107432812Y-119367809D01*
X107432809Y-119367812D01*
X107346649Y-119482906D01*
X107346645Y-119482913D01*
X107296403Y-119617620D01*
X107296401Y-119617627D01*
X107290000Y-119677155D01*
X107290000Y-121050000D01*
X106750000Y-121050000D01*
X106750000Y-119677172D01*
X106749999Y-119677155D01*
X106743598Y-119617627D01*
X106743596Y-119617620D01*
X106693354Y-119482913D01*
X106693350Y-119482906D01*
X106607190Y-119367812D01*
X106607187Y-119367809D01*
X106492093Y-119281649D01*
X106492086Y-119281645D01*
X106357379Y-119231403D01*
X106357372Y-119231401D01*
X106297844Y-119225000D01*
X106000000Y-119225000D01*
X105500000Y-119225000D01*
X105202155Y-119225000D01*
X105142627Y-119231401D01*
X105142620Y-119231403D01*
X105007913Y-119281645D01*
X105007906Y-119281649D01*
X104892812Y-119367809D01*
X104892809Y-119367812D01*
X104806649Y-119482906D01*
X104806645Y-119482913D01*
X104756403Y-119617620D01*
X104756401Y-119617627D01*
X104750000Y-119677155D01*
X104750000Y-121050000D01*
X104210000Y-121050000D01*
X104210000Y-119677172D01*
X104209999Y-119677155D01*
X104203598Y-119617627D01*
X104203596Y-119617620D01*
X104153354Y-119482913D01*
X104153350Y-119482906D01*
X104067190Y-119367812D01*
X104067187Y-119367809D01*
X103952093Y-119281649D01*
X103952086Y-119281645D01*
X103817379Y-119231403D01*
X103817372Y-119231401D01*
X103757844Y-119225000D01*
X103460000Y-119225000D01*
X102960000Y-119225000D01*
X102662155Y-119225000D01*
X102602627Y-119231401D01*
X102602620Y-119231403D01*
X102467913Y-119281645D01*
X102467906Y-119281649D01*
X102352812Y-119367809D01*
X102352809Y-119367812D01*
X102266649Y-119482906D01*
X102266645Y-119482913D01*
X102216403Y-119617620D01*
X102216401Y-119617627D01*
X102210000Y-119677155D01*
X102210000Y-121050000D01*
X101670000Y-121050000D01*
X101670000Y-119677172D01*
X101669999Y-119677155D01*
X101663598Y-119617627D01*
X101663596Y-119617620D01*
X101613354Y-119482913D01*
X101613350Y-119482906D01*
X101527190Y-119367812D01*
X101527187Y-119367809D01*
X101412093Y-119281649D01*
X101412086Y-119281645D01*
X101277379Y-119231403D01*
X101277372Y-119231401D01*
X101217844Y-119225000D01*
X100920000Y-119225000D01*
X100420000Y-119225000D01*
X100122155Y-119225000D01*
X100062627Y-119231401D01*
X100062620Y-119231403D01*
X99927913Y-119281645D01*
X99927906Y-119281649D01*
X99812812Y-119367809D01*
X99812809Y-119367812D01*
X99723266Y-119487426D01*
X99667332Y-119529297D01*
X99597641Y-119534281D01*
X99536318Y-119500795D01*
X99502834Y-119439472D01*
X99500000Y-119413115D01*
X99500000Y-118136884D01*
X99519685Y-118069845D01*
X99572489Y-118024090D01*
X99641647Y-118014146D01*
X99705203Y-118043171D01*
X99723267Y-118062573D01*
X99812813Y-118182190D01*
X99927906Y-118268350D01*
X99927913Y-118268354D01*
X100062620Y-118318596D01*
X100062627Y-118318598D01*
X100122155Y-118324999D01*
X100122172Y-118325000D01*
X100420000Y-118325000D01*
X100420000Y-116500000D01*
X100920000Y-116500000D01*
X100920000Y-118325000D01*
X101217828Y-118325000D01*
X101217844Y-118324999D01*
X101277372Y-118318598D01*
X101277379Y-118318596D01*
X101412086Y-118268354D01*
X101412093Y-118268350D01*
X101527187Y-118182190D01*
X101527190Y-118182187D01*
X101613350Y-118067093D01*
X101613354Y-118067086D01*
X101663596Y-117932379D01*
X101663598Y-117932372D01*
X101669999Y-117872844D01*
X101670000Y-117872827D01*
X101670000Y-116500000D01*
X102210000Y-116500000D01*
X102210000Y-117872844D01*
X102216401Y-117932372D01*
X102216403Y-117932379D01*
X102266645Y-118067086D01*
X102266649Y-118067093D01*
X102352809Y-118182187D01*
X102352812Y-118182190D01*
X102467906Y-118268350D01*
X102467913Y-118268354D01*
X102602620Y-118318596D01*
X102602627Y-118318598D01*
X102662155Y-118324999D01*
X102662172Y-118325000D01*
X102960000Y-118325000D01*
X102960000Y-116500000D01*
X103460000Y-116500000D01*
X103460000Y-118325000D01*
X103757828Y-118325000D01*
X103757844Y-118324999D01*
X103817372Y-118318598D01*
X103817379Y-118318596D01*
X103952086Y-118268354D01*
X103952093Y-118268350D01*
X104067187Y-118182190D01*
X104067190Y-118182187D01*
X104153350Y-118067093D01*
X104153354Y-118067086D01*
X104203596Y-117932379D01*
X104203598Y-117932372D01*
X104209999Y-117872844D01*
X104210000Y-117872827D01*
X104210000Y-116500000D01*
X104750000Y-116500000D01*
X104750000Y-117872844D01*
X104756401Y-117932372D01*
X104756403Y-117932379D01*
X104806645Y-118067086D01*
X104806649Y-118067093D01*
X104892809Y-118182187D01*
X104892812Y-118182190D01*
X105007906Y-118268350D01*
X105007913Y-118268354D01*
X105142620Y-118318596D01*
X105142627Y-118318598D01*
X105202155Y-118324999D01*
X105202172Y-118325000D01*
X105500000Y-118325000D01*
X105500000Y-116500000D01*
X106000000Y-116500000D01*
X106000000Y-118325000D01*
X106297828Y-118325000D01*
X106297844Y-118324999D01*
X106357372Y-118318598D01*
X106357379Y-118318596D01*
X106492086Y-118268354D01*
X106492093Y-118268350D01*
X106607187Y-118182190D01*
X106607190Y-118182187D01*
X106693350Y-118067093D01*
X106693354Y-118067086D01*
X106743596Y-117932379D01*
X106743598Y-117932372D01*
X106749999Y-117872844D01*
X106750000Y-117872827D01*
X106750000Y-116500000D01*
X107290000Y-116500000D01*
X107290000Y-117872844D01*
X107296401Y-117932372D01*
X107296403Y-117932379D01*
X107346645Y-118067086D01*
X107346649Y-118067093D01*
X107432809Y-118182187D01*
X107432812Y-118182190D01*
X107547906Y-118268350D01*
X107547913Y-118268354D01*
X107682620Y-118318596D01*
X107682627Y-118318598D01*
X107742155Y-118324999D01*
X107742172Y-118325000D01*
X108040000Y-118325000D01*
X108040000Y-116500000D01*
X107290000Y-116500000D01*
X106750000Y-116500000D01*
X106000000Y-116500000D01*
X105500000Y-116500000D01*
X104750000Y-116500000D01*
X104210000Y-116500000D01*
X103460000Y-116500000D01*
X102960000Y-116500000D01*
X102210000Y-116500000D01*
X101670000Y-116500000D01*
X100920000Y-116500000D01*
X100420000Y-116500000D01*
X100420000Y-116124000D01*
X100439685Y-116056961D01*
X100492489Y-116011206D01*
X100544000Y-116000000D01*
X101670000Y-116000000D01*
X101670000Y-114627172D01*
X101669999Y-114627155D01*
X101663598Y-114567627D01*
X101663596Y-114567620D01*
X101613354Y-114432913D01*
X101613350Y-114432906D01*
X101527190Y-114317812D01*
X101521059Y-114311681D01*
X101487574Y-114250358D01*
X101492558Y-114180666D01*
X101534430Y-114124733D01*
X101599894Y-114100316D01*
X101608740Y-114100000D01*
X102271260Y-114100000D01*
X102338299Y-114119685D01*
G37*
%TD.AperFunction*%
%TD*%
%TA.AperFunction,Conductor*%
%TO.N,Net-(C4-Pad2)*%
G36*
X76846814Y-70142020D02*
G01*
X76892569Y-70194824D01*
X76902513Y-70263982D01*
X76873488Y-70327538D01*
X76849626Y-70348789D01*
X76630832Y-70497958D01*
X76630830Y-70497959D01*
X76438570Y-70676351D01*
X76438562Y-70676360D01*
X76275028Y-70881426D01*
X76143883Y-71108573D01*
X76048058Y-71352729D01*
X75989695Y-71608441D01*
X75989694Y-71608448D01*
X75988828Y-71620000D01*
X76806116Y-71620000D01*
X76775000Y-71776433D01*
X76775000Y-71963567D01*
X76806116Y-72120000D01*
X75988828Y-72120000D01*
X75989593Y-72130203D01*
X75974975Y-72198526D01*
X75925739Y-72248100D01*
X75857517Y-72263186D01*
X75791970Y-72238993D01*
X75771650Y-72220004D01*
X75716116Y-72154983D01*
X75716111Y-72154977D01*
X75660023Y-72098889D01*
X75463143Y-71930737D01*
X75398969Y-71884112D01*
X75178207Y-71748829D01*
X75178205Y-71748828D01*
X75178188Y-71748818D01*
X75107538Y-71712821D01*
X74868330Y-71613738D01*
X74868328Y-71613737D01*
X74833534Y-71602432D01*
X74792886Y-71589224D01*
X74541125Y-71528781D01*
X74462778Y-71516372D01*
X74204666Y-71496058D01*
X74204661Y-71496058D01*
X74125339Y-71496058D01*
X74125333Y-71496058D01*
X73867221Y-71516372D01*
X73867220Y-71516372D01*
X73788880Y-71528780D01*
X73788877Y-71528780D01*
X73788875Y-71528781D01*
X73537114Y-71589224D01*
X73537111Y-71589225D01*
X73461671Y-71613737D01*
X73461669Y-71613738D01*
X73222461Y-71712821D01*
X73151811Y-71748818D01*
X73151782Y-71748835D01*
X72931043Y-71884104D01*
X72931037Y-71884108D01*
X72931031Y-71884112D01*
X72866857Y-71930737D01*
X72866849Y-71930743D01*
X72669983Y-72098883D01*
X72669969Y-72098896D01*
X72613896Y-72154969D01*
X72613883Y-72154983D01*
X72445743Y-72351849D01*
X72445738Y-72351855D01*
X72445737Y-72351857D01*
X72399112Y-72416031D01*
X72399108Y-72416037D01*
X72399104Y-72416043D01*
X72263835Y-72636782D01*
X72263818Y-72636811D01*
X72227821Y-72707461D01*
X72128738Y-72946669D01*
X72128737Y-72946671D01*
X72105176Y-73019184D01*
X72104224Y-73022114D01*
X72051424Y-73242039D01*
X72043780Y-73273880D01*
X72031372Y-73352220D01*
X72031372Y-73352221D01*
X72011708Y-73602085D01*
X72011058Y-73610339D01*
X72011058Y-73689661D01*
X72031372Y-73947778D01*
X72043781Y-74026125D01*
X72104224Y-74277886D01*
X72104225Y-74277888D01*
X72128737Y-74353328D01*
X72128738Y-74353330D01*
X72227821Y-74592538D01*
X72263818Y-74663188D01*
X72263828Y-74663205D01*
X72263829Y-74663207D01*
X72399112Y-74883969D01*
X72445737Y-74948143D01*
X72613889Y-75145023D01*
X72669977Y-75201111D01*
X72866857Y-75369263D01*
X72931031Y-75415888D01*
X73151793Y-75551171D01*
X73151800Y-75551174D01*
X73151811Y-75551181D01*
X73222461Y-75587178D01*
X73222467Y-75587180D01*
X73222470Y-75587182D01*
X73461676Y-75686264D01*
X73537114Y-75710776D01*
X73788875Y-75771219D01*
X73867222Y-75783628D01*
X74125339Y-75803942D01*
X74125347Y-75803942D01*
X74204653Y-75803942D01*
X74204661Y-75803942D01*
X74462778Y-75783628D01*
X74541125Y-75771219D01*
X74792886Y-75710776D01*
X74868324Y-75686264D01*
X75107530Y-75587182D01*
X75107538Y-75587178D01*
X75178188Y-75551181D01*
X75178192Y-75551178D01*
X75178207Y-75551171D01*
X75398969Y-75415888D01*
X75463143Y-75369263D01*
X75660023Y-75201111D01*
X75716111Y-75145023D01*
X75884263Y-74948143D01*
X75930888Y-74883969D01*
X76066171Y-74663207D01*
X76102182Y-74592530D01*
X76201264Y-74353324D01*
X76225776Y-74277886D01*
X76286219Y-74026125D01*
X76298628Y-73947778D01*
X76318942Y-73689661D01*
X76318942Y-73610339D01*
X76298628Y-73352222D01*
X76286219Y-73273875D01*
X76273366Y-73220339D01*
X76276855Y-73150559D01*
X76317518Y-73093740D01*
X76382444Y-73067926D01*
X76451020Y-73081311D01*
X76478280Y-73100494D01*
X76630830Y-73242039D01*
X76630832Y-73242041D01*
X76847546Y-73389793D01*
X76847550Y-73389795D01*
X77083854Y-73503594D01*
X77083858Y-73503595D01*
X77334494Y-73580907D01*
X77334502Y-73580909D01*
X77475000Y-73602085D01*
X77475000Y-72788883D01*
X77631433Y-72820000D01*
X77818567Y-72820000D01*
X77975000Y-72788883D01*
X77975000Y-73602084D01*
X78115497Y-73580909D01*
X78115505Y-73580907D01*
X78366143Y-73503595D01*
X78602445Y-73389798D01*
X78602454Y-73389793D01*
X78819167Y-73242041D01*
X78819169Y-73242040D01*
X79011429Y-73063648D01*
X79011437Y-73063639D01*
X79174971Y-72858573D01*
X79306116Y-72631426D01*
X79401941Y-72387270D01*
X79460304Y-72131558D01*
X79460305Y-72131551D01*
X79461172Y-72120000D01*
X78643884Y-72120000D01*
X78675000Y-71963567D01*
X78675000Y-71776433D01*
X78643884Y-71620000D01*
X79461171Y-71620000D01*
X79460305Y-71608448D01*
X79460304Y-71608441D01*
X79401941Y-71352729D01*
X79306116Y-71108573D01*
X79306117Y-71108573D01*
X79174971Y-70881426D01*
X79011437Y-70676360D01*
X79011429Y-70676351D01*
X78819169Y-70497959D01*
X78819167Y-70497958D01*
X78600375Y-70348789D01*
X78556073Y-70294760D01*
X78548013Y-70225357D01*
X78578756Y-70162614D01*
X78638540Y-70126452D01*
X78670226Y-70122335D01*
X81399577Y-70122335D01*
X81466616Y-70142020D01*
X81512371Y-70194824D01*
X81523575Y-70246692D01*
X81506968Y-75996548D01*
X81506887Y-76024658D01*
X81487009Y-76091640D01*
X81434073Y-76137243D01*
X81382888Y-76148300D01*
X81170126Y-76148300D01*
X81012012Y-76148300D01*
X80859284Y-76189223D01*
X80859283Y-76189223D01*
X80859281Y-76189224D01*
X80859278Y-76189225D01*
X80809165Y-76218159D01*
X80809164Y-76218160D01*
X80765758Y-76243220D01*
X80722354Y-76268279D01*
X80722351Y-76268281D01*
X80610547Y-76380086D01*
X79778029Y-77212603D01*
X79716706Y-77246088D01*
X79647014Y-77241104D01*
X79591081Y-77199232D01*
X79566664Y-77133768D01*
X79580792Y-77068822D01*
X79580246Y-77068568D01*
X79581373Y-77066150D01*
X79581516Y-77065495D01*
X79582478Y-77063781D01*
X79582532Y-77063664D01*
X79582534Y-77063662D01*
X79675894Y-76863450D01*
X79733070Y-76650068D01*
X79752323Y-76430000D01*
X79733070Y-76209932D01*
X79675894Y-75996550D01*
X79582534Y-75796339D01*
X79455826Y-75615380D01*
X79299620Y-75459174D01*
X79299616Y-75459171D01*
X79299615Y-75459170D01*
X79118666Y-75332468D01*
X79118662Y-75332466D01*
X79118660Y-75332465D01*
X78918450Y-75239106D01*
X78918447Y-75239105D01*
X78918445Y-75239104D01*
X78705070Y-75181930D01*
X78705062Y-75181929D01*
X78485002Y-75162677D01*
X78484998Y-75162677D01*
X78264937Y-75181929D01*
X78264929Y-75181930D01*
X78051554Y-75239104D01*
X78051548Y-75239107D01*
X77851340Y-75332465D01*
X77851338Y-75332466D01*
X77670377Y-75459175D01*
X77514175Y-75615377D01*
X77387466Y-75796338D01*
X77387465Y-75796340D01*
X77294107Y-75996548D01*
X77294104Y-75996555D01*
X77250133Y-76160657D01*
X77213768Y-76220317D01*
X77150921Y-76250846D01*
X77098265Y-76248338D01*
X76925072Y-76201931D01*
X76925070Y-76201930D01*
X76925068Y-76201930D01*
X76925066Y-76201929D01*
X76925062Y-76201929D01*
X76705002Y-76182677D01*
X76704998Y-76182677D01*
X76484937Y-76201929D01*
X76484929Y-76201930D01*
X76271554Y-76259104D01*
X76271548Y-76259107D01*
X76071340Y-76352465D01*
X76071338Y-76352466D01*
X75890377Y-76479175D01*
X75734175Y-76635377D01*
X75607466Y-76816338D01*
X75607465Y-76816340D01*
X75514107Y-77016548D01*
X75514104Y-77016554D01*
X75456930Y-77229929D01*
X75456929Y-77229937D01*
X75437677Y-77449997D01*
X75437677Y-77450002D01*
X75456929Y-77670062D01*
X75456930Y-77670070D01*
X75514104Y-77883445D01*
X75514105Y-77883447D01*
X75514106Y-77883450D01*
X75545113Y-77949945D01*
X75607466Y-78083662D01*
X75607468Y-78083666D01*
X75734170Y-78264615D01*
X75734175Y-78264621D01*
X75851872Y-78382318D01*
X75885357Y-78443641D01*
X75880373Y-78513333D01*
X75851873Y-78557680D01*
X75734172Y-78675381D01*
X75607466Y-78856338D01*
X75607465Y-78856340D01*
X75514107Y-79056548D01*
X75514104Y-79056554D01*
X75456930Y-79269929D01*
X75456929Y-79269937D01*
X75437677Y-79489997D01*
X75437677Y-79490002D01*
X75456929Y-79710062D01*
X75456930Y-79710070D01*
X75514104Y-79923445D01*
X75514105Y-79923447D01*
X75514106Y-79923450D01*
X75607466Y-80123662D01*
X75607468Y-80123666D01*
X75734170Y-80304615D01*
X75734175Y-80304621D01*
X75851872Y-80422318D01*
X75885357Y-80483641D01*
X75880373Y-80553333D01*
X75851873Y-80597680D01*
X75734172Y-80715381D01*
X75607466Y-80896338D01*
X75607465Y-80896340D01*
X75514107Y-81096548D01*
X75514104Y-81096554D01*
X75456930Y-81309929D01*
X75456929Y-81309937D01*
X75437677Y-81529997D01*
X75437677Y-81530002D01*
X75456929Y-81750062D01*
X75456930Y-81750070D01*
X75514104Y-81963445D01*
X75514105Y-81963447D01*
X75514106Y-81963450D01*
X75607466Y-82163662D01*
X75607468Y-82163666D01*
X75734170Y-82344615D01*
X75734175Y-82344621D01*
X75851872Y-82462318D01*
X75885357Y-82523641D01*
X75880373Y-82593333D01*
X75851873Y-82637680D01*
X75734172Y-82755381D01*
X75607466Y-82936338D01*
X75607465Y-82936340D01*
X75514107Y-83136548D01*
X75514104Y-83136554D01*
X75456930Y-83349929D01*
X75456929Y-83349937D01*
X75437677Y-83569997D01*
X75437677Y-83570002D01*
X75456929Y-83790062D01*
X75456930Y-83790070D01*
X75514104Y-84003445D01*
X75514105Y-84003447D01*
X75514106Y-84003450D01*
X75536055Y-84050519D01*
X75607466Y-84203662D01*
X75607468Y-84203666D01*
X75734170Y-84384615D01*
X75734175Y-84384621D01*
X75890378Y-84540824D01*
X75890384Y-84540829D01*
X76071333Y-84667531D01*
X76071335Y-84667532D01*
X76071338Y-84667534D01*
X76271550Y-84760894D01*
X76484932Y-84818070D01*
X76642123Y-84831822D01*
X76704998Y-84837323D01*
X76705000Y-84837323D01*
X76705002Y-84837323D01*
X76760017Y-84832509D01*
X76925068Y-84818070D01*
X77138450Y-84760894D01*
X77338662Y-84667534D01*
X77519620Y-84540826D01*
X77675826Y-84384620D01*
X77784946Y-84228781D01*
X77788730Y-84223377D01*
X77843307Y-84179752D01*
X77890305Y-84170500D01*
X79310160Y-84170500D01*
X79310176Y-84170501D01*
X79317772Y-84170501D01*
X79475883Y-84170501D01*
X79475886Y-84170501D01*
X79628614Y-84129577D01*
X79678733Y-84100639D01*
X79765545Y-84050520D01*
X79877349Y-83938716D01*
X79877349Y-83938714D01*
X79887557Y-83928507D01*
X79887558Y-83928504D01*
X79899850Y-83916213D01*
X79961172Y-83882733D01*
X79987525Y-83879900D01*
X81359840Y-83879900D01*
X81426879Y-83899585D01*
X81472634Y-83952389D01*
X81483838Y-84004257D01*
X81483477Y-84129576D01*
X81471919Y-88130593D01*
X81452041Y-88197576D01*
X81399105Y-88243178D01*
X81329918Y-88252921D01*
X81282823Y-88235774D01*
X81169124Y-88165643D01*
X81169119Y-88165641D01*
X81002697Y-88110494D01*
X81002690Y-88110493D01*
X80899986Y-88100000D01*
X80775000Y-88100000D01*
X80775000Y-89626000D01*
X80763087Y-89666572D01*
X78957792Y-89666572D01*
X78890753Y-89646887D01*
X78844998Y-89594083D01*
X78835054Y-89524925D01*
X78864079Y-89461369D01*
X78873451Y-89451674D01*
X79011429Y-89323648D01*
X79011437Y-89323639D01*
X79174971Y-89118573D01*
X79218613Y-89042985D01*
X79269180Y-88994769D01*
X79337787Y-88981546D01*
X79402652Y-89007514D01*
X79443180Y-89064428D01*
X79450000Y-89104984D01*
X79450000Y-89249999D01*
X79450002Y-89250000D01*
X80275000Y-89250000D01*
X80275000Y-88100000D01*
X80150027Y-88100000D01*
X80150012Y-88100001D01*
X80047302Y-88110494D01*
X79880880Y-88165641D01*
X79880875Y-88165643D01*
X79731657Y-88257682D01*
X79623507Y-88365832D01*
X79562184Y-88399316D01*
X79492492Y-88394332D01*
X79471082Y-88380000D01*
X78643884Y-88380000D01*
X78675000Y-88223567D01*
X78675000Y-88036433D01*
X78643884Y-87880000D01*
X79461171Y-87880000D01*
X79460305Y-87868448D01*
X79460304Y-87868441D01*
X79401941Y-87612729D01*
X79306116Y-87368573D01*
X79306117Y-87368573D01*
X79174971Y-87141426D01*
X79011437Y-86936360D01*
X79011429Y-86936351D01*
X78819169Y-86757959D01*
X78819167Y-86757958D01*
X78602454Y-86610206D01*
X78602445Y-86610201D01*
X78366142Y-86496404D01*
X78366144Y-86496404D01*
X78115512Y-86419094D01*
X78115506Y-86419093D01*
X77975000Y-86397914D01*
X77975000Y-87211116D01*
X77818567Y-87180000D01*
X77631433Y-87180000D01*
X77475000Y-87211116D01*
X77475000Y-86397914D01*
X77334493Y-86419093D01*
X77334487Y-86419094D01*
X77083858Y-86496404D01*
X77083854Y-86496405D01*
X76847550Y-86610204D01*
X76847546Y-86610206D01*
X76630835Y-86757956D01*
X76478280Y-86899506D01*
X76415748Y-86930674D01*
X76346291Y-86923087D01*
X76291962Y-86879153D01*
X76270011Y-86812822D01*
X76273365Y-86779664D01*
X76286219Y-86726125D01*
X76298628Y-86647778D01*
X76318942Y-86389661D01*
X76318942Y-86310339D01*
X76298628Y-86052222D01*
X76286219Y-85973875D01*
X76225776Y-85722114D01*
X76201264Y-85646676D01*
X76102182Y-85407470D01*
X76102180Y-85407467D01*
X76102178Y-85407461D01*
X76066181Y-85336811D01*
X76066174Y-85336800D01*
X76066171Y-85336793D01*
X75930888Y-85116031D01*
X75884263Y-85051857D01*
X75716111Y-84854977D01*
X75660023Y-84798889D01*
X75463143Y-84630737D01*
X75398969Y-84584112D01*
X75398956Y-84584104D01*
X75178217Y-84448835D01*
X75178188Y-84448818D01*
X75107538Y-84412821D01*
X74868330Y-84313738D01*
X74868328Y-84313737D01*
X74833534Y-84302432D01*
X74792886Y-84289224D01*
X74541125Y-84228781D01*
X74462778Y-84216372D01*
X74204666Y-84196058D01*
X74204661Y-84196058D01*
X74125339Y-84196058D01*
X74125333Y-84196058D01*
X73867221Y-84216372D01*
X73867220Y-84216372D01*
X73788880Y-84228780D01*
X73788877Y-84228780D01*
X73788875Y-84228781D01*
X73537114Y-84289224D01*
X73537111Y-84289225D01*
X73461671Y-84313737D01*
X73461669Y-84313738D01*
X73222461Y-84412821D01*
X73151811Y-84448818D01*
X73151782Y-84448835D01*
X72931043Y-84584104D01*
X72931037Y-84584108D01*
X72931031Y-84584112D01*
X72866857Y-84630737D01*
X72866849Y-84630743D01*
X72669983Y-84798883D01*
X72669969Y-84798896D01*
X72613896Y-84854969D01*
X72613883Y-84854983D01*
X72445743Y-85051849D01*
X72445738Y-85051855D01*
X72445737Y-85051857D01*
X72399112Y-85116031D01*
X72399108Y-85116037D01*
X72399104Y-85116043D01*
X72263835Y-85336782D01*
X72263818Y-85336811D01*
X72227821Y-85407461D01*
X72128738Y-85646669D01*
X72128737Y-85646671D01*
X72104225Y-85722111D01*
X72043780Y-85973880D01*
X72031372Y-86052220D01*
X72031372Y-86052221D01*
X72011058Y-86310333D01*
X72011058Y-86389666D01*
X72013520Y-86420943D01*
X72031372Y-86647778D01*
X72043781Y-86726125D01*
X72104224Y-86977886D01*
X72107377Y-86987590D01*
X72128737Y-87053328D01*
X72128738Y-87053330D01*
X72227821Y-87292538D01*
X72263818Y-87363188D01*
X72263828Y-87363205D01*
X72263829Y-87363207D01*
X72399112Y-87583969D01*
X72445737Y-87648143D01*
X72613889Y-87845023D01*
X72669977Y-87901111D01*
X72866857Y-88069263D01*
X72931031Y-88115888D01*
X72982385Y-88147357D01*
X73018963Y-88169773D01*
X73065838Y-88221585D01*
X73077261Y-88290514D01*
X73049604Y-88354677D01*
X72991648Y-88393702D01*
X72954173Y-88399500D01*
X72800097Y-88399500D01*
X72733058Y-88379815D01*
X72712416Y-88363181D01*
X70636819Y-86287584D01*
X70603334Y-86226261D01*
X70600500Y-86199903D01*
X70600500Y-70246335D01*
X70620185Y-70179296D01*
X70672989Y-70133541D01*
X70724500Y-70122335D01*
X76779775Y-70122335D01*
X76846814Y-70142020D01*
G37*
%TD.AperFunction*%
%TA.AperFunction,Conductor*%
G36*
X75959071Y-87778657D02*
G01*
X75988549Y-87842004D01*
X75989593Y-87869796D01*
X75988828Y-87880000D01*
X76806116Y-87880000D01*
X76775000Y-88036433D01*
X76775000Y-88223567D01*
X76806116Y-88380000D01*
X75973689Y-88380000D01*
X75947505Y-88395596D01*
X75916634Y-88399500D01*
X75375827Y-88399500D01*
X75308788Y-88379815D01*
X75263033Y-88327011D01*
X75253089Y-88257853D01*
X75282114Y-88194297D01*
X75311037Y-88169773D01*
X75329216Y-88158632D01*
X75398969Y-88115888D01*
X75463143Y-88069263D01*
X75660023Y-87901111D01*
X75716111Y-87845023D01*
X75771650Y-87779994D01*
X75830157Y-87741802D01*
X75900024Y-87741303D01*
X75959071Y-87778657D01*
G37*
%TD.AperFunction*%
%TD*%
M02*
