M48
; DRILL file {KiCad 8.0.1} date 2024-06-12T15:48:30+0200
; FORMAT={-:-/ absolute / inch / decimal}
; #@! TF.CreationDate,2024-06-12T15:48:30+02:00
; #@! TF.GenerationSoftware,Kicad,Pcbnew,8.0.1
; #@! TF.FileFunction,Plated,1,2,PTH
FMAT,2
INCH
; #@! TA.AperFunction,Plated,PTH,ViaDrill
T1C0.0118
; #@! TA.AperFunction,Plated,PTH,ComponentDrill
T2C0.0118
; #@! TA.AperFunction,Plated,PTH,ComponentDrill
T3C0.0236
; #@! TA.AperFunction,Plated,PTH,ComponentDrill
T4C0.0350
; #@! TA.AperFunction,Plated,PTH,ComponentDrill
T5C0.0360
; #@! TA.AperFunction,Plated,PTH,ComponentDrill
T6C0.0413
; #@! TA.AperFunction,Plated,PTH,ComponentDrill
T7C0.0748
%
G90
G05
T1
X3.0304Y-3.6024
X3.0315Y-3.6417
X3.0315Y-3.8287
X3.0315Y-3.8878
X3.1496Y-3.7205
X3.1496Y-3.7598
X3.189Y-3.7205
X3.189Y-3.7598
X3.2283Y-3.7205
X3.2283Y-3.7598
X3.3071Y-3.8976
X3.3465Y-3.4941
X3.3465Y-3.7402
X3.3465Y-3.8583
X3.4154Y-3.4055
X3.4252Y-2.6575
X3.437Y-3.9163
X3.5581Y-3.6614
X3.5728Y-5.1476
X3.5787Y-4.0984
X3.5875Y-3.0227
X3.5892Y-3.914
X3.6122Y-3.2746
X3.6199Y-3.9449
X3.6202Y-3.9163
X3.6713Y-5.1476
X3.6732Y-4.1417
X3.7165Y-3.7165
X3.7697Y-2.8248
X3.7697Y-5.1476
X3.8189Y-4.7717
X3.8189Y-4.815
X3.8465Y-3.9445
X3.8976Y-3.8976
X3.937Y-3.0039
X3.9388Y-3.2451
X3.9449Y-3.122
X3.9451Y-3.5952
X3.9469Y-3.4843
X3.9645Y-3.2578
X3.9653Y-3.0161
X3.9764Y-2.0916
X3.9764Y-3.1201
X3.9854Y-3.0365
X3.9857Y-3.277
X3.995Y-3.9639
X4.0059Y-3.1201
X4.0453Y-3.7008
X4.0472Y-2.5079
X4.0675Y-3.6345
X4.1142Y-2.9213
X4.1457Y-3.9409
X4.1496Y-3.3071
X4.1652Y-3.0903
X4.1653Y-3.1475
X4.1655Y-3.1189
X4.1758Y-3.7939
X4.1925Y-3.213
X4.2126Y-2.687
X4.2323Y-2.9232
X4.252Y-2.6811
X4.2717Y-3.4154
X4.2815Y-2.2835
X4.2815Y-2.7854
X4.3039Y-3.0118
X4.3139Y-3.2781
X4.3307Y-2.7953
X4.3583Y-2.9035
X4.3996Y-3.5728
X4.4036Y-2.132
X4.4055Y-4.4843
X4.4094Y-2.7559
X4.4193Y-3.3071
X4.4381Y-2.7559
X4.4384Y-2.8744
X4.439Y-3.4154
X4.4488Y-3.0315
X4.452Y-4.8551
X4.4587Y-4.813
X4.4685Y-3.1299
X4.4696Y-5.0492
X4.4738Y-3.7939
X4.4873Y-2.133
X4.4893Y-3.1693
X4.5079Y-2.185
X4.5197Y-2.9331
X4.5571Y-3.5827
X4.5787Y-4.7126
X4.5787Y-4.8661
X4.5866Y-3.248
X4.5866Y-3.9567
X4.626Y-3.3869
X4.6295Y-2.8543
X4.7047Y-2.1752
X4.7244Y-3.4347
X4.7638Y-2.874
X4.7795Y-2.757
X4.7854Y-2.6122
X4.7933Y-2.5492
X4.811Y-3.626
X4.8228Y-3.3957
X4.8228Y-5.1969
X4.8307Y-2.757
X4.8309Y-3.4475
X4.8346Y-2.5886
X4.8795Y-3.5433
X4.9016Y-5.0984
X4.9055Y-4.5984
X4.9104Y-4.9114
X4.9445Y-4.8269
X4.9529Y-5.1417
X4.9606Y-4.8858
X4.9685Y-4.7795
X4.9961Y-4.1063
X4.9961Y-4.689
X5.0Y-3.9567
X5.0039Y-4.8819
X5.0197Y-3.8287
X5.0197Y-4.9803
X5.0199Y-3.6612
X5.0394Y-4.1142
X5.0472Y-3.9331
X5.0669Y-4.4252
X5.0689Y-5.0197
X5.0709Y-3.9567
X5.0709Y-4.0984
X5.0787Y-2.7362
X5.1181Y-3.7598
X5.1378Y-2.7362
X5.1795Y-3.4449
X5.1929Y-3.878
X5.2067Y-2.1576
X5.2362Y-2.3071
X5.2365Y-2.8462
X5.2795Y-2.7559
X5.315Y-3.9646
X5.3307Y-3.6507
X5.3445Y-2.298
X5.3701Y-3.5598
X5.3839Y-3.376
X5.3976Y-4.5276
X5.4016Y-4.5591
X5.4076Y-3.5806
X5.4449Y-2.4921
X5.4488Y-3.5984
X5.4567Y-3.9646
X5.4587Y-3.2933
X5.4764Y-3.189
X5.4921Y-2.136
X5.5Y-3.2795
X5.502Y-2.1074
X5.5374Y-3.2676
X5.5785Y-3.6321
X5.5866Y-3.2478
X5.6063Y-2.4528
X5.6102Y-3.4449
X5.6398Y-2.3563
X5.6505Y-2.6722
X5.6581Y-3.2283
X5.689Y-3.9606
X5.689Y-4.1024
X5.6988Y-3.9291
X5.6988Y-4.1339
X5.7283Y-3.9134
X5.7283Y-4.1535
X5.7299Y-3.585
X5.731Y-3.6312
X5.748Y-2.1299
X5.7579Y-2.1752
X5.7579Y-3.6535
X5.7579Y-4.1535
X5.7618Y-3.9134
X5.7848Y-3.2097
X5.7874Y-3.9291
X5.7874Y-4.1339
X5.7972Y-3.9587
X5.7972Y-4.1043
X5.8051Y-3.561
X5.8071Y-2.4803
X5.8465Y-2.1555
X5.8465Y-3.189
X5.8563Y-2.3917
X5.8811Y-3.5362
X5.8908Y-2.6919
X5.8957Y-2.6181
X5.9547Y-2.1074
X5.9646Y-2.7165
X6.0097Y-2.313
X6.0118Y-2.3425
X6.1437Y-3.5374
X6.1693Y-3.561
X6.1929Y-3.5846
X6.2146Y-3.6102
X6.2362Y-3.6299
X6.2638Y-3.6516
X6.2992Y-2.6969
X6.3625Y-3.8901
X6.39Y-3.7522
X6.4035Y-3.9587
X6.4035Y-4.1004
X6.4134Y-3.9272
X6.4134Y-4.1319
X6.437Y-3.189
X6.4429Y-3.9075
X6.4429Y-4.1516
X6.4469Y-2.2638
X6.4724Y-3.9075
X6.4724Y-4.1516
X6.502Y-3.9272
X6.502Y-4.1319
X6.5118Y-3.9567
X6.5118Y-4.1024
T2
X4.2756Y-3.0945
X4.2756Y-3.1496
X4.2756Y-3.2047
X4.3307Y-3.0945
X4.3307Y-3.1496
X4.3307Y-3.2047
X4.3858Y-3.0945
X4.3858Y-3.1496
X4.3858Y-3.2047
X4.8634Y-3.1811
X4.8634Y-3.2362
X4.8909Y-3.1535
X4.8909Y-3.2087
X4.8909Y-3.2638
X4.9185Y-3.1811
X4.9185Y-3.2362
X4.9461Y-3.1535
X4.9461Y-3.2087
X4.9461Y-3.2638
X4.9736Y-3.1811
X4.9736Y-3.2362
T4
X5.6189Y-2.874
X5.6189Y-3.774
X5.6384Y-4.2732
X5.6384Y-5.1732
X5.7189Y-2.874
X5.7189Y-3.774
X5.7384Y-4.2732
X5.7384Y-5.1732
X5.8189Y-2.874
X5.8189Y-3.774
X5.8384Y-4.2732
X5.8384Y-5.1732
X5.9189Y-2.874
X5.9189Y-3.774
X5.9384Y-4.2732
X5.9384Y-5.1732
X6.0189Y-2.874
X6.0189Y-3.774
X6.0384Y-4.2732
X6.0384Y-5.1732
X6.1189Y-2.874
X6.1189Y-3.774
X6.1384Y-4.2732
X6.1384Y-5.1732
X6.2189Y-2.874
X6.2189Y-3.774
X6.2384Y-4.2732
X6.2384Y-5.1732
X6.3189Y-2.874
X6.3189Y-3.774
X6.3384Y-4.2732
X6.3384Y-5.1732
T5
X3.0199Y-3.0492
X3.0199Y-3.1295
X3.0199Y-3.2098
X3.0199Y-3.2902
X3.09Y-3.0091
X3.09Y-3.0894
X3.09Y-3.1697
X3.09Y-3.25
X3.2793Y-2.8795
X3.2793Y-2.9697
X3.2793Y-3.3295
X3.2793Y-3.4197
T6
X2.9142Y-2.2835
X3.0142Y-2.2835
X3.1142Y-2.2835
X3.2142Y-2.2835
X4.1118Y-2.2835
X4.2118Y-2.2835
T7
X3.06Y-2.8295
X3.06Y-3.4697
T3
G00X2.8202Y-3.563
M15
G01X2.7887Y-3.563
M16
G05
G00X2.8202Y-3.9031
M15
G01X2.7887Y-3.9031
M16
G05
G00X2.9895Y-3.563
M15
G01X2.9462Y-3.563
M16
G05
G00X2.9895Y-3.9031
M15
G01X2.9462Y-3.9031
M16
G05
M30
