%TF.GenerationSoftware,KiCad,Pcbnew,8.0.1*%
%TF.CreationDate,2024-06-24T00:08:31+02:00*%
%TF.ProjectId,Lichtstab,4c696368-7473-4746-9162-2e6b69636164,rev?*%
%TF.SameCoordinates,Original*%
%TF.FileFunction,Profile,NP*%
%FSLAX46Y46*%
G04 Gerber Fmt 4.6, Leading zero omitted, Abs format (unit mm)*
G04 Created by KiCad (PCBNEW 8.0.1) date 2024-06-24 00:08:31*
%MOMM*%
%LPD*%
G01*
G04 APERTURE LIST*
%TA.AperFunction,Profile*%
%ADD10C,0.038100*%
%TD*%
G04 APERTURE END LIST*
D10*
X87500000Y-108400000D02*
X87500000Y-130000000D01*
X165000000Y-103300000D02*
X165000000Y-101500000D01*
X74500000Y-101500000D02*
X90600000Y-101500000D01*
X169000000Y-101500000D02*
X169000000Y-49000000D01*
X85500000Y-136700000D02*
X85500000Y-131800000D01*
X92600000Y-103300000D02*
X92600000Y-101500000D01*
X169000000Y-136700000D02*
X169000000Y-103300000D01*
X146900000Y-103300000D02*
X146900000Y-101500000D01*
X85500000Y-136700000D02*
X68500000Y-136700000D01*
X85500000Y-106600000D02*
X85500000Y-103300000D01*
X126800000Y-101500000D02*
X126800000Y-103300000D01*
X85500000Y-108400000D02*
X85500000Y-130000000D01*
X87500000Y-106600000D02*
X85500000Y-106600000D01*
X90600000Y-101500000D02*
X90600000Y-103300000D01*
X72500000Y-101500000D02*
X72500000Y-103300000D01*
X85500000Y-108400000D02*
X87500000Y-108400000D01*
X68500000Y-49000000D02*
X68500000Y-101500000D01*
X110700000Y-101500000D02*
X126800000Y-101500000D01*
X128800000Y-103300000D02*
X128800000Y-101500000D01*
X68500000Y-103300000D02*
X68500000Y-136700000D01*
X126800000Y-103300000D02*
X110700000Y-103300000D01*
X87500000Y-106600000D02*
X87500000Y-103300000D01*
X87500000Y-103300000D02*
X90600000Y-103300000D01*
X108700000Y-103300000D02*
X92600000Y-103300000D01*
X110700000Y-103300000D02*
X110700000Y-101500000D01*
X72500000Y-101500000D02*
X68500000Y-101500000D01*
X146900000Y-101500000D02*
X163000000Y-101500000D01*
X169000000Y-103300000D02*
X165000000Y-103300000D01*
X85500000Y-130000000D02*
X87500000Y-130000000D01*
X128800000Y-101500000D02*
X144900000Y-101500000D01*
X165000000Y-101500000D02*
X169000000Y-101500000D01*
X144900000Y-101500000D02*
X144900000Y-103300000D01*
X74500000Y-103300000D02*
X74500000Y-101500000D01*
X144900000Y-103300000D02*
X128800000Y-103300000D01*
X163000000Y-103300000D02*
X163000000Y-101500000D01*
X169000000Y-49000000D02*
X68500000Y-49000000D01*
X87500000Y-131800000D02*
X87500000Y-136700000D01*
X92600000Y-101500000D02*
X108700000Y-101500000D01*
X163000000Y-103300000D02*
X146900000Y-103300000D01*
X87500000Y-136700000D02*
X169000000Y-136700000D01*
X108700000Y-101500000D02*
X108700000Y-103300000D01*
X72500000Y-103300000D02*
X68500000Y-103300000D01*
X85500000Y-103300000D02*
X74500000Y-103300000D01*
X87500000Y-131800000D02*
X85500000Y-131800000D01*
%TO.C,J1*%
X74423117Y-72020314D02*
X74674878Y-72080757D01*
X74914084Y-72179839D01*
X75134846Y-72315122D01*
X75331726Y-72483274D01*
X75499878Y-72680154D01*
X75635161Y-72900916D01*
X75734243Y-73140122D01*
X75794686Y-73391883D01*
X75815000Y-73650000D01*
X75794686Y-73908117D01*
X75734243Y-74159878D01*
X75635161Y-74399084D01*
X75499878Y-74619846D01*
X75331726Y-74816726D01*
X75134846Y-74984878D01*
X74914084Y-75120161D01*
X74674878Y-75219243D01*
X74423117Y-75279686D01*
X74165000Y-75300000D01*
X73906883Y-75279686D01*
X73655122Y-75219243D01*
X73415916Y-75120161D01*
X73195154Y-74984878D01*
X72998274Y-74816726D01*
X72830122Y-74619846D01*
X72694839Y-74399084D01*
X72595757Y-74159878D01*
X72535314Y-73908117D01*
X72515000Y-73650000D01*
X72535314Y-73391883D01*
X72595757Y-73140122D01*
X72694839Y-72900916D01*
X72830122Y-72680154D01*
X72998274Y-72483274D01*
X73195154Y-72315122D01*
X73415916Y-72179839D01*
X73655122Y-72080757D01*
X73906883Y-72020314D01*
X74165000Y-72000000D01*
X74423117Y-72020314D01*
%TA.AperFunction,Profile*%
G36*
X74423117Y-72020314D02*
G01*
X74674878Y-72080757D01*
X74914084Y-72179839D01*
X75134846Y-72315122D01*
X75331726Y-72483274D01*
X75499878Y-72680154D01*
X75635161Y-72900916D01*
X75734243Y-73140122D01*
X75794686Y-73391883D01*
X75815000Y-73650000D01*
X75794686Y-73908117D01*
X75734243Y-74159878D01*
X75635161Y-74399084D01*
X75499878Y-74619846D01*
X75331726Y-74816726D01*
X75134846Y-74984878D01*
X74914084Y-75120161D01*
X74674878Y-75219243D01*
X74423117Y-75279686D01*
X74165000Y-75300000D01*
X73906883Y-75279686D01*
X73655122Y-75219243D01*
X73415916Y-75120161D01*
X73195154Y-74984878D01*
X72998274Y-74816726D01*
X72830122Y-74619846D01*
X72694839Y-74399084D01*
X72595757Y-74159878D01*
X72535314Y-73908117D01*
X72515000Y-73650000D01*
X72535314Y-73391883D01*
X72595757Y-73140122D01*
X72694839Y-72900916D01*
X72830122Y-72680154D01*
X72998274Y-72483274D01*
X73195154Y-72315122D01*
X73415916Y-72179839D01*
X73655122Y-72080757D01*
X73906883Y-72020314D01*
X74165000Y-72000000D01*
X74423117Y-72020314D01*
G37*
%TD.AperFunction*%
X74423117Y-84720314D02*
X74674878Y-84780757D01*
X74914084Y-84879839D01*
X75134846Y-85015122D01*
X75331726Y-85183274D01*
X75499878Y-85380154D01*
X75635161Y-85600916D01*
X75734243Y-85840122D01*
X75794686Y-86091883D01*
X75815000Y-86350000D01*
X75794686Y-86608117D01*
X75734243Y-86859878D01*
X75635161Y-87099084D01*
X75499878Y-87319846D01*
X75331726Y-87516726D01*
X75134846Y-87684878D01*
X74914084Y-87820161D01*
X74674878Y-87919243D01*
X74423117Y-87979686D01*
X74165000Y-88000000D01*
X73906883Y-87979686D01*
X73655122Y-87919243D01*
X73415916Y-87820161D01*
X73195154Y-87684878D01*
X72998274Y-87516726D01*
X72830122Y-87319846D01*
X72694839Y-87099084D01*
X72595757Y-86859878D01*
X72535314Y-86608117D01*
X72515000Y-86350000D01*
X72535314Y-86091883D01*
X72595757Y-85840122D01*
X72694839Y-85600916D01*
X72830122Y-85380154D01*
X72998274Y-85183274D01*
X73195154Y-85015122D01*
X73415916Y-84879839D01*
X73655122Y-84780757D01*
X73906883Y-84720314D01*
X74165000Y-84700000D01*
X74423117Y-84720314D01*
%TA.AperFunction,Profile*%
G36*
X74423117Y-84720314D02*
G01*
X74674878Y-84780757D01*
X74914084Y-84879839D01*
X75134846Y-85015122D01*
X75331726Y-85183274D01*
X75499878Y-85380154D01*
X75635161Y-85600916D01*
X75734243Y-85840122D01*
X75794686Y-86091883D01*
X75815000Y-86350000D01*
X75794686Y-86608117D01*
X75734243Y-86859878D01*
X75635161Y-87099084D01*
X75499878Y-87319846D01*
X75331726Y-87516726D01*
X75134846Y-87684878D01*
X74914084Y-87820161D01*
X74674878Y-87919243D01*
X74423117Y-87979686D01*
X74165000Y-88000000D01*
X73906883Y-87979686D01*
X73655122Y-87919243D01*
X73415916Y-87820161D01*
X73195154Y-87684878D01*
X72998274Y-87516726D01*
X72830122Y-87319846D01*
X72694839Y-87099084D01*
X72595757Y-86859878D01*
X72535314Y-86608117D01*
X72515000Y-86350000D01*
X72535314Y-86091883D01*
X72595757Y-85840122D01*
X72694839Y-85600916D01*
X72830122Y-85380154D01*
X72998274Y-85183274D01*
X73195154Y-85015122D01*
X73415916Y-84879839D01*
X73655122Y-84780757D01*
X73906883Y-84720314D01*
X74165000Y-84700000D01*
X74423117Y-84720314D01*
G37*
%TD.AperFunction*%
%TO.C,USB1*%
X74993907Y-91624600D02*
X75091656Y-91681036D01*
X75164208Y-91767500D01*
X75202813Y-91873564D01*
X75202813Y-91986436D01*
X75164208Y-92092500D01*
X75091656Y-92178964D01*
X74993907Y-92235400D01*
X74882750Y-92255000D01*
X74771593Y-92235400D01*
X74673844Y-92178964D01*
X74601292Y-92092500D01*
X74562687Y-91986436D01*
X74562687Y-91873564D01*
X74601292Y-91767500D01*
X74673844Y-91681036D01*
X74771593Y-91624600D01*
X74882750Y-91605000D01*
X74993907Y-91624600D01*
%TA.AperFunction,Profile*%
G36*
X74993907Y-91624600D02*
G01*
X75091656Y-91681036D01*
X75164208Y-91767500D01*
X75202813Y-91873564D01*
X75202813Y-91986436D01*
X75164208Y-92092500D01*
X75091656Y-92178964D01*
X74993907Y-92235400D01*
X74882750Y-92255000D01*
X74771593Y-92235400D01*
X74673844Y-92178964D01*
X74601292Y-92092500D01*
X74562687Y-91986436D01*
X74562687Y-91873564D01*
X74601292Y-91767500D01*
X74673844Y-91681036D01*
X74771593Y-91624600D01*
X74882750Y-91605000D01*
X74993907Y-91624600D01*
G37*
%TD.AperFunction*%
X74993907Y-97404600D02*
X75091656Y-97461036D01*
X75164208Y-97547500D01*
X75202813Y-97653564D01*
X75202813Y-97766436D01*
X75164208Y-97872500D01*
X75091656Y-97958964D01*
X74993907Y-98015400D01*
X74882750Y-98035000D01*
X74771593Y-98015400D01*
X74673844Y-97958964D01*
X74601292Y-97872500D01*
X74562687Y-97766436D01*
X74562687Y-97653564D01*
X74601292Y-97547500D01*
X74673844Y-97461036D01*
X74771593Y-97404600D01*
X74882750Y-97385000D01*
X74993907Y-97404600D01*
%TA.AperFunction,Profile*%
G36*
X74993907Y-97404600D02*
G01*
X75091656Y-97461036D01*
X75164208Y-97547500D01*
X75202813Y-97653564D01*
X75202813Y-97766436D01*
X75164208Y-97872500D01*
X75091656Y-97958964D01*
X74993907Y-98015400D01*
X74882750Y-98035000D01*
X74771593Y-98015400D01*
X74673844Y-97958964D01*
X74601292Y-97872500D01*
X74562687Y-97766436D01*
X74562687Y-97653564D01*
X74601292Y-97547500D01*
X74673844Y-97461036D01*
X74771593Y-97404600D01*
X74882750Y-97385000D01*
X74993907Y-97404600D01*
G37*
%TD.AperFunction*%
%TD*%
M02*
