M48
; DRILL file {KiCad 8.0.1} date 2024-06-26T17:42:30+0200
; FORMAT={-:-/ absolute / inch / decimal}
; #@! TF.CreationDate,2024-06-26T17:42:30+02:00
; #@! TF.GenerationSoftware,Kicad,Pcbnew,8.0.1
; #@! TF.FileFunction,NonPlated,1,4,NPTH
FMAT,2
INCH
; #@! TA.AperFunction,NonPlated,NPTH,ComponentDrill
T1C0.0197
; #@! TA.AperFunction,NonPlated,NPTH,ComponentDrill
T2C0.0787
%
G90
G05
T1
X3.565Y-3.9961
X3.565Y-4.0669
X3.6437Y-3.9961
X3.6437Y-4.0669
X4.2795Y-3.9961
X4.2795Y-4.0669
X4.3583Y-3.9961
X4.3583Y-4.0669
X4.9921Y-3.9961
X4.9921Y-4.0669
X5.0709Y-3.9961
X5.0709Y-4.0669
X5.7047Y-3.9961
X5.7047Y-4.0669
X5.7835Y-3.9961
X5.7835Y-4.0669
X6.4173Y-3.9961
X6.4173Y-4.0669
X6.4961Y-3.9961
X6.4961Y-4.0669
T2
X2.7874Y-2.0157
X3.5315Y-4.1535
X6.3307Y-3.3346
X6.5433Y-2.0394
X6.563Y-5.2913
M30
